<?xml version="1.0" encoding="UTF-8" standalone="no"?>
<!-- Created with Inkscape (http://www.inkscape.org/) -->

<svg
   width="5mm"
   height="5mm"
   viewBox="0 0 5 5"
   version="1.1"
   id="svg1378"
   inkscape:version="1.1.2 (0a00cf5339, 2022-02-04)"
   sodipodi:docname="octopus.svg"
   inkscape:export-filename="/home/harry/Documents/twilight/pcb/octopus.png"
   inkscape:export-xdpi="2600.96"
   inkscape:export-ydpi="2600.96"
   xmlns:inkscape="http://www.inkscape.org/namespaces/inkscape"
   xmlns:sodipodi="http://sodipodi.sourceforge.net/DTD/sodipodi-0.dtd"
   xmlns="http://www.w3.org/2000/svg"
   xmlns:svg="http://www.w3.org/2000/svg">
  <sodipodi:namedview
     id="namedview1380"
     pagecolor="#000000"
     bordercolor="#eeeeee"
     borderopacity="1"
     inkscape:pageshadow="0"
     inkscape:pageopacity="0"
     inkscape:pagecheckerboard="0"
     inkscape:document-units="mm"
     showgrid="false"
     inkscape:zoom="45.254834"
     inkscape:cx="6.7064659"
     inkscape:cy="5.6126601"
     inkscape:window-width="1368"
     inkscape:window-height="843"
     inkscape:window-x="0"
     inkscape:window-y="0"
     inkscape:window-maximized="1"
     inkscape:current-layer="layer1" />
  <defs
     id="defs1375">
    <inkscape:path-effect
       effect="simplify"
       id="path-effect3283"
       is_visible="true"
       lpeversion="1"
       steps="1"
       threshold="0.00108696"
       smooth_angles="360"
       helper_size="0"
       simplify_individual_paths="false"
       simplify_just_coalesce="false" />
    <inkscape:path-effect
       effect="spiro"
       id="path-effect3251"
       is_visible="true"
       lpeversion="1" />
  </defs>
  <g
     inkscape:label="Layer 1"
     inkscape:groupmode="layer"
     id="layer1"
     style="display:inline">
    <path
       style="fill:none;stroke:#000000;stroke-width:0.264583px;stroke-linecap:butt;stroke-linejoin:miter;stroke-opacity:1"
       d="m 1.2119764,2.018039 c 0.410052,0.2222601 0.8742879,0.3887489 1.2155634,0.72087 0.1089149,0.1059934 0.2017937,0.232928 0.3143158,0.3352617 0.08539,0.077658 0.2149126,0.1288976 0.2809433,0.2298917 0.022397,0.034257 0.035065,0.091529 0.071485,0.1330415"
       id="path2520" />
    <path
       style="fill:none;fill-opacity:0.958667;stroke:#ffffff;stroke-width:0.2;stroke-miterlimit:4;stroke-dasharray:none"
       d="m 4.523424,3.7221747 c -0.00572,0.00225 -0.011461,0.00443 -0.017228,0.00654 C 4.476352,3.7396572 4.44585,3.7488445 4.414831,3.7557887 4.2547073,3.7916357 4.0839728,3.7657946 3.9346053,3.6978685 3.7852378,3.6299423 3.6564129,3.5216633 3.5511425,3.3957953 3.5213706,3.3601981 3.4933298,3.3231066 3.4682014,3.2840927 3.4069249,3.1889559 3.3630935,3.0817272 3.3474355,2.9696529 3.3417192,2.9287375 3.3397501,2.8873555 3.3401119,2.8460443 3.3416088,2.6751338 3.3827083,2.5074013 3.4206113,2.34074 3.4629934,2.1543838 3.5017695,1.9663616 3.5131035,1.7755831 3.5244375,1.5848047 3.5075431,1.3901551 3.4413467,1.2108706 3.3680274,1.0122946 3.235961,0.83841371 3.0766067,0.69907826 2.8977183,0.54266267 2.6820149,0.42701214 2.4505334,0.37331683 2.2190519,0.31962151 1.9720478,0.32898292 1.7481137,0.40848404 c -0.1091514,0.038751 -0.21469,0.095502 -0.2915306,0.18216903 -0.067196,0.075789 -0.1089537,0.17010917 -0.1610325,0.2569831 -0.030482,0.0508476 -0.064931,0.0998717 -0.08662,0.15504603 -0.016624,0.042289 -0.025338,0.087176 -0.036588,0.1312005 -0.012613,0.049355 -0.028534,0.098079 -0.035384,0.1485579 -0.00472,0.034809 -0.00507,0.070053 -0.00488,0.1051811 5.169e-4,0.093659 0.00498,0.1881972 0.029264,0.2786548 0.03035,0.1130488 0.090385,0.2153865 0.14518,0.3188209 0.076453,0.1443166 0.1438286,0.2934797 0.2256796,0.4348044 0.077169,0.1332413 0.1670513,0.2592456 0.2358755,0.3969829 0.068824,0.1377374 0.1164392,0.29125 0.1008379,0.4444327 -0.00424,0.041587 -0.013164,0.082905 -0.029297,0.1214683 -0.031787,0.075982 -0.090999,0.1388214 -0.1610325,0.1821691 -0.134691,0.083368 -0.3086102,0.094319 -0.4574459,0.040099 C 1.1226791,3.569185 1.0360465,3.5077207 0.94847201,3.4501719 0.86089753,3.3926231 0.76878258,3.3373961 0.66606906,3.3166335 c -0.0348457,-0.00704 -0.0709119,-0.00998 -0.10597447,-0.00411 -0.0350626,0.00587 -0.0691755,0.021022 -0.0940871,0.046385 -0.0161517,0.016444 -0.0280176,0.036631 -0.0378251,0.05749 -0.0238724,0.050773 -0.036402,0.1075833 -0.0307413,0.163402 0.005661,0.055819 0.0303765,0.1104095 0.0722118,0.1477938 0.0121049,0.010817 0.0255765,0.02018 0.0402665,0.02709 0.042003,0.019756 0.0910204,0.018238 0.13658654,0.00939 0.0455662,-0.00885 0.0896535,-0.024543 0.13544632,-0.032131 0.0546743,-0.00906 0.11050371,-0.00637 0.16591528,-0.00542 0.0719642,0.00124 0.14394174,-4.903e-4 0.21591394,-0.00111 0.045705,-3.935e-4 0.092288,-2.103e-4 0.1358128,0.013743 0.021762,0.00698 0.042566,0.017429 0.060132,0.032048 0.017566,0.014619 0.03181,0.033521 0.0395,0.055042 0.00496,0.013872 0.00715,0.028647 0.00732,0.043377 3.348e-4,0.029698 -0.00755,0.059181 -0.020633,0.085844 -0.013083,0.026663 -0.031254,0.050612 -0.051775,0.072082 -0.041042,0.042941 -0.091122,0.075955 -0.1374188,0.1131703 -0.067168,0.053992 -0.1282147,0.1195136 -0.1589229,0.2000347 -0.015354,0.040261 -0.022739,0.083845 -0.018868,0.1267603 0.00387,0.042915 0.019276,0.085088 0.046056,0.1188451 0.031861,0.040162 0.080726,0.06761 0.1319689,0.069142 0.025621,7.66e-4 0.051488,-0.00486 0.074184,-0.016775 0.022696,-0.011913 0.042128,-0.030149 0.054911,-0.052367 0.020762,-0.036089 0.022992,-0.079412 0.030501,-0.1203645 0.00572,-0.031183 0.01476,-0.061749 0.026822,-0.091068 0.022404,-0.054455 0.054933,-0.1040652 0.087824,-0.1529056 0.044657,-0.066311 0.091579,-0.1331857 0.156009,-0.1805153 0.032215,-0.023665 0.068636,-0.042085 0.1075871,-0.051066 0.038951,-0.00898 0.080506,-0.00824 0.1182331,0.00497 0.038008,0.013307 0.071441,0.039244 0.093944,0.07264 0.02781,0.04127 0.038417,0.092307 0.037825,0.1420699 -8.471e-4,0.071165 -0.023288,0.1405887 -0.053678,0.2049444 -0.015554,0.032939 -0.033395,0.065313 -0.04147,0.1008335 -0.00986,0.04338 -0.00421,0.090032 0.015234,0.1300471 0.01944,0.040015 0.052452,0.073188 0.092121,0.093325 0.039621,0.020113 0.086778,0.027104 0.1292968,0.0142 0.021259,-0.00645 0.041106,-0.017782 0.056991,-0.033314 0.015885,-0.015532 0.027727,-0.03529 0.033271,-0.056804 0.00768,-0.02979 0.00314,-0.061604 -0.00669,-0.090754 -0.00983,-0.02915 -0.024749,-0.056263 -0.038417,-0.083823 -0.02259,-0.04555 -0.042097,-0.093293 -0.049544,-0.1435888 -0.00745,-0.050296 -0.00207,-0.1036642 0.022688,-0.1480754 0.016113,-0.028908 0.039981,-0.053203 0.067666,-0.071338 0.027684,-0.018135 0.059111,-0.030219 0.091488,-0.037076 0.064754,-0.013715 0.1321878,-0.00668 0.1970574,0.00648 0.060093,0.012188 0.119668,0.0298 0.1732395,0.05963 0.043242,0.024078 0.083039,0.057083 0.1061175,0.1008668 0.022738,0.043137 0.027677,0.09432 0.019302,0.1423583 -0.00837,0.048039 -0.0294,0.093182 -0.05589,0.1341226 -0.02949,0.045577 -0.066229,0.087232 -0.086305,0.1376684 -0.010038,0.025219 -0.015663,0.052572 -0.013114,0.079595 0.00255,0.027023 0.013745,0.053684 0.033535,0.07226 0.014711,0.013809 0.033411,0.022647 0.052473,0.029263 0.054188,0.018808 0.1138743,0.021037 0.1695415,0.00721 0.055667,-0.013827 0.1071674,-0.043554 0.1476408,-0.084198 0.019079,-0.019159 0.036099,-0.041337 0.043912,-0.067222 0.00804,-0.026634 0.00576,-0.055481 -0.00124,-0.082406 -0.00953,-0.036633 -0.027401,-0.070451 -0.044691,-0.1041231 -0.01729,-0.033673 -0.034315,-0.068057 -0.041929,-0.1051356 -0.00891,-0.043378 -0.00407,-0.090055 0.016783,-0.1291197 0.020855,-0.039065 0.058292,-0.069707 0.1015748,-0.079069 0.039394,-0.00852 0.081264,6.551e-4 0.1167241,0.019813 0.03546,0.019158 0.065063,0.047715 0.090662,0.078847 0.045148,0.054908 0.078849,0.1182353 0.1207659,0.1756474 0.035072,0.048037 0.075712,0.091687 0.1158833,0.1355481 0.02308,0.025199 0.04619,0.05065 0.073209,0.07157 0.03084,0.023879 0.066819,0.0416 0.1051567,0.04878 0.038338,0.00718 0.079049,0.00348 0.1144027,-0.012995 0.02139,-0.00997 0.040642,-0.024491 0.056119,-0.042306 0.031496,-0.036252 0.046362,-0.085384 0.044969,-0.1333875 -0.00139,-0.048003 -0.018239,-0.094801 -0.043729,-0.1355016 -0.023689,-0.037825 -0.054933,-0.070934 -0.091503,-0.096519 -0.084184,-0.058897 -0.1910773,-0.075359 -0.2805941,-0.1257825 -0.02689,-0.015147 -0.052543,-0.033769 -0.07047,-0.058891 -0.00896,-0.012561 -0.015884,-0.026667 -0.019551,-0.041656 -0.00367,-0.014989 -0.00402,-0.030874 -2.448e-4,-0.045837 0.0044,-0.017448 0.014386,-0.033325 0.02767,-0.045463 0.013284,-0.012138 0.029778,-0.020584 0.047205,-0.025067 0.034855,-0.00897 0.072422,-0.00201 0.104961,0.013364 0.032539,0.015377 0.060666,0.038682 0.086848,0.063374 0.026182,0.024692 0.05085,0.051055 0.078557,0.074025 0.058081,0.048151 0.1285631,0.080293 0.2020063,0.097555 0.073443,0.017262 0.1498434,0.019973 0.2249722,0.013077 0.1171866,-0.010755 0.2363582,-0.047281 0.3220315,-0.1279564 0.027837,-0.026213 0.051596,-0.056571 0.071971,-0.088927 0.025142,-0.039927 0.045155,-0.082829 0.064681,-0.1257826 0.013657,-0.030044 0.027274,-0.060741 0.03135,-0.093491 0.00204,-0.016375 0.00162,-0.033156 -0.00238,-0.049166 -0.004,-0.01601 -0.011662,-0.031236 -0.023003,-0.043222 -0.01369,-0.014469 -0.032641,-0.02385 -0.052448,-0.025964 -0.019807,-0.00211 -0.04031,0.00306 -0.056745,0.014313 l -0.021974,0.01301 -0.035839,0.014291 z"
       id="path3249"
       inkscape:path-effect="#path-effect3251"
       inkscape:original-d="m 4.523424,3.7221747 c -0.00636,0.00237 -0.012055,0.00454 -0.017228,0.00654 -0.038381,0.014844 -0.048176,0.020339 -0.091365,0.027074 C 4.1129936,3.8028501 3.7487029,3.6167319 3.5511425,3.3957953 3.5202293,3.3612248 3.4947423,3.3221234 3.4682014,3.2840927 3.4162235,3.2096133 3.362217,3.0612297 3.3474355,2.9696529 3.340858,2.9289052 3.3416332,2.8872913 3.3401119,2.8460443 3.3338783,2.6770232 3.388324,2.5047857 3.4206113,2.34074 3.493327,1.9712854 3.5586889,1.5784212 3.4413467,1.2108706 3.3742902,1.0008327 3.2367717,0.84518372 3.0766067,0.69907826 2.7481284,0.39943471 2.1728445,0.21634147 1.7481137,0.40848404 1.6409371,0.45696933 1.542431,0.50874334 1.4565831,0.59065307 c -0.073316,0.0699527 -0.1096187,0.17184624 -0.1610325,0.2569831 -0.044982,0.0744856 -0.050416,0.0774445 -0.08662,0.15504603 -0.019093,0.040925 -0.025793,0.087518 -0.036588,0.1312005 -0.011825,0.047851 -0.026111,0.1001628 -0.035384,0.1485579 -0.0066,0.034471 -0.00406,0.070093 -0.00488,0.1051811 -0.00223,0.095018 0.00602,0.186382 0.029264,0.2786548 0.028604,0.113548 0.092887,0.215406 0.14518,0.3188209 0.073949,0.1462434 0.1415375,0.2938132 0.2256796,0.4348044 0.1438006,0.2409569 0.3865862,0.5401292 0.3367134,0.8414156 -0.00652,0.039387 -0.01387,0.084007 -0.029297,0.1214683 -0.030879,0.074983 -0.090911,0.1422427 -0.1610325,0.1821691 -0.15021,0.085528 -0.2917551,0.095508 -0.4574459,0.040099 C 1.0211184,3.538166 0.84911892,3.4174916 0.66606906,3.3166335 c -0.0877607,-0.048355 -0.13883391,-0.02304 -0.20006154,0.042273 -0.0154681,0.016499 -0.0303624,0.035945 -0.0378251,0.05749 -0.0358522,0.103505 -0.0300214,0.2248098 0.0414705,0.3111958 0.00998,0.01206 0.0246915,0.023963 0.0402665,0.02709 0.0926474,0.018595 0.18067313,-0.012824 0.27203286,-0.022741 0.0556656,-0.00604 0.11009201,-0.00393 0.16591528,-0.00542 0.0724047,-0.00193 0.14350604,-0.00826 0.21591394,-0.00111 0.085289,0.00843 0.1885436,0.019619 0.2354452,0.1008333 0.00575,0.00995 0.00732,0.039131 0.00732,0.043377 0,0.1257393 -0.1257313,0.2002885 -0.2098272,0.2710966 -0.1183084,0.099615 -0.25725139,0.2998883 -0.1317356,0.4456401 0.061024,0.070863 0.2040493,0.082859 0.2610633,0 0.022307,-0.032418 0.022281,-0.082999 0.030501,-0.1203645 0.00677,-0.03079 0.016376,-0.061335 0.026822,-0.091068 0.019849,-0.056498 0.05848,-0.1015545 0.087824,-0.1529056 0.092634,-0.1621095 0.1740404,-0.2838527 0.3818292,-0.2266159 0.04057,0.011176 0.074417,0.035585 0.093944,0.07264 0.02344,0.044479 0.044006,0.089911 0.037825,0.1420699 -0.00826,0.069731 -0.030377,0.1389922 -0.053678,0.2049444 -0.012038,0.034074 -0.030245,0.066502 -0.04147,0.1008335 -0.035168,0.1075557 -0.00705,0.1956017 0.107355,0.2233718 0.064066,0.01555 0.1910109,-0.00689 0.2195594,-0.075918 C 2.2396931,4.6074189 2.1907155,4.5376761 2.1714468,4.4887686 2.1413417,4.412357 2.1235283,4.2772758 2.1445913,4.1971044 2.185084,4.0429788 2.3845071,4.0668262 2.5008026,4.0951673 c 0.058314,0.014211 0.1211672,0.029084 0.1732395,0.05963 0.042652,0.025019 0.082812,0.056446 0.1061175,0.1008668 0.045318,0.086374 0.010964,0.1994943 -0.036588,0.2764809 -0.051208,0.082905 -0.1551947,0.1978901 -0.065884,0.289524 0.015417,0.015817 0.031925,0.022307 0.052473,0.029263 0.1184289,0.040095 0.2308485,0.013703 0.3171823,-0.076988 0.017039,-0.017899 0.038734,-0.042504 0.043912,-0.067222 0.00703,-0.033563 0.00724,-0.048504 -0.00124,-0.082406 -0.018502,-0.073945 -0.068376,-0.1353379 -0.08662,-0.2092587 -0.021775,-0.088225 5.557e-4,-0.2203508 0.1183582,-0.2081885 0.077135,0.00796 0.1523191,0.044153 0.2073857,0.09866 0.051697,0.051172 0.080562,0.1163616 0.1207659,0.1756474 0.033213,0.048978 0.07453,0.093651 0.1158833,0.1355481 0.018301,0.018542 0.049617,0.054095 0.073209,0.07157 0.061158,0.045301 0.1481151,0.066485 0.2195594,0.035785 0.019079,-0.0082 0.041795,-0.027983 0.056119,-0.042306 0.077865,-0.077865 0.055683,-0.185761 0.00124,-0.2688891 -0.024744,-0.037779 -0.051542,-0.07309 -0.091503,-0.096519 C 3.7344609,4.2636273 3.6317787,4.2466445 3.5438183,4.1905827 3.5263452,4.1794464 3.4027239,4.0805883 3.453553,4.0441988 c 0.1019895,-0.073016 0.2576301,0.038457 0.3452416,0.080232 0.1393703,0.066454 0.2676133,0.1299448 0.4269785,0.1106323 0.1015989,-0.012311 0.2442596,-0.056582 0.3220315,-0.1279564 0.030494,-0.027985 0.048962,-0.05609 0.071971,-0.088927 0.027884,-0.039795 0.050637,-0.079159 0.064681,-0.1257826 0.014444,-0.047951 0.054035,-0.2060681 0.00597,-0.1858787 -0.1995326,0.083814 -0.109193,-0.011651 -0.109193,-0.011651 -0.00311,0.00169 -0.2509906,0.071262 -0.021974,0.01301 -0.011851,-0.00476 -0.024458,0.020078 -0.035839,0.014291 z"
       sodipodi:nodetypes="cscssssscssscssccccsssscscsscccccsssscscsscscccsssscsscsscscsssscccssssssssscccc" />
    <path
       style="fill:none;fill-opacity:0.958667;stroke:#ffffff;stroke-width:0.089"
       d="M 1.9487194,0.89038856 C 1.858159,0.84966694 1.7010705,0.91721719 1.66029,0.99833447 1.536605,1.2443589 1.8590654,1.49383 2.0714161,1.3149815 2.2616871,1.1547293 2.0630064,0.92875977 1.9487194,0.89038856 Z"
       id="path3322"
       sodipodi:nodetypes="cssc" />
    <path
       style="fill:none;fill-opacity:0.958667;stroke:#ffffff;stroke-width:0.15;stroke-miterlimit:4;stroke-dasharray:none"
       d="M 2.9366937,2.1237227 C 2.9681517,2.5007827 2.3074763,2.2461639 2.4845071,1.9498156 2.4412641,2.0226226 2.453646,2.0063018 2.443805,2.0762279 2.3841,2.5004728 2.0261071,2.4271806 2.0164511,2.1226239"
       id="path3354"
       sodipodi:nodetypes="cccc" />
    <path
       style="fill:none;fill-opacity:0.958667;stroke:#ffffff;stroke-width:0.089"
       d="m 1.9281607,0.91011078 c -0.017966,0.003847 -0.034351,0.008278 -0.04684,0.0221522 -0.014317,0.0159049 -0.013093,0.038176 -0.013093,0.0584024 0,0.10432172 0.07215,0.14890792 0.163124,0.17923242 0.031946,0.010649 0.074401,0.024393 0.1077413,0.011078"
       id="path6440" />
    <path
       style="fill:none;fill-opacity:0.958667;stroke:#ffffff;stroke-width:0.089"
       d="m 1.9324159,0.930418 c -0.017315,0.0183295 -0.024765,0.0441674 -0.021147,0.0694765 0.00571,0.0399671 0.1052886,0.1194316 0.1449968,0.1268737 0.017216,0.00323 0.033696,-0.00515 0.049339,-0.00906"
       id="path6442" />
    <path
       style="fill:none;fill-opacity:0.958667;stroke:#ffffff;stroke-width:0.089"
       d="m 1.9751459,0.94307066 c -0.027963,-7.1702e-4 -0.032483,0.0332648 -0.016084,0.0503482 0.01366,0.0142309 0.086526,0.0711436 0.1057308,0.0795454 0.00696,0.00305 0.017063,0.00324 0.024167,0.00403"
       id="path6444" />
    <path
       style="fill:none;fill-opacity:0.958667;stroke:#ffffff;stroke-width:0.089"
       d="m 1.9751459,0.94307063 c 0.00181,0.0130188 0.00501,0.0251807 0.014017,0.0341913"
       id="path6446" />
    <path
       style="fill:none;fill-opacity:0.958667;stroke:#ffffff;stroke-width:0.089"
       d="m 1.9324159,0.930418 c 0.029153,0.0214565 0.05407,0.053618 0.078379,0.0779265"
       id="path6448" />
    <path
       style="display:inline;fill:none;fill-opacity:0.958667;stroke:#ffffff;stroke-width:0.089"
       d="M 2.7697227,0.93116797 C 2.6791623,0.89044637 2.5220738,0.95799657 2.4812933,1.0391139 2.3576083,1.2851384 2.6800687,1.5346095 2.8924194,1.355761 3.0826904,1.1955088 2.8840097,0.96953917 2.7697227,0.93116797 Z"
       id="path3322-6"
       sodipodi:nodetypes="cssc" />
    <path
       style="display:inline;fill:none;fill-opacity:0.958667;stroke:#ffffff;stroke-width:0.089"
       d="m 2.749164,0.95089017 c -0.017966,0.00385 -0.034351,0.00828 -0.04684,0.022152 -0.014317,0.015905 -0.013093,0.038176 -0.013093,0.058402 0,0.1043218 0.07215,0.148908 0.163124,0.1792325 0.031946,0.010649 0.074401,0.024393 0.1077413,0.011078"
       id="path6440-2" />
    <path
       style="display:inline;fill:none;fill-opacity:0.958667;stroke:#ffffff;stroke-width:0.089"
       d="m 2.7534192,0.97119747 c -0.017315,0.018329 -0.024765,0.044167 -0.021147,0.069476 0.00571,0.039967 0.1052886,0.1194316 0.1449968,0.1268737 0.017216,0.00323 0.033696,-0.00515 0.049339,-0.00906"
       id="path6442-9" />
    <path
       style="display:inline;fill:none;fill-opacity:0.958667;stroke:#ffffff;stroke-width:0.089"
       d="m 2.7961492,0.98385007 c -0.027963,-7.17e-4 -0.032483,0.033265 -0.016084,0.050348 0.01366,0.014231 0.086526,0.071144 0.1057308,0.079545 0.00696,0.00305 0.017063,0.00324 0.024167,0.00403"
       id="path6444-1" />
    <path
       style="display:inline;fill:none;fill-opacity:0.958667;stroke:#ffffff;stroke-width:0.089"
       d="m 2.7961492,0.98385007 c 0.00181,0.013019 0.00501,0.025181 0.014017,0.034191"
       id="path6446-2" />
    <path
       style="display:inline;fill:none;fill-opacity:0.958667;stroke:#ffffff;stroke-width:0.089"
       d="m 2.7534192,0.97119747 c 0.029153,0.021456 0.05407,0.053618 0.078379,0.077927"
       id="path6448-7" />
  </g>
</svg>
