%FSLAX45Y45*%
G04 Gerber Fmt 4.5, Leading zero omitted, Abs format (unit mm)*
G04 Created by KiCad (PCBNEW (6.0.1)) date 2022-02-11 20:30:37*
%MOMM*%
%LPD*%
G01*
G04 APERTURE LIST*
%TA.AperFunction,Profile*%
%ADD10C,0.100000*%
%TD*%
%ADD11C,0.200000*%
%ADD12C,0.160000*%
%ADD13C,0.320000*%
G04 APERTURE END LIST*
D10*
X13081000Y-5015500D02*
G75*
G03*
X13081000Y-5015500I0J0D01*
G01*
X7747000Y-8444500D02*
G75*
G03*
X8128000Y-8825500I381000J0D01*
G01*
X13589000Y-4761500D02*
G75*
G03*
X13208000Y-4380500I-381000J0D01*
G01*
X8128000Y-4380500D02*
G75*
G03*
X7747000Y-4761500I0J-381000D01*
G01*
X7747000Y-4761500D02*
X7747000Y-8444500D01*
X13589000Y-8444500D02*
X13589000Y-4761500D01*
X8128000Y-8825500D02*
X13208000Y-8825500D01*
X13208000Y-4380500D02*
X8128000Y-4380500D01*
X13208000Y-8825500D02*
G75*
G03*
X13589000Y-8444500I0J381000D01*
G01*
D11*
D12*
X11959600Y-8398000D02*
X12119600Y-8558000D01*
X12119600Y-8398000D02*
X11959600Y-8558000D01*
D13*
X8288000Y-4761500D02*
G75*
G03*
X8288000Y-4761500I-160000J0D01*
G01*
X8288000Y-8444500D02*
G75*
G03*
X8288000Y-8444500I-160000J0D01*
G01*
D11*
X7999619Y-9140976D02*
X7999619Y-8940976D01*
X8047238Y-8940976D01*
X8075809Y-8950500D01*
X8094857Y-8969548D01*
X8104381Y-8988595D01*
X8113905Y-9026690D01*
X8113905Y-9055262D01*
X8104381Y-9093357D01*
X8094857Y-9112405D01*
X8075809Y-9131452D01*
X8047238Y-9140976D01*
X7999619Y-9140976D01*
X8199619Y-9140976D02*
X8199619Y-9007643D01*
X8199619Y-9045738D02*
X8209143Y-9026690D01*
X8218667Y-9017167D01*
X8237714Y-9007643D01*
X8256762Y-9007643D01*
X8323428Y-9140976D02*
X8323428Y-9007643D01*
X8323428Y-8940976D02*
X8313905Y-8950500D01*
X8323428Y-8960024D01*
X8332952Y-8950500D01*
X8323428Y-8940976D01*
X8323428Y-8960024D01*
X8447238Y-9140976D02*
X8428190Y-9131452D01*
X8418667Y-9112405D01*
X8418667Y-8940976D01*
X8552000Y-9140976D02*
X8532952Y-9131452D01*
X8523429Y-9112405D01*
X8523429Y-8940976D01*
X8780571Y-9140976D02*
X8780571Y-8940976D01*
X8847238Y-9083833D01*
X8913905Y-8940976D01*
X8913905Y-9140976D01*
X9094857Y-9140976D02*
X9094857Y-9036214D01*
X9085333Y-9017167D01*
X9066286Y-9007643D01*
X9028190Y-9007643D01*
X9009143Y-9017167D01*
X9094857Y-9131452D02*
X9075810Y-9140976D01*
X9028190Y-9140976D01*
X9009143Y-9131452D01*
X8999619Y-9112405D01*
X8999619Y-9093357D01*
X9009143Y-9074310D01*
X9028190Y-9064786D01*
X9075810Y-9064786D01*
X9094857Y-9055262D01*
X9190095Y-9007643D02*
X9190095Y-9207643D01*
X9190095Y-9017167D02*
X9209143Y-9007643D01*
X9247238Y-9007643D01*
X9266286Y-9017167D01*
X9275810Y-9026690D01*
X9285333Y-9045738D01*
X9285333Y-9102881D01*
X9275810Y-9121929D01*
X9266286Y-9131452D01*
X9247238Y-9140976D01*
X9209143Y-9140976D01*
X9190095Y-9131452D01*
X9371048Y-9121929D02*
X9380571Y-9131452D01*
X9371048Y-9140976D01*
X9361524Y-9131452D01*
X9371048Y-9121929D01*
X9371048Y-9140976D01*
X9371048Y-9017167D02*
X9380571Y-9026690D01*
X9371048Y-9036214D01*
X9361524Y-9026690D01*
X9371048Y-9017167D01*
X9371048Y-9036214D01*
D12*
X7582000Y-9390500D02*
X7742000Y-9550500D01*
X7742000Y-9390500D02*
X7582000Y-9550500D01*
D11*
X8104381Y-9560976D02*
X7990095Y-9560976D01*
X8047238Y-9560976D02*
X8047238Y-9360976D01*
X8028190Y-9389548D01*
X8009143Y-9408595D01*
X7990095Y-9418119D01*
X8190095Y-9541929D02*
X8199619Y-9551452D01*
X8190095Y-9560976D01*
X8180571Y-9551452D01*
X8190095Y-9541929D01*
X8190095Y-9560976D01*
X8371048Y-9360976D02*
X8332952Y-9360976D01*
X8313905Y-9370500D01*
X8304381Y-9380024D01*
X8285333Y-9408595D01*
X8275809Y-9446690D01*
X8275809Y-9522881D01*
X8285333Y-9541929D01*
X8294857Y-9551452D01*
X8313905Y-9560976D01*
X8352000Y-9560976D01*
X8371048Y-9551452D01*
X8380571Y-9541929D01*
X8390095Y-9522881D01*
X8390095Y-9475262D01*
X8380571Y-9456214D01*
X8371048Y-9446690D01*
X8352000Y-9437167D01*
X8313905Y-9437167D01*
X8294857Y-9446690D01*
X8285333Y-9456214D01*
X8275809Y-9475262D01*
X8513905Y-9360976D02*
X8532952Y-9360976D01*
X8552000Y-9370500D01*
X8561524Y-9380024D01*
X8571048Y-9399071D01*
X8580571Y-9437167D01*
X8580571Y-9484786D01*
X8571048Y-9522881D01*
X8561524Y-9541929D01*
X8552000Y-9551452D01*
X8532952Y-9560976D01*
X8513905Y-9560976D01*
X8494857Y-9551452D01*
X8485333Y-9541929D01*
X8475810Y-9522881D01*
X8466286Y-9484786D01*
X8466286Y-9437167D01*
X8475810Y-9399071D01*
X8485333Y-9380024D01*
X8494857Y-9370500D01*
X8513905Y-9360976D01*
X8704381Y-9360976D02*
X8723429Y-9360976D01*
X8742476Y-9370500D01*
X8752000Y-9380024D01*
X8761524Y-9399071D01*
X8771048Y-9437167D01*
X8771048Y-9484786D01*
X8761524Y-9522881D01*
X8752000Y-9541929D01*
X8742476Y-9551452D01*
X8723429Y-9560976D01*
X8704381Y-9560976D01*
X8685333Y-9551452D01*
X8675810Y-9541929D01*
X8666286Y-9522881D01*
X8656762Y-9484786D01*
X8656762Y-9437167D01*
X8666286Y-9399071D01*
X8675810Y-9380024D01*
X8685333Y-9370500D01*
X8704381Y-9360976D01*
X8856762Y-9560976D02*
X8856762Y-9427643D01*
X8856762Y-9446690D02*
X8866286Y-9437167D01*
X8885333Y-9427643D01*
X8913905Y-9427643D01*
X8932952Y-9437167D01*
X8942476Y-9456214D01*
X8942476Y-9560976D01*
X8942476Y-9456214D02*
X8952000Y-9437167D01*
X8971048Y-9427643D01*
X8999619Y-9427643D01*
X9018667Y-9437167D01*
X9028190Y-9456214D01*
X9028190Y-9560976D01*
X9123429Y-9560976D02*
X9123429Y-9427643D01*
X9123429Y-9446690D02*
X9132952Y-9437167D01*
X9152000Y-9427643D01*
X9180571Y-9427643D01*
X9199619Y-9437167D01*
X9209143Y-9456214D01*
X9209143Y-9560976D01*
X9209143Y-9456214D02*
X9218667Y-9437167D01*
X9237714Y-9427643D01*
X9266286Y-9427643D01*
X9285333Y-9437167D01*
X9294857Y-9456214D01*
X9294857Y-9560976D01*
X9685333Y-9351452D02*
X9513905Y-9608595D01*
X9942476Y-9360976D02*
X9961524Y-9360976D01*
X9980571Y-9370500D01*
X9990095Y-9380024D01*
X9999619Y-9399071D01*
X10009143Y-9437167D01*
X10009143Y-9484786D01*
X9999619Y-9522881D01*
X9990095Y-9541929D01*
X9980571Y-9551452D01*
X9961524Y-9560976D01*
X9942476Y-9560976D01*
X9923429Y-9551452D01*
X9913905Y-9541929D01*
X9904381Y-9522881D01*
X9894857Y-9484786D01*
X9894857Y-9437167D01*
X9904381Y-9399071D01*
X9913905Y-9380024D01*
X9923429Y-9370500D01*
X9942476Y-9360976D01*
X10094857Y-9541929D02*
X10104381Y-9551452D01*
X10094857Y-9560976D01*
X10085333Y-9551452D01*
X10094857Y-9541929D01*
X10094857Y-9560976D01*
X10228190Y-9360976D02*
X10247238Y-9360976D01*
X10266286Y-9370500D01*
X10275810Y-9380024D01*
X10285333Y-9399071D01*
X10294857Y-9437167D01*
X10294857Y-9484786D01*
X10285333Y-9522881D01*
X10275810Y-9541929D01*
X10266286Y-9551452D01*
X10247238Y-9560976D01*
X10228190Y-9560976D01*
X10209143Y-9551452D01*
X10199619Y-9541929D01*
X10190095Y-9522881D01*
X10180571Y-9484786D01*
X10180571Y-9437167D01*
X10190095Y-9399071D01*
X10199619Y-9380024D01*
X10209143Y-9370500D01*
X10228190Y-9360976D01*
X10466286Y-9360976D02*
X10428190Y-9360976D01*
X10409143Y-9370500D01*
X10399619Y-9380024D01*
X10380571Y-9408595D01*
X10371048Y-9446690D01*
X10371048Y-9522881D01*
X10380571Y-9541929D01*
X10390095Y-9551452D01*
X10409143Y-9560976D01*
X10447238Y-9560976D01*
X10466286Y-9551452D01*
X10475810Y-9541929D01*
X10485333Y-9522881D01*
X10485333Y-9475262D01*
X10475810Y-9456214D01*
X10466286Y-9446690D01*
X10447238Y-9437167D01*
X10409143Y-9437167D01*
X10390095Y-9446690D01*
X10380571Y-9456214D01*
X10371048Y-9475262D01*
X10552000Y-9360976D02*
X10675810Y-9360976D01*
X10609143Y-9437167D01*
X10637714Y-9437167D01*
X10656762Y-9446690D01*
X10666286Y-9456214D01*
X10675810Y-9475262D01*
X10675810Y-9522881D01*
X10666286Y-9541929D01*
X10656762Y-9551452D01*
X10637714Y-9560976D01*
X10580571Y-9560976D01*
X10561524Y-9551452D01*
X10552000Y-9541929D01*
X10799619Y-9360976D02*
X10818667Y-9360976D01*
X10837714Y-9370500D01*
X10847238Y-9380024D01*
X10856762Y-9399071D01*
X10866286Y-9437167D01*
X10866286Y-9484786D01*
X10856762Y-9522881D01*
X10847238Y-9541929D01*
X10837714Y-9551452D01*
X10818667Y-9560976D01*
X10799619Y-9560976D01*
X10780571Y-9551452D01*
X10771048Y-9541929D01*
X10761524Y-9522881D01*
X10752000Y-9484786D01*
X10752000Y-9437167D01*
X10761524Y-9399071D01*
X10771048Y-9380024D01*
X10780571Y-9370500D01*
X10799619Y-9360976D01*
X10942476Y-9360976D02*
X10942476Y-9399071D01*
X11018667Y-9360976D02*
X11018667Y-9399071D01*
X11313905Y-9637167D02*
X11304381Y-9627643D01*
X11285333Y-9599071D01*
X11275809Y-9580024D01*
X11266286Y-9551452D01*
X11256762Y-9503833D01*
X11256762Y-9465738D01*
X11266286Y-9418119D01*
X11275809Y-9389548D01*
X11285333Y-9370500D01*
X11304381Y-9341929D01*
X11313905Y-9332405D01*
X11494857Y-9560976D02*
X11380571Y-9560976D01*
X11437714Y-9560976D02*
X11437714Y-9360976D01*
X11418667Y-9389548D01*
X11399619Y-9408595D01*
X11380571Y-9418119D01*
X11732952Y-9560976D02*
X11732952Y-9360976D01*
X11818667Y-9560976D02*
X11818667Y-9456214D01*
X11809143Y-9437167D01*
X11790095Y-9427643D01*
X11761524Y-9427643D01*
X11742476Y-9437167D01*
X11732952Y-9446690D01*
X11942476Y-9560976D02*
X11923428Y-9551452D01*
X11913905Y-9541929D01*
X11904381Y-9522881D01*
X11904381Y-9465738D01*
X11913905Y-9446690D01*
X11923428Y-9437167D01*
X11942476Y-9427643D01*
X11971048Y-9427643D01*
X11990095Y-9437167D01*
X11999619Y-9446690D01*
X12009143Y-9465738D01*
X12009143Y-9522881D01*
X11999619Y-9541929D01*
X11990095Y-9551452D01*
X11971048Y-9560976D01*
X11942476Y-9560976D01*
X12123428Y-9560976D02*
X12104381Y-9551452D01*
X12094857Y-9532405D01*
X12094857Y-9360976D01*
X12275809Y-9551452D02*
X12256762Y-9560976D01*
X12218667Y-9560976D01*
X12199619Y-9551452D01*
X12190095Y-9532405D01*
X12190095Y-9456214D01*
X12199619Y-9437167D01*
X12218667Y-9427643D01*
X12256762Y-9427643D01*
X12275809Y-9437167D01*
X12285333Y-9456214D01*
X12285333Y-9475262D01*
X12190095Y-9494310D01*
X12352000Y-9637167D02*
X12361524Y-9627643D01*
X12380571Y-9599071D01*
X12390095Y-9580024D01*
X12399619Y-9551452D01*
X12409143Y-9503833D01*
X12409143Y-9465738D01*
X12399619Y-9418119D01*
X12390095Y-9389548D01*
X12380571Y-9370500D01*
X12361524Y-9341929D01*
X12352000Y-9332405D01*
X12713905Y-9637167D02*
X12704381Y-9627643D01*
X12685333Y-9599071D01*
X12675809Y-9580024D01*
X12666286Y-9551452D01*
X12656762Y-9503833D01*
X12656762Y-9465738D01*
X12666286Y-9418119D01*
X12675809Y-9389548D01*
X12685333Y-9370500D01*
X12704381Y-9341929D01*
X12713905Y-9332405D01*
X12790095Y-9427643D02*
X12790095Y-9560976D01*
X12790095Y-9446690D02*
X12799619Y-9437167D01*
X12818667Y-9427643D01*
X12847238Y-9427643D01*
X12866286Y-9437167D01*
X12875809Y-9456214D01*
X12875809Y-9560976D01*
X12999619Y-9560976D02*
X12980571Y-9551452D01*
X12971048Y-9541929D01*
X12961524Y-9522881D01*
X12961524Y-9465738D01*
X12971048Y-9446690D01*
X12980571Y-9437167D01*
X12999619Y-9427643D01*
X13028190Y-9427643D01*
X13047238Y-9437167D01*
X13056762Y-9446690D01*
X13066286Y-9465738D01*
X13066286Y-9522881D01*
X13056762Y-9541929D01*
X13047238Y-9551452D01*
X13028190Y-9560976D01*
X12999619Y-9560976D01*
X13123428Y-9427643D02*
X13199619Y-9427643D01*
X13152000Y-9360976D02*
X13152000Y-9532405D01*
X13161524Y-9551452D01*
X13180571Y-9560976D01*
X13199619Y-9560976D01*
X13418667Y-9427643D02*
X13418667Y-9627643D01*
X13418667Y-9437167D02*
X13437714Y-9427643D01*
X13475809Y-9427643D01*
X13494857Y-9437167D01*
X13504381Y-9446690D01*
X13513905Y-9465738D01*
X13513905Y-9522881D01*
X13504381Y-9541929D01*
X13494857Y-9551452D01*
X13475809Y-9560976D01*
X13437714Y-9560976D01*
X13418667Y-9551452D01*
X13628190Y-9560976D02*
X13609143Y-9551452D01*
X13599619Y-9532405D01*
X13599619Y-9360976D01*
X13790095Y-9560976D02*
X13790095Y-9456214D01*
X13780571Y-9437167D01*
X13761524Y-9427643D01*
X13723428Y-9427643D01*
X13704381Y-9437167D01*
X13790095Y-9551452D02*
X13771048Y-9560976D01*
X13723428Y-9560976D01*
X13704381Y-9551452D01*
X13694857Y-9532405D01*
X13694857Y-9513357D01*
X13704381Y-9494310D01*
X13723428Y-9484786D01*
X13771048Y-9484786D01*
X13790095Y-9475262D01*
X13856762Y-9427643D02*
X13932952Y-9427643D01*
X13885333Y-9360976D02*
X13885333Y-9532405D01*
X13894857Y-9551452D01*
X13913905Y-9560976D01*
X13932952Y-9560976D01*
X14075809Y-9551452D02*
X14056762Y-9560976D01*
X14018667Y-9560976D01*
X13999619Y-9551452D01*
X13990095Y-9532405D01*
X13990095Y-9456214D01*
X13999619Y-9437167D01*
X14018667Y-9427643D01*
X14056762Y-9427643D01*
X14075809Y-9437167D01*
X14085333Y-9456214D01*
X14085333Y-9475262D01*
X13990095Y-9494310D01*
X14256762Y-9560976D02*
X14256762Y-9360976D01*
X14256762Y-9551452D02*
X14237714Y-9560976D01*
X14199619Y-9560976D01*
X14180571Y-9551452D01*
X14171048Y-9541929D01*
X14161524Y-9522881D01*
X14161524Y-9465738D01*
X14171048Y-9446690D01*
X14180571Y-9437167D01*
X14199619Y-9427643D01*
X14237714Y-9427643D01*
X14256762Y-9437167D01*
X14332952Y-9637167D02*
X14342476Y-9627643D01*
X14361524Y-9599071D01*
X14371048Y-9580024D01*
X14380571Y-9551452D01*
X14390095Y-9503833D01*
X14390095Y-9465738D01*
X14380571Y-9418119D01*
X14371048Y-9389548D01*
X14361524Y-9370500D01*
X14342476Y-9341929D01*
X14332952Y-9332405D01*
X7742000Y-9750500D02*
G75*
G03*
X7742000Y-9750500I-100000J0D01*
G01*
X7980571Y-9640976D02*
X8104381Y-9640976D01*
X8037714Y-9717167D01*
X8066286Y-9717167D01*
X8085333Y-9726690D01*
X8094857Y-9736214D01*
X8104381Y-9755262D01*
X8104381Y-9802881D01*
X8094857Y-9821929D01*
X8085333Y-9831452D01*
X8066286Y-9840976D01*
X8009143Y-9840976D01*
X7990095Y-9831452D01*
X7980571Y-9821929D01*
X8190095Y-9821929D02*
X8199619Y-9831452D01*
X8190095Y-9840976D01*
X8180571Y-9831452D01*
X8190095Y-9821929D01*
X8190095Y-9840976D01*
X8275809Y-9660024D02*
X8285333Y-9650500D01*
X8304381Y-9640976D01*
X8352000Y-9640976D01*
X8371048Y-9650500D01*
X8380571Y-9660024D01*
X8390095Y-9679071D01*
X8390095Y-9698119D01*
X8380571Y-9726690D01*
X8266286Y-9840976D01*
X8390095Y-9840976D01*
X8513905Y-9640976D02*
X8532952Y-9640976D01*
X8552000Y-9650500D01*
X8561524Y-9660024D01*
X8571048Y-9679071D01*
X8580571Y-9717167D01*
X8580571Y-9764786D01*
X8571048Y-9802881D01*
X8561524Y-9821929D01*
X8552000Y-9831452D01*
X8532952Y-9840976D01*
X8513905Y-9840976D01*
X8494857Y-9831452D01*
X8485333Y-9821929D01*
X8475810Y-9802881D01*
X8466286Y-9764786D01*
X8466286Y-9717167D01*
X8475810Y-9679071D01*
X8485333Y-9660024D01*
X8494857Y-9650500D01*
X8513905Y-9640976D01*
X8704381Y-9640976D02*
X8723429Y-9640976D01*
X8742476Y-9650500D01*
X8752000Y-9660024D01*
X8761524Y-9679071D01*
X8771048Y-9717167D01*
X8771048Y-9764786D01*
X8761524Y-9802881D01*
X8752000Y-9821929D01*
X8742476Y-9831452D01*
X8723429Y-9840976D01*
X8704381Y-9840976D01*
X8685333Y-9831452D01*
X8675810Y-9821929D01*
X8666286Y-9802881D01*
X8656762Y-9764786D01*
X8656762Y-9717167D01*
X8666286Y-9679071D01*
X8675810Y-9660024D01*
X8685333Y-9650500D01*
X8704381Y-9640976D01*
X8856762Y-9840976D02*
X8856762Y-9707643D01*
X8856762Y-9726690D02*
X8866286Y-9717167D01*
X8885333Y-9707643D01*
X8913905Y-9707643D01*
X8932952Y-9717167D01*
X8942476Y-9736214D01*
X8942476Y-9840976D01*
X8942476Y-9736214D02*
X8952000Y-9717167D01*
X8971048Y-9707643D01*
X8999619Y-9707643D01*
X9018667Y-9717167D01*
X9028190Y-9736214D01*
X9028190Y-9840976D01*
X9123429Y-9840976D02*
X9123429Y-9707643D01*
X9123429Y-9726690D02*
X9132952Y-9717167D01*
X9152000Y-9707643D01*
X9180571Y-9707643D01*
X9199619Y-9717167D01*
X9209143Y-9736214D01*
X9209143Y-9840976D01*
X9209143Y-9736214D02*
X9218667Y-9717167D01*
X9237714Y-9707643D01*
X9266286Y-9707643D01*
X9285333Y-9717167D01*
X9294857Y-9736214D01*
X9294857Y-9840976D01*
X9685333Y-9631452D02*
X9513905Y-9888595D01*
X9942476Y-9640976D02*
X9961524Y-9640976D01*
X9980571Y-9650500D01*
X9990095Y-9660024D01*
X9999619Y-9679071D01*
X10009143Y-9717167D01*
X10009143Y-9764786D01*
X9999619Y-9802881D01*
X9990095Y-9821929D01*
X9980571Y-9831452D01*
X9961524Y-9840976D01*
X9942476Y-9840976D01*
X9923429Y-9831452D01*
X9913905Y-9821929D01*
X9904381Y-9802881D01*
X9894857Y-9764786D01*
X9894857Y-9717167D01*
X9904381Y-9679071D01*
X9913905Y-9660024D01*
X9923429Y-9650500D01*
X9942476Y-9640976D01*
X10094857Y-9821929D02*
X10104381Y-9831452D01*
X10094857Y-9840976D01*
X10085333Y-9831452D01*
X10094857Y-9821929D01*
X10094857Y-9840976D01*
X10294857Y-9840976D02*
X10180571Y-9840976D01*
X10237714Y-9840976D02*
X10237714Y-9640976D01*
X10218667Y-9669548D01*
X10199619Y-9688595D01*
X10180571Y-9698119D01*
X10371048Y-9660024D02*
X10380571Y-9650500D01*
X10399619Y-9640976D01*
X10447238Y-9640976D01*
X10466286Y-9650500D01*
X10475810Y-9660024D01*
X10485333Y-9679071D01*
X10485333Y-9698119D01*
X10475810Y-9726690D01*
X10361524Y-9840976D01*
X10485333Y-9840976D01*
X10656762Y-9640976D02*
X10618667Y-9640976D01*
X10599619Y-9650500D01*
X10590095Y-9660024D01*
X10571048Y-9688595D01*
X10561524Y-9726690D01*
X10561524Y-9802881D01*
X10571048Y-9821929D01*
X10580571Y-9831452D01*
X10599619Y-9840976D01*
X10637714Y-9840976D01*
X10656762Y-9831452D01*
X10666286Y-9821929D01*
X10675810Y-9802881D01*
X10675810Y-9755262D01*
X10666286Y-9736214D01*
X10656762Y-9726690D01*
X10637714Y-9717167D01*
X10599619Y-9717167D01*
X10580571Y-9726690D01*
X10571048Y-9736214D01*
X10561524Y-9755262D01*
X10799619Y-9640976D02*
X10818667Y-9640976D01*
X10837714Y-9650500D01*
X10847238Y-9660024D01*
X10856762Y-9679071D01*
X10866286Y-9717167D01*
X10866286Y-9764786D01*
X10856762Y-9802881D01*
X10847238Y-9821929D01*
X10837714Y-9831452D01*
X10818667Y-9840976D01*
X10799619Y-9840976D01*
X10780571Y-9831452D01*
X10771048Y-9821929D01*
X10761524Y-9802881D01*
X10752000Y-9764786D01*
X10752000Y-9717167D01*
X10761524Y-9679071D01*
X10771048Y-9660024D01*
X10780571Y-9650500D01*
X10799619Y-9640976D01*
X10942476Y-9640976D02*
X10942476Y-9679071D01*
X11018667Y-9640976D02*
X11018667Y-9679071D01*
X11313905Y-9917167D02*
X11304381Y-9907643D01*
X11285333Y-9879071D01*
X11275809Y-9860024D01*
X11266286Y-9831452D01*
X11256762Y-9783833D01*
X11256762Y-9745738D01*
X11266286Y-9698119D01*
X11275809Y-9669548D01*
X11285333Y-9650500D01*
X11304381Y-9621929D01*
X11313905Y-9612405D01*
X11380571Y-9660024D02*
X11390095Y-9650500D01*
X11409143Y-9640976D01*
X11456762Y-9640976D01*
X11475809Y-9650500D01*
X11485333Y-9660024D01*
X11494857Y-9679071D01*
X11494857Y-9698119D01*
X11485333Y-9726690D01*
X11371048Y-9840976D01*
X11494857Y-9840976D01*
X11732952Y-9840976D02*
X11732952Y-9640976D01*
X11818667Y-9840976D02*
X11818667Y-9736214D01*
X11809143Y-9717167D01*
X11790095Y-9707643D01*
X11761524Y-9707643D01*
X11742476Y-9717167D01*
X11732952Y-9726690D01*
X11942476Y-9840976D02*
X11923428Y-9831452D01*
X11913905Y-9821929D01*
X11904381Y-9802881D01*
X11904381Y-9745738D01*
X11913905Y-9726690D01*
X11923428Y-9717167D01*
X11942476Y-9707643D01*
X11971048Y-9707643D01*
X11990095Y-9717167D01*
X11999619Y-9726690D01*
X12009143Y-9745738D01*
X12009143Y-9802881D01*
X11999619Y-9821929D01*
X11990095Y-9831452D01*
X11971048Y-9840976D01*
X11942476Y-9840976D01*
X12123428Y-9840976D02*
X12104381Y-9831452D01*
X12094857Y-9812405D01*
X12094857Y-9640976D01*
X12275809Y-9831452D02*
X12256762Y-9840976D01*
X12218667Y-9840976D01*
X12199619Y-9831452D01*
X12190095Y-9812405D01*
X12190095Y-9736214D01*
X12199619Y-9717167D01*
X12218667Y-9707643D01*
X12256762Y-9707643D01*
X12275809Y-9717167D01*
X12285333Y-9736214D01*
X12285333Y-9755262D01*
X12190095Y-9774310D01*
X12361524Y-9831452D02*
X12380571Y-9840976D01*
X12418667Y-9840976D01*
X12437714Y-9831452D01*
X12447238Y-9812405D01*
X12447238Y-9802881D01*
X12437714Y-9783833D01*
X12418667Y-9774310D01*
X12390095Y-9774310D01*
X12371048Y-9764786D01*
X12361524Y-9745738D01*
X12361524Y-9736214D01*
X12371048Y-9717167D01*
X12390095Y-9707643D01*
X12418667Y-9707643D01*
X12437714Y-9717167D01*
X12513905Y-9917167D02*
X12523428Y-9907643D01*
X12542476Y-9879071D01*
X12552000Y-9860024D01*
X12561524Y-9831452D01*
X12571048Y-9783833D01*
X12571048Y-9745738D01*
X12561524Y-9698119D01*
X12552000Y-9669548D01*
X12542476Y-9650500D01*
X12523428Y-9621929D01*
X12513905Y-9612405D01*
X12875809Y-9917167D02*
X12866286Y-9907643D01*
X12847238Y-9879071D01*
X12837714Y-9860024D01*
X12828190Y-9831452D01*
X12818667Y-9783833D01*
X12818667Y-9745738D01*
X12828190Y-9698119D01*
X12837714Y-9669548D01*
X12847238Y-9650500D01*
X12866286Y-9621929D01*
X12875809Y-9612405D01*
X12952000Y-9707643D02*
X12952000Y-9840976D01*
X12952000Y-9726690D02*
X12961524Y-9717167D01*
X12980571Y-9707643D01*
X13009143Y-9707643D01*
X13028190Y-9717167D01*
X13037714Y-9736214D01*
X13037714Y-9840976D01*
X13161524Y-9840976D02*
X13142476Y-9831452D01*
X13132952Y-9821929D01*
X13123428Y-9802881D01*
X13123428Y-9745738D01*
X13132952Y-9726690D01*
X13142476Y-9717167D01*
X13161524Y-9707643D01*
X13190095Y-9707643D01*
X13209143Y-9717167D01*
X13218667Y-9726690D01*
X13228190Y-9745738D01*
X13228190Y-9802881D01*
X13218667Y-9821929D01*
X13209143Y-9831452D01*
X13190095Y-9840976D01*
X13161524Y-9840976D01*
X13285333Y-9707643D02*
X13361524Y-9707643D01*
X13313905Y-9640976D02*
X13313905Y-9812405D01*
X13323428Y-9831452D01*
X13342476Y-9840976D01*
X13361524Y-9840976D01*
X13580571Y-9707643D02*
X13580571Y-9907643D01*
X13580571Y-9717167D02*
X13599619Y-9707643D01*
X13637714Y-9707643D01*
X13656762Y-9717167D01*
X13666286Y-9726690D01*
X13675809Y-9745738D01*
X13675809Y-9802881D01*
X13666286Y-9821929D01*
X13656762Y-9831452D01*
X13637714Y-9840976D01*
X13599619Y-9840976D01*
X13580571Y-9831452D01*
X13790095Y-9840976D02*
X13771048Y-9831452D01*
X13761524Y-9812405D01*
X13761524Y-9640976D01*
X13952000Y-9840976D02*
X13952000Y-9736214D01*
X13942476Y-9717167D01*
X13923428Y-9707643D01*
X13885333Y-9707643D01*
X13866286Y-9717167D01*
X13952000Y-9831452D02*
X13932952Y-9840976D01*
X13885333Y-9840976D01*
X13866286Y-9831452D01*
X13856762Y-9812405D01*
X13856762Y-9793357D01*
X13866286Y-9774310D01*
X13885333Y-9764786D01*
X13932952Y-9764786D01*
X13952000Y-9755262D01*
X14018667Y-9707643D02*
X14094857Y-9707643D01*
X14047238Y-9640976D02*
X14047238Y-9812405D01*
X14056762Y-9831452D01*
X14075809Y-9840976D01*
X14094857Y-9840976D01*
X14237714Y-9831452D02*
X14218667Y-9840976D01*
X14180571Y-9840976D01*
X14161524Y-9831452D01*
X14152000Y-9812405D01*
X14152000Y-9736214D01*
X14161524Y-9717167D01*
X14180571Y-9707643D01*
X14218667Y-9707643D01*
X14237714Y-9717167D01*
X14247238Y-9736214D01*
X14247238Y-9755262D01*
X14152000Y-9774310D01*
X14418667Y-9840976D02*
X14418667Y-9640976D01*
X14418667Y-9831452D02*
X14399619Y-9840976D01*
X14361524Y-9840976D01*
X14342476Y-9831452D01*
X14332952Y-9821929D01*
X14323428Y-9802881D01*
X14323428Y-9745738D01*
X14332952Y-9726690D01*
X14342476Y-9717167D01*
X14361524Y-9707643D01*
X14399619Y-9707643D01*
X14418667Y-9717167D01*
X14494857Y-9917167D02*
X14504381Y-9907643D01*
X14523428Y-9879071D01*
X14532952Y-9860024D01*
X14542476Y-9831452D01*
X14552000Y-9783833D01*
X14552000Y-9745738D01*
X14542476Y-9698119D01*
X14532952Y-9669548D01*
X14523428Y-9650500D01*
X14504381Y-9621929D01*
X14494857Y-9612405D01*
M02*
