%TF.GenerationSoftware,KiCad,Pcbnew,(6.0.1)*%
%TF.CreationDate,2022-02-11T20:29:18+00:00*%
%TF.ProjectId,pcb,7063622e-6b69-4636-9164-5f7063625858,rev?*%
%TF.SameCoordinates,Original*%
%TF.FileFunction,Copper,L1,Top*%
%TF.FilePolarity,Positive*%
%FSLAX46Y46*%
G04 Gerber Fmt 4.6, Leading zero omitted, Abs format (unit mm)*
G04 Created by KiCad (PCBNEW (6.0.1)) date 2022-02-11 20:29:18*
%MOMM*%
%LPD*%
G01*
G04 APERTURE LIST*
G04 Aperture macros list*
%AMRoundRect*
0 Rectangle with rounded corners*
0 $1 Rounding radius*
0 $2 $3 $4 $5 $6 $7 $8 $9 X,Y pos of 4 corners*
0 Add a 4 corners polygon primitive as box body*
4,1,4,$2,$3,$4,$5,$6,$7,$8,$9,$2,$3,0*
0 Add four circle primitives for the rounded corners*
1,1,$1+$1,$2,$3*
1,1,$1+$1,$4,$5*
1,1,$1+$1,$6,$7*
1,1,$1+$1,$8,$9*
0 Add four rect primitives between the rounded corners*
20,1,$1+$1,$2,$3,$4,$5,0*
20,1,$1+$1,$4,$5,$6,$7,0*
20,1,$1+$1,$6,$7,$8,$9,0*
20,1,$1+$1,$8,$9,$2,$3,0*%
G04 Aperture macros list end*
%TA.AperFunction,ComponentPad*%
%ADD10R,1.600000X1.600000*%
%TD*%
%TA.AperFunction,ComponentPad*%
%ADD11O,1.600000X1.600000*%
%TD*%
%TA.AperFunction,ComponentPad*%
%ADD12C,1.800000*%
%TD*%
%TA.AperFunction,SMDPad,CuDef*%
%ADD13RoundRect,0.250000X-0.412500X-0.650000X0.412500X-0.650000X0.412500X0.650000X-0.412500X0.650000X0*%
%TD*%
%TA.AperFunction,SMDPad,CuDef*%
%ADD14R,1.900000X1.500000*%
%TD*%
%TA.AperFunction,SMDPad,CuDef*%
%ADD15RoundRect,0.250000X-0.400000X-0.625000X0.400000X-0.625000X0.400000X0.625000X-0.400000X0.625000X0*%
%TD*%
%TA.AperFunction,SMDPad,CuDef*%
%ADD16RoundRect,0.250000X0.412500X0.650000X-0.412500X0.650000X-0.412500X-0.650000X0.412500X-0.650000X0*%
%TD*%
%TA.AperFunction,ComponentPad*%
%ADD17O,2.000000X3.500000*%
%TD*%
%TA.AperFunction,ComponentPad*%
%ADD18O,3.300000X2.000000*%
%TD*%
%TA.AperFunction,ComponentPad*%
%ADD19R,4.000000X2.000000*%
%TD*%
%TA.AperFunction,SMDPad,CuDef*%
%ADD20R,0.900000X2.000000*%
%TD*%
%TA.AperFunction,SMDPad,CuDef*%
%ADD21R,2.000000X0.900000*%
%TD*%
%TA.AperFunction,SMDPad,CuDef*%
%ADD22R,5.000000X5.000000*%
%TD*%
%TA.AperFunction,SMDPad,CuDef*%
%ADD23RoundRect,0.250001X-0.624999X0.462499X-0.624999X-0.462499X0.624999X-0.462499X0.624999X0.462499X0*%
%TD*%
%TA.AperFunction,ComponentPad*%
%ADD24C,1.600000*%
%TD*%
%TA.AperFunction,ComponentPad*%
%ADD25R,1.700000X1.700000*%
%TD*%
%TA.AperFunction,ComponentPad*%
%ADD26O,1.700000X1.700000*%
%TD*%
%TA.AperFunction,ComponentPad*%
%ADD27C,6.400000*%
%TD*%
%TA.AperFunction,SMDPad,CuDef*%
%ADD28RoundRect,0.250000X0.400000X0.625000X-0.400000X0.625000X-0.400000X-0.625000X0.400000X-0.625000X0*%
%TD*%
%TA.AperFunction,ComponentPad*%
%ADD29R,2.500000X1.500000*%
%TD*%
%TA.AperFunction,ComponentPad*%
%ADD30O,2.500000X1.500000*%
%TD*%
%TA.AperFunction,ViaPad*%
%ADD31C,0.800000*%
%TD*%
%TA.AperFunction,Conductor*%
%ADD32C,0.300000*%
%TD*%
%TA.AperFunction,Conductor*%
%ADD33C,1.000000*%
%TD*%
%TA.AperFunction,Conductor*%
%ADD34C,2.000000*%
%TD*%
%TA.AperFunction,Conductor*%
%ADD35C,0.600000*%
%TD*%
G04 APERTURE END LIST*
D10*
%TO.P,A1,1,GND*%
%TO.N,GND*%
X109474000Y-70856000D03*
D11*
%TO.P,A1,2,~{FLT}*%
%TO.N,+3V3*%
X112014000Y-70856000D03*
%TO.P,A1,3,A2*%
%TO.N,/A2*%
X114554000Y-70856000D03*
%TO.P,A1,4,A1*%
%TO.N,/A1*%
X117094000Y-70856000D03*
%TO.P,A1,5,B1*%
%TO.N,/B1*%
X119634000Y-70856000D03*
%TO.P,A1,6,B2*%
%TO.N,/B2*%
X122174000Y-70856000D03*
%TO.P,A1,7,GND*%
%TO.N,GND*%
X124714000Y-70856000D03*
%TO.P,A1,8,VMOT*%
%TO.N,+12V*%
X127254000Y-70856000D03*
%TO.P,A1,9,~{EN}*%
%TO.N,unconnected-(A1-Pad9)*%
X127254000Y-58156000D03*
%TO.P,A1,10,M0*%
%TO.N,unconnected-(A1-Pad10)*%
X124714000Y-58156000D03*
%TO.P,A1,11,M1*%
%TO.N,unconnected-(A1-Pad11)*%
X122174000Y-58156000D03*
%TO.P,A1,12,M2*%
%TO.N,unconnected-(A1-Pad12)*%
X119634000Y-58156000D03*
%TO.P,A1,13,~{RST}*%
%TO.N,unconnected-(A1-Pad13)*%
X117094000Y-58156000D03*
%TO.P,A1,14,~{SLP}*%
%TO.N,/SLP*%
X114554000Y-58156000D03*
%TO.P,A1,15,STEP*%
%TO.N,/STEP*%
X112014000Y-58156000D03*
%TO.P,A1,16,DIR*%
%TO.N,/DIR*%
X109474000Y-58156000D03*
%TD*%
D12*
%TO.P,SW1,1,1*%
%TO.N,/EN*%
X114681000Y-52819000D03*
%TO.P,SW1,2,2*%
%TO.N,GND*%
X114681000Y-46419000D03*
%TD*%
D13*
%TO.P,C6,2*%
%TO.N,GND*%
X112243400Y-84836000D03*
%TO.P,C6,1*%
%TO.N,Net-(C6-Pad1)*%
X109118400Y-84836000D03*
%TD*%
D14*
%TO.P,L1,1,1*%
%TO.N,+12V*%
X112832500Y-80553400D03*
%TO.P,L1,2,2*%
%TO.N,Net-(C6-Pad1)*%
X108732500Y-80553400D03*
%TD*%
D15*
%TO.P,R2,1*%
%TO.N,+3V3*%
X125450000Y-53340000D03*
%TO.P,R2,2*%
%TO.N,Net-(D1-Pad2)*%
X128550000Y-53340000D03*
%TD*%
D16*
%TO.P,C5,1*%
%TO.N,+12V*%
X112345000Y-76200000D03*
%TO.P,C5,2*%
%TO.N,GND*%
X109220000Y-76200000D03*
%TD*%
D17*
%TO.P,J2,MP*%
%TO.N,N/C*%
X115896000Y-82780000D03*
X124896000Y-82780000D03*
D18*
%TO.P,J2,2*%
%TO.N,GND*%
X120396000Y-81780000D03*
D19*
%TO.P,J2,1*%
%TO.N,+12V*%
X120396000Y-75780000D03*
%TD*%
D20*
%TO.P,U1,1,GND*%
%TO.N,GND*%
X86505400Y-72092200D03*
%TO.P,U1,2,VDD*%
%TO.N,+3V3*%
X87775400Y-72092200D03*
%TO.P,U1,3,EN*%
%TO.N,/EN*%
X89045400Y-72092200D03*
%TO.P,U1,4,SENSOR_VP*%
%TO.N,unconnected-(U1-Pad4)*%
X90315400Y-72092200D03*
%TO.P,U1,5,SENSOR_VN*%
%TO.N,unconnected-(U1-Pad5)*%
X91585400Y-72092200D03*
%TO.P,U1,6,IO34*%
%TO.N,unconnected-(U1-Pad6)*%
X92855400Y-72092200D03*
%TO.P,U1,7,IO35*%
%TO.N,unconnected-(U1-Pad7)*%
X94125400Y-72092200D03*
%TO.P,U1,8,IO32*%
%TO.N,unconnected-(U1-Pad8)*%
X95395400Y-72092200D03*
%TO.P,U1,9,IO33*%
%TO.N,unconnected-(U1-Pad9)*%
X96665400Y-72092200D03*
%TO.P,U1,10,IO25*%
%TO.N,unconnected-(U1-Pad10)*%
X97935400Y-72092200D03*
%TO.P,U1,11,IO26*%
%TO.N,Net-(R3-Pad1)*%
X99205400Y-72092200D03*
%TO.P,U1,12,IO27*%
%TO.N,/SLP*%
X100475400Y-72092200D03*
%TO.P,U1,13,IO14*%
%TO.N,/STEP*%
X101745400Y-72092200D03*
%TO.P,U1,14,IO12*%
%TO.N,/DIR*%
X103015400Y-72092200D03*
D21*
%TO.P,U1,15,GND*%
%TO.N,GND*%
X104015400Y-69307200D03*
%TO.P,U1,16,IO13*%
%TO.N,unconnected-(U1-Pad16)*%
X104015400Y-68037200D03*
%TO.P,U1,17,SHD/SD2*%
%TO.N,unconnected-(U1-Pad17)*%
X104015400Y-66767200D03*
%TO.P,U1,18,SWP/SD3*%
%TO.N,unconnected-(U1-Pad18)*%
X104015400Y-65497200D03*
%TO.P,U1,19,SCS/CMD*%
%TO.N,unconnected-(U1-Pad19)*%
X104015400Y-64227200D03*
%TO.P,U1,20,SCK/CLK*%
%TO.N,unconnected-(U1-Pad20)*%
X104015400Y-62957200D03*
%TO.P,U1,21,SDO/SD0*%
%TO.N,unconnected-(U1-Pad21)*%
X104015400Y-61687200D03*
%TO.P,U1,22,SDI/SD1*%
%TO.N,unconnected-(U1-Pad22)*%
X104015400Y-60417200D03*
%TO.P,U1,23,IO15*%
%TO.N,unconnected-(U1-Pad23)*%
X104015400Y-59147200D03*
%TO.P,U1,24,IO2*%
%TO.N,unconnected-(U1-Pad24)*%
X104015400Y-57877200D03*
D20*
%TO.P,U1,25,IO0*%
%TO.N,/IO0*%
X103015400Y-55092200D03*
%TO.P,U1,26,IO4*%
%TO.N,unconnected-(U1-Pad26)*%
X101745400Y-55092200D03*
%TO.P,U1,27,IO16*%
%TO.N,unconnected-(U1-Pad27)*%
X100475400Y-55092200D03*
%TO.P,U1,28,IO17*%
%TO.N,unconnected-(U1-Pad28)*%
X99205400Y-55092200D03*
%TO.P,U1,29,IO5*%
%TO.N,unconnected-(U1-Pad29)*%
X97935400Y-55092200D03*
%TO.P,U1,30,IO18*%
%TO.N,unconnected-(U1-Pad30)*%
X96665400Y-55092200D03*
%TO.P,U1,31,IO19*%
%TO.N,unconnected-(U1-Pad31)*%
X95395400Y-55092200D03*
%TO.P,U1,32,NC*%
%TO.N,unconnected-(U1-Pad32)*%
X94125400Y-55092200D03*
%TO.P,U1,33,IO21*%
%TO.N,unconnected-(U1-Pad33)*%
X92855400Y-55092200D03*
%TO.P,U1,34,RXD0/IO3*%
%TO.N,/RX*%
X91585400Y-55092200D03*
%TO.P,U1,35,TXD0/IO1*%
%TO.N,/TX*%
X90315400Y-55092200D03*
%TO.P,U1,36,IO22*%
%TO.N,unconnected-(U1-Pad36)*%
X89045400Y-55092200D03*
%TO.P,U1,37,IO23*%
%TO.N,unconnected-(U1-Pad37)*%
X87775400Y-55092200D03*
%TO.P,U1,38,GND*%
%TO.N,GND*%
X86505400Y-55092200D03*
D22*
%TO.P,U1,39,GND*%
%TO.N,N/C*%
X94005400Y-64592200D03*
%TD*%
D16*
%TO.P,C3,1*%
%TO.N,+3V3*%
X89167100Y-75107800D03*
%TO.P,C3,2*%
%TO.N,GND*%
X86042100Y-75107800D03*
%TD*%
D23*
%TO.P,D1,1,K*%
%TO.N,GND*%
X125476000Y-47280500D03*
%TO.P,D1,2,A*%
%TO.N,Net-(D1-Pad2)*%
X125476000Y-50255500D03*
%TD*%
D10*
%TO.P,C4,1*%
%TO.N,+12V*%
X128056000Y-75184000D03*
D24*
%TO.P,C4,2*%
%TO.N,GND*%
X130556000Y-75184000D03*
%TD*%
D23*
%TO.P,D2,1,K*%
%TO.N,GND*%
X120904000Y-47280500D03*
%TO.P,D2,2,A*%
%TO.N,Net-(D2-Pad2)*%
X120904000Y-50255500D03*
%TD*%
D25*
%TO.P,J1,1,Pin_1*%
%TO.N,/TX*%
X92583000Y-48641000D03*
D26*
%TO.P,J1,2,Pin_2*%
%TO.N,/RX*%
X95123000Y-48641000D03*
%TO.P,J1,3,Pin_3*%
%TO.N,GND*%
X97663000Y-48641000D03*
%TD*%
D16*
%TO.P,C2,1*%
%TO.N,+3V3*%
X89167100Y-77647800D03*
%TO.P,C2,2*%
%TO.N,GND*%
X86042100Y-77647800D03*
%TD*%
D15*
%TO.P,R3,1*%
%TO.N,Net-(R3-Pad1)*%
X119354000Y-53340000D03*
%TO.P,R3,2*%
%TO.N,Net-(D2-Pad2)*%
X122454000Y-53340000D03*
%TD*%
D27*
%TO.P,H2,1*%
%TO.N,N/C*%
X132080000Y-47615000D03*
%TD*%
%TO.P,H4,1*%
%TO.N,N/C*%
X132080000Y-84445000D03*
%TD*%
D28*
%TO.P,R1,1*%
%TO.N,+3V3*%
X96927000Y-77597000D03*
%TO.P,R1,2*%
%TO.N,/EN*%
X93827000Y-77597000D03*
%TD*%
D25*
%TO.P,J3,1,Pin_1*%
%TO.N,/A2*%
X132330300Y-60865900D03*
D26*
%TO.P,J3,2,Pin_2*%
%TO.N,/A1*%
X132330300Y-63405900D03*
%TO.P,J3,3,Pin_3*%
%TO.N,/B1*%
X132330300Y-65945900D03*
%TO.P,J3,4,Pin_4*%
%TO.N,/B2*%
X132330300Y-68485900D03*
%TD*%
D29*
%TO.P,U2,1,Vin*%
%TO.N,Net-(C6-Pad1)*%
X104806500Y-83229900D03*
D30*
%TO.P,U2,2,GND*%
%TO.N,GND*%
X104806500Y-80689900D03*
%TO.P,U2,3,Vout*%
%TO.N,+3V3*%
X104806500Y-78149900D03*
%TD*%
D13*
%TO.P,C1,1*%
%TO.N,/EN*%
X93814500Y-75057000D03*
%TO.P,C1,2*%
%TO.N,GND*%
X96939500Y-75057000D03*
%TD*%
D12*
%TO.P,SW2,1,1*%
%TO.N,/IO0*%
X108331000Y-52819000D03*
%TO.P,SW2,2,2*%
%TO.N,GND*%
X108331000Y-46419000D03*
%TD*%
D31*
%TO.N,GND*%
X98044000Y-82296000D03*
X99568000Y-57404000D03*
X98044000Y-80264000D03*
X113792000Y-84836000D03*
X97028000Y-69088000D03*
X87884000Y-57404000D03*
X118364000Y-55880000D03*
X85852000Y-79248000D03*
X122428000Y-45720000D03*
X93472000Y-57404000D03*
X100584000Y-69088000D03*
X107696000Y-76200000D03*
X87884000Y-69088000D03*
X87884000Y-52832000D03*
X127000000Y-45720000D03*
X99568000Y-52832000D03*
X93472000Y-52832000D03*
X125120400Y-55880000D03*
X98552000Y-75184000D03*
%TD*%
D32*
%TO.N,Net-(D1-Pad2)*%
X125476000Y-50255500D02*
X126709500Y-50255500D01*
X126709500Y-50255500D02*
X128550000Y-52096000D01*
X128550000Y-52096000D02*
X128550000Y-53340000D01*
D33*
%TO.N,+12V*%
X112765000Y-75780000D02*
X112345000Y-76200000D01*
X120396000Y-75780000D02*
X112765000Y-75780000D01*
D34*
X128056000Y-75184000D02*
X127421000Y-75819000D01*
X127421000Y-75819000D02*
X120435000Y-75819000D01*
D32*
%TO.N,/SLP*%
X112727169Y-59982831D02*
X114554000Y-58156000D01*
X107188000Y-60544056D02*
X107749225Y-59982831D01*
X104021818Y-73941231D02*
X107188000Y-70775049D01*
X107749225Y-59982831D02*
X112727169Y-59982831D01*
X101024431Y-73941231D02*
X104021818Y-73941231D01*
X107188000Y-70775049D02*
X107188000Y-60544056D01*
X100475400Y-73392200D02*
X101024431Y-73941231D01*
X100475400Y-72092200D02*
X100475400Y-73392200D01*
%TO.N,/DIR*%
X108656209Y-58983791D02*
X109474000Y-58166000D01*
X107335410Y-58983791D02*
X108656209Y-58983791D01*
X106172000Y-60147201D02*
X107335410Y-58983791D01*
X104457994Y-72092200D02*
X106172000Y-70378194D01*
X109474000Y-58166000D02*
X109474000Y-58156000D01*
X106172000Y-70378194D02*
X106172000Y-60147201D01*
X103015400Y-72092200D02*
X104457994Y-72092200D01*
%TO.N,+3V3*%
X112014000Y-70856000D02*
X112014000Y-65328800D01*
X112014000Y-65328800D02*
X118364000Y-58978800D01*
X118364000Y-58978800D02*
X118364000Y-57353200D01*
X118364000Y-57353200D02*
X119938800Y-55778400D01*
X119938800Y-55778400D02*
X123494800Y-55778400D01*
X123494800Y-55778400D02*
X125096786Y-54176414D01*
X125096786Y-54176414D02*
X125096786Y-53693213D01*
D33*
%TO.N,GND*%
X112243400Y-84836000D02*
X113792000Y-84836000D01*
%TO.N,Net-(C6-Pad1)*%
X109118400Y-84836000D02*
X106412600Y-84836000D01*
X106412600Y-84836000D02*
X104806500Y-83229900D01*
X108732500Y-80553400D02*
X108732500Y-84450100D01*
X108732500Y-84450100D02*
X109118400Y-84836000D01*
%TO.N,+12V*%
X112345000Y-76200000D02*
X112345000Y-80065900D01*
X112345000Y-80065900D02*
X112832500Y-80553400D01*
%TO.N,+3V3*%
X112014000Y-70856000D02*
X112014000Y-72390000D01*
X108204000Y-73660000D02*
X104806500Y-77057500D01*
X104806500Y-77057500D02*
X104806500Y-78149900D01*
X112014000Y-72390000D02*
X110744000Y-73660000D01*
X110744000Y-73660000D02*
X108204000Y-73660000D01*
%TO.N,GND*%
X109220000Y-76200000D02*
X107696000Y-76200000D01*
D34*
%TO.N,+12V*%
X128056000Y-71658000D02*
X127254000Y-70856000D01*
X128056000Y-75184000D02*
X128056000Y-71658000D01*
D33*
%TO.N,+3V3*%
X90690820Y-79171520D02*
X89167100Y-77647800D01*
X89167100Y-77647800D02*
X89167100Y-75107800D01*
X96927000Y-77597000D02*
X97479900Y-78149900D01*
X87775400Y-73716100D02*
X87775400Y-72092200D01*
X96927000Y-77597000D02*
X95352480Y-79171520D01*
X97479900Y-78149900D02*
X104806500Y-78149900D01*
X95352480Y-79171520D02*
X90690820Y-79171520D01*
X89167100Y-75107800D02*
X87775400Y-73716100D01*
D34*
%TO.N,/A2*%
X114554000Y-70856000D02*
X114554000Y-66294000D01*
X114554000Y-66294000D02*
X119982100Y-60865900D01*
X119982100Y-60865900D02*
X132330300Y-60865900D01*
%TO.N,/A1*%
X117094000Y-67310000D02*
X120998100Y-63405900D01*
X120998100Y-63405900D02*
X132330300Y-63405900D01*
X117094000Y-70856000D02*
X117094000Y-67310000D01*
%TO.N,/B1*%
X119634000Y-68591792D02*
X122279892Y-65945900D01*
X122279892Y-65945900D02*
X132330300Y-65945900D01*
X119634000Y-70856000D02*
X119634000Y-68591792D01*
%TO.N,/B2*%
X122174000Y-70856000D02*
X122174000Y-69658592D01*
X123346692Y-68485900D02*
X132330300Y-68485900D01*
X122174000Y-69658592D02*
X123346692Y-68485900D01*
D32*
%TO.N,/STEP*%
X107542317Y-59483311D02*
X110686689Y-59483311D01*
X106680000Y-60345628D02*
X107542317Y-59483311D01*
X102215889Y-73441711D02*
X103814911Y-73441711D01*
X101745400Y-72971222D02*
X102215889Y-73441711D01*
X106680000Y-70576622D02*
X106680000Y-60345628D01*
X103814911Y-73441711D02*
X106680000Y-70576622D01*
X110686689Y-59483311D02*
X112014000Y-58156000D01*
X101745400Y-72092200D02*
X101745400Y-72971222D01*
%TO.N,/TX*%
X92583000Y-48641000D02*
X90315400Y-50908600D01*
X90315400Y-50908600D02*
X90315400Y-55092200D01*
%TO.N,/RX*%
X95123000Y-48641000D02*
X91585400Y-52178600D01*
X91585400Y-52178600D02*
X91585400Y-55092200D01*
%TO.N,/EN*%
X98552000Y-69596000D02*
X97536000Y-70612000D01*
X102460689Y-56441711D02*
X98552000Y-60350400D01*
D35*
X89045400Y-73271222D02*
X89045400Y-72092200D01*
X93814500Y-75057000D02*
X93814500Y-77584500D01*
D32*
X112636000Y-54864000D02*
X105392622Y-54864000D01*
X103814911Y-56441711D02*
X102460689Y-56441711D01*
D35*
X93814500Y-77584500D02*
X93827000Y-77597000D01*
X93814500Y-75057000D02*
X92465780Y-73708280D01*
D32*
X114681000Y-52819000D02*
X112636000Y-54864000D01*
X97536000Y-70612000D02*
X89646578Y-70612000D01*
D35*
X89482458Y-73708280D02*
X89045400Y-73271222D01*
D32*
X89646578Y-70612000D02*
X89045400Y-71213178D01*
D35*
X92465780Y-73708280D02*
X89482458Y-73708280D01*
D32*
X105392622Y-54864000D02*
X103814911Y-56441711D01*
X89045400Y-71213178D02*
X89045400Y-72092200D01*
X98552000Y-60350400D02*
X98552000Y-69596000D01*
%TO.N,/IO0*%
X108331000Y-52819000D02*
X105288600Y-52819000D01*
X105288600Y-52819000D02*
X103015400Y-55092200D01*
%TO.N,Net-(R3-Pad1)*%
X104021820Y-56941230D02*
X102667598Y-56941230D01*
X119354000Y-53340000D02*
X116306000Y-56388000D01*
X116306000Y-56388000D02*
X104575050Y-56388000D01*
X99060000Y-71946800D02*
X99205400Y-72092200D01*
X104575050Y-56388000D02*
X104021820Y-56941230D01*
X102667598Y-56941230D02*
X99060000Y-60548828D01*
X99060000Y-60548828D02*
X99060000Y-71946800D01*
%TO.N,Net-(D2-Pad2)*%
X122454000Y-51805500D02*
X120904000Y-50255500D01*
X122454000Y-53340000D02*
X122454000Y-51805500D01*
%TD*%
%TA.AperFunction,Conductor*%
%TO.N,GND*%
G36*
X130980002Y-44123907D02*
G01*
X131015966Y-44173407D01*
X131015966Y-44234593D01*
X130980002Y-44284093D01*
X130957289Y-44296425D01*
X130654264Y-44412745D01*
X130651966Y-44413916D01*
X130651959Y-44413919D01*
X130444833Y-44519456D01*
X130327348Y-44579318D01*
X130325176Y-44580729D01*
X130325170Y-44580732D01*
X130163106Y-44685977D01*
X130019634Y-44779149D01*
X129734494Y-45010051D01*
X129475051Y-45269494D01*
X129244149Y-45554634D01*
X129242733Y-45556815D01*
X129113973Y-45755089D01*
X129044318Y-45862348D01*
X129043142Y-45864656D01*
X128907976Y-46129933D01*
X128877745Y-46189264D01*
X128746258Y-46531801D01*
X128745588Y-46534302D01*
X128662267Y-46845260D01*
X128651295Y-46886206D01*
X128650888Y-46888776D01*
X128599398Y-47213872D01*
X128593898Y-47248596D01*
X128574696Y-47615000D01*
X128593898Y-47981404D01*
X128594303Y-47983962D01*
X128594304Y-47983970D01*
X128630278Y-48211096D01*
X128651295Y-48343794D01*
X128651966Y-48346298D01*
X128651967Y-48346303D01*
X128676127Y-48436469D01*
X128746258Y-48698199D01*
X128877745Y-49040736D01*
X128878916Y-49043034D01*
X128878919Y-49043041D01*
X128985696Y-49252600D01*
X129044318Y-49367652D01*
X129045729Y-49369824D01*
X129045732Y-49369830D01*
X129068868Y-49405456D01*
X129244149Y-49675366D01*
X129475051Y-49960506D01*
X129734494Y-50219949D01*
X130019634Y-50450851D01*
X130163106Y-50544023D01*
X130325170Y-50649268D01*
X130325176Y-50649271D01*
X130327348Y-50650682D01*
X130329656Y-50651858D01*
X130651959Y-50816081D01*
X130651966Y-50816084D01*
X130654264Y-50817255D01*
X130996801Y-50948742D01*
X131005986Y-50951203D01*
X131348697Y-51043033D01*
X131348702Y-51043034D01*
X131351206Y-51043705D01*
X131353777Y-51044112D01*
X131353776Y-51044112D01*
X131711030Y-51100696D01*
X131711038Y-51100697D01*
X131713596Y-51101102D01*
X132080000Y-51120304D01*
X132446404Y-51101102D01*
X132448962Y-51100697D01*
X132448970Y-51100696D01*
X132806224Y-51044112D01*
X132806223Y-51044112D01*
X132808794Y-51043705D01*
X132811298Y-51043034D01*
X132811303Y-51043033D01*
X133154014Y-50951203D01*
X133163199Y-50948742D01*
X133505736Y-50817255D01*
X133508034Y-50816084D01*
X133508041Y-50816081D01*
X133830344Y-50651858D01*
X133832652Y-50650682D01*
X133834824Y-50649271D01*
X133834830Y-50649268D01*
X133996894Y-50544023D01*
X134140366Y-50450851D01*
X134425506Y-50219949D01*
X134684949Y-49960506D01*
X134915851Y-49675366D01*
X135091132Y-49405456D01*
X135114268Y-49369830D01*
X135114271Y-49369824D01*
X135115682Y-49367652D01*
X135174304Y-49252600D01*
X135281081Y-49043041D01*
X135281084Y-49043034D01*
X135282255Y-49040736D01*
X135323671Y-48932843D01*
X135398575Y-48737711D01*
X135437081Y-48690161D01*
X135496181Y-48674325D01*
X135553303Y-48696251D01*
X135586627Y-48747566D01*
X135590000Y-48773189D01*
X135590000Y-83286811D01*
X135571093Y-83345002D01*
X135521593Y-83380966D01*
X135460407Y-83380966D01*
X135410907Y-83345002D01*
X135398575Y-83322289D01*
X135283182Y-83021679D01*
X135282255Y-83019264D01*
X135269154Y-82993551D01*
X135116858Y-82694656D01*
X135115682Y-82692348D01*
X135085914Y-82646508D01*
X135006149Y-82523682D01*
X134915851Y-82384634D01*
X134684949Y-82099494D01*
X134425506Y-81840051D01*
X134140366Y-81609149D01*
X133923318Y-81468197D01*
X133834830Y-81410732D01*
X133834824Y-81410729D01*
X133832652Y-81409318D01*
X133777144Y-81381035D01*
X133508041Y-81243919D01*
X133508034Y-81243916D01*
X133505736Y-81242745D01*
X133163199Y-81111258D01*
X133044066Y-81079336D01*
X132811303Y-81016967D01*
X132811298Y-81016966D01*
X132808794Y-81016295D01*
X132768865Y-81009971D01*
X132448970Y-80959304D01*
X132448962Y-80959303D01*
X132446404Y-80958898D01*
X132080000Y-80939696D01*
X131713596Y-80958898D01*
X131711038Y-80959303D01*
X131711030Y-80959304D01*
X131391135Y-81009971D01*
X131351206Y-81016295D01*
X131348702Y-81016966D01*
X131348697Y-81016967D01*
X131115934Y-81079336D01*
X130996801Y-81111258D01*
X130654264Y-81242745D01*
X130651966Y-81243916D01*
X130651959Y-81243919D01*
X130382856Y-81381035D01*
X130327348Y-81409318D01*
X130325176Y-81410729D01*
X130325170Y-81410732D01*
X130236682Y-81468197D01*
X130019634Y-81609149D01*
X129734494Y-81840051D01*
X129475051Y-82099494D01*
X129244149Y-82384634D01*
X129153851Y-82523682D01*
X129074087Y-82646508D01*
X129044318Y-82692348D01*
X129043142Y-82694656D01*
X128890847Y-82993551D01*
X128877745Y-83019264D01*
X128746258Y-83361801D01*
X128745588Y-83364302D01*
X128655798Y-83699402D01*
X128651295Y-83716206D01*
X128650888Y-83718776D01*
X128597234Y-84057535D01*
X128593898Y-84078596D01*
X128574696Y-84445000D01*
X128593898Y-84811404D01*
X128594303Y-84813962D01*
X128594304Y-84813970D01*
X128608165Y-84901485D01*
X128651295Y-85173794D01*
X128651966Y-85176298D01*
X128651967Y-85176303D01*
X128694758Y-85336000D01*
X128746258Y-85528199D01*
X128877745Y-85870736D01*
X128878916Y-85873034D01*
X128878919Y-85873041D01*
X128987993Y-86087109D01*
X129044318Y-86197652D01*
X129244149Y-86505366D01*
X129475051Y-86790506D01*
X129734494Y-87049949D01*
X130019634Y-87280851D01*
X130146840Y-87363459D01*
X130325170Y-87479268D01*
X130325176Y-87479271D01*
X130327348Y-87480682D01*
X130329656Y-87481858D01*
X130651959Y-87646081D01*
X130651966Y-87646084D01*
X130654264Y-87647255D01*
X130656679Y-87648182D01*
X130957289Y-87763575D01*
X131004839Y-87802081D01*
X131020675Y-87861181D01*
X130998749Y-87918303D01*
X130947434Y-87951627D01*
X130921811Y-87955000D01*
X84935000Y-87955000D01*
X84876809Y-87936093D01*
X84840845Y-87886593D01*
X84836000Y-87856000D01*
X84836000Y-84024546D01*
X103256000Y-84024546D01*
X103259118Y-84050746D01*
X103304561Y-84153053D01*
X103383787Y-84232141D01*
X103392145Y-84235836D01*
X103479364Y-84274396D01*
X103479366Y-84274396D01*
X103486173Y-84277406D01*
X103511854Y-84280400D01*
X104683914Y-84280400D01*
X104742105Y-84299307D01*
X104753918Y-84309396D01*
X105840234Y-85395712D01*
X105840963Y-85396449D01*
X105903459Y-85460268D01*
X105908111Y-85463266D01*
X105940636Y-85484227D01*
X105948770Y-85490071D01*
X105983334Y-85517663D01*
X105988318Y-85520072D01*
X105988322Y-85520075D01*
X106014639Y-85532797D01*
X106025177Y-85538710D01*
X106054417Y-85557554D01*
X106095992Y-85572686D01*
X106105198Y-85576576D01*
X106140038Y-85593418D01*
X106140041Y-85593419D01*
X106145022Y-85595827D01*
X106178917Y-85603652D01*
X106190487Y-85607079D01*
X106223178Y-85618978D01*
X106264858Y-85624244D01*
X106267054Y-85624521D01*
X106276914Y-85626277D01*
X106294221Y-85630272D01*
X106320010Y-85636226D01*
X106360092Y-85636366D01*
X106361081Y-85636399D01*
X106361883Y-85636500D01*
X106398431Y-85636500D01*
X106398779Y-85636501D01*
X106499600Y-85636853D01*
X106500759Y-85636594D01*
X106502494Y-85636500D01*
X108106092Y-85636500D01*
X108164283Y-85655407D01*
X108198139Y-85699055D01*
X108221787Y-85758783D01*
X108225867Y-85764158D01*
X108225868Y-85764160D01*
X108255400Y-85803066D01*
X108312978Y-85878922D01*
X108318357Y-85883005D01*
X108427740Y-85966032D01*
X108427742Y-85966033D01*
X108433117Y-85970113D01*
X108573353Y-86025636D01*
X108663128Y-86036500D01*
X109573672Y-86036500D01*
X109663447Y-86025636D01*
X109803683Y-85970113D01*
X109809058Y-85966033D01*
X109809060Y-85966032D01*
X109918443Y-85883005D01*
X109923822Y-85878922D01*
X109981400Y-85803066D01*
X110010932Y-85764160D01*
X110010933Y-85764158D01*
X110015013Y-85758783D01*
X110070536Y-85618547D01*
X110080793Y-85533792D01*
X111072901Y-85533792D01*
X111073167Y-85538922D01*
X111083309Y-85636673D01*
X111085582Y-85647200D01*
X111137986Y-85804277D01*
X111142833Y-85814624D01*
X111229791Y-85955145D01*
X111236887Y-85964098D01*
X111353839Y-86080847D01*
X111362804Y-86087927D01*
X111503480Y-86174641D01*
X111513834Y-86179469D01*
X111671010Y-86231602D01*
X111681521Y-86233855D01*
X111727801Y-86238597D01*
X111740841Y-86235790D01*
X111742550Y-86233881D01*
X111743400Y-86229857D01*
X111743400Y-86224466D01*
X112743400Y-86224466D01*
X112747522Y-86237151D01*
X112749566Y-86238636D01*
X112753717Y-86239075D01*
X112806572Y-86233591D01*
X112817100Y-86231318D01*
X112974177Y-86178914D01*
X112984524Y-86174067D01*
X113125045Y-86087109D01*
X113133998Y-86080013D01*
X113250747Y-85963061D01*
X113257827Y-85954096D01*
X113344541Y-85813420D01*
X113349369Y-85803066D01*
X113401502Y-85645890D01*
X113403755Y-85635379D01*
X113413641Y-85538888D01*
X113413900Y-85533830D01*
X113413900Y-85351680D01*
X113409778Y-85338995D01*
X113405657Y-85336000D01*
X112759080Y-85336000D01*
X112746395Y-85340122D01*
X112743400Y-85344243D01*
X112743400Y-86224466D01*
X111743400Y-86224466D01*
X111743400Y-85351680D01*
X111739278Y-85338995D01*
X111735157Y-85336000D01*
X111088581Y-85336000D01*
X111075896Y-85340122D01*
X111072901Y-85344243D01*
X111072901Y-85533792D01*
X110080793Y-85533792D01*
X110081400Y-85528772D01*
X110081400Y-84874594D01*
X119194074Y-84874594D01*
X119194843Y-84879067D01*
X119194843Y-84879072D01*
X119230668Y-85087565D01*
X119230670Y-85087571D01*
X119231438Y-85092043D01*
X119307804Y-85299043D01*
X119310126Y-85302946D01*
X119310127Y-85302948D01*
X119334695Y-85344243D01*
X119420614Y-85488659D01*
X119423609Y-85492074D01*
X119423611Y-85492077D01*
X119495804Y-85574397D01*
X119566090Y-85654543D01*
X119569652Y-85657351D01*
X119735795Y-85788327D01*
X119735798Y-85788329D01*
X119739360Y-85791137D01*
X119743378Y-85793251D01*
X119930609Y-85891759D01*
X119930612Y-85891760D01*
X119934620Y-85893869D01*
X120017874Y-85919720D01*
X120140994Y-85957950D01*
X120140997Y-85957951D01*
X120145333Y-85959297D01*
X120149843Y-85959831D01*
X120149844Y-85959831D01*
X120177135Y-85963061D01*
X120324476Y-85980500D01*
X120451970Y-85980500D01*
X120615711Y-85965454D01*
X120642319Y-85957950D01*
X120823689Y-85906799D01*
X120823690Y-85906798D01*
X120828064Y-85905565D01*
X120832136Y-85903557D01*
X120832141Y-85903555D01*
X121021875Y-85809988D01*
X121021874Y-85809988D01*
X121025947Y-85807980D01*
X121202733Y-85675967D01*
X121219941Y-85657351D01*
X121349423Y-85517279D01*
X121349424Y-85517278D01*
X121352501Y-85513949D01*
X121367567Y-85490072D01*
X121467815Y-85331187D01*
X121470236Y-85327350D01*
X121551994Y-85122421D01*
X121595038Y-84906024D01*
X121597926Y-84685406D01*
X121593973Y-84662398D01*
X121561332Y-84472435D01*
X121561330Y-84472429D01*
X121560562Y-84467957D01*
X121491369Y-84280400D01*
X121485769Y-84265220D01*
X121485768Y-84265217D01*
X121484196Y-84260957D01*
X121371386Y-84071341D01*
X121359279Y-84057535D01*
X121228902Y-83908869D01*
X121225910Y-83905457D01*
X121209721Y-83892695D01*
X121056205Y-83771673D01*
X121056202Y-83771671D01*
X121052640Y-83768863D01*
X121020627Y-83752020D01*
X120861391Y-83668241D01*
X120861388Y-83668240D01*
X120857380Y-83666131D01*
X120758732Y-83635500D01*
X120651006Y-83602050D01*
X120651003Y-83602049D01*
X120646667Y-83600703D01*
X120642157Y-83600169D01*
X120642156Y-83600169D01*
X120594647Y-83594546D01*
X120529066Y-83586784D01*
X123595500Y-83586784D01*
X123595689Y-83588939D01*
X123595689Y-83588950D01*
X123603421Y-83677318D01*
X123610365Y-83756692D01*
X123611484Y-83760867D01*
X123611484Y-83760869D01*
X123640440Y-83868934D01*
X123669261Y-83976496D01*
X123765432Y-84182734D01*
X123767913Y-84186277D01*
X123767914Y-84186279D01*
X123847057Y-84299307D01*
X123895953Y-84369139D01*
X124056861Y-84530047D01*
X124060399Y-84532524D01*
X124060401Y-84532526D01*
X124239721Y-84658086D01*
X124243266Y-84660568D01*
X124449504Y-84756739D01*
X124538563Y-84780602D01*
X124665131Y-84814516D01*
X124665133Y-84814516D01*
X124669308Y-84815635D01*
X124896000Y-84835468D01*
X125122692Y-84815635D01*
X125126867Y-84814516D01*
X125126869Y-84814516D01*
X125253437Y-84780602D01*
X125342496Y-84756739D01*
X125548734Y-84660568D01*
X125552279Y-84658086D01*
X125731599Y-84532526D01*
X125731601Y-84532524D01*
X125735139Y-84530047D01*
X125896047Y-84369139D01*
X125944944Y-84299307D01*
X126024086Y-84186279D01*
X126024087Y-84186277D01*
X126026568Y-84182734D01*
X126122739Y-83976496D01*
X126151560Y-83868934D01*
X126180516Y-83760869D01*
X126180516Y-83760867D01*
X126181635Y-83756692D01*
X126188579Y-83677318D01*
X126196311Y-83588950D01*
X126196311Y-83588939D01*
X126196500Y-83586784D01*
X126196500Y-81973216D01*
X126196311Y-81971061D01*
X126196311Y-81971050D01*
X126182012Y-81807619D01*
X126181635Y-81803308D01*
X126122739Y-81583504D01*
X126026568Y-81377266D01*
X126008147Y-81350958D01*
X125898526Y-81194401D01*
X125898524Y-81194399D01*
X125896047Y-81190861D01*
X125735139Y-81029953D01*
X125715634Y-81016295D01*
X125552279Y-80901914D01*
X125552277Y-80901913D01*
X125548734Y-80899432D01*
X125342496Y-80803261D01*
X125253437Y-80779398D01*
X125126869Y-80745484D01*
X125126867Y-80745484D01*
X125122692Y-80744365D01*
X124896000Y-80724532D01*
X124669308Y-80744365D01*
X124665133Y-80745484D01*
X124665131Y-80745484D01*
X124538563Y-80779398D01*
X124449504Y-80803261D01*
X124243266Y-80899432D01*
X124239723Y-80901913D01*
X124239721Y-80901914D01*
X124076367Y-81016295D01*
X124056861Y-81029953D01*
X123895953Y-81190861D01*
X123893476Y-81194399D01*
X123893474Y-81194401D01*
X123783853Y-81350958D01*
X123765432Y-81377266D01*
X123669261Y-81583504D01*
X123610365Y-81803308D01*
X123609988Y-81807619D01*
X123595689Y-81971050D01*
X123595689Y-81971061D01*
X123595500Y-81973216D01*
X123595500Y-83586784D01*
X120529066Y-83586784D01*
X120467524Y-83579500D01*
X120340030Y-83579500D01*
X120176289Y-83594546D01*
X120171917Y-83595779D01*
X119984250Y-83648706D01*
X119963936Y-83654435D01*
X119959864Y-83656443D01*
X119959859Y-83656445D01*
X119835233Y-83717904D01*
X119766053Y-83752020D01*
X119589267Y-83884033D01*
X119586186Y-83887366D01*
X119507653Y-83972323D01*
X119439499Y-84046051D01*
X119437081Y-84049884D01*
X119437079Y-84049886D01*
X119384589Y-84133078D01*
X119321764Y-84232650D01*
X119240006Y-84437579D01*
X119196962Y-84653976D01*
X119196551Y-84685406D01*
X119194868Y-84813970D01*
X119194074Y-84874594D01*
X110081400Y-84874594D01*
X110081400Y-84320320D01*
X111072900Y-84320320D01*
X111077022Y-84333005D01*
X111081143Y-84336000D01*
X111727720Y-84336000D01*
X111740405Y-84331878D01*
X111743400Y-84327757D01*
X111743400Y-84320320D01*
X112743400Y-84320320D01*
X112747522Y-84333005D01*
X112751643Y-84336000D01*
X113398219Y-84336000D01*
X113410904Y-84331878D01*
X113413899Y-84327757D01*
X113413899Y-84138208D01*
X113413633Y-84133078D01*
X113403491Y-84035327D01*
X113401218Y-84024800D01*
X113348814Y-83867723D01*
X113343967Y-83857376D01*
X113257009Y-83716855D01*
X113249913Y-83707902D01*
X113132961Y-83591153D01*
X113127429Y-83586784D01*
X114595500Y-83586784D01*
X114595689Y-83588939D01*
X114595689Y-83588950D01*
X114603421Y-83677318D01*
X114610365Y-83756692D01*
X114611484Y-83760867D01*
X114611484Y-83760869D01*
X114640440Y-83868934D01*
X114669261Y-83976496D01*
X114765432Y-84182734D01*
X114767913Y-84186277D01*
X114767914Y-84186279D01*
X114847057Y-84299307D01*
X114895953Y-84369139D01*
X115056861Y-84530047D01*
X115060399Y-84532524D01*
X115060401Y-84532526D01*
X115239721Y-84658086D01*
X115243266Y-84660568D01*
X115449504Y-84756739D01*
X115538563Y-84780602D01*
X115665131Y-84814516D01*
X115665133Y-84814516D01*
X115669308Y-84815635D01*
X115896000Y-84835468D01*
X116122692Y-84815635D01*
X116126867Y-84814516D01*
X116126869Y-84814516D01*
X116253437Y-84780602D01*
X116342496Y-84756739D01*
X116548734Y-84660568D01*
X116552279Y-84658086D01*
X116731599Y-84532526D01*
X116731601Y-84532524D01*
X116735139Y-84530047D01*
X116896047Y-84369139D01*
X116944944Y-84299307D01*
X117024086Y-84186279D01*
X117024087Y-84186277D01*
X117026568Y-84182734D01*
X117122739Y-83976496D01*
X117151560Y-83868934D01*
X117180516Y-83760869D01*
X117180516Y-83760867D01*
X117181635Y-83756692D01*
X117188579Y-83677318D01*
X117196311Y-83588950D01*
X117196311Y-83588939D01*
X117196500Y-83586784D01*
X117196500Y-82294152D01*
X118324243Y-82294152D01*
X118326896Y-82303527D01*
X118329664Y-82310968D01*
X118428855Y-82523682D01*
X118432771Y-82530576D01*
X118564699Y-82724703D01*
X118569666Y-82730881D01*
X118730938Y-82901421D01*
X118736827Y-82906723D01*
X118923286Y-83049282D01*
X118929950Y-83053577D01*
X119136811Y-83164495D01*
X119144068Y-83167665D01*
X119365987Y-83244077D01*
X119373684Y-83246053D01*
X119605806Y-83286148D01*
X119611996Y-83286820D01*
X119636866Y-83287950D01*
X119639073Y-83288000D01*
X119880320Y-83288000D01*
X119893005Y-83283878D01*
X119896000Y-83279757D01*
X119896000Y-83272320D01*
X120896000Y-83272320D01*
X120900122Y-83285005D01*
X120904243Y-83288000D01*
X121104992Y-83288000D01*
X121108952Y-83287841D01*
X121283925Y-83273763D01*
X121291745Y-83272496D01*
X121519681Y-83216510D01*
X121527211Y-83214005D01*
X121743260Y-83122298D01*
X121750289Y-83118623D01*
X121948899Y-82993551D01*
X121955251Y-82988800D01*
X122131310Y-82833583D01*
X122136818Y-82827879D01*
X122285799Y-82646508D01*
X122290322Y-82640000D01*
X122408388Y-82437142D01*
X122411813Y-82429993D01*
X122463771Y-82294639D01*
X122464317Y-82284227D01*
X122452380Y-82280000D01*
X120911680Y-82280000D01*
X120898995Y-82284122D01*
X120896000Y-82288243D01*
X120896000Y-83272320D01*
X119896000Y-83272320D01*
X119896000Y-82295680D01*
X119891878Y-82282995D01*
X119887757Y-82280000D01*
X118335919Y-82280000D01*
X118324443Y-82283729D01*
X118324243Y-82294152D01*
X117196500Y-82294152D01*
X117196500Y-81973216D01*
X117196311Y-81971061D01*
X117196311Y-81971050D01*
X117182012Y-81807619D01*
X117181635Y-81803308D01*
X117122739Y-81583504D01*
X117026568Y-81377266D01*
X117008147Y-81350958D01*
X116955503Y-81275773D01*
X118327683Y-81275773D01*
X118339620Y-81280000D01*
X119880320Y-81280000D01*
X119893005Y-81275878D01*
X119896000Y-81271757D01*
X119896000Y-81264320D01*
X120896000Y-81264320D01*
X120900122Y-81277005D01*
X120904243Y-81280000D01*
X122456081Y-81280000D01*
X122467557Y-81276271D01*
X122467757Y-81265848D01*
X122465104Y-81256473D01*
X122462336Y-81249032D01*
X122363145Y-81036318D01*
X122359229Y-81029424D01*
X122227301Y-80835297D01*
X122222334Y-80829119D01*
X122061062Y-80658579D01*
X122055173Y-80653277D01*
X121868714Y-80510718D01*
X121862050Y-80506423D01*
X121655189Y-80395505D01*
X121647932Y-80392335D01*
X121426013Y-80315923D01*
X121418316Y-80313947D01*
X121186194Y-80273852D01*
X121180004Y-80273180D01*
X121155134Y-80272050D01*
X121152927Y-80272000D01*
X120911680Y-80272000D01*
X120898995Y-80276122D01*
X120896000Y-80280243D01*
X120896000Y-81264320D01*
X119896000Y-81264320D01*
X119896000Y-80287680D01*
X119891878Y-80274995D01*
X119887757Y-80272000D01*
X119687008Y-80272000D01*
X119683048Y-80272159D01*
X119508075Y-80286237D01*
X119500255Y-80287504D01*
X119272319Y-80343490D01*
X119264789Y-80345995D01*
X119048740Y-80437702D01*
X119041711Y-80441377D01*
X118843101Y-80566449D01*
X118836749Y-80571200D01*
X118660690Y-80726417D01*
X118655182Y-80732121D01*
X118506201Y-80913492D01*
X118501678Y-80920000D01*
X118383612Y-81122858D01*
X118380187Y-81130007D01*
X118328229Y-81265361D01*
X118327683Y-81275773D01*
X116955503Y-81275773D01*
X116898526Y-81194401D01*
X116898524Y-81194399D01*
X116896047Y-81190861D01*
X116735139Y-81029953D01*
X116715634Y-81016295D01*
X116552279Y-80901914D01*
X116552277Y-80901913D01*
X116548734Y-80899432D01*
X116342496Y-80803261D01*
X116253437Y-80779398D01*
X116126869Y-80745484D01*
X116126867Y-80745484D01*
X116122692Y-80744365D01*
X115896000Y-80724532D01*
X115669308Y-80744365D01*
X115665133Y-80745484D01*
X115665131Y-80745484D01*
X115538563Y-80779398D01*
X115449504Y-80803261D01*
X115243266Y-80899432D01*
X115239723Y-80901913D01*
X115239721Y-80901914D01*
X115076367Y-81016295D01*
X115056861Y-81029953D01*
X114895953Y-81190861D01*
X114893476Y-81194399D01*
X114893474Y-81194401D01*
X114783853Y-81350958D01*
X114765432Y-81377266D01*
X114669261Y-81583504D01*
X114610365Y-81803308D01*
X114609988Y-81807619D01*
X114595689Y-81971050D01*
X114595689Y-81971061D01*
X114595500Y-81973216D01*
X114595500Y-83586784D01*
X113127429Y-83586784D01*
X113123996Y-83584073D01*
X112983320Y-83497359D01*
X112972966Y-83492531D01*
X112815790Y-83440398D01*
X112805279Y-83438145D01*
X112758999Y-83433403D01*
X112745959Y-83436210D01*
X112744250Y-83438119D01*
X112743400Y-83442143D01*
X112743400Y-84320320D01*
X111743400Y-84320320D01*
X111743400Y-83447534D01*
X111739278Y-83434849D01*
X111737234Y-83433364D01*
X111733083Y-83432925D01*
X111680228Y-83438409D01*
X111669700Y-83440682D01*
X111512623Y-83493086D01*
X111502276Y-83497933D01*
X111361755Y-83584891D01*
X111352802Y-83591987D01*
X111236053Y-83708939D01*
X111228973Y-83717904D01*
X111142259Y-83858580D01*
X111137431Y-83868934D01*
X111085298Y-84026110D01*
X111083045Y-84036621D01*
X111073159Y-84133112D01*
X111072900Y-84138171D01*
X111072900Y-84320320D01*
X110081400Y-84320320D01*
X110081400Y-84143228D01*
X110070536Y-84053453D01*
X110015013Y-83913217D01*
X110006992Y-83902649D01*
X109927905Y-83798457D01*
X109923822Y-83793078D01*
X109889135Y-83766749D01*
X109809060Y-83705968D01*
X109809058Y-83705967D01*
X109803683Y-83701887D01*
X109663447Y-83646364D01*
X109635776Y-83643015D01*
X109620106Y-83641119D01*
X109564608Y-83615357D01*
X109534852Y-83561895D01*
X109533000Y-83542836D01*
X109533000Y-81702900D01*
X109551907Y-81644709D01*
X109601407Y-81608745D01*
X109632000Y-81603900D01*
X109727146Y-81603900D01*
X109745061Y-81601768D01*
X109745969Y-81601660D01*
X109745970Y-81601660D01*
X109753346Y-81600782D01*
X109855653Y-81555339D01*
X109934741Y-81476113D01*
X109980006Y-81373727D01*
X109983000Y-81348046D01*
X109983000Y-79758754D01*
X109979882Y-79732554D01*
X109934439Y-79630247D01*
X109909432Y-79605283D01*
X109861679Y-79557614D01*
X109855213Y-79551159D01*
X109826091Y-79538284D01*
X109759636Y-79508904D01*
X109759634Y-79508904D01*
X109752827Y-79505894D01*
X109738822Y-79504261D01*
X109729994Y-79503232D01*
X109729993Y-79503232D01*
X109727146Y-79502900D01*
X107737854Y-79502900D01*
X107721451Y-79504852D01*
X107719031Y-79505140D01*
X107719030Y-79505140D01*
X107711654Y-79506018D01*
X107609347Y-79551461D01*
X107530259Y-79630687D01*
X107484994Y-79733073D01*
X107482000Y-79758754D01*
X107482000Y-81348046D01*
X107485118Y-81374246D01*
X107530561Y-81476553D01*
X107609787Y-81555641D01*
X107618145Y-81559336D01*
X107705364Y-81597896D01*
X107705366Y-81597896D01*
X107712173Y-81600906D01*
X107719567Y-81601768D01*
X107734878Y-81603553D01*
X107737854Y-81603900D01*
X107833000Y-81603900D01*
X107891191Y-81622807D01*
X107927155Y-81672307D01*
X107932000Y-81702900D01*
X107932000Y-83936500D01*
X107913093Y-83994691D01*
X107863593Y-84030655D01*
X107833000Y-84035500D01*
X106785186Y-84035500D01*
X106726995Y-84016593D01*
X106715182Y-84006504D01*
X106385996Y-83677318D01*
X106358219Y-83622801D01*
X106357000Y-83607314D01*
X106357000Y-82435254D01*
X106353882Y-82409054D01*
X106308439Y-82306747D01*
X106229213Y-82227659D01*
X106200091Y-82214784D01*
X106133636Y-82185404D01*
X106133634Y-82185404D01*
X106126827Y-82182394D01*
X106112822Y-82180761D01*
X106103994Y-82179732D01*
X106103993Y-82179732D01*
X106101146Y-82179400D01*
X103511854Y-82179400D01*
X103495451Y-82181352D01*
X103493031Y-82181640D01*
X103493030Y-82181640D01*
X103485654Y-82182518D01*
X103383347Y-82227961D01*
X103304259Y-82307187D01*
X103300564Y-82315545D01*
X103270020Y-82384634D01*
X103258994Y-82409573D01*
X103256000Y-82435254D01*
X103256000Y-84024546D01*
X84836000Y-84024546D01*
X84836000Y-81199287D01*
X103153637Y-81199287D01*
X103238016Y-81362770D01*
X103242731Y-81370199D01*
X103374058Y-81541348D01*
X103380015Y-81547826D01*
X103539574Y-81693013D01*
X103546577Y-81698329D01*
X103729339Y-81812976D01*
X103737158Y-81816960D01*
X103937339Y-81897432D01*
X103945745Y-81899970D01*
X104157767Y-81943877D01*
X104164950Y-81944823D01*
X104216895Y-81947818D01*
X104219736Y-81947900D01*
X104290820Y-81947900D01*
X104303505Y-81943778D01*
X104306500Y-81939657D01*
X104306500Y-81932220D01*
X105306500Y-81932220D01*
X105310622Y-81944905D01*
X105314743Y-81947900D01*
X105361271Y-81947900D01*
X105365675Y-81947704D01*
X105525782Y-81933415D01*
X105534426Y-81931860D01*
X105742520Y-81874931D01*
X105750756Y-81871869D01*
X105945485Y-81778988D01*
X105953044Y-81774517D01*
X106128248Y-81648620D01*
X106134893Y-81642885D01*
X106285034Y-81487950D01*
X106290560Y-81481126D01*
X106410892Y-81302055D01*
X106415121Y-81294363D01*
X106454673Y-81204258D01*
X106455805Y-81192921D01*
X106448923Y-81189900D01*
X105322180Y-81189900D01*
X105309495Y-81194022D01*
X105306500Y-81198143D01*
X105306500Y-81932220D01*
X104306500Y-81932220D01*
X104306500Y-81205580D01*
X104302378Y-81192895D01*
X104298257Y-81189900D01*
X103164472Y-81189900D01*
X103153637Y-81193421D01*
X103153637Y-81199287D01*
X84836000Y-81199287D01*
X84836000Y-80186879D01*
X103157195Y-80186879D01*
X103164077Y-80189900D01*
X104290820Y-80189900D01*
X104303505Y-80185778D01*
X104306500Y-80181657D01*
X104306500Y-80174220D01*
X105306500Y-80174220D01*
X105310622Y-80186905D01*
X105314743Y-80189900D01*
X106448528Y-80189900D01*
X106459363Y-80186379D01*
X106459363Y-80180513D01*
X106374984Y-80017030D01*
X106370269Y-80009601D01*
X106238942Y-79838452D01*
X106232985Y-79831974D01*
X106073426Y-79686787D01*
X106066423Y-79681471D01*
X105883661Y-79566824D01*
X105875842Y-79562840D01*
X105675661Y-79482368D01*
X105667255Y-79479830D01*
X105455233Y-79435923D01*
X105448050Y-79434977D01*
X105396105Y-79431982D01*
X105393264Y-79431900D01*
X105322180Y-79431900D01*
X105309495Y-79436022D01*
X105306500Y-79440143D01*
X105306500Y-80174220D01*
X104306500Y-80174220D01*
X104306500Y-79447580D01*
X104302378Y-79434895D01*
X104298257Y-79431900D01*
X104251729Y-79431900D01*
X104247325Y-79432096D01*
X104087218Y-79446385D01*
X104078574Y-79447940D01*
X103870480Y-79504869D01*
X103862244Y-79507931D01*
X103667515Y-79600812D01*
X103659956Y-79605283D01*
X103484752Y-79731180D01*
X103478107Y-79736915D01*
X103327966Y-79891850D01*
X103322440Y-79898674D01*
X103202108Y-80077745D01*
X103197879Y-80085437D01*
X103158327Y-80175542D01*
X103157195Y-80186879D01*
X84836000Y-80186879D01*
X84836000Y-78804002D01*
X84854907Y-78745811D01*
X84904407Y-78709847D01*
X84965593Y-78709847D01*
X85015093Y-78745811D01*
X85019185Y-78751906D01*
X85028494Y-78766948D01*
X85035587Y-78775898D01*
X85152539Y-78892647D01*
X85161504Y-78899727D01*
X85302180Y-78986441D01*
X85312534Y-78991269D01*
X85469710Y-79043402D01*
X85480221Y-79045655D01*
X85526501Y-79050397D01*
X85539541Y-79047590D01*
X85541250Y-79045681D01*
X85542100Y-79041657D01*
X85542100Y-79036266D01*
X86542100Y-79036266D01*
X86546222Y-79048951D01*
X86548266Y-79050436D01*
X86552417Y-79050875D01*
X86605272Y-79045391D01*
X86615800Y-79043118D01*
X86772877Y-78990714D01*
X86783224Y-78985867D01*
X86923745Y-78898909D01*
X86932698Y-78891813D01*
X87049447Y-78774861D01*
X87056527Y-78765896D01*
X87143241Y-78625220D01*
X87148069Y-78614866D01*
X87200202Y-78457690D01*
X87202455Y-78447179D01*
X87212341Y-78350688D01*
X87212600Y-78345630D01*
X87212600Y-78163480D01*
X87208478Y-78150795D01*
X87204357Y-78147800D01*
X86557780Y-78147800D01*
X86545095Y-78151922D01*
X86542100Y-78156043D01*
X86542100Y-79036266D01*
X85542100Y-79036266D01*
X85542100Y-77132120D01*
X86542100Y-77132120D01*
X86546222Y-77144805D01*
X86550343Y-77147800D01*
X87196919Y-77147800D01*
X87209604Y-77143678D01*
X87212599Y-77139557D01*
X87212599Y-76950008D01*
X87212333Y-76944878D01*
X87202191Y-76847127D01*
X87199918Y-76836600D01*
X87147514Y-76679523D01*
X87142667Y-76669176D01*
X87055709Y-76528655D01*
X87048613Y-76519702D01*
X86976674Y-76447888D01*
X86948849Y-76393396D01*
X86958368Y-76332956D01*
X86976553Y-76307881D01*
X87049447Y-76234861D01*
X87056527Y-76225896D01*
X87143241Y-76085220D01*
X87148069Y-76074866D01*
X87200202Y-75917690D01*
X87202455Y-75907179D01*
X87212341Y-75810688D01*
X87212600Y-75805630D01*
X87212600Y-75623480D01*
X87208478Y-75610795D01*
X87204357Y-75607800D01*
X86557780Y-75607800D01*
X86545095Y-75611922D01*
X86542100Y-75616043D01*
X86542100Y-77132120D01*
X85542100Y-77132120D01*
X85542100Y-74706800D01*
X85561007Y-74648609D01*
X85610507Y-74612645D01*
X85641100Y-74607800D01*
X87196919Y-74607800D01*
X87209604Y-74603678D01*
X87212599Y-74599557D01*
X87212599Y-74524385D01*
X87231506Y-74466194D01*
X87281006Y-74430230D01*
X87342192Y-74430230D01*
X87381603Y-74454381D01*
X88175104Y-75247882D01*
X88202881Y-75302399D01*
X88204100Y-75317886D01*
X88204100Y-75800572D01*
X88214964Y-75890347D01*
X88270487Y-76030583D01*
X88274566Y-76035957D01*
X88274570Y-76035964D01*
X88346456Y-76130669D01*
X88366600Y-76190524D01*
X88366600Y-76565076D01*
X88346456Y-76624931D01*
X88274570Y-76719636D01*
X88274566Y-76719643D01*
X88270487Y-76725017D01*
X88214964Y-76865253D01*
X88204100Y-76955028D01*
X88204100Y-78340572D01*
X88214964Y-78430347D01*
X88270487Y-78570583D01*
X88361678Y-78690722D01*
X88367057Y-78694805D01*
X88476440Y-78777832D01*
X88476442Y-78777833D01*
X88481817Y-78781913D01*
X88622053Y-78837436D01*
X88711828Y-78848300D01*
X89194514Y-78848300D01*
X89252705Y-78867207D01*
X89264518Y-78877296D01*
X90118454Y-79731232D01*
X90119183Y-79731969D01*
X90181679Y-79795788D01*
X90186331Y-79798786D01*
X90218856Y-79819747D01*
X90226990Y-79825591D01*
X90261554Y-79853183D01*
X90266538Y-79855592D01*
X90266542Y-79855595D01*
X90292859Y-79868317D01*
X90303397Y-79874230D01*
X90332637Y-79893074D01*
X90374212Y-79908206D01*
X90383418Y-79912096D01*
X90418258Y-79928938D01*
X90418261Y-79928939D01*
X90423242Y-79931347D01*
X90457137Y-79939172D01*
X90468707Y-79942599D01*
X90501398Y-79954498D01*
X90543078Y-79959764D01*
X90545274Y-79960041D01*
X90555134Y-79961797D01*
X90572441Y-79965792D01*
X90598230Y-79971746D01*
X90638312Y-79971886D01*
X90639301Y-79971919D01*
X90640103Y-79972020D01*
X90676651Y-79972020D01*
X90676999Y-79972021D01*
X90777820Y-79972373D01*
X90778979Y-79972114D01*
X90780714Y-79972020D01*
X95343489Y-79972020D01*
X95344527Y-79972025D01*
X95433887Y-79972961D01*
X95477121Y-79963613D01*
X95486996Y-79961997D01*
X95504430Y-79960041D01*
X95525455Y-79957683D01*
X95525459Y-79957682D01*
X95530952Y-79957066D01*
X95536172Y-79955248D01*
X95536177Y-79955247D01*
X95563797Y-79945628D01*
X95575435Y-79942357D01*
X95604010Y-79936179D01*
X95609422Y-79935009D01*
X95614436Y-79932671D01*
X95614442Y-79932669D01*
X95649504Y-79916319D01*
X95658786Y-79912550D01*
X95695324Y-79899826D01*
X95700553Y-79898005D01*
X95730046Y-79879576D01*
X95740667Y-79873810D01*
X95767173Y-79861450D01*
X95767180Y-79861446D01*
X95772187Y-79859111D01*
X95776553Y-79855724D01*
X95776560Y-79855720D01*
X95807139Y-79832000D01*
X95815355Y-79826268D01*
X95816437Y-79825592D01*
X95852855Y-79802836D01*
X95881308Y-79774581D01*
X95882017Y-79773918D01*
X95882657Y-79773421D01*
X95908517Y-79747561D01*
X95915661Y-79740467D01*
X95977879Y-79678682D01*
X95977885Y-79678675D01*
X95980287Y-79676290D01*
X95980922Y-79675289D01*
X95982082Y-79673996D01*
X96854582Y-78801496D01*
X96909099Y-78773719D01*
X96924586Y-78772500D01*
X96939034Y-78772500D01*
X96992662Y-78788283D01*
X97007939Y-78798129D01*
X97016068Y-78803971D01*
X97046304Y-78828108D01*
X97046308Y-78828110D01*
X97050634Y-78831564D01*
X97055613Y-78833971D01*
X97055621Y-78833976D01*
X97081943Y-78846701D01*
X97092479Y-78852613D01*
X97117061Y-78868454D01*
X97117064Y-78868456D01*
X97121717Y-78871454D01*
X97163275Y-78886580D01*
X97172499Y-78890476D01*
X97212323Y-78909727D01*
X97246217Y-78917552D01*
X97257796Y-78920983D01*
X97290478Y-78932878D01*
X97334367Y-78938422D01*
X97344208Y-78940176D01*
X97381918Y-78948883D01*
X97381928Y-78948884D01*
X97387311Y-78950127D01*
X97427404Y-78950266D01*
X97428387Y-78950299D01*
X97429183Y-78950400D01*
X97465573Y-78950400D01*
X97465917Y-78950401D01*
X97566901Y-78950753D01*
X97568060Y-78950494D01*
X97569796Y-78950400D01*
X103590107Y-78950400D01*
X103648298Y-78969307D01*
X103653731Y-78973552D01*
X103710130Y-79020876D01*
X103714378Y-79023211D01*
X103714379Y-79023212D01*
X103738124Y-79036266D01*
X103890662Y-79120124D01*
X103895275Y-79121587D01*
X103895279Y-79121589D01*
X104065189Y-79175487D01*
X104087032Y-79182416D01*
X104091844Y-79182956D01*
X104091845Y-79182956D01*
X104244608Y-79200091D01*
X104244610Y-79200091D01*
X104247364Y-79200400D01*
X105358341Y-79200400D01*
X105360736Y-79200165D01*
X105360740Y-79200165D01*
X105506720Y-79185852D01*
X105506724Y-79185851D01*
X105511530Y-79185380D01*
X105516155Y-79183984D01*
X105516158Y-79183983D01*
X105628631Y-79150025D01*
X105708751Y-79125835D01*
X105890651Y-79029118D01*
X106050300Y-78898911D01*
X106071448Y-78873348D01*
X106178535Y-78743902D01*
X106178536Y-78743900D01*
X106181618Y-78740175D01*
X106249372Y-78614866D01*
X106277303Y-78563209D01*
X106277303Y-78563208D01*
X106279603Y-78558955D01*
X106310950Y-78457690D01*
X106339093Y-78366775D01*
X106339094Y-78366771D01*
X106340523Y-78362154D01*
X106341579Y-78352113D01*
X106361551Y-78162085D01*
X106361551Y-78162083D01*
X106362057Y-78157269D01*
X106343386Y-77952103D01*
X106285220Y-77754472D01*
X106189774Y-77571902D01*
X106114856Y-77478722D01*
X106063719Y-77415120D01*
X106063717Y-77415117D01*
X106060685Y-77411347D01*
X105902870Y-77278924D01*
X105898627Y-77276592D01*
X105898625Y-77276590D01*
X105898579Y-77276565D01*
X105898563Y-77276548D01*
X105894633Y-77273857D01*
X105895225Y-77272993D01*
X105856695Y-77231963D01*
X105849028Y-77171259D01*
X105876270Y-77119808D01*
X106098286Y-76897792D01*
X108049501Y-76897792D01*
X108049767Y-76902922D01*
X108059909Y-77000673D01*
X108062182Y-77011200D01*
X108114586Y-77168277D01*
X108119433Y-77178624D01*
X108206391Y-77319145D01*
X108213487Y-77328098D01*
X108330439Y-77444847D01*
X108339404Y-77451927D01*
X108480080Y-77538641D01*
X108490434Y-77543469D01*
X108647610Y-77595602D01*
X108658121Y-77597855D01*
X108704401Y-77602597D01*
X108717441Y-77599790D01*
X108719150Y-77597881D01*
X108720000Y-77593857D01*
X108720000Y-77588466D01*
X109720000Y-77588466D01*
X109724122Y-77601151D01*
X109726166Y-77602636D01*
X109730317Y-77603075D01*
X109783172Y-77597591D01*
X109793700Y-77595318D01*
X109950777Y-77542914D01*
X109961124Y-77538067D01*
X110101645Y-77451109D01*
X110110598Y-77444013D01*
X110227347Y-77327061D01*
X110234427Y-77318096D01*
X110321141Y-77177420D01*
X110325969Y-77167066D01*
X110378102Y-77009890D01*
X110380355Y-76999379D01*
X110390241Y-76902888D01*
X110390500Y-76897830D01*
X110390500Y-76715680D01*
X110386378Y-76702995D01*
X110382257Y-76700000D01*
X109735680Y-76700000D01*
X109722995Y-76704122D01*
X109720000Y-76708243D01*
X109720000Y-77588466D01*
X108720000Y-77588466D01*
X108720000Y-76715680D01*
X108715878Y-76702995D01*
X108711757Y-76700000D01*
X108065181Y-76700000D01*
X108052496Y-76704122D01*
X108049501Y-76708243D01*
X108049501Y-76897792D01*
X106098286Y-76897792D01*
X107311758Y-75684320D01*
X108049500Y-75684320D01*
X108053622Y-75697005D01*
X108057743Y-75700000D01*
X108704320Y-75700000D01*
X108717005Y-75695878D01*
X108720000Y-75691757D01*
X108720000Y-75684320D01*
X109720000Y-75684320D01*
X109724122Y-75697005D01*
X109728243Y-75700000D01*
X110374819Y-75700000D01*
X110387504Y-75695878D01*
X110390499Y-75691757D01*
X110390499Y-75502208D01*
X110390233Y-75497078D01*
X110380091Y-75399327D01*
X110377818Y-75388800D01*
X110325414Y-75231723D01*
X110320567Y-75221376D01*
X110233609Y-75080855D01*
X110226513Y-75071902D01*
X110109561Y-74955153D01*
X110100596Y-74948073D01*
X109959920Y-74861359D01*
X109949566Y-74856531D01*
X109792390Y-74804398D01*
X109781879Y-74802145D01*
X109735599Y-74797403D01*
X109722559Y-74800210D01*
X109720850Y-74802119D01*
X109720000Y-74806143D01*
X109720000Y-75684320D01*
X108720000Y-75684320D01*
X108720000Y-74811534D01*
X108715878Y-74798849D01*
X108713834Y-74797364D01*
X108709683Y-74796925D01*
X108656828Y-74802409D01*
X108646300Y-74804682D01*
X108489223Y-74857086D01*
X108478876Y-74861933D01*
X108338355Y-74948891D01*
X108329402Y-74955987D01*
X108212653Y-75072939D01*
X108205573Y-75081904D01*
X108118859Y-75222580D01*
X108114031Y-75232934D01*
X108061898Y-75390110D01*
X108059645Y-75400621D01*
X108049759Y-75497112D01*
X108049500Y-75502170D01*
X108049500Y-75684320D01*
X107311758Y-75684320D01*
X108506582Y-74489496D01*
X108561099Y-74461719D01*
X108576586Y-74460500D01*
X110735009Y-74460500D01*
X110736047Y-74460505D01*
X110825407Y-74461441D01*
X110868641Y-74452093D01*
X110878516Y-74450477D01*
X110890013Y-74449187D01*
X110916975Y-74446163D01*
X110916979Y-74446162D01*
X110922472Y-74445546D01*
X110927692Y-74443728D01*
X110927697Y-74443727D01*
X110955317Y-74434108D01*
X110966955Y-74430837D01*
X110995530Y-74424659D01*
X111000942Y-74423489D01*
X111005956Y-74421151D01*
X111005962Y-74421149D01*
X111041024Y-74404799D01*
X111050306Y-74401030D01*
X111086844Y-74388306D01*
X111092073Y-74386485D01*
X111115958Y-74371560D01*
X111121566Y-74368056D01*
X111132187Y-74362290D01*
X111158693Y-74349930D01*
X111158700Y-74349926D01*
X111163707Y-74347591D01*
X111168073Y-74344204D01*
X111168080Y-74344200D01*
X111198659Y-74320480D01*
X111206875Y-74314748D01*
X111209453Y-74313137D01*
X111244375Y-74291316D01*
X111272828Y-74263061D01*
X111273537Y-74262398D01*
X111274177Y-74261901D01*
X111300037Y-74236041D01*
X111319740Y-74216475D01*
X111369399Y-74167162D01*
X111369405Y-74167155D01*
X111371807Y-74164770D01*
X111372442Y-74163769D01*
X111373602Y-74162476D01*
X112573712Y-72962366D01*
X112574449Y-72961637D01*
X112634315Y-72903012D01*
X112638268Y-72899141D01*
X112653005Y-72876274D01*
X112662225Y-72861967D01*
X112668071Y-72853832D01*
X112692210Y-72823593D01*
X112692211Y-72823592D01*
X112695664Y-72819266D01*
X112698070Y-72814289D01*
X112698075Y-72814281D01*
X112710803Y-72787952D01*
X112716718Y-72777411D01*
X112732557Y-72752834D01*
X112732558Y-72752832D01*
X112735554Y-72748183D01*
X112750688Y-72706604D01*
X112754578Y-72697397D01*
X112771416Y-72662566D01*
X112771417Y-72662564D01*
X112773827Y-72657578D01*
X112781651Y-72623687D01*
X112785084Y-72612102D01*
X112795083Y-72584631D01*
X112795085Y-72584624D01*
X112796978Y-72579422D01*
X112802521Y-72535546D01*
X112804277Y-72525685D01*
X112812981Y-72487981D01*
X112814226Y-72482589D01*
X112814366Y-72442508D01*
X112814399Y-72441519D01*
X112814500Y-72440717D01*
X112814500Y-72404072D01*
X112814853Y-72303000D01*
X112814594Y-72301841D01*
X112814500Y-72300106D01*
X112814500Y-71650455D01*
X112833407Y-71592264D01*
X112837385Y-71587150D01*
X112905864Y-71504813D01*
X112924837Y-71482001D01*
X113023664Y-71305531D01*
X113036893Y-71266562D01*
X113088678Y-71114007D01*
X113090792Y-71114725D01*
X113118292Y-71069837D01*
X113174817Y-71046415D01*
X113234314Y-71060691D01*
X113274056Y-71107212D01*
X113278223Y-71119484D01*
X113327261Y-71302496D01*
X113423432Y-71508734D01*
X113425913Y-71512277D01*
X113425914Y-71512279D01*
X113513710Y-71637665D01*
X113553953Y-71695139D01*
X113714861Y-71856047D01*
X113901266Y-71986568D01*
X114107504Y-72082739D01*
X114179167Y-72101941D01*
X114323131Y-72140516D01*
X114323133Y-72140516D01*
X114327308Y-72141635D01*
X114554000Y-72161468D01*
X114780692Y-72141635D01*
X114784867Y-72140516D01*
X114784869Y-72140516D01*
X114928833Y-72101941D01*
X115000496Y-72082739D01*
X115206734Y-71986568D01*
X115393139Y-71856047D01*
X115554047Y-71695139D01*
X115594291Y-71637665D01*
X115682086Y-71512279D01*
X115682087Y-71512277D01*
X115684568Y-71508734D01*
X115734277Y-71402134D01*
X115776004Y-71357387D01*
X115836065Y-71345713D01*
X115891518Y-71371571D01*
X115913723Y-71402134D01*
X115963432Y-71508734D01*
X115965913Y-71512277D01*
X115965914Y-71512279D01*
X116053710Y-71637665D01*
X116093953Y-71695139D01*
X116254861Y-71856047D01*
X116441266Y-71986568D01*
X116647504Y-72082739D01*
X116719167Y-72101941D01*
X116863131Y-72140516D01*
X116863133Y-72140516D01*
X116867308Y-72141635D01*
X117094000Y-72161468D01*
X117320692Y-72141635D01*
X117324867Y-72140516D01*
X117324869Y-72140516D01*
X117468833Y-72101941D01*
X117540496Y-72082739D01*
X117746734Y-71986568D01*
X117933139Y-71856047D01*
X118094047Y-71695139D01*
X118134291Y-71637665D01*
X118222086Y-71512279D01*
X118222087Y-71512277D01*
X118224568Y-71508734D01*
X118274277Y-71402134D01*
X118316004Y-71357387D01*
X118376065Y-71345713D01*
X118431518Y-71371571D01*
X118453723Y-71402134D01*
X118503432Y-71508734D01*
X118505913Y-71512277D01*
X118505914Y-71512279D01*
X118593710Y-71637665D01*
X118633953Y-71695139D01*
X118794861Y-71856047D01*
X118981266Y-71986568D01*
X119187504Y-72082739D01*
X119259167Y-72101941D01*
X119403131Y-72140516D01*
X119403133Y-72140516D01*
X119407308Y-72141635D01*
X119634000Y-72161468D01*
X119860692Y-72141635D01*
X119864867Y-72140516D01*
X119864869Y-72140516D01*
X120008833Y-72101941D01*
X120080496Y-72082739D01*
X120286734Y-71986568D01*
X120473139Y-71856047D01*
X120634047Y-71695139D01*
X120674291Y-71637665D01*
X120762086Y-71512279D01*
X120762087Y-71512277D01*
X120764568Y-71508734D01*
X120814277Y-71402134D01*
X120856004Y-71357387D01*
X120916065Y-71345713D01*
X120971518Y-71371571D01*
X120993723Y-71402134D01*
X121043432Y-71508734D01*
X121045913Y-71512277D01*
X121045914Y-71512279D01*
X121133710Y-71637665D01*
X121173953Y-71695139D01*
X121334861Y-71856047D01*
X121521266Y-71986568D01*
X121727504Y-72082739D01*
X121799167Y-72101941D01*
X121943131Y-72140516D01*
X121943133Y-72140516D01*
X121947308Y-72141635D01*
X122174000Y-72161468D01*
X122400692Y-72141635D01*
X122404867Y-72140516D01*
X122404869Y-72140516D01*
X122548833Y-72101941D01*
X122620496Y-72082739D01*
X122826734Y-71986568D01*
X123013139Y-71856047D01*
X123174047Y-71695139D01*
X123214291Y-71637665D01*
X123302086Y-71512279D01*
X123302087Y-71512277D01*
X123304568Y-71508734D01*
X123350139Y-71411007D01*
X123391867Y-71366259D01*
X123451929Y-71354585D01*
X123507381Y-71380443D01*
X123529588Y-71411008D01*
X123575087Y-71508583D01*
X123579394Y-71516043D01*
X123705708Y-71696437D01*
X123711241Y-71703032D01*
X123866968Y-71858759D01*
X123873563Y-71864292D01*
X123901156Y-71883614D01*
X123912049Y-71886944D01*
X123914000Y-71884158D01*
X123914000Y-70155000D01*
X123932907Y-70096809D01*
X123982407Y-70060845D01*
X124013000Y-70056000D01*
X125415000Y-70056000D01*
X125473191Y-70074907D01*
X125509155Y-70124407D01*
X125514000Y-70155000D01*
X125514000Y-71876927D01*
X125517521Y-71887762D01*
X125520919Y-71887762D01*
X125554437Y-71864292D01*
X125561032Y-71858759D01*
X125716759Y-71703032D01*
X125722292Y-71696437D01*
X125848606Y-71516043D01*
X125852918Y-71508573D01*
X125895933Y-71416328D01*
X125937661Y-71371580D01*
X125997722Y-71359905D01*
X126053175Y-71385763D01*
X126071393Y-71408665D01*
X126129080Y-71508583D01*
X126166441Y-71573293D01*
X126184623Y-71604786D01*
X126187401Y-71608097D01*
X126187402Y-71608098D01*
X126292868Y-71733788D01*
X126292878Y-71733798D01*
X126294255Y-71735440D01*
X126726504Y-72167689D01*
X126754281Y-72222206D01*
X126755500Y-72237693D01*
X126755500Y-74419500D01*
X126736593Y-74477691D01*
X126687093Y-74513655D01*
X126656500Y-74518500D01*
X122568678Y-74518500D01*
X122528648Y-74510046D01*
X122473136Y-74485504D01*
X122473134Y-74485504D01*
X122466327Y-74482494D01*
X122452322Y-74480861D01*
X122443494Y-74479832D01*
X122443493Y-74479832D01*
X122440646Y-74479500D01*
X118351354Y-74479500D01*
X118334951Y-74481452D01*
X118332531Y-74481740D01*
X118332530Y-74481740D01*
X118325154Y-74482618D01*
X118222847Y-74528061D01*
X118143759Y-74607287D01*
X118140064Y-74615645D01*
X118107931Y-74688328D01*
X118098494Y-74709673D01*
X118095500Y-74735354D01*
X118095500Y-74880500D01*
X118076593Y-74938691D01*
X118027093Y-74974655D01*
X117996500Y-74979500D01*
X112774037Y-74979500D01*
X112773001Y-74979495D01*
X112683593Y-74978559D01*
X112640361Y-74987906D01*
X112630483Y-74989523D01*
X112592025Y-74993837D01*
X112592022Y-74993838D01*
X112586528Y-74994454D01*
X112581304Y-74996273D01*
X112577934Y-74997039D01*
X112555999Y-74999500D01*
X111889728Y-74999500D01*
X111799953Y-75010364D01*
X111659717Y-75065887D01*
X111654342Y-75069967D01*
X111654340Y-75069968D01*
X111544957Y-75152995D01*
X111539578Y-75157078D01*
X111535495Y-75162457D01*
X111470654Y-75247882D01*
X111448387Y-75277217D01*
X111392864Y-75417453D01*
X111382000Y-75507228D01*
X111382000Y-76892772D01*
X111392864Y-76982547D01*
X111448387Y-77122783D01*
X111452466Y-77128157D01*
X111452470Y-77128164D01*
X111524356Y-77222869D01*
X111544500Y-77282724D01*
X111544500Y-80056909D01*
X111544495Y-80057946D01*
X111543559Y-80147307D01*
X111552768Y-80189900D01*
X111552905Y-80190532D01*
X111554523Y-80200416D01*
X111559454Y-80244372D01*
X111561272Y-80249592D01*
X111561273Y-80249597D01*
X111570892Y-80277217D01*
X111574163Y-80288854D01*
X111579764Y-80314760D01*
X111582000Y-80335681D01*
X111582000Y-81348046D01*
X111585118Y-81374246D01*
X111630561Y-81476553D01*
X111709787Y-81555641D01*
X111718145Y-81559336D01*
X111805364Y-81597896D01*
X111805366Y-81597896D01*
X111812173Y-81600906D01*
X111819567Y-81601768D01*
X111834878Y-81603553D01*
X111837854Y-81603900D01*
X113827146Y-81603900D01*
X113845061Y-81601768D01*
X113845969Y-81601660D01*
X113845970Y-81601660D01*
X113853346Y-81600782D01*
X113955653Y-81555339D01*
X114034741Y-81476113D01*
X114080006Y-81373727D01*
X114083000Y-81348046D01*
X114083000Y-79758754D01*
X114079882Y-79732554D01*
X114034439Y-79630247D01*
X114009432Y-79605283D01*
X113961679Y-79557614D01*
X113955213Y-79551159D01*
X113926091Y-79538284D01*
X113859636Y-79508904D01*
X113859634Y-79508904D01*
X113852827Y-79505894D01*
X113838822Y-79504261D01*
X113829994Y-79503232D01*
X113829993Y-79503232D01*
X113827146Y-79502900D01*
X113244500Y-79502900D01*
X113186309Y-79483993D01*
X113150345Y-79434493D01*
X113145500Y-79403900D01*
X113145500Y-77282724D01*
X113165644Y-77222869D01*
X113237530Y-77128164D01*
X113237534Y-77128157D01*
X113241613Y-77122783D01*
X113297136Y-76982547D01*
X113308000Y-76892772D01*
X113308000Y-76679500D01*
X113326907Y-76621309D01*
X113376407Y-76585345D01*
X113407000Y-76580500D01*
X117996500Y-76580500D01*
X118054691Y-76599407D01*
X118090655Y-76648907D01*
X118095500Y-76679500D01*
X118095500Y-76824646D01*
X118098618Y-76850846D01*
X118144061Y-76953153D01*
X118150529Y-76959610D01*
X118150530Y-76959611D01*
X118167181Y-76976233D01*
X118223287Y-77032241D01*
X118231645Y-77035936D01*
X118318864Y-77074496D01*
X118318866Y-77074496D01*
X118325673Y-77077506D01*
X118333067Y-77078368D01*
X118346937Y-77079985D01*
X118351354Y-77080500D01*
X120105199Y-77080500D01*
X120130822Y-77083873D01*
X120204131Y-77103516D01*
X120204133Y-77103516D01*
X120208308Y-77104635D01*
X120252795Y-77108527D01*
X120376050Y-77119311D01*
X120376061Y-77119311D01*
X120378216Y-77119500D01*
X127307217Y-77119500D01*
X127307221Y-77119501D01*
X127534779Y-77119501D01*
X127539032Y-77118751D01*
X127539033Y-77118751D01*
X127586666Y-77110352D01*
X127595228Y-77109225D01*
X127629142Y-77106258D01*
X127647692Y-77104635D01*
X127651867Y-77103516D01*
X127651869Y-77103516D01*
X127680098Y-77095952D01*
X127698578Y-77091000D01*
X127707002Y-77089133D01*
X127758880Y-77079985D01*
X127808377Y-77061970D01*
X127816610Y-77059374D01*
X127863324Y-77046857D01*
X127863325Y-77046857D01*
X127867496Y-77045739D01*
X127871411Y-77043914D01*
X127871415Y-77043912D01*
X127915237Y-77023478D01*
X127923214Y-77020174D01*
X127968646Y-77003638D01*
X127968656Y-77003633D01*
X127972715Y-77002156D01*
X128018357Y-76975805D01*
X128025992Y-76971831D01*
X128055618Y-76958016D01*
X128069821Y-76951393D01*
X128069824Y-76951392D01*
X128073734Y-76949568D01*
X128116873Y-76919362D01*
X128124157Y-76914722D01*
X128166037Y-76890543D01*
X128166049Y-76890534D01*
X128169786Y-76888377D01*
X128187428Y-76873574D01*
X128210135Y-76854520D01*
X128216987Y-76849262D01*
X128256599Y-76821526D01*
X128256601Y-76821524D01*
X128260139Y-76819047D01*
X128421047Y-76658139D01*
X128421049Y-76658136D01*
X128687567Y-76391618D01*
X130060187Y-76391618D01*
X130068996Y-76400125D01*
X130103015Y-76415988D01*
X130111099Y-76418930D01*
X130323824Y-76475930D01*
X130332312Y-76477426D01*
X130551691Y-76496619D01*
X130560309Y-76496619D01*
X130779688Y-76477426D01*
X130788176Y-76475930D01*
X131000901Y-76418930D01*
X131008985Y-76415988D01*
X131043806Y-76399751D01*
X131051672Y-76392416D01*
X131046305Y-76381411D01*
X130567086Y-75902193D01*
X130555203Y-75896139D01*
X130550172Y-75896935D01*
X130065068Y-76382038D01*
X130060187Y-76391618D01*
X128687567Y-76391618D01*
X128765689Y-76313496D01*
X128820206Y-76285719D01*
X128835693Y-76284500D01*
X128900646Y-76284500D01*
X128917049Y-76282548D01*
X128919469Y-76282260D01*
X128919470Y-76282260D01*
X128926846Y-76281382D01*
X129029153Y-76235939D01*
X129038129Y-76226948D01*
X129101786Y-76163179D01*
X129108241Y-76156713D01*
X129133348Y-76099922D01*
X129150496Y-76061136D01*
X129150496Y-76061134D01*
X129153506Y-76054327D01*
X129156500Y-76028646D01*
X129156500Y-75910890D01*
X129174404Y-75854106D01*
X129184091Y-75840271D01*
X129186568Y-75836734D01*
X129208831Y-75788992D01*
X129212805Y-75781357D01*
X129239156Y-75735715D01*
X129239202Y-75735589D01*
X129280124Y-75691703D01*
X129340185Y-75680027D01*
X129345222Y-75680824D01*
X129358589Y-75674305D01*
X129837807Y-75195086D01*
X129843049Y-75184797D01*
X131268139Y-75184797D01*
X131268935Y-75189828D01*
X131754038Y-75674932D01*
X131763618Y-75679813D01*
X131772125Y-75671004D01*
X131787988Y-75636985D01*
X131790930Y-75628901D01*
X131847930Y-75416176D01*
X131849426Y-75407688D01*
X131868619Y-75188309D01*
X131868619Y-75179691D01*
X131849426Y-74960312D01*
X131847930Y-74951824D01*
X131790930Y-74739099D01*
X131787988Y-74731015D01*
X131771751Y-74696194D01*
X131764416Y-74688328D01*
X131753411Y-74693695D01*
X131274193Y-75172914D01*
X131268139Y-75184797D01*
X129843049Y-75184797D01*
X129843861Y-75183203D01*
X129843064Y-75178170D01*
X129385496Y-74720601D01*
X129357719Y-74666085D01*
X129356500Y-74650598D01*
X129356500Y-73975584D01*
X130060328Y-73975584D01*
X130065695Y-73986589D01*
X130544914Y-74465807D01*
X130556797Y-74471861D01*
X130561828Y-74471065D01*
X131046932Y-73985962D01*
X131051813Y-73976382D01*
X131043004Y-73967875D01*
X131008985Y-73952012D01*
X131000901Y-73949070D01*
X130788176Y-73892070D01*
X130779688Y-73890574D01*
X130560309Y-73871381D01*
X130551691Y-73871381D01*
X130332312Y-73890574D01*
X130323824Y-73892070D01*
X130111099Y-73949070D01*
X130103015Y-73952012D01*
X130068194Y-73968249D01*
X130060328Y-73975584D01*
X129356500Y-73975584D01*
X129356500Y-71771791D01*
X129356501Y-71771767D01*
X129356501Y-71544221D01*
X129355751Y-71539967D01*
X129347352Y-71492334D01*
X129346225Y-71483772D01*
X129342012Y-71435618D01*
X129341635Y-71431308D01*
X129336196Y-71411007D01*
X129328001Y-71380425D01*
X129326132Y-71371994D01*
X129326059Y-71371580D01*
X129316985Y-71320120D01*
X129298970Y-71270623D01*
X129296374Y-71262390D01*
X129283857Y-71215676D01*
X129283857Y-71215675D01*
X129282739Y-71211504D01*
X129274521Y-71193880D01*
X129260478Y-71163763D01*
X129257174Y-71155786D01*
X129240636Y-71110349D01*
X129240632Y-71110341D01*
X129239156Y-71106285D01*
X129212810Y-71060652D01*
X129208830Y-71053006D01*
X129188396Y-71009186D01*
X129186568Y-71005266D01*
X129156353Y-70962113D01*
X129151714Y-70954831D01*
X129127534Y-70912952D01*
X129125376Y-70909214D01*
X129091517Y-70868862D01*
X129086260Y-70862010D01*
X129080092Y-70853201D01*
X129056047Y-70818861D01*
X128895139Y-70657953D01*
X128895136Y-70657951D01*
X128192589Y-69955404D01*
X128164812Y-69900887D01*
X128174383Y-69840455D01*
X128217648Y-69797190D01*
X128262593Y-69786400D01*
X132387084Y-69786400D01*
X132389239Y-69786211D01*
X132389250Y-69786211D01*
X132512505Y-69775427D01*
X132556992Y-69771535D01*
X132561167Y-69770416D01*
X132561169Y-69770416D01*
X132687737Y-69736502D01*
X132776796Y-69712639D01*
X132983034Y-69616468D01*
X132992187Y-69610059D01*
X133165899Y-69488426D01*
X133165901Y-69488424D01*
X133169439Y-69485947D01*
X133330347Y-69325039D01*
X133460868Y-69138634D01*
X133557039Y-68932396D01*
X133596612Y-68784706D01*
X133614816Y-68716769D01*
X133614816Y-68716767D01*
X133615935Y-68712592D01*
X133635768Y-68485900D01*
X133615935Y-68259208D01*
X133557039Y-68039404D01*
X133460868Y-67833166D01*
X133330347Y-67646761D01*
X133169439Y-67485853D01*
X133066889Y-67414047D01*
X132986579Y-67357814D01*
X132986577Y-67357813D01*
X132983034Y-67355332D01*
X132876434Y-67305623D01*
X132831687Y-67263896D01*
X132820013Y-67203835D01*
X132845871Y-67148382D01*
X132876434Y-67126177D01*
X132983034Y-67076468D01*
X133169439Y-66945947D01*
X133330347Y-66785039D01*
X133460868Y-66598634D01*
X133557039Y-66392396D01*
X133615935Y-66172592D01*
X133635768Y-65945900D01*
X133615935Y-65719208D01*
X133608891Y-65692917D01*
X133558157Y-65503577D01*
X133557039Y-65499404D01*
X133460868Y-65293166D01*
X133426922Y-65244686D01*
X133332826Y-65110301D01*
X133332824Y-65110299D01*
X133330347Y-65106761D01*
X133169439Y-64945853D01*
X133066889Y-64874047D01*
X132986579Y-64817814D01*
X132986577Y-64817813D01*
X132983034Y-64815332D01*
X132876434Y-64765623D01*
X132831687Y-64723896D01*
X132820013Y-64663835D01*
X132845871Y-64608382D01*
X132876434Y-64586177D01*
X132983034Y-64536468D01*
X133169439Y-64405947D01*
X133330347Y-64245039D01*
X133460868Y-64058634D01*
X133557039Y-63852396D01*
X133615935Y-63632592D01*
X133635768Y-63405900D01*
X133615935Y-63179208D01*
X133557039Y-62959404D01*
X133460868Y-62753166D01*
X133330347Y-62566761D01*
X133169439Y-62405853D01*
X133066889Y-62334047D01*
X132986579Y-62277814D01*
X132986577Y-62277813D01*
X132983034Y-62275332D01*
X132876434Y-62225623D01*
X132831687Y-62183896D01*
X132820013Y-62123835D01*
X132845871Y-62068382D01*
X132876434Y-62046177D01*
X132920398Y-62025676D01*
X132962237Y-62016400D01*
X133224946Y-62016400D01*
X133241349Y-62014448D01*
X133243769Y-62014160D01*
X133243770Y-62014160D01*
X133251146Y-62013282D01*
X133353453Y-61967839D01*
X133432541Y-61888613D01*
X133451197Y-61846414D01*
X133474796Y-61793036D01*
X133474796Y-61793034D01*
X133477806Y-61786227D01*
X133480800Y-61760546D01*
X133480800Y-61497837D01*
X133490076Y-61455998D01*
X133555211Y-61316316D01*
X133557039Y-61312396D01*
X133615935Y-61092592D01*
X133635768Y-60865900D01*
X133615935Y-60639208D01*
X133557039Y-60419404D01*
X133528463Y-60358122D01*
X133490076Y-60275802D01*
X133480800Y-60233963D01*
X133480800Y-59971254D01*
X133477682Y-59945054D01*
X133432239Y-59842747D01*
X133422636Y-59833160D01*
X133383895Y-59794487D01*
X133353013Y-59763659D01*
X133303925Y-59741957D01*
X133257436Y-59721404D01*
X133257434Y-59721404D01*
X133250627Y-59718394D01*
X133224946Y-59715400D01*
X132962237Y-59715400D01*
X132920398Y-59706124D01*
X132780716Y-59640989D01*
X132780717Y-59640989D01*
X132776796Y-59639161D01*
X132648988Y-59604915D01*
X132561169Y-59581384D01*
X132561167Y-59581384D01*
X132556992Y-59580265D01*
X132500219Y-59575298D01*
X132389250Y-59565589D01*
X132389239Y-59565589D01*
X132387084Y-59565400D01*
X120095883Y-59565400D01*
X120095879Y-59565399D01*
X119868321Y-59565399D01*
X119840253Y-59570348D01*
X119816436Y-59574548D01*
X119807872Y-59575675D01*
X119778191Y-59578272D01*
X119755408Y-59580265D01*
X119751234Y-59581384D01*
X119751231Y-59581384D01*
X119704521Y-59593900D01*
X119696090Y-59595769D01*
X119679064Y-59598771D01*
X119644221Y-59604915D01*
X119640163Y-59606392D01*
X119640159Y-59606393D01*
X119610373Y-59617234D01*
X119594717Y-59622932D01*
X119586505Y-59625522D01*
X119535604Y-59639161D01*
X119531693Y-59640985D01*
X119531684Y-59640988D01*
X119487863Y-59661422D01*
X119479886Y-59664726D01*
X119434454Y-59681262D01*
X119434444Y-59681267D01*
X119430385Y-59682744D01*
X119384743Y-59709095D01*
X119377108Y-59713069D01*
X119365689Y-59718394D01*
X119333279Y-59733507D01*
X119333276Y-59733508D01*
X119329366Y-59735332D01*
X119319522Y-59742225D01*
X119286227Y-59765538D01*
X119278943Y-59770178D01*
X119237063Y-59794357D01*
X119237051Y-59794366D01*
X119233314Y-59796523D01*
X119230003Y-59799301D01*
X119230002Y-59799302D01*
X119192965Y-59830380D01*
X119186113Y-59835638D01*
X119142961Y-59865853D01*
X118982053Y-60026761D01*
X118982051Y-60026764D01*
X113714864Y-65293951D01*
X113714861Y-65293953D01*
X113553953Y-65454861D01*
X113551476Y-65458399D01*
X113551474Y-65458401D01*
X113523738Y-65498013D01*
X113518480Y-65504865D01*
X113509638Y-65515403D01*
X113484623Y-65545214D01*
X113482466Y-65548951D01*
X113482457Y-65548963D01*
X113458278Y-65590843D01*
X113453638Y-65598127D01*
X113423432Y-65641266D01*
X113421608Y-65645176D01*
X113421607Y-65645179D01*
X113401173Y-65689000D01*
X113397195Y-65696643D01*
X113370844Y-65742285D01*
X113369367Y-65746344D01*
X113369362Y-65746354D01*
X113352826Y-65791786D01*
X113349522Y-65799763D01*
X113329088Y-65843585D01*
X113327261Y-65847504D01*
X113326143Y-65851675D01*
X113326143Y-65851676D01*
X113313626Y-65898390D01*
X113311030Y-65906623D01*
X113293015Y-65956120D01*
X113286213Y-65994694D01*
X113283868Y-66007994D01*
X113282000Y-66016422D01*
X113268365Y-66067308D01*
X113267988Y-66071618D01*
X113263775Y-66119772D01*
X113262648Y-66128334D01*
X113254844Y-66172592D01*
X113253499Y-66180221D01*
X113253499Y-66407767D01*
X113253500Y-66407791D01*
X113253500Y-70480601D01*
X113234593Y-70538792D01*
X113185093Y-70574756D01*
X113123907Y-70574756D01*
X113074407Y-70538792D01*
X113059217Y-70507474D01*
X113047039Y-70464296D01*
X113045807Y-70459926D01*
X112956351Y-70278527D01*
X112835335Y-70116467D01*
X112686812Y-69979174D01*
X112664125Y-69964859D01*
X112519594Y-69873667D01*
X112515757Y-69871246D01*
X112516108Y-69870690D01*
X112475290Y-69829872D01*
X112464500Y-69784928D01*
X112464500Y-65556411D01*
X112483407Y-65498220D01*
X112493496Y-65486407D01*
X118659484Y-59320419D01*
X118668197Y-59312677D01*
X118690299Y-59295253D01*
X118696110Y-59290672D01*
X118729714Y-59242051D01*
X118731517Y-59239528D01*
X118762236Y-59197939D01*
X118762237Y-59197937D01*
X118766634Y-59191984D01*
X118769027Y-59185168D01*
X118773131Y-59179231D01*
X118790956Y-59122871D01*
X118791936Y-59119933D01*
X118807368Y-59075991D01*
X118844488Y-59027353D01*
X118903109Y-59009823D01*
X118955777Y-59026480D01*
X119106637Y-59127282D01*
X119292470Y-59207122D01*
X119489740Y-59251760D01*
X119691842Y-59259700D01*
X119701651Y-59258278D01*
X119887519Y-59231329D01*
X119887522Y-59231328D01*
X119892007Y-59230678D01*
X120015602Y-59188723D01*
X120079234Y-59167123D01*
X120079237Y-59167121D01*
X120083531Y-59165664D01*
X120260001Y-59066837D01*
X120415505Y-58937505D01*
X120544837Y-58782001D01*
X120643664Y-58605531D01*
X120647824Y-58593278D01*
X120682343Y-58491587D01*
X120708678Y-58414007D01*
X120711068Y-58397527D01*
X120737283Y-58216717D01*
X120737700Y-58213842D01*
X120739215Y-58156000D01*
X120736557Y-58127069D01*
X121069164Y-58127069D01*
X121082392Y-58328894D01*
X121083508Y-58333287D01*
X121083508Y-58333289D01*
X121125569Y-58498905D01*
X121132178Y-58524928D01*
X121216856Y-58708607D01*
X121333588Y-58873780D01*
X121478466Y-59014913D01*
X121646637Y-59127282D01*
X121832470Y-59207122D01*
X122029740Y-59251760D01*
X122231842Y-59259700D01*
X122241651Y-59258278D01*
X122427519Y-59231329D01*
X122427522Y-59231328D01*
X122432007Y-59230678D01*
X122555602Y-59188723D01*
X122619234Y-59167123D01*
X122619237Y-59167121D01*
X122623531Y-59165664D01*
X122800001Y-59066837D01*
X122955505Y-58937505D01*
X123084837Y-58782001D01*
X123183664Y-58605531D01*
X123187824Y-58593278D01*
X123222343Y-58491587D01*
X123248678Y-58414007D01*
X123251068Y-58397527D01*
X123277283Y-58216717D01*
X123277700Y-58213842D01*
X123279215Y-58156000D01*
X123276557Y-58127069D01*
X123609164Y-58127069D01*
X123622392Y-58328894D01*
X123623508Y-58333287D01*
X123623508Y-58333289D01*
X123665569Y-58498905D01*
X123672178Y-58524928D01*
X123756856Y-58708607D01*
X123873588Y-58873780D01*
X124018466Y-59014913D01*
X124186637Y-59127282D01*
X124372470Y-59207122D01*
X124569740Y-59251760D01*
X124771842Y-59259700D01*
X124781651Y-59258278D01*
X124967519Y-59231329D01*
X124967522Y-59231328D01*
X124972007Y-59230678D01*
X125095602Y-59188723D01*
X125159234Y-59167123D01*
X125159237Y-59167121D01*
X125163531Y-59165664D01*
X125340001Y-59066837D01*
X125495505Y-58937505D01*
X125624837Y-58782001D01*
X125723664Y-58605531D01*
X125727824Y-58593278D01*
X125762343Y-58491587D01*
X125788678Y-58414007D01*
X125791068Y-58397527D01*
X125817283Y-58216717D01*
X125817700Y-58213842D01*
X125819215Y-58156000D01*
X125816557Y-58127069D01*
X126149164Y-58127069D01*
X126162392Y-58328894D01*
X126163508Y-58333287D01*
X126163508Y-58333289D01*
X126205569Y-58498905D01*
X126212178Y-58524928D01*
X126296856Y-58708607D01*
X126413588Y-58873780D01*
X126558466Y-59014913D01*
X126726637Y-59127282D01*
X126912470Y-59207122D01*
X127109740Y-59251760D01*
X127311842Y-59259700D01*
X127321651Y-59258278D01*
X127507519Y-59231329D01*
X127507522Y-59231328D01*
X127512007Y-59230678D01*
X127635602Y-59188723D01*
X127699234Y-59167123D01*
X127699237Y-59167121D01*
X127703531Y-59165664D01*
X127880001Y-59066837D01*
X128035505Y-58937505D01*
X128164837Y-58782001D01*
X128263664Y-58605531D01*
X128267824Y-58593278D01*
X128302343Y-58491587D01*
X128328678Y-58414007D01*
X128331068Y-58397527D01*
X128357283Y-58216717D01*
X128357700Y-58213842D01*
X128359215Y-58156000D01*
X128340708Y-57954591D01*
X128285807Y-57759926D01*
X128196351Y-57578527D01*
X128075335Y-57416467D01*
X127926812Y-57279174D01*
X127908835Y-57267831D01*
X127759594Y-57173667D01*
X127755757Y-57171246D01*
X127567898Y-57096298D01*
X127369526Y-57056839D01*
X127269930Y-57055535D01*
X127171826Y-57054251D01*
X127171821Y-57054251D01*
X127167286Y-57054192D01*
X127162813Y-57054961D01*
X127162808Y-57054961D01*
X127064245Y-57071898D01*
X126967949Y-57088444D01*
X126778193Y-57158449D01*
X126604371Y-57261862D01*
X126600956Y-57264857D01*
X126600953Y-57264859D01*
X126581119Y-57282253D01*
X126452305Y-57395220D01*
X126327089Y-57554057D01*
X126232914Y-57733053D01*
X126231569Y-57737384D01*
X126231568Y-57737387D01*
X126221430Y-57770039D01*
X126172937Y-57926213D01*
X126149164Y-58127069D01*
X125816557Y-58127069D01*
X125800708Y-57954591D01*
X125745807Y-57759926D01*
X125656351Y-57578527D01*
X125535335Y-57416467D01*
X125386812Y-57279174D01*
X125368835Y-57267831D01*
X125219594Y-57173667D01*
X125215757Y-57171246D01*
X125027898Y-57096298D01*
X124829526Y-57056839D01*
X124729930Y-57055535D01*
X124631826Y-57054251D01*
X124631821Y-57054251D01*
X124627286Y-57054192D01*
X124622813Y-57054961D01*
X124622808Y-57054961D01*
X124524245Y-57071898D01*
X124427949Y-57088444D01*
X124238193Y-57158449D01*
X124064371Y-57261862D01*
X124060956Y-57264857D01*
X124060953Y-57264859D01*
X124041119Y-57282253D01*
X123912305Y-57395220D01*
X123787089Y-57554057D01*
X123692914Y-57733053D01*
X123691569Y-57737384D01*
X123691568Y-57737387D01*
X123681430Y-57770039D01*
X123632937Y-57926213D01*
X123609164Y-58127069D01*
X123276557Y-58127069D01*
X123260708Y-57954591D01*
X123205807Y-57759926D01*
X123116351Y-57578527D01*
X122995335Y-57416467D01*
X122846812Y-57279174D01*
X122828835Y-57267831D01*
X122679594Y-57173667D01*
X122675757Y-57171246D01*
X122487898Y-57096298D01*
X122289526Y-57056839D01*
X122189930Y-57055535D01*
X122091826Y-57054251D01*
X122091821Y-57054251D01*
X122087286Y-57054192D01*
X122082813Y-57054961D01*
X122082808Y-57054961D01*
X121984245Y-57071898D01*
X121887949Y-57088444D01*
X121698193Y-57158449D01*
X121524371Y-57261862D01*
X121520956Y-57264857D01*
X121520953Y-57264859D01*
X121501119Y-57282253D01*
X121372305Y-57395220D01*
X121247089Y-57554057D01*
X121152914Y-57733053D01*
X121151569Y-57737384D01*
X121151568Y-57737387D01*
X121141430Y-57770039D01*
X121092937Y-57926213D01*
X121069164Y-58127069D01*
X120736557Y-58127069D01*
X120720708Y-57954591D01*
X120665807Y-57759926D01*
X120576351Y-57578527D01*
X120455335Y-57416467D01*
X120306812Y-57279174D01*
X120288835Y-57267831D01*
X120139594Y-57173667D01*
X120135757Y-57171246D01*
X119947898Y-57096298D01*
X119749526Y-57056839D01*
X119643526Y-57055452D01*
X119551822Y-57054251D01*
X119551818Y-57054251D01*
X119547286Y-57054192D01*
X119545335Y-57054527D01*
X119486576Y-57040421D01*
X119446839Y-56993895D01*
X119442038Y-56932898D01*
X119468299Y-56886005D01*
X120096408Y-56257896D01*
X120150925Y-56230119D01*
X120166412Y-56228900D01*
X123462173Y-56228900D01*
X123473809Y-56229586D01*
X123509110Y-56233764D01*
X123516386Y-56232435D01*
X123516389Y-56232435D01*
X123547088Y-56226828D01*
X123567230Y-56223149D01*
X123570276Y-56222642D01*
X123628762Y-56213849D01*
X123635275Y-56210721D01*
X123642373Y-56209425D01*
X123694782Y-56182201D01*
X123697562Y-56180812D01*
X123744208Y-56158413D01*
X123744211Y-56158411D01*
X123750879Y-56155209D01*
X123755321Y-56151103D01*
X123757581Y-56149580D01*
X123762588Y-56146979D01*
X123767628Y-56142675D01*
X123805260Y-56105043D01*
X123808063Y-56102349D01*
X123844924Y-56068276D01*
X123844926Y-56068273D01*
X123850356Y-56063254D01*
X123853878Y-56057190D01*
X123860438Y-56049865D01*
X125365807Y-54544496D01*
X125420324Y-54516719D01*
X125435811Y-54515500D01*
X125892772Y-54515500D01*
X125982547Y-54504636D01*
X126122783Y-54449113D01*
X126128158Y-54445033D01*
X126128160Y-54445032D01*
X126237543Y-54362005D01*
X126242922Y-54357922D01*
X126334113Y-54237783D01*
X126389636Y-54097547D01*
X126400500Y-54007772D01*
X126400500Y-52672228D01*
X126389636Y-52582453D01*
X126349630Y-52481407D01*
X126336598Y-52448493D01*
X126336597Y-52448492D01*
X126334113Y-52442217D01*
X126314667Y-52416597D01*
X126247005Y-52327457D01*
X126242922Y-52322078D01*
X126141636Y-52245197D01*
X126128160Y-52234968D01*
X126128158Y-52234967D01*
X126122783Y-52230887D01*
X125982547Y-52175364D01*
X125892772Y-52164500D01*
X125007228Y-52164500D01*
X124917453Y-52175364D01*
X124777217Y-52230887D01*
X124771842Y-52234967D01*
X124771840Y-52234968D01*
X124758364Y-52245197D01*
X124657078Y-52322078D01*
X124652995Y-52327457D01*
X124585334Y-52416597D01*
X124565887Y-52442217D01*
X124563403Y-52448492D01*
X124563402Y-52448493D01*
X124550370Y-52481407D01*
X124510364Y-52582453D01*
X124499500Y-52672228D01*
X124499500Y-54007772D01*
X124507619Y-54074861D01*
X124495840Y-54134899D01*
X124479340Y-54156757D01*
X123337193Y-55298904D01*
X123282676Y-55326681D01*
X123267189Y-55327900D01*
X119971427Y-55327900D01*
X119959791Y-55327214D01*
X119955287Y-55326681D01*
X119924490Y-55323036D01*
X119866367Y-55333651D01*
X119863320Y-55334158D01*
X119839928Y-55337675D01*
X119812153Y-55341851D01*
X119812152Y-55341851D01*
X119804838Y-55342951D01*
X119798328Y-55346077D01*
X119791227Y-55347374D01*
X119763301Y-55361880D01*
X119738805Y-55374604D01*
X119736027Y-55375992D01*
X119689400Y-55398383D01*
X119689396Y-55398385D01*
X119682721Y-55401591D01*
X119678282Y-55405695D01*
X119676021Y-55407219D01*
X119671012Y-55409820D01*
X119665972Y-55414124D01*
X119628327Y-55451769D01*
X119625525Y-55454462D01*
X119583244Y-55493546D01*
X119579723Y-55499608D01*
X119573168Y-55506928D01*
X118068512Y-57011585D01*
X118059797Y-57019327D01*
X118031890Y-57041328D01*
X117998292Y-57089941D01*
X117996483Y-57092472D01*
X117966767Y-57132704D01*
X117961366Y-57140016D01*
X117958973Y-57146832D01*
X117954869Y-57152769D01*
X117952636Y-57159828D01*
X117952636Y-57159829D01*
X117937049Y-57209115D01*
X117936064Y-57212066D01*
X117926701Y-57238727D01*
X117889581Y-57287366D01*
X117830961Y-57304896D01*
X117773027Y-57284466D01*
X117770143Y-57282253D01*
X117766812Y-57279174D01*
X117595757Y-57171246D01*
X117407898Y-57096298D01*
X117209526Y-57056839D01*
X117109930Y-57055535D01*
X117011826Y-57054251D01*
X117011821Y-57054251D01*
X117007286Y-57054192D01*
X117002813Y-57054961D01*
X117002808Y-57054961D01*
X116904245Y-57071898D01*
X116807949Y-57088444D01*
X116618193Y-57158449D01*
X116444371Y-57261862D01*
X116440956Y-57264857D01*
X116440953Y-57264859D01*
X116421119Y-57282253D01*
X116292305Y-57395220D01*
X116167089Y-57554057D01*
X116072914Y-57733053D01*
X116071569Y-57737384D01*
X116071568Y-57737387D01*
X116061430Y-57770039D01*
X116012937Y-57926213D01*
X115989164Y-58127069D01*
X116002392Y-58328894D01*
X116003508Y-58333287D01*
X116003508Y-58333289D01*
X116045569Y-58498905D01*
X116052178Y-58524928D01*
X116136856Y-58708607D01*
X116253588Y-58873780D01*
X116398466Y-59014913D01*
X116566637Y-59127282D01*
X116752470Y-59207122D01*
X116949740Y-59251760D01*
X117151842Y-59259700D01*
X117156325Y-59259050D01*
X117156326Y-59259050D01*
X117200924Y-59252584D01*
X117261226Y-59262947D01*
X117303920Y-59306774D01*
X117312699Y-59367326D01*
X117285133Y-59420564D01*
X111718516Y-64987181D01*
X111709804Y-64994922D01*
X111681890Y-65016928D01*
X111677683Y-65023015D01*
X111648292Y-65065541D01*
X111646488Y-65068064D01*
X111611366Y-65115616D01*
X111608973Y-65122432D01*
X111604869Y-65128369D01*
X111602636Y-65135428D01*
X111602636Y-65135429D01*
X111587049Y-65184715D01*
X111586082Y-65187614D01*
X111566481Y-65243431D01*
X111566244Y-65249473D01*
X111565723Y-65252147D01*
X111564020Y-65257530D01*
X111563500Y-65264137D01*
X111563500Y-65317341D01*
X111563424Y-65321228D01*
X111561162Y-65378794D01*
X111562959Y-65385572D01*
X111563500Y-65395397D01*
X111563500Y-69787096D01*
X111544593Y-69845287D01*
X111515118Y-69872177D01*
X111513365Y-69873220D01*
X111364371Y-69961862D01*
X111360956Y-69964857D01*
X111360953Y-69964859D01*
X111262487Y-70051212D01*
X111212305Y-70095220D01*
X111209497Y-70098782D01*
X111092081Y-70247725D01*
X111087089Y-70254057D01*
X110992914Y-70433053D01*
X110985835Y-70455852D01*
X110975546Y-70488988D01*
X110940233Y-70538954D01*
X110882295Y-70558622D01*
X110823862Y-70540477D01*
X110787253Y-70491452D01*
X110781999Y-70459630D01*
X110781999Y-70010589D01*
X110781710Y-70005249D01*
X110775922Y-69951965D01*
X110773073Y-69939980D01*
X110726649Y-69816145D01*
X110719941Y-69803892D01*
X110641137Y-69698744D01*
X110631256Y-69688863D01*
X110526108Y-69610059D01*
X110513855Y-69603351D01*
X110390022Y-69556928D01*
X110378033Y-69554077D01*
X110324748Y-69548289D01*
X110319414Y-69548000D01*
X109743680Y-69548000D01*
X109730995Y-69552122D01*
X109728000Y-69556243D01*
X109728000Y-72148319D01*
X109732122Y-72161004D01*
X109736243Y-72163999D01*
X110319411Y-72163999D01*
X110324751Y-72163710D01*
X110378035Y-72157922D01*
X110390020Y-72155073D01*
X110513855Y-72108649D01*
X110526108Y-72101941D01*
X110631256Y-72023137D01*
X110641137Y-72013256D01*
X110719941Y-71908108D01*
X110726649Y-71895855D01*
X110773072Y-71772022D01*
X110775923Y-71760033D01*
X110781711Y-71706748D01*
X110782000Y-71701414D01*
X110782000Y-71262783D01*
X110800907Y-71204592D01*
X110850407Y-71168628D01*
X110911593Y-71168628D01*
X110961093Y-71204592D01*
X110971866Y-71225072D01*
X110972178Y-71224928D01*
X111056856Y-71408607D01*
X111173588Y-71573780D01*
X111176831Y-71576939D01*
X111176836Y-71576945D01*
X111183582Y-71583516D01*
X111212070Y-71637665D01*
X111213500Y-71654429D01*
X111213500Y-72017414D01*
X111194593Y-72075605D01*
X111184504Y-72087418D01*
X110441418Y-72830504D01*
X110386901Y-72858281D01*
X110371414Y-72859500D01*
X108213037Y-72859500D01*
X108212001Y-72859495D01*
X108122593Y-72858559D01*
X108079361Y-72867906D01*
X108069483Y-72869523D01*
X108031026Y-72873837D01*
X108031024Y-72873838D01*
X108025528Y-72874454D01*
X108020302Y-72876274D01*
X108020301Y-72876274D01*
X107992690Y-72885889D01*
X107981056Y-72889159D01*
X107970992Y-72891335D01*
X107952472Y-72895339D01*
X107952469Y-72895340D01*
X107947058Y-72896510D01*
X107907033Y-72915174D01*
X107906967Y-72915205D01*
X107897685Y-72918974D01*
X107855927Y-72933515D01*
X107826435Y-72951944D01*
X107815822Y-72957707D01*
X107784293Y-72972409D01*
X107779923Y-72975799D01*
X107779921Y-72975800D01*
X107749350Y-72999514D01*
X107741138Y-73005243D01*
X107703625Y-73028684D01*
X107675173Y-73056938D01*
X107674464Y-73057601D01*
X107673824Y-73058098D01*
X107647963Y-73083959D01*
X107647718Y-73084202D01*
X107578601Y-73152838D01*
X107578595Y-73152845D01*
X107576193Y-73155230D01*
X107575558Y-73156231D01*
X107574398Y-73157524D01*
X104246788Y-76485134D01*
X104246051Y-76485863D01*
X104182232Y-76548359D01*
X104179234Y-76553011D01*
X104158275Y-76585533D01*
X104152429Y-76593668D01*
X104130364Y-76621309D01*
X104124836Y-76628234D01*
X104122430Y-76633211D01*
X104122425Y-76633219D01*
X104109697Y-76659548D01*
X104103782Y-76670089D01*
X104088476Y-76693840D01*
X104084946Y-76699317D01*
X104069812Y-76740896D01*
X104065923Y-76750101D01*
X104046673Y-76789922D01*
X104045428Y-76795315D01*
X104038850Y-76823808D01*
X104035416Y-76835398D01*
X104025417Y-76862869D01*
X104025415Y-76862876D01*
X104023522Y-76868078D01*
X104022828Y-76873574D01*
X104017979Y-76911954D01*
X104016223Y-76921815D01*
X104014512Y-76929228D01*
X104006274Y-76964911D01*
X104006134Y-77004981D01*
X104006101Y-77005981D01*
X104006000Y-77006783D01*
X104006000Y-77043392D01*
X104005941Y-77060492D01*
X104005907Y-77070094D01*
X103986797Y-77128218D01*
X103935522Y-77164523D01*
X103904249Y-77173965D01*
X103722349Y-77270682D01*
X103709707Y-77280993D01*
X103653151Y-77327119D01*
X103590580Y-77349400D01*
X97976500Y-77349400D01*
X97918309Y-77330493D01*
X97882345Y-77280993D01*
X97877500Y-77250400D01*
X97877500Y-76929228D01*
X97866636Y-76839453D01*
X97811113Y-76699217D01*
X97796165Y-76679523D01*
X97724005Y-76584457D01*
X97719922Y-76579078D01*
X97714543Y-76574995D01*
X97683568Y-76551483D01*
X97648649Y-76501240D01*
X97649931Y-76440068D01*
X97691329Y-76388442D01*
X97821145Y-76308109D01*
X97830098Y-76301013D01*
X97946847Y-76184061D01*
X97953927Y-76175096D01*
X98040641Y-76034420D01*
X98045469Y-76024066D01*
X98097602Y-75866890D01*
X98099855Y-75856379D01*
X98109741Y-75759888D01*
X98110000Y-75754830D01*
X98110000Y-75326680D01*
X98105878Y-75313995D01*
X98101757Y-75311000D01*
X95784681Y-75311000D01*
X95771996Y-75315122D01*
X95769001Y-75319243D01*
X95769001Y-75754792D01*
X95769267Y-75759922D01*
X95779409Y-75857673D01*
X95781682Y-75868200D01*
X95834086Y-76025277D01*
X95838933Y-76035624D01*
X95925891Y-76176145D01*
X95932987Y-76185098D01*
X96049939Y-76301847D01*
X96058904Y-76308927D01*
X96173831Y-76379769D01*
X96213446Y-76426399D01*
X96218087Y-76487408D01*
X96181739Y-76542901D01*
X96170433Y-76551483D01*
X96134078Y-76579078D01*
X96129995Y-76584457D01*
X96057836Y-76679523D01*
X96042887Y-76699217D01*
X95987364Y-76839453D01*
X95976500Y-76929228D01*
X95976500Y-77374414D01*
X95957593Y-77432605D01*
X95947504Y-77444418D01*
X95049898Y-78342024D01*
X94995381Y-78369801D01*
X94979894Y-78371020D01*
X94876063Y-78371020D01*
X94817872Y-78352113D01*
X94781908Y-78302613D01*
X94777294Y-78266472D01*
X94777500Y-78264772D01*
X94777500Y-76929228D01*
X94766636Y-76839453D01*
X94711113Y-76699217D01*
X94696165Y-76679523D01*
X94624005Y-76584457D01*
X94619922Y-76579078D01*
X94583567Y-76551483D01*
X94505160Y-76491968D01*
X94505158Y-76491967D01*
X94499783Y-76487887D01*
X94493507Y-76485402D01*
X94493505Y-76485401D01*
X94477557Y-76479087D01*
X94430412Y-76440087D01*
X94415000Y-76387039D01*
X94415000Y-76291961D01*
X94433907Y-76233770D01*
X94477557Y-76199913D01*
X94493505Y-76193599D01*
X94493507Y-76193598D01*
X94499783Y-76191113D01*
X94505158Y-76187033D01*
X94505160Y-76187032D01*
X94614543Y-76104005D01*
X94619922Y-76099922D01*
X94624005Y-76094543D01*
X94707032Y-75985160D01*
X94707033Y-75985158D01*
X94711113Y-75979783D01*
X94766636Y-75839547D01*
X94777500Y-75749772D01*
X94777500Y-74787320D01*
X95769000Y-74787320D01*
X95773122Y-74800005D01*
X95777243Y-74803000D01*
X96669820Y-74803000D01*
X96682505Y-74798878D01*
X96685500Y-74794757D01*
X96685500Y-74787320D01*
X97193500Y-74787320D01*
X97197622Y-74800005D01*
X97201743Y-74803000D01*
X98094319Y-74803000D01*
X98107004Y-74798878D01*
X98109999Y-74794757D01*
X98109999Y-74359208D01*
X98109733Y-74354078D01*
X98099591Y-74256327D01*
X98097318Y-74245800D01*
X98044914Y-74088723D01*
X98040067Y-74078376D01*
X97953109Y-73937855D01*
X97946013Y-73928902D01*
X97829061Y-73812153D01*
X97820096Y-73805073D01*
X97679420Y-73718359D01*
X97669066Y-73713531D01*
X97511890Y-73661398D01*
X97501379Y-73659145D01*
X97404888Y-73649259D01*
X97399830Y-73649000D01*
X97209180Y-73649000D01*
X97196495Y-73653122D01*
X97193500Y-73657243D01*
X97193500Y-74787320D01*
X96685500Y-74787320D01*
X96685500Y-73664681D01*
X96681378Y-73651996D01*
X96677257Y-73649001D01*
X96479208Y-73649001D01*
X96474078Y-73649267D01*
X96376327Y-73659409D01*
X96365800Y-73661682D01*
X96208723Y-73714086D01*
X96198376Y-73718933D01*
X96057855Y-73805891D01*
X96048902Y-73812987D01*
X95932153Y-73929939D01*
X95925073Y-73938904D01*
X95838359Y-74079580D01*
X95833531Y-74089934D01*
X95781398Y-74247110D01*
X95779145Y-74257621D01*
X95769259Y-74354112D01*
X95769000Y-74359171D01*
X95769000Y-74787320D01*
X94777500Y-74787320D01*
X94777500Y-74364228D01*
X94766636Y-74274453D01*
X94722669Y-74163404D01*
X94713598Y-74140493D01*
X94713597Y-74140492D01*
X94711113Y-74134217D01*
X94657947Y-74064173D01*
X94624005Y-74019457D01*
X94619922Y-74014078D01*
X94570260Y-73976382D01*
X94505160Y-73926968D01*
X94505158Y-73926967D01*
X94499783Y-73922887D01*
X94359547Y-73867364D01*
X94269772Y-73856500D01*
X93504243Y-73856500D01*
X93446052Y-73837593D01*
X93434239Y-73827504D01*
X93168439Y-73561704D01*
X93140662Y-73507187D01*
X93150233Y-73446755D01*
X93193498Y-73403490D01*
X93238443Y-73392700D01*
X93350046Y-73392700D01*
X93367961Y-73390568D01*
X93368869Y-73390460D01*
X93368870Y-73390460D01*
X93376246Y-73389582D01*
X93450157Y-73356752D01*
X93511013Y-73350409D01*
X93530375Y-73356682D01*
X93598264Y-73386696D01*
X93598266Y-73386696D01*
X93605073Y-73389706D01*
X93612467Y-73390568D01*
X93627778Y-73392353D01*
X93630754Y-73392700D01*
X94620046Y-73392700D01*
X94637961Y-73390568D01*
X94638869Y-73390460D01*
X94638870Y-73390460D01*
X94646246Y-73389582D01*
X94720157Y-73356752D01*
X94781013Y-73350409D01*
X94800375Y-73356682D01*
X94868264Y-73386696D01*
X94868266Y-73386696D01*
X94875073Y-73389706D01*
X94882467Y-73390568D01*
X94897778Y-73392353D01*
X94900754Y-73392700D01*
X95890046Y-73392700D01*
X95907961Y-73390568D01*
X95908869Y-73390460D01*
X95908870Y-73390460D01*
X95916246Y-73389582D01*
X95990157Y-73356752D01*
X96051013Y-73350409D01*
X96070375Y-73356682D01*
X96138264Y-73386696D01*
X96138266Y-73386696D01*
X96145073Y-73389706D01*
X96152467Y-73390568D01*
X96167778Y-73392353D01*
X96170754Y-73392700D01*
X97160046Y-73392700D01*
X97177961Y-73390568D01*
X97178869Y-73390460D01*
X97178870Y-73390460D01*
X97186246Y-73389582D01*
X97260157Y-73356752D01*
X97321013Y-73350409D01*
X97340375Y-73356682D01*
X97408264Y-73386696D01*
X97408266Y-73386696D01*
X97415073Y-73389706D01*
X97422467Y-73390568D01*
X97437778Y-73392353D01*
X97440754Y-73392700D01*
X98430046Y-73392700D01*
X98447961Y-73390568D01*
X98448869Y-73390460D01*
X98448870Y-73390460D01*
X98456246Y-73389582D01*
X98530157Y-73356752D01*
X98591013Y-73350409D01*
X98610375Y-73356682D01*
X98678264Y-73386696D01*
X98678266Y-73386696D01*
X98685073Y-73389706D01*
X98692467Y-73390568D01*
X98707778Y-73392353D01*
X98710754Y-73392700D01*
X99700046Y-73392700D01*
X99717961Y-73390568D01*
X99718869Y-73390460D01*
X99718870Y-73390460D01*
X99726246Y-73389582D01*
X99800157Y-73356752D01*
X99861013Y-73350409D01*
X99880375Y-73356682D01*
X99948266Y-73386697D01*
X99948268Y-73386698D01*
X99955073Y-73389706D01*
X99960530Y-73390342D01*
X100010910Y-73423375D01*
X100031600Y-73470619D01*
X100039951Y-73526162D01*
X100043079Y-73532675D01*
X100044375Y-73539773D01*
X100047786Y-73546339D01*
X100071598Y-73592180D01*
X100072988Y-73594962D01*
X100095387Y-73641608D01*
X100095389Y-73641611D01*
X100098591Y-73648279D01*
X100102697Y-73652721D01*
X100104220Y-73654981D01*
X100106821Y-73659988D01*
X100111125Y-73665028D01*
X100148757Y-73702660D01*
X100151451Y-73705463D01*
X100185524Y-73742324D01*
X100185527Y-73742326D01*
X100190546Y-73747756D01*
X100196610Y-73751278D01*
X100203935Y-73757838D01*
X100682812Y-74236715D01*
X100690553Y-74245427D01*
X100712559Y-74273341D01*
X100759099Y-74305506D01*
X100761172Y-74306939D01*
X100763703Y-74308748D01*
X100805292Y-74339467D01*
X100805294Y-74339468D01*
X100811247Y-74343865D01*
X100818063Y-74346258D01*
X100824000Y-74350362D01*
X100831059Y-74352595D01*
X100831060Y-74352595D01*
X100835857Y-74354112D01*
X100880360Y-74368187D01*
X100883245Y-74369149D01*
X100939062Y-74388750D01*
X100945104Y-74388987D01*
X100947778Y-74389508D01*
X100953161Y-74391211D01*
X100959768Y-74391731D01*
X101012972Y-74391731D01*
X101016859Y-74391807D01*
X101067034Y-74393779D01*
X101067037Y-74393779D01*
X101074425Y-74394069D01*
X101081203Y-74392272D01*
X101091028Y-74391731D01*
X103989191Y-74391731D01*
X104000827Y-74392417D01*
X104036128Y-74396595D01*
X104043404Y-74395266D01*
X104043407Y-74395266D01*
X104079083Y-74388750D01*
X104094248Y-74385980D01*
X104097294Y-74385473D01*
X104155780Y-74376680D01*
X104162293Y-74373552D01*
X104169391Y-74372256D01*
X104221800Y-74345032D01*
X104224580Y-74343643D01*
X104271226Y-74321244D01*
X104271229Y-74321242D01*
X104277897Y-74318040D01*
X104282339Y-74313934D01*
X104284599Y-74312411D01*
X104289606Y-74309810D01*
X104294646Y-74305506D01*
X104332278Y-74267874D01*
X104335081Y-74265180D01*
X104371937Y-74231111D01*
X104377374Y-74226085D01*
X104380899Y-74220018D01*
X104387456Y-74212697D01*
X106898742Y-71701411D01*
X108166001Y-71701411D01*
X108166290Y-71706751D01*
X108172078Y-71760035D01*
X108174927Y-71772020D01*
X108221351Y-71895855D01*
X108228059Y-71908108D01*
X108306863Y-72013256D01*
X108316744Y-72023137D01*
X108421892Y-72101941D01*
X108434145Y-72108649D01*
X108557978Y-72155072D01*
X108569967Y-72157923D01*
X108623252Y-72163711D01*
X108628586Y-72164000D01*
X109204320Y-72164000D01*
X109217005Y-72159878D01*
X109220000Y-72155757D01*
X109220000Y-71125680D01*
X109215878Y-71112995D01*
X109211757Y-71110000D01*
X108181681Y-71110000D01*
X108168996Y-71114122D01*
X108166001Y-71118243D01*
X108166001Y-71701411D01*
X106898742Y-71701411D01*
X107483489Y-71116664D01*
X107492203Y-71108922D01*
X107514296Y-71091505D01*
X107514298Y-71091503D01*
X107520110Y-71086921D01*
X107524318Y-71080833D01*
X107553691Y-71038334D01*
X107555498Y-71035805D01*
X107578054Y-71005266D01*
X107590635Y-70988232D01*
X107593029Y-70981415D01*
X107597131Y-70975480D01*
X107601359Y-70962113D01*
X107612336Y-70927403D01*
X107614948Y-70919145D01*
X107615928Y-70916208D01*
X107633068Y-70867401D01*
X107633068Y-70867399D01*
X107635520Y-70860418D01*
X107635758Y-70854376D01*
X107636280Y-70851696D01*
X107637980Y-70846319D01*
X107638500Y-70839712D01*
X107638500Y-70786533D01*
X107638576Y-70782646D01*
X107639118Y-70768857D01*
X107640839Y-70725055D01*
X107639041Y-70718273D01*
X107638500Y-70708448D01*
X107638500Y-70586320D01*
X108166000Y-70586320D01*
X108170122Y-70599005D01*
X108174243Y-70602000D01*
X109204320Y-70602000D01*
X109217005Y-70597878D01*
X109220000Y-70593757D01*
X109220000Y-69563681D01*
X109215878Y-69550996D01*
X109211757Y-69548001D01*
X108628589Y-69548001D01*
X108623249Y-69548290D01*
X108569965Y-69554078D01*
X108557980Y-69556927D01*
X108434145Y-69603351D01*
X108421892Y-69610059D01*
X108316744Y-69688863D01*
X108306863Y-69698744D01*
X108228059Y-69803892D01*
X108221351Y-69816145D01*
X108174928Y-69939978D01*
X108172077Y-69951967D01*
X108166289Y-70005252D01*
X108166000Y-70010586D01*
X108166000Y-70586320D01*
X107638500Y-70586320D01*
X107638500Y-60771667D01*
X107657407Y-60713476D01*
X107667496Y-60701663D01*
X107906832Y-60462327D01*
X107961349Y-60434550D01*
X107976836Y-60433331D01*
X112694542Y-60433331D01*
X112706178Y-60434017D01*
X112741479Y-60438195D01*
X112748755Y-60436866D01*
X112748758Y-60436866D01*
X112779457Y-60431259D01*
X112799599Y-60427580D01*
X112802645Y-60427073D01*
X112861131Y-60418280D01*
X112867644Y-60415152D01*
X112874742Y-60413856D01*
X112927151Y-60386632D01*
X112929931Y-60385243D01*
X112976577Y-60362844D01*
X112976580Y-60362842D01*
X112983248Y-60359640D01*
X112987690Y-60355534D01*
X112989950Y-60354011D01*
X112994957Y-60351410D01*
X112999997Y-60347106D01*
X113037629Y-60309474D01*
X113040432Y-60306780D01*
X113077293Y-60272707D01*
X113077295Y-60272704D01*
X113082725Y-60267685D01*
X113086247Y-60261621D01*
X113092807Y-60254296D01*
X114115189Y-59231914D01*
X114169706Y-59204137D01*
X114212386Y-59207493D01*
X114212470Y-59207122D01*
X114409740Y-59251760D01*
X114611842Y-59259700D01*
X114621651Y-59258278D01*
X114807519Y-59231329D01*
X114807522Y-59231328D01*
X114812007Y-59230678D01*
X114935602Y-59188723D01*
X114999234Y-59167123D01*
X114999237Y-59167121D01*
X115003531Y-59165664D01*
X115180001Y-59066837D01*
X115335505Y-58937505D01*
X115464837Y-58782001D01*
X115563664Y-58605531D01*
X115567824Y-58593278D01*
X115602343Y-58491587D01*
X115628678Y-58414007D01*
X115631068Y-58397527D01*
X115657283Y-58216717D01*
X115657700Y-58213842D01*
X115659215Y-58156000D01*
X115640708Y-57954591D01*
X115585807Y-57759926D01*
X115496351Y-57578527D01*
X115375335Y-57416467D01*
X115226812Y-57279174D01*
X115208835Y-57267831D01*
X115059594Y-57173667D01*
X115055757Y-57171246D01*
X114867898Y-57096298D01*
X114669526Y-57056839D01*
X114569930Y-57055535D01*
X114471826Y-57054251D01*
X114471821Y-57054251D01*
X114467286Y-57054192D01*
X114462813Y-57054961D01*
X114462808Y-57054961D01*
X114364245Y-57071898D01*
X114267949Y-57088444D01*
X114078193Y-57158449D01*
X113904371Y-57261862D01*
X113900956Y-57264857D01*
X113900953Y-57264859D01*
X113881119Y-57282253D01*
X113752305Y-57395220D01*
X113627089Y-57554057D01*
X113532914Y-57733053D01*
X113531569Y-57737384D01*
X113531568Y-57737387D01*
X113521430Y-57770039D01*
X113472937Y-57926213D01*
X113449164Y-58127069D01*
X113462392Y-58328894D01*
X113463508Y-58333287D01*
X113463508Y-58333289D01*
X113505569Y-58498905D01*
X113501567Y-58559959D01*
X113479619Y-58593278D01*
X112569562Y-59503335D01*
X112515045Y-59531112D01*
X112499558Y-59532331D01*
X111513780Y-59532331D01*
X111455589Y-59513424D01*
X111419625Y-59463924D01*
X111419625Y-59402738D01*
X111443776Y-59363327D01*
X111575189Y-59231914D01*
X111629706Y-59204137D01*
X111672386Y-59207493D01*
X111672470Y-59207122D01*
X111869740Y-59251760D01*
X112071842Y-59259700D01*
X112081651Y-59258278D01*
X112267519Y-59231329D01*
X112267522Y-59231328D01*
X112272007Y-59230678D01*
X112395602Y-59188723D01*
X112459234Y-59167123D01*
X112459237Y-59167121D01*
X112463531Y-59165664D01*
X112640001Y-59066837D01*
X112795505Y-58937505D01*
X112924837Y-58782001D01*
X113023664Y-58605531D01*
X113027824Y-58593278D01*
X113062343Y-58491587D01*
X113088678Y-58414007D01*
X113091068Y-58397527D01*
X113117283Y-58216717D01*
X113117700Y-58213842D01*
X113119215Y-58156000D01*
X113100708Y-57954591D01*
X113045807Y-57759926D01*
X112956351Y-57578527D01*
X112835335Y-57416467D01*
X112686812Y-57279174D01*
X112668835Y-57267831D01*
X112519594Y-57173667D01*
X112515757Y-57171246D01*
X112327898Y-57096298D01*
X112129526Y-57056839D01*
X112029930Y-57055535D01*
X111931826Y-57054251D01*
X111931821Y-57054251D01*
X111927286Y-57054192D01*
X111922813Y-57054961D01*
X111922808Y-57054961D01*
X111824245Y-57071898D01*
X111727949Y-57088444D01*
X111538193Y-57158449D01*
X111364371Y-57261862D01*
X111360956Y-57264857D01*
X111360953Y-57264859D01*
X111341119Y-57282253D01*
X111212305Y-57395220D01*
X111087089Y-57554057D01*
X110992914Y-57733053D01*
X110991569Y-57737384D01*
X110991568Y-57737387D01*
X110981430Y-57770039D01*
X110932937Y-57926213D01*
X110909164Y-58127069D01*
X110922392Y-58328894D01*
X110923508Y-58333287D01*
X110923508Y-58333289D01*
X110965569Y-58498905D01*
X110961567Y-58559959D01*
X110939619Y-58593278D01*
X110529082Y-59003815D01*
X110474565Y-59031592D01*
X110459078Y-59032811D01*
X110387343Y-59032811D01*
X110329152Y-59013904D01*
X110293188Y-58964404D01*
X110293188Y-58903218D01*
X110311228Y-58870506D01*
X110381934Y-58785491D01*
X110384837Y-58782001D01*
X110483664Y-58605531D01*
X110487824Y-58593278D01*
X110522343Y-58491587D01*
X110548678Y-58414007D01*
X110551068Y-58397527D01*
X110577283Y-58216717D01*
X110577700Y-58213842D01*
X110579215Y-58156000D01*
X110560708Y-57954591D01*
X110505807Y-57759926D01*
X110416351Y-57578527D01*
X110295335Y-57416467D01*
X110146812Y-57279174D01*
X110128835Y-57267831D01*
X109979594Y-57173667D01*
X109975757Y-57171246D01*
X109787898Y-57096298D01*
X109589526Y-57056839D01*
X109489930Y-57055535D01*
X109391826Y-57054251D01*
X109391821Y-57054251D01*
X109387286Y-57054192D01*
X109382813Y-57054961D01*
X109382808Y-57054961D01*
X109284245Y-57071898D01*
X109187949Y-57088444D01*
X108998193Y-57158449D01*
X108824371Y-57261862D01*
X108820956Y-57264857D01*
X108820953Y-57264859D01*
X108801119Y-57282253D01*
X108672305Y-57395220D01*
X108547089Y-57554057D01*
X108452914Y-57733053D01*
X108451569Y-57737384D01*
X108451568Y-57737387D01*
X108441430Y-57770039D01*
X108392937Y-57926213D01*
X108369164Y-58127069D01*
X108382392Y-58328894D01*
X108383508Y-58333287D01*
X108383508Y-58333289D01*
X108402970Y-58409922D01*
X108398968Y-58470977D01*
X108359843Y-58518018D01*
X108307016Y-58533291D01*
X107368036Y-58533291D01*
X107356400Y-58532605D01*
X107354863Y-58532423D01*
X107321099Y-58528427D01*
X107313823Y-58529756D01*
X107313819Y-58529756D01*
X107262983Y-58539041D01*
X107259915Y-58539552D01*
X107212904Y-58546620D01*
X107201448Y-58548342D01*
X107194935Y-58551470D01*
X107187837Y-58552766D01*
X107173990Y-58559959D01*
X107135412Y-58579998D01*
X107132646Y-58581381D01*
X107079331Y-58606982D01*
X107074891Y-58611086D01*
X107072628Y-58612611D01*
X107067621Y-58615212D01*
X107062582Y-58619516D01*
X107024950Y-58657148D01*
X107022147Y-58659842D01*
X106985286Y-58693915D01*
X106985284Y-58693918D01*
X106979854Y-58698937D01*
X106976332Y-58705001D01*
X106969772Y-58712326D01*
X105876516Y-59805582D01*
X105867804Y-59813323D01*
X105839890Y-59835329D01*
X105835683Y-59841416D01*
X105806292Y-59883942D01*
X105804488Y-59886465D01*
X105797185Y-59896354D01*
X105775669Y-59925484D01*
X105769366Y-59934017D01*
X105766973Y-59940833D01*
X105762869Y-59946770D01*
X105760636Y-59953829D01*
X105760636Y-59953830D01*
X105745049Y-60003116D01*
X105744082Y-60006015D01*
X105724481Y-60061832D01*
X105724244Y-60067874D01*
X105723723Y-60070548D01*
X105722020Y-60075931D01*
X105721500Y-60082538D01*
X105721500Y-60135742D01*
X105721424Y-60139629D01*
X105719162Y-60197195D01*
X105720959Y-60203973D01*
X105721500Y-60213798D01*
X105721500Y-70150582D01*
X105702593Y-70208773D01*
X105692504Y-70220586D01*
X104300387Y-71612704D01*
X104245870Y-71640481D01*
X104230383Y-71641700D01*
X103864900Y-71641700D01*
X103806709Y-71622793D01*
X103770745Y-71573293D01*
X103765900Y-71542700D01*
X103765900Y-71047554D01*
X103762782Y-71021354D01*
X103717339Y-70919047D01*
X103638113Y-70839959D01*
X103558634Y-70804821D01*
X103542536Y-70797704D01*
X103542534Y-70797704D01*
X103535727Y-70794694D01*
X103521722Y-70793061D01*
X103512894Y-70792032D01*
X103512893Y-70792032D01*
X103510046Y-70791700D01*
X102520754Y-70791700D01*
X102504351Y-70793652D01*
X102501931Y-70793940D01*
X102501930Y-70793940D01*
X102494554Y-70794818D01*
X102420643Y-70827648D01*
X102359787Y-70833991D01*
X102340425Y-70827718D01*
X102272536Y-70797704D01*
X102272534Y-70797704D01*
X102265727Y-70794694D01*
X102251722Y-70793061D01*
X102242894Y-70792032D01*
X102242893Y-70792032D01*
X102240046Y-70791700D01*
X101250754Y-70791700D01*
X101234351Y-70793652D01*
X101231931Y-70793940D01*
X101231930Y-70793940D01*
X101224554Y-70794818D01*
X101150643Y-70827648D01*
X101089787Y-70833991D01*
X101070425Y-70827718D01*
X101002536Y-70797704D01*
X101002534Y-70797704D01*
X100995727Y-70794694D01*
X100981722Y-70793061D01*
X100972894Y-70792032D01*
X100972893Y-70792032D01*
X100970046Y-70791700D01*
X99980754Y-70791700D01*
X99964351Y-70793652D01*
X99961931Y-70793940D01*
X99961930Y-70793940D01*
X99954554Y-70794818D01*
X99880643Y-70827648D01*
X99819787Y-70833991D01*
X99800425Y-70827718D01*
X99732536Y-70797704D01*
X99732534Y-70797704D01*
X99725727Y-70794694D01*
X99711722Y-70793061D01*
X99702894Y-70792032D01*
X99702893Y-70792032D01*
X99700046Y-70791700D01*
X99609500Y-70791700D01*
X99551309Y-70772793D01*
X99515345Y-70723293D01*
X99510500Y-70692700D01*
X99510500Y-69802611D01*
X102507401Y-69802611D01*
X102507690Y-69807951D01*
X102513478Y-69861235D01*
X102516327Y-69873220D01*
X102562751Y-69997055D01*
X102569459Y-70009308D01*
X102648263Y-70114456D01*
X102658144Y-70124337D01*
X102763292Y-70203141D01*
X102775545Y-70209849D01*
X102899378Y-70256272D01*
X102911367Y-70259123D01*
X102964652Y-70264911D01*
X102969986Y-70265200D01*
X103745720Y-70265200D01*
X103758405Y-70261078D01*
X103761400Y-70256957D01*
X103761400Y-70249519D01*
X104269400Y-70249519D01*
X104273522Y-70262204D01*
X104277643Y-70265199D01*
X105060811Y-70265199D01*
X105066151Y-70264910D01*
X105119435Y-70259122D01*
X105131420Y-70256273D01*
X105255255Y-70209849D01*
X105267508Y-70203141D01*
X105372656Y-70124337D01*
X105382537Y-70114456D01*
X105461341Y-70009308D01*
X105468049Y-69997055D01*
X105514472Y-69873222D01*
X105517323Y-69861233D01*
X105523111Y-69807948D01*
X105523400Y-69802614D01*
X105523400Y-69576880D01*
X105519278Y-69564195D01*
X105515157Y-69561200D01*
X104285080Y-69561200D01*
X104272395Y-69565322D01*
X104269400Y-69569443D01*
X104269400Y-70249519D01*
X103761400Y-70249519D01*
X103761400Y-69576880D01*
X103757278Y-69564195D01*
X103753157Y-69561200D01*
X102523081Y-69561200D01*
X102510396Y-69565322D01*
X102507401Y-69569443D01*
X102507401Y-69802611D01*
X99510500Y-69802611D01*
X99510500Y-60776439D01*
X99529407Y-60718248D01*
X99539496Y-60706435D01*
X102545896Y-57700035D01*
X102600413Y-57672258D01*
X102660845Y-57681829D01*
X102704110Y-57725094D01*
X102714900Y-57770039D01*
X102714900Y-58371846D01*
X102718018Y-58398046D01*
X102750413Y-58470977D01*
X102750848Y-58471957D01*
X102757191Y-58532813D01*
X102750918Y-58552175D01*
X102721147Y-58619516D01*
X102717894Y-58626873D01*
X102714900Y-58652554D01*
X102714900Y-59641846D01*
X102718018Y-59668046D01*
X102724547Y-59682744D01*
X102750848Y-59741957D01*
X102757191Y-59802813D01*
X102750918Y-59822175D01*
X102742412Y-59841416D01*
X102717894Y-59896873D01*
X102714900Y-59922554D01*
X102714900Y-60911846D01*
X102718018Y-60938046D01*
X102721034Y-60944835D01*
X102750848Y-61011957D01*
X102757191Y-61072813D01*
X102750918Y-61092175D01*
X102717894Y-61166873D01*
X102714900Y-61192554D01*
X102714900Y-62181846D01*
X102718018Y-62208046D01*
X102721034Y-62214835D01*
X102750848Y-62281957D01*
X102757191Y-62342813D01*
X102750918Y-62362175D01*
X102717894Y-62436873D01*
X102714900Y-62462554D01*
X102714900Y-63451846D01*
X102718018Y-63478046D01*
X102721034Y-63484835D01*
X102750848Y-63551957D01*
X102757191Y-63612813D01*
X102750918Y-63632175D01*
X102717894Y-63706873D01*
X102714900Y-63732554D01*
X102714900Y-64721846D01*
X102718018Y-64748046D01*
X102721034Y-64754835D01*
X102750848Y-64821957D01*
X102757191Y-64882813D01*
X102750918Y-64902175D01*
X102717894Y-64976873D01*
X102714900Y-65002554D01*
X102714900Y-65991846D01*
X102718018Y-66018046D01*
X102721034Y-66024835D01*
X102750848Y-66091957D01*
X102757191Y-66152813D01*
X102750918Y-66172175D01*
X102745452Y-66184540D01*
X102717894Y-66246873D01*
X102714900Y-66272554D01*
X102714900Y-67261846D01*
X102718018Y-67288046D01*
X102741817Y-67341626D01*
X102750848Y-67361957D01*
X102757191Y-67422813D01*
X102750918Y-67442175D01*
X102717894Y-67516873D01*
X102714900Y-67542554D01*
X102714900Y-68398005D01*
X102695993Y-68456196D01*
X102675273Y-68477225D01*
X102658145Y-68490062D01*
X102648263Y-68499944D01*
X102569459Y-68605092D01*
X102562751Y-68617345D01*
X102516328Y-68741178D01*
X102513477Y-68753167D01*
X102507689Y-68806452D01*
X102507400Y-68811786D01*
X102507400Y-69037520D01*
X102511522Y-69050205D01*
X102515643Y-69053200D01*
X105507719Y-69053200D01*
X105520404Y-69049078D01*
X105523399Y-69044957D01*
X105523399Y-68811789D01*
X105523110Y-68806449D01*
X105517322Y-68753165D01*
X105514473Y-68741180D01*
X105468049Y-68617345D01*
X105461341Y-68605092D01*
X105382537Y-68499944D01*
X105372655Y-68490062D01*
X105355527Y-68477225D01*
X105320302Y-68427197D01*
X105315900Y-68398005D01*
X105315900Y-67542554D01*
X105312782Y-67516354D01*
X105279952Y-67442443D01*
X105273609Y-67381587D01*
X105279882Y-67362225D01*
X105309896Y-67294336D01*
X105309896Y-67294334D01*
X105312906Y-67287527D01*
X105315900Y-67261846D01*
X105315900Y-66272554D01*
X105312782Y-66246354D01*
X105279952Y-66172443D01*
X105273609Y-66111587D01*
X105279882Y-66092225D01*
X105309896Y-66024336D01*
X105309896Y-66024334D01*
X105312906Y-66017527D01*
X105315900Y-65991846D01*
X105315900Y-65002554D01*
X105312782Y-64976354D01*
X105279952Y-64902443D01*
X105273609Y-64841587D01*
X105279882Y-64822225D01*
X105309896Y-64754336D01*
X105309896Y-64754334D01*
X105312906Y-64747527D01*
X105315900Y-64721846D01*
X105315900Y-63732554D01*
X105312782Y-63706354D01*
X105279952Y-63632443D01*
X105273609Y-63571587D01*
X105279882Y-63552225D01*
X105309896Y-63484336D01*
X105309896Y-63484334D01*
X105312906Y-63477527D01*
X105315900Y-63451846D01*
X105315900Y-62462554D01*
X105312782Y-62436354D01*
X105279952Y-62362443D01*
X105273609Y-62301587D01*
X105279882Y-62282225D01*
X105309896Y-62214336D01*
X105309896Y-62214334D01*
X105312906Y-62207527D01*
X105315900Y-62181846D01*
X105315900Y-61192554D01*
X105312782Y-61166354D01*
X105279952Y-61092443D01*
X105273609Y-61031587D01*
X105279882Y-61012225D01*
X105309896Y-60944336D01*
X105309896Y-60944334D01*
X105312906Y-60937527D01*
X105315900Y-60911846D01*
X105315900Y-59922554D01*
X105312782Y-59896354D01*
X105279952Y-59822443D01*
X105273609Y-59761587D01*
X105279882Y-59742225D01*
X105309896Y-59674336D01*
X105309896Y-59674334D01*
X105312906Y-59667527D01*
X105315900Y-59641846D01*
X105315900Y-58652554D01*
X105312782Y-58626354D01*
X105279952Y-58552443D01*
X105273609Y-58491587D01*
X105279882Y-58472225D01*
X105309896Y-58404336D01*
X105309896Y-58404334D01*
X105312906Y-58397527D01*
X105315900Y-58371846D01*
X105315900Y-57382554D01*
X105312782Y-57356354D01*
X105267339Y-57254047D01*
X105188113Y-57174959D01*
X105132443Y-57150347D01*
X105092536Y-57132704D01*
X105092534Y-57132704D01*
X105085727Y-57129694D01*
X105060046Y-57126700D01*
X104712461Y-57126700D01*
X104654270Y-57107793D01*
X104618306Y-57058293D01*
X104618306Y-56997107D01*
X104642457Y-56957696D01*
X104732657Y-56867496D01*
X104787174Y-56839719D01*
X104802661Y-56838500D01*
X116273373Y-56838500D01*
X116285009Y-56839186D01*
X116320310Y-56843364D01*
X116327586Y-56842035D01*
X116327589Y-56842035D01*
X116358288Y-56836428D01*
X116378430Y-56832749D01*
X116381476Y-56832242D01*
X116439962Y-56823449D01*
X116446475Y-56820321D01*
X116453573Y-56819025D01*
X116505982Y-56791801D01*
X116508762Y-56790412D01*
X116555408Y-56768013D01*
X116555411Y-56768011D01*
X116562079Y-56764809D01*
X116566521Y-56760703D01*
X116568781Y-56759180D01*
X116573788Y-56756579D01*
X116578828Y-56752275D01*
X116616460Y-56714643D01*
X116619263Y-56711949D01*
X116656124Y-56677876D01*
X116656126Y-56677873D01*
X116661556Y-56672854D01*
X116665078Y-56666790D01*
X116671638Y-56659465D01*
X118791859Y-54539244D01*
X118846376Y-54511467D01*
X118873754Y-54510965D01*
X118911228Y-54515500D01*
X119796772Y-54515500D01*
X119886547Y-54504636D01*
X120026783Y-54449113D01*
X120032158Y-54445033D01*
X120032160Y-54445032D01*
X120141543Y-54362005D01*
X120146922Y-54357922D01*
X120238113Y-54237783D01*
X120293636Y-54097547D01*
X120304500Y-54007772D01*
X120304500Y-52672228D01*
X120293636Y-52582453D01*
X120253630Y-52481407D01*
X120240598Y-52448493D01*
X120240597Y-52448492D01*
X120238113Y-52442217D01*
X120218667Y-52416597D01*
X120151005Y-52327457D01*
X120146922Y-52322078D01*
X120045636Y-52245197D01*
X120032160Y-52234968D01*
X120032158Y-52234967D01*
X120026783Y-52230887D01*
X119886547Y-52175364D01*
X119796772Y-52164500D01*
X118911228Y-52164500D01*
X118821453Y-52175364D01*
X118681217Y-52230887D01*
X118675842Y-52234967D01*
X118675840Y-52234968D01*
X118662364Y-52245197D01*
X118561078Y-52322078D01*
X118556995Y-52327457D01*
X118489334Y-52416597D01*
X118469887Y-52442217D01*
X118467403Y-52448492D01*
X118467402Y-52448493D01*
X118454370Y-52481407D01*
X118414364Y-52582453D01*
X118403500Y-52672228D01*
X118403500Y-53612389D01*
X118384593Y-53670580D01*
X118374504Y-53682393D01*
X116148393Y-55908504D01*
X116093876Y-55936281D01*
X116078389Y-55937500D01*
X105195233Y-55937500D01*
X105137042Y-55918593D01*
X105101078Y-55869093D01*
X105101078Y-55807907D01*
X105125229Y-55768496D01*
X105550229Y-55343496D01*
X105604746Y-55315719D01*
X105620233Y-55314500D01*
X112603373Y-55314500D01*
X112615009Y-55315186D01*
X112650310Y-55319364D01*
X112657586Y-55318035D01*
X112657589Y-55318035D01*
X112688288Y-55312428D01*
X112708430Y-55308749D01*
X112711476Y-55308242D01*
X112769962Y-55299449D01*
X112776475Y-55296321D01*
X112783573Y-55295025D01*
X112835982Y-55267801D01*
X112838762Y-55266412D01*
X112885408Y-55244013D01*
X112885411Y-55244011D01*
X112892079Y-55240809D01*
X112896521Y-55236703D01*
X112898781Y-55235180D01*
X112903788Y-55232579D01*
X112908828Y-55228275D01*
X112946460Y-55190643D01*
X112949263Y-55187949D01*
X112986124Y-55153876D01*
X112986126Y-55153873D01*
X112991556Y-55148854D01*
X112995078Y-55142790D01*
X113001638Y-55135465D01*
X114165190Y-53971913D01*
X114219707Y-53944136D01*
X114274271Y-53950956D01*
X114308436Y-53965635D01*
X114386165Y-53983223D01*
X114519206Y-54013328D01*
X114519211Y-54013329D01*
X114523632Y-54014329D01*
X114633865Y-54018660D01*
X114739565Y-54022813D01*
X114739566Y-54022813D01*
X114744098Y-54022991D01*
X114962452Y-53991331D01*
X114966751Y-53989872D01*
X114966754Y-53989871D01*
X115167078Y-53921870D01*
X115171379Y-53920410D01*
X115242944Y-53880332D01*
X115314797Y-53840092D01*
X115363884Y-53812602D01*
X115533518Y-53671518D01*
X115674602Y-53501884D01*
X115782410Y-53309379D01*
X115809272Y-53230247D01*
X115851871Y-53104754D01*
X115851872Y-53104751D01*
X115853331Y-53100452D01*
X115866156Y-53011999D01*
X115884571Y-52884997D01*
X115884571Y-52884991D01*
X115884991Y-52882098D01*
X115886643Y-52819000D01*
X115866454Y-52599289D01*
X115836681Y-52493719D01*
X115807799Y-52391311D01*
X115807798Y-52391310D01*
X115806565Y-52386936D01*
X115804557Y-52382864D01*
X115804555Y-52382859D01*
X115710988Y-52193125D01*
X115708980Y-52189053D01*
X115594685Y-52035994D01*
X115579683Y-52015904D01*
X115579682Y-52015903D01*
X115576967Y-52012267D01*
X115548658Y-51986098D01*
X115418279Y-51865577D01*
X115418278Y-51865576D01*
X115414949Y-51862499D01*
X115374506Y-51836981D01*
X115232187Y-51747185D01*
X115228350Y-51744764D01*
X115023421Y-51663006D01*
X114807024Y-51619962D01*
X114698347Y-51618539D01*
X114590946Y-51617133D01*
X114590941Y-51617133D01*
X114586406Y-51617074D01*
X114581933Y-51617843D01*
X114581928Y-51617843D01*
X114373435Y-51653668D01*
X114373429Y-51653670D01*
X114368957Y-51654438D01*
X114302772Y-51678855D01*
X114166220Y-51729231D01*
X114166217Y-51729232D01*
X114161957Y-51730804D01*
X114158054Y-51733126D01*
X114158052Y-51733127D01*
X114138492Y-51744764D01*
X113972341Y-51843614D01*
X113968926Y-51846609D01*
X113968923Y-51846611D01*
X113914168Y-51894630D01*
X113806457Y-51989090D01*
X113803649Y-51992652D01*
X113686173Y-52141671D01*
X113669863Y-52162360D01*
X113667749Y-52166378D01*
X113583001Y-52327457D01*
X113567131Y-52357620D01*
X113548818Y-52416597D01*
X113510678Y-52539430D01*
X113501703Y-52568333D01*
X113501169Y-52572843D01*
X113501169Y-52572844D01*
X113476303Y-52782936D01*
X113475770Y-52787440D01*
X113490200Y-53007604D01*
X113491316Y-53011997D01*
X113491316Y-53011999D01*
X113514873Y-53104754D01*
X113544511Y-53221452D01*
X113546409Y-53225568D01*
X113547926Y-53229853D01*
X113546813Y-53230247D01*
X113553403Y-53285895D01*
X113526308Y-53336589D01*
X112478393Y-54384504D01*
X112423876Y-54412281D01*
X112408389Y-54413500D01*
X105425248Y-54413500D01*
X105413612Y-54412814D01*
X105409108Y-54412281D01*
X105378311Y-54408636D01*
X105371035Y-54409965D01*
X105371031Y-54409965D01*
X105320195Y-54419250D01*
X105317127Y-54419761D01*
X105270116Y-54426829D01*
X105258660Y-54428551D01*
X105252147Y-54431679D01*
X105245049Y-54432975D01*
X105221838Y-54445032D01*
X105192624Y-54460207D01*
X105189858Y-54461590D01*
X105136543Y-54487191D01*
X105132103Y-54491295D01*
X105129840Y-54492820D01*
X105124833Y-54495421D01*
X105119794Y-54499725D01*
X105082162Y-54537357D01*
X105079359Y-54540051D01*
X105042498Y-54574124D01*
X105042496Y-54574127D01*
X105037066Y-54579146D01*
X105033544Y-54585210D01*
X105026984Y-54592535D01*
X103934904Y-55684615D01*
X103880387Y-55712392D01*
X103819955Y-55702821D01*
X103776690Y-55659556D01*
X103765900Y-55614611D01*
X103765900Y-55019811D01*
X103784807Y-54961620D01*
X103794896Y-54949807D01*
X105446207Y-53298496D01*
X105500724Y-53270719D01*
X105516211Y-53269500D01*
X107153288Y-53269500D01*
X107211479Y-53288407D01*
X107243194Y-53327052D01*
X107286883Y-53421821D01*
X107414222Y-53602002D01*
X107572264Y-53755961D01*
X107755717Y-53878540D01*
X107958436Y-53965635D01*
X108036165Y-53983223D01*
X108169206Y-54013328D01*
X108169211Y-54013329D01*
X108173632Y-54014329D01*
X108283865Y-54018660D01*
X108389565Y-54022813D01*
X108389566Y-54022813D01*
X108394098Y-54022991D01*
X108612452Y-53991331D01*
X108616751Y-53989872D01*
X108616754Y-53989871D01*
X108817078Y-53921870D01*
X108821379Y-53920410D01*
X108892944Y-53880332D01*
X108964797Y-53840092D01*
X109013884Y-53812602D01*
X109183518Y-53671518D01*
X109324602Y-53501884D01*
X109432410Y-53309379D01*
X109459272Y-53230247D01*
X109501871Y-53104754D01*
X109501872Y-53104751D01*
X109503331Y-53100452D01*
X109516156Y-53011999D01*
X109534571Y-52884997D01*
X109534571Y-52884991D01*
X109534991Y-52882098D01*
X109536643Y-52819000D01*
X109516454Y-52599289D01*
X109486681Y-52493719D01*
X109457799Y-52391311D01*
X109457798Y-52391310D01*
X109456565Y-52386936D01*
X109454557Y-52382864D01*
X109454555Y-52382859D01*
X109360988Y-52193125D01*
X109358980Y-52189053D01*
X109244685Y-52035994D01*
X109229683Y-52015904D01*
X109229682Y-52015903D01*
X109226967Y-52012267D01*
X109198658Y-51986098D01*
X109068279Y-51865577D01*
X109068278Y-51865576D01*
X109064949Y-51862499D01*
X109024506Y-51836981D01*
X108882187Y-51747185D01*
X108878350Y-51744764D01*
X108673421Y-51663006D01*
X108457024Y-51619962D01*
X108348347Y-51618539D01*
X108240946Y-51617133D01*
X108240941Y-51617133D01*
X108236406Y-51617074D01*
X108231933Y-51617843D01*
X108231928Y-51617843D01*
X108023435Y-51653668D01*
X108023429Y-51653670D01*
X108018957Y-51654438D01*
X107952772Y-51678855D01*
X107816220Y-51729231D01*
X107816217Y-51729232D01*
X107811957Y-51730804D01*
X107808054Y-51733126D01*
X107808052Y-51733127D01*
X107788492Y-51744764D01*
X107622341Y-51843614D01*
X107618926Y-51846609D01*
X107618923Y-51846611D01*
X107564168Y-51894630D01*
X107456457Y-51989090D01*
X107453649Y-51992652D01*
X107336173Y-52141671D01*
X107319863Y-52162360D01*
X107317749Y-52166378D01*
X107239241Y-52315596D01*
X107195413Y-52358291D01*
X107151627Y-52368500D01*
X105321226Y-52368500D01*
X105309590Y-52367814D01*
X105308053Y-52367632D01*
X105274289Y-52363636D01*
X105267013Y-52364965D01*
X105267009Y-52364965D01*
X105216173Y-52374250D01*
X105213105Y-52374761D01*
X105166093Y-52381829D01*
X105154638Y-52383551D01*
X105148125Y-52386679D01*
X105141027Y-52387975D01*
X105107256Y-52405517D01*
X105088602Y-52415207D01*
X105085836Y-52416590D01*
X105032521Y-52442191D01*
X105028081Y-52446295D01*
X105025818Y-52447820D01*
X105020811Y-52450421D01*
X105015772Y-52454725D01*
X104978140Y-52492357D01*
X104975337Y-52495051D01*
X104938476Y-52529124D01*
X104938474Y-52529127D01*
X104933044Y-52534146D01*
X104929522Y-52540210D01*
X104922962Y-52547535D01*
X103680838Y-53789659D01*
X103626321Y-53817436D01*
X103570804Y-53810201D01*
X103542536Y-53797704D01*
X103542534Y-53797704D01*
X103535727Y-53794694D01*
X103528336Y-53793832D01*
X103528335Y-53793832D01*
X103512894Y-53792032D01*
X103512893Y-53792032D01*
X103510046Y-53791700D01*
X102520754Y-53791700D01*
X102504351Y-53793652D01*
X102501931Y-53793940D01*
X102501930Y-53793940D01*
X102494554Y-53794818D01*
X102443634Y-53817436D01*
X102420643Y-53827648D01*
X102359787Y-53833991D01*
X102340425Y-53827718D01*
X102272536Y-53797704D01*
X102272534Y-53797704D01*
X102265727Y-53794694D01*
X102251722Y-53793061D01*
X102242894Y-53792032D01*
X102242893Y-53792032D01*
X102240046Y-53791700D01*
X101250754Y-53791700D01*
X101234351Y-53793652D01*
X101231931Y-53793940D01*
X101231930Y-53793940D01*
X101224554Y-53794818D01*
X101173634Y-53817436D01*
X101150643Y-53827648D01*
X101089787Y-53833991D01*
X101070425Y-53827718D01*
X101002536Y-53797704D01*
X101002534Y-53797704D01*
X100995727Y-53794694D01*
X100981722Y-53793061D01*
X100972894Y-53792032D01*
X100972893Y-53792032D01*
X100970046Y-53791700D01*
X99980754Y-53791700D01*
X99964351Y-53793652D01*
X99961931Y-53793940D01*
X99961930Y-53793940D01*
X99954554Y-53794818D01*
X99903634Y-53817436D01*
X99880643Y-53827648D01*
X99819787Y-53833991D01*
X99800425Y-53827718D01*
X99732536Y-53797704D01*
X99732534Y-53797704D01*
X99725727Y-53794694D01*
X99711722Y-53793061D01*
X99702894Y-53792032D01*
X99702893Y-53792032D01*
X99700046Y-53791700D01*
X98710754Y-53791700D01*
X98694351Y-53793652D01*
X98691931Y-53793940D01*
X98691930Y-53793940D01*
X98684554Y-53794818D01*
X98633634Y-53817436D01*
X98610643Y-53827648D01*
X98549787Y-53833991D01*
X98530425Y-53827718D01*
X98462536Y-53797704D01*
X98462534Y-53797704D01*
X98455727Y-53794694D01*
X98441722Y-53793061D01*
X98432894Y-53792032D01*
X98432893Y-53792032D01*
X98430046Y-53791700D01*
X97440754Y-53791700D01*
X97424351Y-53793652D01*
X97421931Y-53793940D01*
X97421930Y-53793940D01*
X97414554Y-53794818D01*
X97363634Y-53817436D01*
X97340643Y-53827648D01*
X97279787Y-53833991D01*
X97260425Y-53827718D01*
X97192536Y-53797704D01*
X97192534Y-53797704D01*
X97185727Y-53794694D01*
X97171722Y-53793061D01*
X97162894Y-53792032D01*
X97162893Y-53792032D01*
X97160046Y-53791700D01*
X96170754Y-53791700D01*
X96154351Y-53793652D01*
X96151931Y-53793940D01*
X96151930Y-53793940D01*
X96144554Y-53794818D01*
X96093634Y-53817436D01*
X96070643Y-53827648D01*
X96009787Y-53833991D01*
X95990425Y-53827718D01*
X95922536Y-53797704D01*
X95922534Y-53797704D01*
X95915727Y-53794694D01*
X95901722Y-53793061D01*
X95892894Y-53792032D01*
X95892893Y-53792032D01*
X95890046Y-53791700D01*
X94900754Y-53791700D01*
X94884351Y-53793652D01*
X94881931Y-53793940D01*
X94881930Y-53793940D01*
X94874554Y-53794818D01*
X94823634Y-53817436D01*
X94800643Y-53827648D01*
X94739787Y-53833991D01*
X94720425Y-53827718D01*
X94652536Y-53797704D01*
X94652534Y-53797704D01*
X94645727Y-53794694D01*
X94631722Y-53793061D01*
X94622894Y-53792032D01*
X94622893Y-53792032D01*
X94620046Y-53791700D01*
X93630754Y-53791700D01*
X93614351Y-53793652D01*
X93611931Y-53793940D01*
X93611930Y-53793940D01*
X93604554Y-53794818D01*
X93553634Y-53817436D01*
X93530643Y-53827648D01*
X93469787Y-53833991D01*
X93450425Y-53827718D01*
X93382536Y-53797704D01*
X93382534Y-53797704D01*
X93375727Y-53794694D01*
X93361722Y-53793061D01*
X93352894Y-53792032D01*
X93352893Y-53792032D01*
X93350046Y-53791700D01*
X92360754Y-53791700D01*
X92344351Y-53793652D01*
X92341931Y-53793940D01*
X92341930Y-53793940D01*
X92334554Y-53794818D01*
X92283634Y-53817436D01*
X92260643Y-53827648D01*
X92199787Y-53833991D01*
X92180425Y-53827718D01*
X92112536Y-53797704D01*
X92112534Y-53797704D01*
X92105945Y-53794791D01*
X92105943Y-53794789D01*
X92105727Y-53794694D01*
X92105743Y-53794658D01*
X92057691Y-53763154D01*
X92035900Y-53701188D01*
X92035900Y-52406211D01*
X92054807Y-52348020D01*
X92064896Y-52336207D01*
X94645258Y-49755845D01*
X94699775Y-49728068D01*
X94754342Y-49734890D01*
X94765953Y-49739878D01*
X94831143Y-49754629D01*
X94967760Y-49785543D01*
X94967765Y-49785544D01*
X94972186Y-49786544D01*
X95077828Y-49790695D01*
X95178937Y-49794668D01*
X95178938Y-49794668D01*
X95183470Y-49794846D01*
X95392730Y-49764504D01*
X95397029Y-49763045D01*
X95397032Y-49763044D01*
X95588654Y-49697997D01*
X95592955Y-49696537D01*
X95624406Y-49678924D01*
X95773481Y-49595437D01*
X95777442Y-49593219D01*
X95940012Y-49458012D01*
X96075219Y-49295442D01*
X96158761Y-49146268D01*
X96176319Y-49114916D01*
X96176320Y-49114914D01*
X96178537Y-49110955D01*
X96188488Y-49081640D01*
X96225097Y-49032615D01*
X96283531Y-49014471D01*
X96341469Y-49034139D01*
X96373960Y-49076217D01*
X96445183Y-49251620D01*
X96448840Y-49258860D01*
X96561266Y-49442322D01*
X96566056Y-49448867D01*
X96706935Y-49611502D01*
X96712729Y-49617176D01*
X96878292Y-49754629D01*
X96884921Y-49759270D01*
X97070713Y-49867838D01*
X97078008Y-49871334D01*
X97279038Y-49948099D01*
X97286808Y-49950357D01*
X97393637Y-49972091D01*
X97406846Y-49970586D01*
X97409000Y-49962405D01*
X97409000Y-49961952D01*
X97917000Y-49961952D01*
X97921122Y-49974637D01*
X97922650Y-49975748D01*
X97927884Y-49976238D01*
X97942291Y-49974392D01*
X97950200Y-49972710D01*
X98156304Y-49910876D01*
X98163852Y-49907918D01*
X98357087Y-49813253D01*
X98364046Y-49809104D01*
X98446587Y-49750229D01*
X119728500Y-49750229D01*
X119728501Y-50760770D01*
X119728860Y-50763735D01*
X119728860Y-50763739D01*
X119738416Y-50842712D01*
X119739364Y-50850547D01*
X119741703Y-50856454D01*
X119741703Y-50856455D01*
X119792402Y-50984503D01*
X119794888Y-50990783D01*
X119886078Y-51110922D01*
X120006217Y-51202112D01*
X120012488Y-51204595D01*
X120012490Y-51204596D01*
X120066311Y-51225905D01*
X120146453Y-51257636D01*
X120152762Y-51258399D01*
X120152764Y-51258400D01*
X120233254Y-51268140D01*
X120236229Y-51268500D01*
X120307132Y-51268500D01*
X121238888Y-51268499D01*
X121297079Y-51287406D01*
X121308892Y-51297495D01*
X121974504Y-51963107D01*
X122002281Y-52017624D01*
X122003500Y-52033111D01*
X122003500Y-52078366D01*
X121984593Y-52136557D01*
X121935093Y-52172521D01*
X121928869Y-52174320D01*
X121927767Y-52174600D01*
X121921453Y-52175364D01*
X121915541Y-52177705D01*
X121915540Y-52177705D01*
X121876594Y-52193125D01*
X121781217Y-52230887D01*
X121775842Y-52234967D01*
X121775840Y-52234968D01*
X121762364Y-52245197D01*
X121661078Y-52322078D01*
X121656995Y-52327457D01*
X121589334Y-52416597D01*
X121569887Y-52442217D01*
X121567403Y-52448492D01*
X121567402Y-52448493D01*
X121554370Y-52481407D01*
X121514364Y-52582453D01*
X121503500Y-52672228D01*
X121503500Y-54007772D01*
X121514364Y-54097547D01*
X121569887Y-54237783D01*
X121661078Y-54357922D01*
X121666457Y-54362005D01*
X121775840Y-54445032D01*
X121775842Y-54445033D01*
X121781217Y-54449113D01*
X121921453Y-54504636D01*
X122011228Y-54515500D01*
X122896772Y-54515500D01*
X122986547Y-54504636D01*
X123126783Y-54449113D01*
X123132158Y-54445033D01*
X123132160Y-54445032D01*
X123241543Y-54362005D01*
X123246922Y-54357922D01*
X123338113Y-54237783D01*
X123393636Y-54097547D01*
X123404500Y-54007772D01*
X123404500Y-52672228D01*
X123393636Y-52582453D01*
X123353630Y-52481407D01*
X123340598Y-52448493D01*
X123340597Y-52448492D01*
X123338113Y-52442217D01*
X123318667Y-52416597D01*
X123251005Y-52327457D01*
X123246922Y-52322078D01*
X123145636Y-52245197D01*
X123132160Y-52234968D01*
X123132158Y-52234967D01*
X123126783Y-52230887D01*
X123031407Y-52193125D01*
X122992460Y-52177705D01*
X122992459Y-52177705D01*
X122986547Y-52175364D01*
X122980233Y-52174600D01*
X122979131Y-52174320D01*
X122927385Y-52141671D01*
X122904712Y-52084841D01*
X122904500Y-52078366D01*
X122904500Y-51838127D01*
X122905186Y-51826491D01*
X122908494Y-51798538D01*
X122909364Y-51791190D01*
X122907821Y-51782737D01*
X122899259Y-51735861D01*
X122898749Y-51733070D01*
X122898241Y-51730017D01*
X122890549Y-51678855D01*
X122889449Y-51671538D01*
X122886321Y-51665025D01*
X122885025Y-51657927D01*
X122857801Y-51605518D01*
X122856412Y-51602738D01*
X122834013Y-51556092D01*
X122834011Y-51556089D01*
X122830809Y-51549421D01*
X122826703Y-51544979D01*
X122825180Y-51542719D01*
X122822579Y-51537712D01*
X122818275Y-51532672D01*
X122780643Y-51495040D01*
X122777949Y-51492237D01*
X122743876Y-51455376D01*
X122743873Y-51455374D01*
X122738854Y-51449944D01*
X122732790Y-51446422D01*
X122725465Y-51439862D01*
X122108496Y-50822893D01*
X122080719Y-50768376D01*
X122079500Y-50752889D01*
X122079499Y-49753219D01*
X122079499Y-49750230D01*
X122079499Y-49750229D01*
X124300500Y-49750229D01*
X124300501Y-50760770D01*
X124300860Y-50763735D01*
X124300860Y-50763739D01*
X124310416Y-50842712D01*
X124311364Y-50850547D01*
X124313703Y-50856454D01*
X124313703Y-50856455D01*
X124364402Y-50984503D01*
X124366888Y-50990783D01*
X124458078Y-51110922D01*
X124578217Y-51202112D01*
X124584488Y-51204595D01*
X124584490Y-51204596D01*
X124638311Y-51225905D01*
X124718453Y-51257636D01*
X124724762Y-51258399D01*
X124724764Y-51258400D01*
X124805254Y-51268140D01*
X124808229Y-51268500D01*
X125476000Y-51268500D01*
X126143770Y-51268499D01*
X126146735Y-51268140D01*
X126146739Y-51268140D01*
X126227237Y-51258400D01*
X126227241Y-51258399D01*
X126233547Y-51257636D01*
X126239455Y-51255297D01*
X126367510Y-51204596D01*
X126367512Y-51204595D01*
X126373783Y-51202112D01*
X126493922Y-51110922D01*
X126585112Y-50990783D01*
X126587597Y-50984506D01*
X126587599Y-50984503D01*
X126592759Y-50971472D01*
X126631760Y-50924328D01*
X126691023Y-50909112D01*
X126747912Y-50931637D01*
X126754810Y-50937913D01*
X127894758Y-52077861D01*
X127922535Y-52132378D01*
X127912964Y-52192810D01*
X127876878Y-52230441D01*
X127877217Y-52230887D01*
X127757078Y-52322078D01*
X127752995Y-52327457D01*
X127685334Y-52416597D01*
X127665887Y-52442217D01*
X127663403Y-52448492D01*
X127663402Y-52448493D01*
X127650370Y-52481407D01*
X127610364Y-52582453D01*
X127599500Y-52672228D01*
X127599500Y-54007772D01*
X127610364Y-54097547D01*
X127665887Y-54237783D01*
X127757078Y-54357922D01*
X127762457Y-54362005D01*
X127871840Y-54445032D01*
X127871842Y-54445033D01*
X127877217Y-54449113D01*
X128017453Y-54504636D01*
X128107228Y-54515500D01*
X128992772Y-54515500D01*
X129082547Y-54504636D01*
X129222783Y-54449113D01*
X129228158Y-54445033D01*
X129228160Y-54445032D01*
X129337543Y-54362005D01*
X129342922Y-54357922D01*
X129434113Y-54237783D01*
X129489636Y-54097547D01*
X129500500Y-54007772D01*
X129500500Y-52672228D01*
X129489636Y-52582453D01*
X129449630Y-52481407D01*
X129436598Y-52448493D01*
X129436597Y-52448492D01*
X129434113Y-52442217D01*
X129414667Y-52416597D01*
X129347005Y-52327457D01*
X129342922Y-52322078D01*
X129241636Y-52245197D01*
X129228160Y-52234968D01*
X129228158Y-52234967D01*
X129222783Y-52230887D01*
X129198324Y-52221203D01*
X129088463Y-52177706D01*
X129088461Y-52177705D01*
X129082547Y-52175364D01*
X129078180Y-52174836D01*
X129027122Y-52142618D01*
X129005041Y-52084417D01*
X129005364Y-52081690D01*
X128994749Y-52023570D01*
X128994241Y-52020517D01*
X128993548Y-52015904D01*
X128985449Y-51962038D01*
X128982321Y-51955525D01*
X128981025Y-51948427D01*
X128953801Y-51896018D01*
X128952412Y-51893238D01*
X128930013Y-51846592D01*
X128930011Y-51846589D01*
X128926809Y-51839921D01*
X128922703Y-51835479D01*
X128921180Y-51833219D01*
X128918579Y-51828212D01*
X128914275Y-51823172D01*
X128876643Y-51785540D01*
X128873949Y-51782737D01*
X128839876Y-51745876D01*
X128839873Y-51745874D01*
X128834854Y-51740444D01*
X128828790Y-51736922D01*
X128821465Y-51730362D01*
X127051119Y-49960016D01*
X127043377Y-49951303D01*
X127025953Y-49929201D01*
X127021372Y-49923390D01*
X126972751Y-49889786D01*
X126970228Y-49887983D01*
X126928639Y-49857264D01*
X126928637Y-49857263D01*
X126922684Y-49852866D01*
X126915868Y-49850473D01*
X126909931Y-49846369D01*
X126902872Y-49844136D01*
X126902871Y-49844136D01*
X126882527Y-49837702D01*
X126853571Y-49828544D01*
X126850686Y-49827582D01*
X126794869Y-49807981D01*
X126788827Y-49807744D01*
X126786153Y-49807223D01*
X126780770Y-49805520D01*
X126774163Y-49805000D01*
X126745869Y-49805000D01*
X126687678Y-49786093D01*
X126651714Y-49736593D01*
X126647586Y-49717892D01*
X126641400Y-49666763D01*
X126641399Y-49666759D01*
X126640636Y-49660453D01*
X126638297Y-49654545D01*
X126587596Y-49526490D01*
X126587595Y-49526488D01*
X126585112Y-49520217D01*
X126493922Y-49400078D01*
X126373783Y-49308888D01*
X126367512Y-49306405D01*
X126367510Y-49306404D01*
X126313689Y-49285095D01*
X126233547Y-49253364D01*
X126227238Y-49252601D01*
X126227236Y-49252600D01*
X126146738Y-49242859D01*
X126146737Y-49242859D01*
X126143771Y-49242500D01*
X126140782Y-49242500D01*
X125476001Y-49242501D01*
X124808230Y-49242501D01*
X124805265Y-49242860D01*
X124805261Y-49242860D01*
X124724763Y-49252600D01*
X124724759Y-49252601D01*
X124718453Y-49253364D01*
X124712546Y-49255703D01*
X124712545Y-49255703D01*
X124584490Y-49306404D01*
X124584488Y-49306405D01*
X124578217Y-49308888D01*
X124458078Y-49400078D01*
X124366888Y-49520217D01*
X124364405Y-49526488D01*
X124364404Y-49526490D01*
X124343095Y-49580311D01*
X124311364Y-49660453D01*
X124310601Y-49666762D01*
X124310600Y-49666764D01*
X124307266Y-49694319D01*
X124300500Y-49750229D01*
X122079499Y-49750229D01*
X122078368Y-49740879D01*
X122069400Y-49666763D01*
X122069399Y-49666759D01*
X122068636Y-49660453D01*
X122066297Y-49654545D01*
X122015596Y-49526490D01*
X122015595Y-49526488D01*
X122013112Y-49520217D01*
X121921922Y-49400078D01*
X121801783Y-49308888D01*
X121795512Y-49306405D01*
X121795510Y-49306404D01*
X121741689Y-49285095D01*
X121661547Y-49253364D01*
X121655238Y-49252601D01*
X121655236Y-49252600D01*
X121574738Y-49242859D01*
X121574737Y-49242859D01*
X121571771Y-49242500D01*
X121568782Y-49242500D01*
X120904001Y-49242501D01*
X120236230Y-49242501D01*
X120233265Y-49242860D01*
X120233261Y-49242860D01*
X120152763Y-49252600D01*
X120152759Y-49252601D01*
X120146453Y-49253364D01*
X120140546Y-49255703D01*
X120140545Y-49255703D01*
X120012490Y-49306404D01*
X120012488Y-49306405D01*
X120006217Y-49308888D01*
X119886078Y-49400078D01*
X119794888Y-49520217D01*
X119792405Y-49526488D01*
X119792404Y-49526490D01*
X119771095Y-49580311D01*
X119739364Y-49660453D01*
X119738601Y-49666762D01*
X119738600Y-49666764D01*
X119735266Y-49694319D01*
X119728500Y-49750229D01*
X98446587Y-49750229D01*
X98539231Y-49684148D01*
X98545412Y-49678924D01*
X98697831Y-49527035D01*
X98703088Y-49520858D01*
X98828651Y-49346119D01*
X98832823Y-49339176D01*
X98928164Y-49146268D01*
X98931144Y-49138744D01*
X98993701Y-48932843D01*
X98995410Y-48924938D01*
X98997304Y-48910547D01*
X98994873Y-48897431D01*
X98993571Y-48896195D01*
X98988290Y-48895000D01*
X97932680Y-48895000D01*
X97919995Y-48899122D01*
X97917000Y-48903243D01*
X97917000Y-49961952D01*
X97409000Y-49961952D01*
X97409000Y-48371320D01*
X97917000Y-48371320D01*
X97921122Y-48384005D01*
X97925243Y-48387000D01*
X98983779Y-48387000D01*
X98995730Y-48383117D01*
X98996058Y-48373462D01*
X98953946Y-48205809D01*
X98951333Y-48198133D01*
X98865534Y-48000807D01*
X98861701Y-47993660D01*
X98744826Y-47812997D01*
X98739880Y-47806575D01*
X98595065Y-47647426D01*
X98589139Y-47641899D01*
X98511764Y-47580792D01*
X107533834Y-47580792D01*
X107540654Y-47588016D01*
X107717034Y-47691084D01*
X107724330Y-47694580D01*
X107933040Y-47774279D01*
X107940810Y-47776537D01*
X108159739Y-47821078D01*
X108167777Y-47822036D01*
X108391031Y-47830223D01*
X108399113Y-47829857D01*
X108620722Y-47801467D01*
X108628631Y-47799785D01*
X108842610Y-47735589D01*
X108850158Y-47732631D01*
X109050780Y-47634348D01*
X109057735Y-47630201D01*
X109118078Y-47587159D01*
X109122789Y-47580792D01*
X113883834Y-47580792D01*
X113890654Y-47588016D01*
X114067034Y-47691084D01*
X114074330Y-47694580D01*
X114283040Y-47774279D01*
X114290810Y-47776537D01*
X114509739Y-47821078D01*
X114517777Y-47822036D01*
X114741031Y-47830223D01*
X114749113Y-47829857D01*
X114970722Y-47801467D01*
X114978631Y-47799785D01*
X115008603Y-47790793D01*
X119521000Y-47790793D01*
X119521265Y-47795920D01*
X119531409Y-47893671D01*
X119533682Y-47904200D01*
X119586086Y-48061276D01*
X119590933Y-48071623D01*
X119677891Y-48212146D01*
X119684986Y-48221097D01*
X119801941Y-48337848D01*
X119810904Y-48344927D01*
X119951580Y-48431641D01*
X119961934Y-48436469D01*
X120119111Y-48488602D01*
X120129622Y-48490855D01*
X120226113Y-48500741D01*
X120231171Y-48501000D01*
X120634320Y-48501000D01*
X120647005Y-48496878D01*
X120650000Y-48492757D01*
X120650000Y-48485320D01*
X121158000Y-48485320D01*
X121162122Y-48498005D01*
X121166243Y-48501000D01*
X121576793Y-48501000D01*
X121581920Y-48500735D01*
X121679671Y-48490591D01*
X121690200Y-48488318D01*
X121847276Y-48435914D01*
X121857623Y-48431067D01*
X121998146Y-48344109D01*
X122007097Y-48337014D01*
X122123848Y-48220059D01*
X122130927Y-48211096D01*
X122217641Y-48070420D01*
X122222469Y-48060066D01*
X122274602Y-47902889D01*
X122276855Y-47892378D01*
X122286741Y-47795887D01*
X122287000Y-47790829D01*
X122287000Y-47790793D01*
X124093000Y-47790793D01*
X124093265Y-47795920D01*
X124103409Y-47893671D01*
X124105682Y-47904200D01*
X124158086Y-48061276D01*
X124162933Y-48071623D01*
X124249891Y-48212146D01*
X124256986Y-48221097D01*
X124373941Y-48337848D01*
X124382904Y-48344927D01*
X124523580Y-48431641D01*
X124533934Y-48436469D01*
X124691111Y-48488602D01*
X124701622Y-48490855D01*
X124798113Y-48500741D01*
X124803171Y-48501000D01*
X125206320Y-48501000D01*
X125219005Y-48496878D01*
X125222000Y-48492757D01*
X125222000Y-48485320D01*
X125730000Y-48485320D01*
X125734122Y-48498005D01*
X125738243Y-48501000D01*
X126148793Y-48501000D01*
X126153920Y-48500735D01*
X126251671Y-48490591D01*
X126262200Y-48488318D01*
X126419276Y-48435914D01*
X126429623Y-48431067D01*
X126570146Y-48344109D01*
X126579097Y-48337014D01*
X126695848Y-48220059D01*
X126702927Y-48211096D01*
X126789641Y-48070420D01*
X126794469Y-48060066D01*
X126846602Y-47902889D01*
X126848855Y-47892378D01*
X126858741Y-47795887D01*
X126859000Y-47790829D01*
X126859000Y-47550180D01*
X126854878Y-47537495D01*
X126850757Y-47534500D01*
X125745680Y-47534500D01*
X125732995Y-47538622D01*
X125730000Y-47542743D01*
X125730000Y-48485320D01*
X125222000Y-48485320D01*
X125222000Y-47550180D01*
X125217878Y-47537495D01*
X125213757Y-47534500D01*
X124108680Y-47534500D01*
X124095995Y-47538622D01*
X124093000Y-47542743D01*
X124093000Y-47790793D01*
X122287000Y-47790793D01*
X122287000Y-47550180D01*
X122282878Y-47537495D01*
X122278757Y-47534500D01*
X121173680Y-47534500D01*
X121160995Y-47538622D01*
X121158000Y-47542743D01*
X121158000Y-48485320D01*
X120650000Y-48485320D01*
X120650000Y-47550180D01*
X120645878Y-47537495D01*
X120641757Y-47534500D01*
X119536680Y-47534500D01*
X119523995Y-47538622D01*
X119521000Y-47542743D01*
X119521000Y-47790793D01*
X115008603Y-47790793D01*
X115192610Y-47735589D01*
X115200158Y-47732631D01*
X115400780Y-47634348D01*
X115407735Y-47630201D01*
X115468078Y-47587159D01*
X115476012Y-47576437D01*
X115476019Y-47575574D01*
X115472403Y-47569614D01*
X114692086Y-46789296D01*
X114680203Y-46783242D01*
X114675172Y-46784038D01*
X113889458Y-47569753D01*
X113883834Y-47580792D01*
X109122789Y-47580792D01*
X109126012Y-47576437D01*
X109126019Y-47575574D01*
X109122403Y-47569614D01*
X108342086Y-46789296D01*
X108330203Y-46783242D01*
X108325172Y-46784038D01*
X107539458Y-47569753D01*
X107533834Y-47580792D01*
X98511764Y-47580792D01*
X98420269Y-47508534D01*
X98413525Y-47504054D01*
X98225141Y-47400060D01*
X98217749Y-47396738D01*
X98014920Y-47324912D01*
X98007081Y-47322841D01*
X97932436Y-47309545D01*
X97919226Y-47311378D01*
X97918805Y-47311782D01*
X97917000Y-47318996D01*
X97917000Y-48371320D01*
X97409000Y-48371320D01*
X97409000Y-47321667D01*
X97404878Y-47308982D01*
X97403877Y-47308254D01*
X97397549Y-47307739D01*
X97351220Y-47314829D01*
X97343348Y-47316705D01*
X97138807Y-47383558D01*
X97131350Y-47386693D01*
X96940479Y-47486054D01*
X96933627Y-47490369D01*
X96761544Y-47619573D01*
X96755491Y-47624947D01*
X96606830Y-47780513D01*
X96601727Y-47786814D01*
X96480466Y-47964575D01*
X96476468Y-47971613D01*
X96385871Y-48166790D01*
X96383073Y-48174394D01*
X96377832Y-48193292D01*
X96344062Y-48244314D01*
X96286751Y-48265741D01*
X96227791Y-48249389D01*
X96193643Y-48210622D01*
X96191270Y-48205809D01*
X96108165Y-48037290D01*
X95981651Y-47867867D01*
X95826381Y-47724337D01*
X95819752Y-47720154D01*
X95651391Y-47613926D01*
X95647554Y-47611505D01*
X95451160Y-47533152D01*
X95243775Y-47491901D01*
X95139599Y-47490537D01*
X95036886Y-47489192D01*
X95036881Y-47489192D01*
X95032346Y-47489133D01*
X95027873Y-47489902D01*
X95027868Y-47489902D01*
X94924601Y-47507647D01*
X94823953Y-47524941D01*
X94625575Y-47598127D01*
X94621676Y-47600446D01*
X94621671Y-47600449D01*
X94463451Y-47694580D01*
X94443856Y-47706238D01*
X94440441Y-47709233D01*
X94440438Y-47709235D01*
X94401433Y-47743442D01*
X94284881Y-47845655D01*
X94282073Y-47849217D01*
X94162570Y-48000807D01*
X94153976Y-48011708D01*
X94151862Y-48015726D01*
X94068383Y-48174394D01*
X94055523Y-48198836D01*
X94030728Y-48278690D01*
X93997097Y-48387000D01*
X93992820Y-48400773D01*
X93992286Y-48405283D01*
X93992286Y-48405284D01*
X93989167Y-48431641D01*
X93967967Y-48610754D01*
X93981796Y-48821749D01*
X94033428Y-49025047D01*
X94029426Y-49086100D01*
X94007478Y-49119419D01*
X93902504Y-49224393D01*
X93847987Y-49252170D01*
X93787555Y-49242599D01*
X93744290Y-49199334D01*
X93733500Y-49154389D01*
X93733500Y-47746354D01*
X93730382Y-47720154D01*
X93684939Y-47617847D01*
X93654198Y-47587159D01*
X93612179Y-47545214D01*
X93605713Y-47538759D01*
X93572721Y-47524173D01*
X93510136Y-47496504D01*
X93510134Y-47496504D01*
X93503327Y-47493494D01*
X93489157Y-47491842D01*
X93480494Y-47490832D01*
X93480493Y-47490832D01*
X93477646Y-47490500D01*
X91688354Y-47490500D01*
X91671951Y-47492452D01*
X91669531Y-47492740D01*
X91669530Y-47492740D01*
X91662154Y-47493618D01*
X91559847Y-47539061D01*
X91480759Y-47618287D01*
X91477064Y-47626645D01*
X91441876Y-47706238D01*
X91435494Y-47720673D01*
X91432500Y-47746354D01*
X91432500Y-49113389D01*
X91413593Y-49171580D01*
X91403504Y-49183393D01*
X90019916Y-50566981D01*
X90011204Y-50574722D01*
X89983290Y-50596728D01*
X89979083Y-50602815D01*
X89949692Y-50645341D01*
X89947888Y-50647864D01*
X89912766Y-50695416D01*
X89910373Y-50702232D01*
X89906269Y-50708169D01*
X89890579Y-50757781D01*
X89888449Y-50764515D01*
X89887482Y-50767414D01*
X89867881Y-50823231D01*
X89867644Y-50829273D01*
X89867123Y-50831947D01*
X89865420Y-50837330D01*
X89864900Y-50843937D01*
X89864900Y-50897141D01*
X89864824Y-50901028D01*
X89862923Y-50949412D01*
X89862562Y-50958594D01*
X89864359Y-50965372D01*
X89864900Y-50975197D01*
X89864900Y-53701172D01*
X89845993Y-53759363D01*
X89794800Y-53794789D01*
X89794554Y-53794818D01*
X89787767Y-53797833D01*
X89787766Y-53797833D01*
X89720643Y-53827648D01*
X89659787Y-53833991D01*
X89640425Y-53827718D01*
X89572536Y-53797704D01*
X89572534Y-53797704D01*
X89565727Y-53794694D01*
X89551722Y-53793061D01*
X89542894Y-53792032D01*
X89542893Y-53792032D01*
X89540046Y-53791700D01*
X88550754Y-53791700D01*
X88534351Y-53793652D01*
X88531931Y-53793940D01*
X88531930Y-53793940D01*
X88524554Y-53794818D01*
X88473634Y-53817436D01*
X88450643Y-53827648D01*
X88389787Y-53833991D01*
X88370425Y-53827718D01*
X88302536Y-53797704D01*
X88302534Y-53797704D01*
X88295727Y-53794694D01*
X88281722Y-53793061D01*
X88272894Y-53792032D01*
X88272893Y-53792032D01*
X88270046Y-53791700D01*
X87414595Y-53791700D01*
X87356404Y-53772793D01*
X87335375Y-53752073D01*
X87322538Y-53734945D01*
X87312656Y-53725063D01*
X87207508Y-53646259D01*
X87195255Y-53639551D01*
X87071422Y-53593128D01*
X87059433Y-53590277D01*
X87006148Y-53584489D01*
X87000814Y-53584200D01*
X86775080Y-53584200D01*
X86762395Y-53588322D01*
X86759400Y-53592443D01*
X86759400Y-56584519D01*
X86763522Y-56597204D01*
X86767643Y-56600199D01*
X87000811Y-56600199D01*
X87006151Y-56599910D01*
X87059435Y-56594122D01*
X87071420Y-56591273D01*
X87195255Y-56544849D01*
X87207508Y-56538141D01*
X87312656Y-56459337D01*
X87322538Y-56449455D01*
X87335375Y-56432327D01*
X87385403Y-56397102D01*
X87414595Y-56392700D01*
X88270046Y-56392700D01*
X88287961Y-56390568D01*
X88288869Y-56390460D01*
X88288870Y-56390460D01*
X88296246Y-56389582D01*
X88370157Y-56356752D01*
X88431013Y-56350409D01*
X88450375Y-56356682D01*
X88518264Y-56386696D01*
X88518266Y-56386696D01*
X88525073Y-56389706D01*
X88532467Y-56390568D01*
X88547778Y-56392353D01*
X88550754Y-56392700D01*
X89540046Y-56392700D01*
X89557961Y-56390568D01*
X89558869Y-56390460D01*
X89558870Y-56390460D01*
X89566246Y-56389582D01*
X89640157Y-56356752D01*
X89701013Y-56350409D01*
X89720375Y-56356682D01*
X89788264Y-56386696D01*
X89788266Y-56386696D01*
X89795073Y-56389706D01*
X89802467Y-56390568D01*
X89817778Y-56392353D01*
X89820754Y-56392700D01*
X90810046Y-56392700D01*
X90827961Y-56390568D01*
X90828869Y-56390460D01*
X90828870Y-56390460D01*
X90836246Y-56389582D01*
X90910157Y-56356752D01*
X90971013Y-56350409D01*
X90990375Y-56356682D01*
X91058264Y-56386696D01*
X91058266Y-56386696D01*
X91065073Y-56389706D01*
X91072467Y-56390568D01*
X91087778Y-56392353D01*
X91090754Y-56392700D01*
X92080046Y-56392700D01*
X92097961Y-56390568D01*
X92098869Y-56390460D01*
X92098870Y-56390460D01*
X92106246Y-56389582D01*
X92180157Y-56356752D01*
X92241013Y-56350409D01*
X92260375Y-56356682D01*
X92328264Y-56386696D01*
X92328266Y-56386696D01*
X92335073Y-56389706D01*
X92342467Y-56390568D01*
X92357778Y-56392353D01*
X92360754Y-56392700D01*
X93350046Y-56392700D01*
X93367961Y-56390568D01*
X93368869Y-56390460D01*
X93368870Y-56390460D01*
X93376246Y-56389582D01*
X93450157Y-56356752D01*
X93511013Y-56350409D01*
X93530375Y-56356682D01*
X93598264Y-56386696D01*
X93598266Y-56386696D01*
X93605073Y-56389706D01*
X93612467Y-56390568D01*
X93627778Y-56392353D01*
X93630754Y-56392700D01*
X94620046Y-56392700D01*
X94637961Y-56390568D01*
X94638869Y-56390460D01*
X94638870Y-56390460D01*
X94646246Y-56389582D01*
X94720157Y-56356752D01*
X94781013Y-56350409D01*
X94800375Y-56356682D01*
X94868264Y-56386696D01*
X94868266Y-56386696D01*
X94875073Y-56389706D01*
X94882467Y-56390568D01*
X94897778Y-56392353D01*
X94900754Y-56392700D01*
X95890046Y-56392700D01*
X95907961Y-56390568D01*
X95908869Y-56390460D01*
X95908870Y-56390460D01*
X95916246Y-56389582D01*
X95990157Y-56356752D01*
X96051013Y-56350409D01*
X96070375Y-56356682D01*
X96138264Y-56386696D01*
X96138266Y-56386696D01*
X96145073Y-56389706D01*
X96152467Y-56390568D01*
X96167778Y-56392353D01*
X96170754Y-56392700D01*
X97160046Y-56392700D01*
X97177961Y-56390568D01*
X97178869Y-56390460D01*
X97178870Y-56390460D01*
X97186246Y-56389582D01*
X97260157Y-56356752D01*
X97321013Y-56350409D01*
X97340375Y-56356682D01*
X97408264Y-56386696D01*
X97408266Y-56386696D01*
X97415073Y-56389706D01*
X97422467Y-56390568D01*
X97437778Y-56392353D01*
X97440754Y-56392700D01*
X98430046Y-56392700D01*
X98447961Y-56390568D01*
X98448869Y-56390460D01*
X98448870Y-56390460D01*
X98456246Y-56389582D01*
X98530157Y-56356752D01*
X98591013Y-56350409D01*
X98610375Y-56356682D01*
X98678264Y-56386696D01*
X98678266Y-56386696D01*
X98685073Y-56389706D01*
X98692467Y-56390568D01*
X98707778Y-56392353D01*
X98710754Y-56392700D01*
X99700046Y-56392700D01*
X99717961Y-56390568D01*
X99718869Y-56390460D01*
X99718870Y-56390460D01*
X99726246Y-56389582D01*
X99800157Y-56356752D01*
X99861013Y-56350409D01*
X99880375Y-56356682D01*
X99948264Y-56386696D01*
X99948266Y-56386696D01*
X99955073Y-56389706D01*
X99962467Y-56390568D01*
X99977778Y-56392353D01*
X99980754Y-56392700D01*
X100970046Y-56392700D01*
X100987961Y-56390568D01*
X100988869Y-56390460D01*
X100988870Y-56390460D01*
X100996246Y-56389582D01*
X101070157Y-56356752D01*
X101131013Y-56350409D01*
X101150375Y-56356682D01*
X101218264Y-56386696D01*
X101218266Y-56386696D01*
X101225073Y-56389706D01*
X101232467Y-56390568D01*
X101247778Y-56392353D01*
X101250754Y-56392700D01*
X101633589Y-56392700D01*
X101691780Y-56411607D01*
X101727744Y-56461107D01*
X101727744Y-56522293D01*
X101703593Y-56561704D01*
X98256516Y-60008781D01*
X98247804Y-60016522D01*
X98219890Y-60038528D01*
X98194040Y-60075931D01*
X98186292Y-60087141D01*
X98184488Y-60089664D01*
X98149366Y-60137216D01*
X98146973Y-60144032D01*
X98142869Y-60149969D01*
X98125145Y-60206013D01*
X98125049Y-60206315D01*
X98124082Y-60209214D01*
X98104481Y-60265031D01*
X98104244Y-60271073D01*
X98103723Y-60273747D01*
X98102020Y-60279130D01*
X98101500Y-60285737D01*
X98101500Y-60338941D01*
X98101424Y-60342828D01*
X98099703Y-60386633D01*
X98099162Y-60400394D01*
X98100959Y-60407172D01*
X98101500Y-60416997D01*
X98101500Y-69368389D01*
X98082593Y-69426580D01*
X98072504Y-69438393D01*
X97378393Y-70132504D01*
X97323876Y-70160281D01*
X97308389Y-70161500D01*
X89679205Y-70161500D01*
X89667569Y-70160814D01*
X89663065Y-70160281D01*
X89632268Y-70156636D01*
X89624992Y-70157965D01*
X89624989Y-70157965D01*
X89605635Y-70161500D01*
X89574148Y-70167251D01*
X89571102Y-70167758D01*
X89512616Y-70176551D01*
X89506103Y-70179679D01*
X89499005Y-70180975D01*
X89478570Y-70191590D01*
X89446598Y-70208198D01*
X89443816Y-70209588D01*
X89397170Y-70231987D01*
X89397167Y-70231989D01*
X89390499Y-70235191D01*
X89386057Y-70239297D01*
X89383797Y-70240820D01*
X89378790Y-70243421D01*
X89373750Y-70247725D01*
X89336118Y-70285357D01*
X89333315Y-70288051D01*
X89296454Y-70322124D01*
X89296452Y-70322127D01*
X89291022Y-70327146D01*
X89287500Y-70333210D01*
X89280940Y-70340535D01*
X88858771Y-70762704D01*
X88804254Y-70790481D01*
X88788767Y-70791700D01*
X88550754Y-70791700D01*
X88534351Y-70793652D01*
X88531931Y-70793940D01*
X88531930Y-70793940D01*
X88524554Y-70794818D01*
X88450643Y-70827648D01*
X88389787Y-70833991D01*
X88370425Y-70827718D01*
X88302536Y-70797704D01*
X88302534Y-70797704D01*
X88295727Y-70794694D01*
X88281722Y-70793061D01*
X88272894Y-70792032D01*
X88272893Y-70792032D01*
X88270046Y-70791700D01*
X87414595Y-70791700D01*
X87356404Y-70772793D01*
X87335375Y-70752073D01*
X87322538Y-70734945D01*
X87312656Y-70725063D01*
X87207508Y-70646259D01*
X87195255Y-70639551D01*
X87071422Y-70593128D01*
X87059433Y-70590277D01*
X87006148Y-70584489D01*
X87000814Y-70584200D01*
X86775080Y-70584200D01*
X86762395Y-70588322D01*
X86759400Y-70592443D01*
X86759400Y-72247200D01*
X86740493Y-72305391D01*
X86690993Y-72341355D01*
X86660400Y-72346200D01*
X85563081Y-72346200D01*
X85550396Y-72350322D01*
X85547401Y-72354443D01*
X85547401Y-73137611D01*
X85547690Y-73142951D01*
X85553478Y-73196235D01*
X85556327Y-73208220D01*
X85602751Y-73332055D01*
X85609459Y-73344308D01*
X85688263Y-73449456D01*
X85698144Y-73459337D01*
X85781195Y-73521580D01*
X85816421Y-73571608D01*
X85815513Y-73632787D01*
X85778819Y-73681748D01*
X85721823Y-73699801D01*
X85581808Y-73699801D01*
X85576678Y-73700067D01*
X85478927Y-73710209D01*
X85468400Y-73712482D01*
X85311323Y-73764886D01*
X85300976Y-73769733D01*
X85160455Y-73856691D01*
X85151502Y-73863787D01*
X85034753Y-73980739D01*
X85027673Y-73989704D01*
X85019276Y-74003326D01*
X84972646Y-74042941D01*
X84911637Y-74047582D01*
X84859552Y-74015476D01*
X84836285Y-73958887D01*
X84836000Y-73951378D01*
X84836000Y-71822520D01*
X85547400Y-71822520D01*
X85551522Y-71835205D01*
X85555643Y-71838200D01*
X86235720Y-71838200D01*
X86248405Y-71834078D01*
X86251400Y-71829957D01*
X86251400Y-70599881D01*
X86247278Y-70587196D01*
X86243157Y-70584201D01*
X86009989Y-70584201D01*
X86004649Y-70584490D01*
X85951365Y-70590278D01*
X85939380Y-70593127D01*
X85815545Y-70639551D01*
X85803292Y-70646259D01*
X85698144Y-70725063D01*
X85688263Y-70734944D01*
X85609459Y-70840092D01*
X85602751Y-70852345D01*
X85556328Y-70976178D01*
X85553477Y-70988167D01*
X85547689Y-71041452D01*
X85547400Y-71046786D01*
X85547400Y-71822520D01*
X84836000Y-71822520D01*
X84836000Y-67136846D01*
X91204900Y-67136846D01*
X91208018Y-67163046D01*
X91253461Y-67265353D01*
X91259929Y-67271810D01*
X91259930Y-67271811D01*
X91282994Y-67294835D01*
X91332687Y-67344441D01*
X91341045Y-67348136D01*
X91428264Y-67386696D01*
X91428266Y-67386696D01*
X91435073Y-67389706D01*
X91442467Y-67390568D01*
X91457778Y-67392353D01*
X91460754Y-67392700D01*
X96550046Y-67392700D01*
X96567961Y-67390568D01*
X96568869Y-67390460D01*
X96568870Y-67390460D01*
X96576246Y-67389582D01*
X96678553Y-67344139D01*
X96757641Y-67264913D01*
X96784644Y-67203835D01*
X96799896Y-67169336D01*
X96799896Y-67169334D01*
X96802906Y-67162527D01*
X96805900Y-67136846D01*
X96805900Y-62047554D01*
X96802782Y-62021354D01*
X96757339Y-61919047D01*
X96678113Y-61839959D01*
X96648991Y-61827084D01*
X96582536Y-61797704D01*
X96582534Y-61797704D01*
X96575727Y-61794694D01*
X96561506Y-61793036D01*
X96552894Y-61792032D01*
X96552893Y-61792032D01*
X96550046Y-61791700D01*
X91460754Y-61791700D01*
X91444351Y-61793652D01*
X91441931Y-61793940D01*
X91441930Y-61793940D01*
X91434554Y-61794818D01*
X91332247Y-61840261D01*
X91253159Y-61919487D01*
X91249464Y-61927845D01*
X91231783Y-61967839D01*
X91207894Y-62021873D01*
X91204900Y-62047554D01*
X91204900Y-67136846D01*
X84836000Y-67136846D01*
X84836000Y-56137611D01*
X85547401Y-56137611D01*
X85547690Y-56142951D01*
X85553478Y-56196235D01*
X85556327Y-56208220D01*
X85602751Y-56332055D01*
X85609459Y-56344308D01*
X85688263Y-56449456D01*
X85698144Y-56459337D01*
X85803292Y-56538141D01*
X85815545Y-56544849D01*
X85939378Y-56591272D01*
X85951367Y-56594123D01*
X86004652Y-56599911D01*
X86009986Y-56600200D01*
X86235720Y-56600200D01*
X86248405Y-56596078D01*
X86251400Y-56591957D01*
X86251400Y-55361880D01*
X86247278Y-55349195D01*
X86243157Y-55346200D01*
X85563081Y-55346200D01*
X85550396Y-55350322D01*
X85547401Y-55354443D01*
X85547401Y-56137611D01*
X84836000Y-56137611D01*
X84836000Y-54822520D01*
X85547400Y-54822520D01*
X85551522Y-54835205D01*
X85555643Y-54838200D01*
X86235720Y-54838200D01*
X86248405Y-54834078D01*
X86251400Y-54829957D01*
X86251400Y-53599881D01*
X86247278Y-53587196D01*
X86243157Y-53584201D01*
X86009989Y-53584201D01*
X86004649Y-53584490D01*
X85951365Y-53590278D01*
X85939380Y-53593127D01*
X85815545Y-53639551D01*
X85803292Y-53646259D01*
X85698144Y-53725063D01*
X85688263Y-53734944D01*
X85609459Y-53840092D01*
X85602751Y-53852345D01*
X85556328Y-53976178D01*
X85553477Y-53988167D01*
X85547689Y-54041452D01*
X85547400Y-54046786D01*
X85547400Y-54822520D01*
X84836000Y-54822520D01*
X84836000Y-46388534D01*
X106918830Y-46388534D01*
X106931691Y-46611577D01*
X106932816Y-46619585D01*
X106981930Y-46837526D01*
X106984354Y-46845260D01*
X107068404Y-47052249D01*
X107072053Y-47059474D01*
X107162370Y-47206859D01*
X107172056Y-47215131D01*
X107180242Y-47210547D01*
X107960704Y-46430086D01*
X107965946Y-46419797D01*
X108695242Y-46419797D01*
X108696038Y-46424828D01*
X109479029Y-47207818D01*
X109490912Y-47213872D01*
X109491857Y-47213723D01*
X109497030Y-47209281D01*
X109539655Y-47149961D01*
X109543828Y-47143016D01*
X109642813Y-46942736D01*
X109645793Y-46935210D01*
X109710736Y-46721459D01*
X109712450Y-46713533D01*
X109741794Y-46490635D01*
X109742204Y-46485365D01*
X109743761Y-46421640D01*
X109743610Y-46416371D01*
X109741321Y-46388534D01*
X113268830Y-46388534D01*
X113281691Y-46611577D01*
X113282816Y-46619585D01*
X113331930Y-46837526D01*
X113334354Y-46845260D01*
X113418404Y-47052249D01*
X113422053Y-47059474D01*
X113512370Y-47206859D01*
X113522056Y-47215131D01*
X113530242Y-47210547D01*
X114310704Y-46430086D01*
X114315946Y-46419797D01*
X115045242Y-46419797D01*
X115046038Y-46424828D01*
X115829029Y-47207818D01*
X115840912Y-47213872D01*
X115841857Y-47213723D01*
X115847030Y-47209281D01*
X115889655Y-47149961D01*
X115893828Y-47143016D01*
X115959164Y-47010820D01*
X119521000Y-47010820D01*
X119525122Y-47023505D01*
X119529243Y-47026500D01*
X120634320Y-47026500D01*
X120647005Y-47022378D01*
X120650000Y-47018257D01*
X120650000Y-47010820D01*
X121158000Y-47010820D01*
X121162122Y-47023505D01*
X121166243Y-47026500D01*
X122271320Y-47026500D01*
X122284005Y-47022378D01*
X122287000Y-47018257D01*
X122287000Y-47010820D01*
X124093000Y-47010820D01*
X124097122Y-47023505D01*
X124101243Y-47026500D01*
X125206320Y-47026500D01*
X125219005Y-47022378D01*
X125222000Y-47018257D01*
X125222000Y-47010820D01*
X125730000Y-47010820D01*
X125734122Y-47023505D01*
X125738243Y-47026500D01*
X126843320Y-47026500D01*
X126856005Y-47022378D01*
X126859000Y-47018257D01*
X126859000Y-46770207D01*
X126858735Y-46765080D01*
X126848591Y-46667329D01*
X126846318Y-46656800D01*
X126793914Y-46499724D01*
X126789067Y-46489377D01*
X126702109Y-46348854D01*
X126695014Y-46339903D01*
X126578059Y-46223152D01*
X126569096Y-46216073D01*
X126428420Y-46129359D01*
X126418066Y-46124531D01*
X126260889Y-46072398D01*
X126250378Y-46070145D01*
X126153887Y-46060259D01*
X126148829Y-46060000D01*
X125745680Y-46060000D01*
X125732995Y-46064122D01*
X125730000Y-46068243D01*
X125730000Y-47010820D01*
X125222000Y-47010820D01*
X125222000Y-46075680D01*
X125217878Y-46062995D01*
X125213757Y-46060000D01*
X124803207Y-46060000D01*
X124798080Y-46060265D01*
X124700329Y-46070409D01*
X124689800Y-46072682D01*
X124532724Y-46125086D01*
X124522377Y-46129933D01*
X124381854Y-46216891D01*
X124372903Y-46223986D01*
X124256152Y-46340941D01*
X124249073Y-46349904D01*
X124162359Y-46490580D01*
X124157531Y-46500934D01*
X124105398Y-46658111D01*
X124103145Y-46668622D01*
X124093259Y-46765113D01*
X124093000Y-46770172D01*
X124093000Y-47010820D01*
X122287000Y-47010820D01*
X122287000Y-46770207D01*
X122286735Y-46765080D01*
X122276591Y-46667329D01*
X122274318Y-46656800D01*
X122221914Y-46499724D01*
X122217067Y-46489377D01*
X122130109Y-46348854D01*
X122123014Y-46339903D01*
X122006059Y-46223152D01*
X121997096Y-46216073D01*
X121856420Y-46129359D01*
X121846066Y-46124531D01*
X121688889Y-46072398D01*
X121678378Y-46070145D01*
X121581887Y-46060259D01*
X121576829Y-46060000D01*
X121173680Y-46060000D01*
X121160995Y-46064122D01*
X121158000Y-46068243D01*
X121158000Y-47010820D01*
X120650000Y-47010820D01*
X120650000Y-46075680D01*
X120645878Y-46062995D01*
X120641757Y-46060000D01*
X120231207Y-46060000D01*
X120226080Y-46060265D01*
X120128329Y-46070409D01*
X120117800Y-46072682D01*
X119960724Y-46125086D01*
X119950377Y-46129933D01*
X119809854Y-46216891D01*
X119800903Y-46223986D01*
X119684152Y-46340941D01*
X119677073Y-46349904D01*
X119590359Y-46490580D01*
X119585531Y-46500934D01*
X119533398Y-46658111D01*
X119531145Y-46668622D01*
X119521259Y-46765113D01*
X119521000Y-46770172D01*
X119521000Y-47010820D01*
X115959164Y-47010820D01*
X115992813Y-46942736D01*
X115995793Y-46935210D01*
X116060736Y-46721459D01*
X116062450Y-46713533D01*
X116091794Y-46490635D01*
X116092204Y-46485365D01*
X116093761Y-46421640D01*
X116093610Y-46416371D01*
X116075188Y-46192296D01*
X116073866Y-46184310D01*
X116019442Y-45967641D01*
X116016829Y-45959966D01*
X115927746Y-45755089D01*
X115923926Y-45747963D01*
X115848901Y-45631993D01*
X115838710Y-45623711D01*
X115831136Y-45628075D01*
X115051296Y-46407914D01*
X115045242Y-46419797D01*
X114315946Y-46419797D01*
X114316758Y-46418203D01*
X114315962Y-46413172D01*
X113533140Y-45630351D01*
X113521257Y-45624297D01*
X113520958Y-45624344D01*
X113515031Y-45629560D01*
X113454842Y-45717793D01*
X113450844Y-45724831D01*
X113356785Y-45927467D01*
X113353987Y-45935070D01*
X113294287Y-46150339D01*
X113292766Y-46158313D01*
X113269028Y-46380443D01*
X113268830Y-46388534D01*
X109741321Y-46388534D01*
X109725188Y-46192296D01*
X109723866Y-46184310D01*
X109669442Y-45967641D01*
X109666829Y-45959966D01*
X109577746Y-45755089D01*
X109573926Y-45747963D01*
X109498901Y-45631993D01*
X109488710Y-45623711D01*
X109481136Y-45628075D01*
X108701296Y-46407914D01*
X108695242Y-46419797D01*
X107965946Y-46419797D01*
X107966758Y-46418203D01*
X107965962Y-46413172D01*
X107183140Y-45630351D01*
X107171257Y-45624297D01*
X107170958Y-45624344D01*
X107165031Y-45629560D01*
X107104842Y-45717793D01*
X107100844Y-45724831D01*
X107006785Y-45927467D01*
X107003987Y-45935070D01*
X106944287Y-46150339D01*
X106942766Y-46158313D01*
X106919028Y-46380443D01*
X106918830Y-46388534D01*
X84836000Y-46388534D01*
X84836000Y-45260760D01*
X107535344Y-45260760D01*
X107535367Y-45262278D01*
X107538480Y-45267269D01*
X108319914Y-46048704D01*
X108331797Y-46054758D01*
X108336828Y-46053962D01*
X109121716Y-45269073D01*
X109125951Y-45260760D01*
X113885344Y-45260760D01*
X113885367Y-45262278D01*
X113888480Y-45267269D01*
X114669914Y-46048704D01*
X114681797Y-46054758D01*
X114686828Y-46053962D01*
X115471716Y-45269073D01*
X115477770Y-45257190D01*
X115477432Y-45255051D01*
X115474395Y-45251348D01*
X115466038Y-45244748D01*
X115459289Y-45240263D01*
X115263708Y-45132297D01*
X115256322Y-45128977D01*
X115045726Y-45054402D01*
X115037903Y-45052335D01*
X114817960Y-45013157D01*
X114809896Y-45012394D01*
X114586508Y-45009666D01*
X114578429Y-45010231D01*
X114357601Y-45044022D01*
X114349715Y-45045901D01*
X114137365Y-45115307D01*
X114129908Y-45118442D01*
X113931744Y-45221599D01*
X113924888Y-45225917D01*
X113893012Y-45249849D01*
X113885344Y-45260760D01*
X109125951Y-45260760D01*
X109127770Y-45257190D01*
X109127432Y-45255051D01*
X109124395Y-45251348D01*
X109116038Y-45244748D01*
X109109289Y-45240263D01*
X108913708Y-45132297D01*
X108906322Y-45128977D01*
X108695726Y-45054402D01*
X108687903Y-45052335D01*
X108467960Y-45013157D01*
X108459896Y-45012394D01*
X108236508Y-45009666D01*
X108228429Y-45010231D01*
X108007601Y-45044022D01*
X107999715Y-45045901D01*
X107787365Y-45115307D01*
X107779908Y-45118442D01*
X107581744Y-45221599D01*
X107574888Y-45225917D01*
X107543012Y-45249849D01*
X107535344Y-45260760D01*
X84836000Y-45260760D01*
X84836000Y-44204000D01*
X84854907Y-44145809D01*
X84904407Y-44109845D01*
X84935000Y-44105000D01*
X130921811Y-44105000D01*
X130980002Y-44123907D01*
G37*
%TD.AperFunction*%
%TD*%
M02*
