%TF.GenerationSoftware,KiCad,Pcbnew,(6.0.1)*%
%TF.CreationDate,2022-02-11T20:29:24+00:00*%
%TF.ProjectId,pcb,7063622e-6b69-4636-9164-5f7063625858,rev?*%
%TF.SameCoordinates,Original*%
%TF.FileFunction,Legend,Bot*%
%TF.FilePolarity,Positive*%
%FSLAX46Y46*%
G04 Gerber Fmt 4.6, Leading zero omitted, Abs format (unit mm)*
G04 Created by KiCad (PCBNEW (6.0.1)) date 2022-02-11 20:29:24*
%MOMM*%
%LPD*%
G01*
G04 APERTURE LIST*
%ADD10R,1.600000X1.600000*%
%ADD11O,1.600000X1.600000*%
%ADD12C,3.200000*%
%ADD13C,1.800000*%
%ADD14O,2.000000X3.500000*%
%ADD15O,3.300000X2.000000*%
%ADD16R,4.000000X2.000000*%
%ADD17C,1.600000*%
%ADD18R,1.700000X1.700000*%
%ADD19O,1.700000X1.700000*%
%ADD20C,6.400000*%
%ADD21R,2.500000X1.500000*%
%ADD22O,2.500000X1.500000*%
G04 APERTURE END LIST*
%LPC*%
D10*
%TO.C,A1*%
X109474000Y-70856000D03*
D11*
X112014000Y-70856000D03*
X114554000Y-70856000D03*
X117094000Y-70856000D03*
X119634000Y-70856000D03*
X122174000Y-70856000D03*
X124714000Y-70856000D03*
X127254000Y-70856000D03*
X127254000Y-58156000D03*
X124714000Y-58156000D03*
X122174000Y-58156000D03*
X119634000Y-58156000D03*
X117094000Y-58156000D03*
X114554000Y-58156000D03*
X112014000Y-58156000D03*
X109474000Y-58156000D03*
%TD*%
D12*
%TO.C,H3*%
X81280000Y-84445000D03*
%TD*%
D13*
%TO.C,SW1*%
X114681000Y-52819000D03*
X114681000Y-46419000D03*
%TD*%
D14*
%TO.C,J2*%
X115896000Y-82780000D03*
X124896000Y-82780000D03*
D15*
X120396000Y-81780000D03*
D16*
X120396000Y-75780000D03*
D17*
X120396000Y-84780000D03*
%TD*%
D10*
%TO.C,C4*%
X128056000Y-75184000D03*
D17*
X130556000Y-75184000D03*
%TD*%
D12*
%TO.C,H1*%
X81280000Y-47615000D03*
%TD*%
D18*
%TO.C,J1*%
X92583000Y-48641000D03*
D19*
X95123000Y-48641000D03*
X97663000Y-48641000D03*
%TD*%
D20*
%TO.C,H2*%
X132080000Y-47615000D03*
%TD*%
%TO.C,H4*%
X132080000Y-84445000D03*
%TD*%
D18*
%TO.C,J3*%
X132330300Y-60865900D03*
D19*
X132330300Y-63405900D03*
X132330300Y-65945900D03*
X132330300Y-68485900D03*
%TD*%
D21*
%TO.C,U2*%
X104806500Y-83229900D03*
D22*
X104806500Y-80689900D03*
X104806500Y-78149900D03*
%TD*%
D13*
%TO.C,SW2*%
X108331000Y-52819000D03*
X108331000Y-46419000D03*
%TD*%
M02*
