%FSLAX45Y45*%
G04 Gerber Fmt 4.5, Leading zero omitted, Abs format (unit mm)*
G04 Created by KiCad (PCBNEW (6.0.1)) date 2022-02-11 20:30:37*
%MOMM*%
%LPD*%
G01*
G04 APERTURE LIST*
%TA.AperFunction,Profile*%
%ADD10C,0.100000*%
%TD*%
%ADD11C,0.200000*%
%ADD12C,0.040000*%
%ADD13C,0.080000*%
%ADD14C,0.100000*%
%ADD15C,0.120000*%
%ADD16C,0.320000*%
G04 APERTURE END LIST*
D10*
X13081000Y-5015500D02*
G75*
G03*
X13081000Y-5015500I0J0D01*
G01*
X7747000Y-8444500D02*
G75*
G03*
X8128000Y-8825500I381000J0D01*
G01*
X13589000Y-4761500D02*
G75*
G03*
X13208000Y-4380500I-381000J0D01*
G01*
X8128000Y-4380500D02*
G75*
G03*
X7747000Y-4761500I0J-381000D01*
G01*
X7747000Y-4761500D02*
X7747000Y-8444500D01*
X13589000Y-8444500D02*
X13589000Y-4761500D01*
X8128000Y-8825500D02*
X13208000Y-8825500D01*
X13208000Y-4380500D02*
X8128000Y-4380500D01*
X13208000Y-8825500D02*
G75*
G03*
X13589000Y-8444500I0J381000D01*
G01*
D11*
D12*
X8565200Y-7904800D02*
X8605200Y-7944800D01*
X8605200Y-7904800D02*
X8565200Y-7944800D01*
X8768400Y-5263200D02*
X8808400Y-5303200D01*
X8808400Y-5263200D02*
X8768400Y-5303200D01*
X8768400Y-5720400D02*
X8808400Y-5760400D01*
X8808400Y-5720400D02*
X8768400Y-5760400D01*
X8768400Y-6888800D02*
X8808400Y-6928800D01*
X8808400Y-6888800D02*
X8768400Y-6928800D01*
X9327200Y-5263200D02*
X9367200Y-5303200D01*
X9367200Y-5263200D02*
X9327200Y-5303200D01*
X9327200Y-5720400D02*
X9367200Y-5760400D01*
X9367200Y-5720400D02*
X9327200Y-5760400D01*
X9682800Y-6888800D02*
X9722800Y-6928800D01*
X9722800Y-6888800D02*
X9682800Y-6928800D01*
X9784400Y-8006400D02*
X9824400Y-8046400D01*
X9824400Y-8006400D02*
X9784400Y-8046400D01*
X9784400Y-8209600D02*
X9824400Y-8249600D01*
X9824400Y-8209600D02*
X9784400Y-8249600D01*
X9835200Y-7498400D02*
X9875200Y-7538400D01*
X9875200Y-7498400D02*
X9835200Y-7538400D01*
X9936800Y-5263200D02*
X9976800Y-5303200D01*
X9976800Y-5263200D02*
X9936800Y-5303200D01*
X9936800Y-5720400D02*
X9976800Y-5760400D01*
X9976800Y-5720400D02*
X9936800Y-5760400D01*
X10038400Y-6888800D02*
X10078400Y-6928800D01*
X10078400Y-6888800D02*
X10038400Y-6928800D01*
X10749600Y-7600000D02*
X10789600Y-7640000D01*
X10789600Y-7600000D02*
X10749600Y-7640000D01*
X11359200Y-8463600D02*
X11399200Y-8503600D01*
X11399200Y-8463600D02*
X11359200Y-8503600D01*
X11816400Y-5568000D02*
X11856400Y-5608000D01*
X11856400Y-5568000D02*
X11816400Y-5608000D01*
X12222800Y-4552000D02*
X12262800Y-4592000D01*
X12262800Y-4552000D02*
X12222800Y-4592000D01*
X12492040Y-5568000D02*
X12532040Y-5608000D01*
X12532040Y-5568000D02*
X12492040Y-5608000D01*
X12680000Y-4552000D02*
X12720000Y-4592000D01*
X12720000Y-4552000D02*
X12680000Y-4592000D01*
D13*
X10987400Y-5815600D02*
G75*
G03*
X10987400Y-5815600I-40000J0D01*
G01*
X10987400Y-7085600D02*
G75*
G03*
X10987400Y-7085600I-40000J0D01*
G01*
X11241400Y-5815600D02*
G75*
G03*
X11241400Y-5815600I-40000J0D01*
G01*
X11241400Y-7085600D02*
G75*
G03*
X11241400Y-7085600I-40000J0D01*
G01*
X11495400Y-5815600D02*
G75*
G03*
X11495400Y-5815600I-40000J0D01*
G01*
X11495400Y-7085600D02*
G75*
G03*
X11495400Y-7085600I-40000J0D01*
G01*
X11749400Y-5815600D02*
G75*
G03*
X11749400Y-5815600I-40000J0D01*
G01*
X11749400Y-7085600D02*
G75*
G03*
X11749400Y-7085600I-40000J0D01*
G01*
X12003400Y-5815600D02*
G75*
G03*
X12003400Y-5815600I-40000J0D01*
G01*
X12003400Y-7085600D02*
G75*
G03*
X12003400Y-7085600I-40000J0D01*
G01*
X12257400Y-5815600D02*
G75*
G03*
X12257400Y-5815600I-40000J0D01*
G01*
X12257400Y-7085600D02*
G75*
G03*
X12257400Y-7085600I-40000J0D01*
G01*
X12511400Y-5815600D02*
G75*
G03*
X12511400Y-5815600I-40000J0D01*
G01*
X12511400Y-7085600D02*
G75*
G03*
X12511400Y-7085600I-40000J0D01*
G01*
X12765400Y-5815600D02*
G75*
G03*
X12765400Y-5815600I-40000J0D01*
G01*
X12765400Y-7085600D02*
G75*
G03*
X12765400Y-7085600I-40000J0D01*
G01*
X12845600Y-7518400D02*
G75*
G03*
X12845600Y-7518400I-40000J0D01*
G01*
X13095600Y-7518400D02*
G75*
G03*
X13095600Y-7518400I-40000J0D01*
G01*
D14*
X9258300Y-4814100D02*
X9258300Y-4914100D01*
X9208300Y-4864100D02*
X9308300Y-4864100D01*
X9512300Y-4814100D02*
X9512300Y-4914100D01*
X9462300Y-4864100D02*
X9562300Y-4864100D01*
X9766300Y-4814100D02*
X9766300Y-4914100D01*
X9716300Y-4864100D02*
X9816300Y-4864100D01*
X10480650Y-7764990D02*
X10480650Y-7864990D01*
X10430650Y-7814990D02*
X10530650Y-7814990D01*
X10480650Y-8018990D02*
X10480650Y-8118990D01*
X10430650Y-8068990D02*
X10530650Y-8068990D01*
X10480650Y-8272990D02*
X10480650Y-8372990D01*
X10430650Y-8322990D02*
X10530650Y-8322990D01*
X11589600Y-8228000D02*
X11589600Y-8328000D01*
X11539600Y-8278000D02*
X11639600Y-8278000D01*
D11*
X11549600Y-8203000D02*
X11549600Y-8353000D01*
X11629600Y-8203000D02*
X11629600Y-8353000D01*
X11549600Y-8353000D02*
G75*
G03*
X11629600Y-8353000I40000J0D01*
G01*
X11629600Y-8203000D02*
G75*
G03*
X11549600Y-8203000I-40000J0D01*
G01*
D14*
X12039600Y-7528000D02*
X12039600Y-7628000D01*
X11989600Y-7578000D02*
X12089600Y-7578000D01*
D11*
X11939600Y-7618000D02*
X12139600Y-7618000D01*
X11939600Y-7538000D02*
X12139600Y-7538000D01*
X12139600Y-7618000D02*
G75*
G03*
X12139600Y-7538000I0J40000D01*
G01*
X11939600Y-7538000D02*
G75*
G03*
X11939600Y-7618000I0J-40000D01*
G01*
D14*
X12039600Y-8128000D02*
X12039600Y-8228000D01*
X11989600Y-8178000D02*
X12089600Y-8178000D01*
D11*
X11974600Y-8218000D02*
X12104600Y-8218000D01*
X11974600Y-8138000D02*
X12104600Y-8138000D01*
X12104600Y-8218000D02*
G75*
G03*
X12104600Y-8138000I0J40000D01*
G01*
X11974600Y-8138000D02*
G75*
G03*
X11974600Y-8218000I0J-40000D01*
G01*
D14*
X12489600Y-8228000D02*
X12489600Y-8328000D01*
X12439600Y-8278000D02*
X12539600Y-8278000D01*
D11*
X12449600Y-8203000D02*
X12449600Y-8353000D01*
X12529600Y-8203000D02*
X12529600Y-8353000D01*
X12449600Y-8353000D02*
G75*
G03*
X12529600Y-8353000I40000J0D01*
G01*
X12529600Y-8203000D02*
G75*
G03*
X12449600Y-8203000I-40000J0D01*
G01*
D14*
X13233030Y-6036590D02*
X13233030Y-6136590D01*
X13183030Y-6086590D02*
X13283030Y-6086590D01*
X13233030Y-6290590D02*
X13233030Y-6390590D01*
X13183030Y-6340590D02*
X13283030Y-6340590D01*
X13233030Y-6544590D02*
X13233030Y-6644590D01*
X13183030Y-6594590D02*
X13283030Y-6594590D01*
X13233030Y-6798590D02*
X13233030Y-6898590D01*
X13183030Y-6848590D02*
X13283030Y-6848590D01*
D15*
X10875527Y-4684327D02*
X10875527Y-4599473D01*
X10790673Y-4599473D01*
X10790673Y-4684327D01*
X10875527Y-4684327D01*
X10875527Y-5324327D02*
X10875527Y-5239473D01*
X10790673Y-5239473D01*
X10790673Y-5324327D01*
X10875527Y-5324327D01*
X11510527Y-4684327D02*
X11510527Y-4599473D01*
X11425673Y-4599473D01*
X11425673Y-4684327D01*
X11510527Y-4684327D01*
X11510527Y-5324327D02*
X11510527Y-5239473D01*
X11425673Y-5239473D01*
X11425673Y-5324327D01*
X11510527Y-5324327D01*
D16*
X13208000Y-4921500D02*
X13368000Y-4761500D01*
X13208000Y-4601500D01*
X13048000Y-4761500D01*
X13208000Y-4921500D01*
X13208000Y-8604500D02*
X13368000Y-8444500D01*
X13208000Y-8284500D01*
X13048000Y-8444500D01*
X13208000Y-8604500D01*
D11*
X7999619Y-9140976D02*
X7999619Y-8940976D01*
X8047238Y-8940976D01*
X8075809Y-8950500D01*
X8094857Y-8969548D01*
X8104381Y-8988595D01*
X8113905Y-9026690D01*
X8113905Y-9055262D01*
X8104381Y-9093357D01*
X8094857Y-9112405D01*
X8075809Y-9131452D01*
X8047238Y-9140976D01*
X7999619Y-9140976D01*
X8199619Y-9140976D02*
X8199619Y-9007643D01*
X8199619Y-9045738D02*
X8209143Y-9026690D01*
X8218667Y-9017167D01*
X8237714Y-9007643D01*
X8256762Y-9007643D01*
X8323428Y-9140976D02*
X8323428Y-9007643D01*
X8323428Y-8940976D02*
X8313905Y-8950500D01*
X8323428Y-8960024D01*
X8332952Y-8950500D01*
X8323428Y-8940976D01*
X8323428Y-8960024D01*
X8447238Y-9140976D02*
X8428190Y-9131452D01*
X8418667Y-9112405D01*
X8418667Y-8940976D01*
X8552000Y-9140976D02*
X8532952Y-9131452D01*
X8523429Y-9112405D01*
X8523429Y-8940976D01*
X8780571Y-9140976D02*
X8780571Y-8940976D01*
X8847238Y-9083833D01*
X8913905Y-8940976D01*
X8913905Y-9140976D01*
X9094857Y-9140976D02*
X9094857Y-9036214D01*
X9085333Y-9017167D01*
X9066286Y-9007643D01*
X9028190Y-9007643D01*
X9009143Y-9017167D01*
X9094857Y-9131452D02*
X9075810Y-9140976D01*
X9028190Y-9140976D01*
X9009143Y-9131452D01*
X8999619Y-9112405D01*
X8999619Y-9093357D01*
X9009143Y-9074310D01*
X9028190Y-9064786D01*
X9075810Y-9064786D01*
X9094857Y-9055262D01*
X9190095Y-9007643D02*
X9190095Y-9207643D01*
X9190095Y-9017167D02*
X9209143Y-9007643D01*
X9247238Y-9007643D01*
X9266286Y-9017167D01*
X9275810Y-9026690D01*
X9285333Y-9045738D01*
X9285333Y-9102881D01*
X9275810Y-9121929D01*
X9266286Y-9131452D01*
X9247238Y-9140976D01*
X9209143Y-9140976D01*
X9190095Y-9131452D01*
X9371048Y-9121929D02*
X9380571Y-9131452D01*
X9371048Y-9140976D01*
X9361524Y-9131452D01*
X9371048Y-9121929D01*
X9371048Y-9140976D01*
X9371048Y-9017167D02*
X9380571Y-9026690D01*
X9371048Y-9036214D01*
X9361524Y-9026690D01*
X9371048Y-9017167D01*
X9371048Y-9036214D01*
D12*
X7702000Y-9450500D02*
X7742000Y-9490500D01*
X7742000Y-9450500D02*
X7702000Y-9490500D01*
D11*
X8037714Y-9360976D02*
X8056762Y-9360976D01*
X8075809Y-9370500D01*
X8085333Y-9380024D01*
X8094857Y-9399071D01*
X8104381Y-9437167D01*
X8104381Y-9484786D01*
X8094857Y-9522881D01*
X8085333Y-9541929D01*
X8075809Y-9551452D01*
X8056762Y-9560976D01*
X8037714Y-9560976D01*
X8018667Y-9551452D01*
X8009143Y-9541929D01*
X7999619Y-9522881D01*
X7990095Y-9484786D01*
X7990095Y-9437167D01*
X7999619Y-9399071D01*
X8009143Y-9380024D01*
X8018667Y-9370500D01*
X8037714Y-9360976D01*
X8190095Y-9541929D02*
X8199619Y-9551452D01*
X8190095Y-9560976D01*
X8180571Y-9551452D01*
X8190095Y-9541929D01*
X8190095Y-9560976D01*
X8371048Y-9427643D02*
X8371048Y-9560976D01*
X8323428Y-9351452D02*
X8275809Y-9494310D01*
X8399619Y-9494310D01*
X8513905Y-9360976D02*
X8532952Y-9360976D01*
X8552000Y-9370500D01*
X8561524Y-9380024D01*
X8571048Y-9399071D01*
X8580571Y-9437167D01*
X8580571Y-9484786D01*
X8571048Y-9522881D01*
X8561524Y-9541929D01*
X8552000Y-9551452D01*
X8532952Y-9560976D01*
X8513905Y-9560976D01*
X8494857Y-9551452D01*
X8485333Y-9541929D01*
X8475810Y-9522881D01*
X8466286Y-9484786D01*
X8466286Y-9437167D01*
X8475810Y-9399071D01*
X8485333Y-9380024D01*
X8494857Y-9370500D01*
X8513905Y-9360976D01*
X8704381Y-9360976D02*
X8723429Y-9360976D01*
X8742476Y-9370500D01*
X8752000Y-9380024D01*
X8761524Y-9399071D01*
X8771048Y-9437167D01*
X8771048Y-9484786D01*
X8761524Y-9522881D01*
X8752000Y-9541929D01*
X8742476Y-9551452D01*
X8723429Y-9560976D01*
X8704381Y-9560976D01*
X8685333Y-9551452D01*
X8675810Y-9541929D01*
X8666286Y-9522881D01*
X8656762Y-9484786D01*
X8656762Y-9437167D01*
X8666286Y-9399071D01*
X8675810Y-9380024D01*
X8685333Y-9370500D01*
X8704381Y-9360976D01*
X8856762Y-9560976D02*
X8856762Y-9427643D01*
X8856762Y-9446690D02*
X8866286Y-9437167D01*
X8885333Y-9427643D01*
X8913905Y-9427643D01*
X8932952Y-9437167D01*
X8942476Y-9456214D01*
X8942476Y-9560976D01*
X8942476Y-9456214D02*
X8952000Y-9437167D01*
X8971048Y-9427643D01*
X8999619Y-9427643D01*
X9018667Y-9437167D01*
X9028190Y-9456214D01*
X9028190Y-9560976D01*
X9123429Y-9560976D02*
X9123429Y-9427643D01*
X9123429Y-9446690D02*
X9132952Y-9437167D01*
X9152000Y-9427643D01*
X9180571Y-9427643D01*
X9199619Y-9437167D01*
X9209143Y-9456214D01*
X9209143Y-9560976D01*
X9209143Y-9456214D02*
X9218667Y-9437167D01*
X9237714Y-9427643D01*
X9266286Y-9427643D01*
X9285333Y-9437167D01*
X9294857Y-9456214D01*
X9294857Y-9560976D01*
X9685333Y-9351452D02*
X9513905Y-9608595D01*
X9942476Y-9360976D02*
X9961524Y-9360976D01*
X9980571Y-9370500D01*
X9990095Y-9380024D01*
X9999619Y-9399071D01*
X10009143Y-9437167D01*
X10009143Y-9484786D01*
X9999619Y-9522881D01*
X9990095Y-9541929D01*
X9980571Y-9551452D01*
X9961524Y-9560976D01*
X9942476Y-9560976D01*
X9923429Y-9551452D01*
X9913905Y-9541929D01*
X9904381Y-9522881D01*
X9894857Y-9484786D01*
X9894857Y-9437167D01*
X9904381Y-9399071D01*
X9913905Y-9380024D01*
X9923429Y-9370500D01*
X9942476Y-9360976D01*
X10094857Y-9541929D02*
X10104381Y-9551452D01*
X10094857Y-9560976D01*
X10085333Y-9551452D01*
X10094857Y-9541929D01*
X10094857Y-9560976D01*
X10228190Y-9360976D02*
X10247238Y-9360976D01*
X10266286Y-9370500D01*
X10275810Y-9380024D01*
X10285333Y-9399071D01*
X10294857Y-9437167D01*
X10294857Y-9484786D01*
X10285333Y-9522881D01*
X10275810Y-9541929D01*
X10266286Y-9551452D01*
X10247238Y-9560976D01*
X10228190Y-9560976D01*
X10209143Y-9551452D01*
X10199619Y-9541929D01*
X10190095Y-9522881D01*
X10180571Y-9484786D01*
X10180571Y-9437167D01*
X10190095Y-9399071D01*
X10199619Y-9380024D01*
X10209143Y-9370500D01*
X10228190Y-9360976D01*
X10485333Y-9560976D02*
X10371048Y-9560976D01*
X10428190Y-9560976D02*
X10428190Y-9360976D01*
X10409143Y-9389548D01*
X10390095Y-9408595D01*
X10371048Y-9418119D01*
X10666286Y-9360976D02*
X10571048Y-9360976D01*
X10561524Y-9456214D01*
X10571048Y-9446690D01*
X10590095Y-9437167D01*
X10637714Y-9437167D01*
X10656762Y-9446690D01*
X10666286Y-9456214D01*
X10675810Y-9475262D01*
X10675810Y-9522881D01*
X10666286Y-9541929D01*
X10656762Y-9551452D01*
X10637714Y-9560976D01*
X10590095Y-9560976D01*
X10571048Y-9551452D01*
X10561524Y-9541929D01*
X10742476Y-9360976D02*
X10875810Y-9360976D01*
X10790095Y-9560976D01*
X10942476Y-9360976D02*
X10942476Y-9399071D01*
X11018667Y-9360976D02*
X11018667Y-9399071D01*
X11313905Y-9637167D02*
X11304381Y-9627643D01*
X11285333Y-9599071D01*
X11275809Y-9580024D01*
X11266286Y-9551452D01*
X11256762Y-9503833D01*
X11256762Y-9465738D01*
X11266286Y-9418119D01*
X11275809Y-9389548D01*
X11285333Y-9370500D01*
X11304381Y-9341929D01*
X11313905Y-9332405D01*
X11494857Y-9560976D02*
X11380571Y-9560976D01*
X11437714Y-9560976D02*
X11437714Y-9360976D01*
X11418667Y-9389548D01*
X11399619Y-9408595D01*
X11380571Y-9418119D01*
X11590095Y-9560976D02*
X11628190Y-9560976D01*
X11647238Y-9551452D01*
X11656762Y-9541929D01*
X11675809Y-9513357D01*
X11685333Y-9475262D01*
X11685333Y-9399071D01*
X11675809Y-9380024D01*
X11666286Y-9370500D01*
X11647238Y-9360976D01*
X11609143Y-9360976D01*
X11590095Y-9370500D01*
X11580571Y-9380024D01*
X11571048Y-9399071D01*
X11571048Y-9446690D01*
X11580571Y-9465738D01*
X11590095Y-9475262D01*
X11609143Y-9484786D01*
X11647238Y-9484786D01*
X11666286Y-9475262D01*
X11675809Y-9465738D01*
X11685333Y-9446690D01*
X11923428Y-9560976D02*
X11923428Y-9360976D01*
X12009143Y-9560976D02*
X12009143Y-9456214D01*
X11999619Y-9437167D01*
X11980571Y-9427643D01*
X11952000Y-9427643D01*
X11932952Y-9437167D01*
X11923428Y-9446690D01*
X12132952Y-9560976D02*
X12113905Y-9551452D01*
X12104381Y-9541929D01*
X12094857Y-9522881D01*
X12094857Y-9465738D01*
X12104381Y-9446690D01*
X12113905Y-9437167D01*
X12132952Y-9427643D01*
X12161524Y-9427643D01*
X12180571Y-9437167D01*
X12190095Y-9446690D01*
X12199619Y-9465738D01*
X12199619Y-9522881D01*
X12190095Y-9541929D01*
X12180571Y-9551452D01*
X12161524Y-9560976D01*
X12132952Y-9560976D01*
X12313905Y-9560976D02*
X12294857Y-9551452D01*
X12285333Y-9532405D01*
X12285333Y-9360976D01*
X12466286Y-9551452D02*
X12447238Y-9560976D01*
X12409143Y-9560976D01*
X12390095Y-9551452D01*
X12380571Y-9532405D01*
X12380571Y-9456214D01*
X12390095Y-9437167D01*
X12409143Y-9427643D01*
X12447238Y-9427643D01*
X12466286Y-9437167D01*
X12475809Y-9456214D01*
X12475809Y-9475262D01*
X12380571Y-9494310D01*
X12552000Y-9551452D02*
X12571048Y-9560976D01*
X12609143Y-9560976D01*
X12628190Y-9551452D01*
X12637714Y-9532405D01*
X12637714Y-9522881D01*
X12628190Y-9503833D01*
X12609143Y-9494310D01*
X12580571Y-9494310D01*
X12561524Y-9484786D01*
X12552000Y-9465738D01*
X12552000Y-9456214D01*
X12561524Y-9437167D01*
X12580571Y-9427643D01*
X12609143Y-9427643D01*
X12628190Y-9437167D01*
X12704381Y-9637167D02*
X12713905Y-9627643D01*
X12732952Y-9599071D01*
X12742476Y-9580024D01*
X12752000Y-9551452D01*
X12761524Y-9503833D01*
X12761524Y-9465738D01*
X12752000Y-9418119D01*
X12742476Y-9389548D01*
X12732952Y-9370500D01*
X12713905Y-9341929D01*
X12704381Y-9332405D01*
D13*
X7742000Y-9734500D02*
G75*
G03*
X7742000Y-9734500I-40000J0D01*
G01*
D11*
X8037714Y-9624976D02*
X8056762Y-9624976D01*
X8075809Y-9634500D01*
X8085333Y-9644024D01*
X8094857Y-9663071D01*
X8104381Y-9701167D01*
X8104381Y-9748786D01*
X8094857Y-9786881D01*
X8085333Y-9805929D01*
X8075809Y-9815452D01*
X8056762Y-9824976D01*
X8037714Y-9824976D01*
X8018667Y-9815452D01*
X8009143Y-9805929D01*
X7999619Y-9786881D01*
X7990095Y-9748786D01*
X7990095Y-9701167D01*
X7999619Y-9663071D01*
X8009143Y-9644024D01*
X8018667Y-9634500D01*
X8037714Y-9624976D01*
X8190095Y-9805929D02*
X8199619Y-9815452D01*
X8190095Y-9824976D01*
X8180571Y-9815452D01*
X8190095Y-9805929D01*
X8190095Y-9824976D01*
X8313905Y-9710690D02*
X8294857Y-9701167D01*
X8285333Y-9691643D01*
X8275809Y-9672595D01*
X8275809Y-9663071D01*
X8285333Y-9644024D01*
X8294857Y-9634500D01*
X8313905Y-9624976D01*
X8352000Y-9624976D01*
X8371048Y-9634500D01*
X8380571Y-9644024D01*
X8390095Y-9663071D01*
X8390095Y-9672595D01*
X8380571Y-9691643D01*
X8371048Y-9701167D01*
X8352000Y-9710690D01*
X8313905Y-9710690D01*
X8294857Y-9720214D01*
X8285333Y-9729738D01*
X8275809Y-9748786D01*
X8275809Y-9786881D01*
X8285333Y-9805929D01*
X8294857Y-9815452D01*
X8313905Y-9824976D01*
X8352000Y-9824976D01*
X8371048Y-9815452D01*
X8380571Y-9805929D01*
X8390095Y-9786881D01*
X8390095Y-9748786D01*
X8380571Y-9729738D01*
X8371048Y-9720214D01*
X8352000Y-9710690D01*
X8513905Y-9624976D02*
X8532952Y-9624976D01*
X8552000Y-9634500D01*
X8561524Y-9644024D01*
X8571048Y-9663071D01*
X8580571Y-9701167D01*
X8580571Y-9748786D01*
X8571048Y-9786881D01*
X8561524Y-9805929D01*
X8552000Y-9815452D01*
X8532952Y-9824976D01*
X8513905Y-9824976D01*
X8494857Y-9815452D01*
X8485333Y-9805929D01*
X8475810Y-9786881D01*
X8466286Y-9748786D01*
X8466286Y-9701167D01*
X8475810Y-9663071D01*
X8485333Y-9644024D01*
X8494857Y-9634500D01*
X8513905Y-9624976D01*
X8704381Y-9624976D02*
X8723429Y-9624976D01*
X8742476Y-9634500D01*
X8752000Y-9644024D01*
X8761524Y-9663071D01*
X8771048Y-9701167D01*
X8771048Y-9748786D01*
X8761524Y-9786881D01*
X8752000Y-9805929D01*
X8742476Y-9815452D01*
X8723429Y-9824976D01*
X8704381Y-9824976D01*
X8685333Y-9815452D01*
X8675810Y-9805929D01*
X8666286Y-9786881D01*
X8656762Y-9748786D01*
X8656762Y-9701167D01*
X8666286Y-9663071D01*
X8675810Y-9644024D01*
X8685333Y-9634500D01*
X8704381Y-9624976D01*
X8856762Y-9824976D02*
X8856762Y-9691643D01*
X8856762Y-9710690D02*
X8866286Y-9701167D01*
X8885333Y-9691643D01*
X8913905Y-9691643D01*
X8932952Y-9701167D01*
X8942476Y-9720214D01*
X8942476Y-9824976D01*
X8942476Y-9720214D02*
X8952000Y-9701167D01*
X8971048Y-9691643D01*
X8999619Y-9691643D01*
X9018667Y-9701167D01*
X9028190Y-9720214D01*
X9028190Y-9824976D01*
X9123429Y-9824976D02*
X9123429Y-9691643D01*
X9123429Y-9710690D02*
X9132952Y-9701167D01*
X9152000Y-9691643D01*
X9180571Y-9691643D01*
X9199619Y-9701167D01*
X9209143Y-9720214D01*
X9209143Y-9824976D01*
X9209143Y-9720214D02*
X9218667Y-9701167D01*
X9237714Y-9691643D01*
X9266286Y-9691643D01*
X9285333Y-9701167D01*
X9294857Y-9720214D01*
X9294857Y-9824976D01*
X9685333Y-9615452D02*
X9513905Y-9872595D01*
X9942476Y-9624976D02*
X9961524Y-9624976D01*
X9980571Y-9634500D01*
X9990095Y-9644024D01*
X9999619Y-9663071D01*
X10009143Y-9701167D01*
X10009143Y-9748786D01*
X9999619Y-9786881D01*
X9990095Y-9805929D01*
X9980571Y-9815452D01*
X9961524Y-9824976D01*
X9942476Y-9824976D01*
X9923429Y-9815452D01*
X9913905Y-9805929D01*
X9904381Y-9786881D01*
X9894857Y-9748786D01*
X9894857Y-9701167D01*
X9904381Y-9663071D01*
X9913905Y-9644024D01*
X9923429Y-9634500D01*
X9942476Y-9624976D01*
X10094857Y-9805929D02*
X10104381Y-9815452D01*
X10094857Y-9824976D01*
X10085333Y-9815452D01*
X10094857Y-9805929D01*
X10094857Y-9824976D01*
X10228190Y-9624976D02*
X10247238Y-9624976D01*
X10266286Y-9634500D01*
X10275810Y-9644024D01*
X10285333Y-9663071D01*
X10294857Y-9701167D01*
X10294857Y-9748786D01*
X10285333Y-9786881D01*
X10275810Y-9805929D01*
X10266286Y-9815452D01*
X10247238Y-9824976D01*
X10228190Y-9824976D01*
X10209143Y-9815452D01*
X10199619Y-9805929D01*
X10190095Y-9786881D01*
X10180571Y-9748786D01*
X10180571Y-9701167D01*
X10190095Y-9663071D01*
X10199619Y-9644024D01*
X10209143Y-9634500D01*
X10228190Y-9624976D01*
X10361524Y-9624976D02*
X10485333Y-9624976D01*
X10418667Y-9701167D01*
X10447238Y-9701167D01*
X10466286Y-9710690D01*
X10475810Y-9720214D01*
X10485333Y-9739262D01*
X10485333Y-9786881D01*
X10475810Y-9805929D01*
X10466286Y-9815452D01*
X10447238Y-9824976D01*
X10390095Y-9824976D01*
X10371048Y-9815452D01*
X10361524Y-9805929D01*
X10675810Y-9824976D02*
X10561524Y-9824976D01*
X10618667Y-9824976D02*
X10618667Y-9624976D01*
X10599619Y-9653548D01*
X10580571Y-9672595D01*
X10561524Y-9682119D01*
X10856762Y-9624976D02*
X10761524Y-9624976D01*
X10752000Y-9720214D01*
X10761524Y-9710690D01*
X10780571Y-9701167D01*
X10828190Y-9701167D01*
X10847238Y-9710690D01*
X10856762Y-9720214D01*
X10866286Y-9739262D01*
X10866286Y-9786881D01*
X10856762Y-9805929D01*
X10847238Y-9815452D01*
X10828190Y-9824976D01*
X10780571Y-9824976D01*
X10761524Y-9815452D01*
X10752000Y-9805929D01*
X10942476Y-9624976D02*
X10942476Y-9663071D01*
X11018667Y-9624976D02*
X11018667Y-9663071D01*
X11313905Y-9901167D02*
X11304381Y-9891643D01*
X11285333Y-9863071D01*
X11275809Y-9844024D01*
X11266286Y-9815452D01*
X11256762Y-9767833D01*
X11256762Y-9729738D01*
X11266286Y-9682119D01*
X11275809Y-9653548D01*
X11285333Y-9634500D01*
X11304381Y-9605929D01*
X11313905Y-9596405D01*
X11494857Y-9824976D02*
X11380571Y-9824976D01*
X11437714Y-9824976D02*
X11437714Y-9624976D01*
X11418667Y-9653548D01*
X11399619Y-9672595D01*
X11380571Y-9682119D01*
X11609143Y-9710690D02*
X11590095Y-9701167D01*
X11580571Y-9691643D01*
X11571048Y-9672595D01*
X11571048Y-9663071D01*
X11580571Y-9644024D01*
X11590095Y-9634500D01*
X11609143Y-9624976D01*
X11647238Y-9624976D01*
X11666286Y-9634500D01*
X11675809Y-9644024D01*
X11685333Y-9663071D01*
X11685333Y-9672595D01*
X11675809Y-9691643D01*
X11666286Y-9701167D01*
X11647238Y-9710690D01*
X11609143Y-9710690D01*
X11590095Y-9720214D01*
X11580571Y-9729738D01*
X11571048Y-9748786D01*
X11571048Y-9786881D01*
X11580571Y-9805929D01*
X11590095Y-9815452D01*
X11609143Y-9824976D01*
X11647238Y-9824976D01*
X11666286Y-9815452D01*
X11675809Y-9805929D01*
X11685333Y-9786881D01*
X11685333Y-9748786D01*
X11675809Y-9729738D01*
X11666286Y-9720214D01*
X11647238Y-9710690D01*
X11923428Y-9824976D02*
X11923428Y-9624976D01*
X12009143Y-9824976D02*
X12009143Y-9720214D01*
X11999619Y-9701167D01*
X11980571Y-9691643D01*
X11952000Y-9691643D01*
X11932952Y-9701167D01*
X11923428Y-9710690D01*
X12132952Y-9824976D02*
X12113905Y-9815452D01*
X12104381Y-9805929D01*
X12094857Y-9786881D01*
X12094857Y-9729738D01*
X12104381Y-9710690D01*
X12113905Y-9701167D01*
X12132952Y-9691643D01*
X12161524Y-9691643D01*
X12180571Y-9701167D01*
X12190095Y-9710690D01*
X12199619Y-9729738D01*
X12199619Y-9786881D01*
X12190095Y-9805929D01*
X12180571Y-9815452D01*
X12161524Y-9824976D01*
X12132952Y-9824976D01*
X12313905Y-9824976D02*
X12294857Y-9815452D01*
X12285333Y-9796405D01*
X12285333Y-9624976D01*
X12466286Y-9815452D02*
X12447238Y-9824976D01*
X12409143Y-9824976D01*
X12390095Y-9815452D01*
X12380571Y-9796405D01*
X12380571Y-9720214D01*
X12390095Y-9701167D01*
X12409143Y-9691643D01*
X12447238Y-9691643D01*
X12466286Y-9701167D01*
X12475809Y-9720214D01*
X12475809Y-9739262D01*
X12380571Y-9758310D01*
X12552000Y-9815452D02*
X12571048Y-9824976D01*
X12609143Y-9824976D01*
X12628190Y-9815452D01*
X12637714Y-9796405D01*
X12637714Y-9786881D01*
X12628190Y-9767833D01*
X12609143Y-9758310D01*
X12580571Y-9758310D01*
X12561524Y-9748786D01*
X12552000Y-9729738D01*
X12552000Y-9720214D01*
X12561524Y-9701167D01*
X12580571Y-9691643D01*
X12609143Y-9691643D01*
X12628190Y-9701167D01*
X12704381Y-9901167D02*
X12713905Y-9891643D01*
X12732952Y-9863071D01*
X12742476Y-9844024D01*
X12752000Y-9815452D01*
X12761524Y-9767833D01*
X12761524Y-9729738D01*
X12752000Y-9682119D01*
X12742476Y-9653548D01*
X12732952Y-9634500D01*
X12713905Y-9605929D01*
X12704381Y-9596405D01*
D14*
X7692000Y-9948500D02*
X7692000Y-10048500D01*
X7642000Y-9998500D02*
X7742000Y-9998500D01*
D11*
X8104381Y-10088976D02*
X7990095Y-10088976D01*
X8047238Y-10088976D02*
X8047238Y-9888976D01*
X8028190Y-9917548D01*
X8009143Y-9936595D01*
X7990095Y-9946119D01*
X8190095Y-10069929D02*
X8199619Y-10079452D01*
X8190095Y-10088976D01*
X8180571Y-10079452D01*
X8190095Y-10069929D01*
X8190095Y-10088976D01*
X8323428Y-9888976D02*
X8342476Y-9888976D01*
X8361524Y-9898500D01*
X8371048Y-9908024D01*
X8380571Y-9927071D01*
X8390095Y-9965167D01*
X8390095Y-10012786D01*
X8380571Y-10050881D01*
X8371048Y-10069929D01*
X8361524Y-10079452D01*
X8342476Y-10088976D01*
X8323428Y-10088976D01*
X8304381Y-10079452D01*
X8294857Y-10069929D01*
X8285333Y-10050881D01*
X8275809Y-10012786D01*
X8275809Y-9965167D01*
X8285333Y-9927071D01*
X8294857Y-9908024D01*
X8304381Y-9898500D01*
X8323428Y-9888976D01*
X8513905Y-9888976D02*
X8532952Y-9888976D01*
X8552000Y-9898500D01*
X8561524Y-9908024D01*
X8571048Y-9927071D01*
X8580571Y-9965167D01*
X8580571Y-10012786D01*
X8571048Y-10050881D01*
X8561524Y-10069929D01*
X8552000Y-10079452D01*
X8532952Y-10088976D01*
X8513905Y-10088976D01*
X8494857Y-10079452D01*
X8485333Y-10069929D01*
X8475810Y-10050881D01*
X8466286Y-10012786D01*
X8466286Y-9965167D01*
X8475810Y-9927071D01*
X8485333Y-9908024D01*
X8494857Y-9898500D01*
X8513905Y-9888976D01*
X8704381Y-9888976D02*
X8723429Y-9888976D01*
X8742476Y-9898500D01*
X8752000Y-9908024D01*
X8761524Y-9927071D01*
X8771048Y-9965167D01*
X8771048Y-10012786D01*
X8761524Y-10050881D01*
X8752000Y-10069929D01*
X8742476Y-10079452D01*
X8723429Y-10088976D01*
X8704381Y-10088976D01*
X8685333Y-10079452D01*
X8675810Y-10069929D01*
X8666286Y-10050881D01*
X8656762Y-10012786D01*
X8656762Y-9965167D01*
X8666286Y-9927071D01*
X8675810Y-9908024D01*
X8685333Y-9898500D01*
X8704381Y-9888976D01*
X8856762Y-10088976D02*
X8856762Y-9955643D01*
X8856762Y-9974690D02*
X8866286Y-9965167D01*
X8885333Y-9955643D01*
X8913905Y-9955643D01*
X8932952Y-9965167D01*
X8942476Y-9984214D01*
X8942476Y-10088976D01*
X8942476Y-9984214D02*
X8952000Y-9965167D01*
X8971048Y-9955643D01*
X8999619Y-9955643D01*
X9018667Y-9965167D01*
X9028190Y-9984214D01*
X9028190Y-10088976D01*
X9123429Y-10088976D02*
X9123429Y-9955643D01*
X9123429Y-9974690D02*
X9132952Y-9965167D01*
X9152000Y-9955643D01*
X9180571Y-9955643D01*
X9199619Y-9965167D01*
X9209143Y-9984214D01*
X9209143Y-10088976D01*
X9209143Y-9984214D02*
X9218667Y-9965167D01*
X9237714Y-9955643D01*
X9266286Y-9955643D01*
X9285333Y-9965167D01*
X9294857Y-9984214D01*
X9294857Y-10088976D01*
X9685333Y-9879452D02*
X9513905Y-10136595D01*
X9942476Y-9888976D02*
X9961524Y-9888976D01*
X9980571Y-9898500D01*
X9990095Y-9908024D01*
X9999619Y-9927071D01*
X10009143Y-9965167D01*
X10009143Y-10012786D01*
X9999619Y-10050881D01*
X9990095Y-10069929D01*
X9980571Y-10079452D01*
X9961524Y-10088976D01*
X9942476Y-10088976D01*
X9923429Y-10079452D01*
X9913905Y-10069929D01*
X9904381Y-10050881D01*
X9894857Y-10012786D01*
X9894857Y-9965167D01*
X9904381Y-9927071D01*
X9913905Y-9908024D01*
X9923429Y-9898500D01*
X9942476Y-9888976D01*
X10094857Y-10069929D02*
X10104381Y-10079452D01*
X10094857Y-10088976D01*
X10085333Y-10079452D01*
X10094857Y-10069929D01*
X10094857Y-10088976D01*
X10228190Y-9888976D02*
X10247238Y-9888976D01*
X10266286Y-9898500D01*
X10275810Y-9908024D01*
X10285333Y-9927071D01*
X10294857Y-9965167D01*
X10294857Y-10012786D01*
X10285333Y-10050881D01*
X10275810Y-10069929D01*
X10266286Y-10079452D01*
X10247238Y-10088976D01*
X10228190Y-10088976D01*
X10209143Y-10079452D01*
X10199619Y-10069929D01*
X10190095Y-10050881D01*
X10180571Y-10012786D01*
X10180571Y-9965167D01*
X10190095Y-9927071D01*
X10199619Y-9908024D01*
X10209143Y-9898500D01*
X10228190Y-9888976D01*
X10361524Y-9888976D02*
X10485333Y-9888976D01*
X10418667Y-9965167D01*
X10447238Y-9965167D01*
X10466286Y-9974690D01*
X10475810Y-9984214D01*
X10485333Y-10003262D01*
X10485333Y-10050881D01*
X10475810Y-10069929D01*
X10466286Y-10079452D01*
X10447238Y-10088976D01*
X10390095Y-10088976D01*
X10371048Y-10079452D01*
X10361524Y-10069929D01*
X10580571Y-10088976D02*
X10618667Y-10088976D01*
X10637714Y-10079452D01*
X10647238Y-10069929D01*
X10666286Y-10041357D01*
X10675810Y-10003262D01*
X10675810Y-9927071D01*
X10666286Y-9908024D01*
X10656762Y-9898500D01*
X10637714Y-9888976D01*
X10599619Y-9888976D01*
X10580571Y-9898500D01*
X10571048Y-9908024D01*
X10561524Y-9927071D01*
X10561524Y-9974690D01*
X10571048Y-9993738D01*
X10580571Y-10003262D01*
X10599619Y-10012786D01*
X10637714Y-10012786D01*
X10656762Y-10003262D01*
X10666286Y-9993738D01*
X10675810Y-9974690D01*
X10847238Y-9955643D02*
X10847238Y-10088976D01*
X10799619Y-9879452D02*
X10752000Y-10022310D01*
X10875810Y-10022310D01*
X10942476Y-9888976D02*
X10942476Y-9927071D01*
X11018667Y-9888976D02*
X11018667Y-9927071D01*
X11313905Y-10165167D02*
X11304381Y-10155643D01*
X11285333Y-10127071D01*
X11275809Y-10108024D01*
X11266286Y-10079452D01*
X11256762Y-10031833D01*
X11256762Y-9993738D01*
X11266286Y-9946119D01*
X11275809Y-9917548D01*
X11285333Y-9898500D01*
X11304381Y-9869929D01*
X11313905Y-9860405D01*
X11494857Y-10088976D02*
X11380571Y-10088976D01*
X11437714Y-10088976D02*
X11437714Y-9888976D01*
X11418667Y-9917548D01*
X11399619Y-9936595D01*
X11380571Y-9946119D01*
X11618667Y-9888976D02*
X11637714Y-9888976D01*
X11656762Y-9898500D01*
X11666286Y-9908024D01*
X11675809Y-9927071D01*
X11685333Y-9965167D01*
X11685333Y-10012786D01*
X11675809Y-10050881D01*
X11666286Y-10069929D01*
X11656762Y-10079452D01*
X11637714Y-10088976D01*
X11618667Y-10088976D01*
X11599619Y-10079452D01*
X11590095Y-10069929D01*
X11580571Y-10050881D01*
X11571048Y-10012786D01*
X11571048Y-9965167D01*
X11580571Y-9927071D01*
X11590095Y-9908024D01*
X11599619Y-9898500D01*
X11618667Y-9888976D01*
X11923428Y-10088976D02*
X11923428Y-9888976D01*
X12009143Y-10088976D02*
X12009143Y-9984214D01*
X11999619Y-9965167D01*
X11980571Y-9955643D01*
X11952000Y-9955643D01*
X11932952Y-9965167D01*
X11923428Y-9974690D01*
X12132952Y-10088976D02*
X12113905Y-10079452D01*
X12104381Y-10069929D01*
X12094857Y-10050881D01*
X12094857Y-9993738D01*
X12104381Y-9974690D01*
X12113905Y-9965167D01*
X12132952Y-9955643D01*
X12161524Y-9955643D01*
X12180571Y-9965167D01*
X12190095Y-9974690D01*
X12199619Y-9993738D01*
X12199619Y-10050881D01*
X12190095Y-10069929D01*
X12180571Y-10079452D01*
X12161524Y-10088976D01*
X12132952Y-10088976D01*
X12313905Y-10088976D02*
X12294857Y-10079452D01*
X12285333Y-10060405D01*
X12285333Y-9888976D01*
X12466286Y-10079452D02*
X12447238Y-10088976D01*
X12409143Y-10088976D01*
X12390095Y-10079452D01*
X12380571Y-10060405D01*
X12380571Y-9984214D01*
X12390095Y-9965167D01*
X12409143Y-9955643D01*
X12447238Y-9955643D01*
X12466286Y-9965167D01*
X12475809Y-9984214D01*
X12475809Y-10003262D01*
X12380571Y-10022310D01*
X12552000Y-10079452D02*
X12571048Y-10088976D01*
X12609143Y-10088976D01*
X12628190Y-10079452D01*
X12637714Y-10060405D01*
X12637714Y-10050881D01*
X12628190Y-10031833D01*
X12609143Y-10022310D01*
X12580571Y-10022310D01*
X12561524Y-10012786D01*
X12552000Y-9993738D01*
X12552000Y-9984214D01*
X12561524Y-9965167D01*
X12580571Y-9955643D01*
X12609143Y-9955643D01*
X12628190Y-9965167D01*
X12875809Y-10012786D02*
X13028190Y-10012786D01*
X12952000Y-10088976D02*
X12952000Y-9936595D01*
X13361524Y-9955643D02*
X13361524Y-10088976D01*
X13313905Y-9879452D02*
X13266286Y-10022310D01*
X13390095Y-10022310D01*
X13609143Y-10079452D02*
X13628190Y-10088976D01*
X13666286Y-10088976D01*
X13685333Y-10079452D01*
X13694857Y-10060405D01*
X13694857Y-10050881D01*
X13685333Y-10031833D01*
X13666286Y-10022310D01*
X13637714Y-10022310D01*
X13618667Y-10012786D01*
X13609143Y-9993738D01*
X13609143Y-9984214D01*
X13618667Y-9965167D01*
X13637714Y-9955643D01*
X13666286Y-9955643D01*
X13685333Y-9965167D01*
X13809143Y-10088976D02*
X13790095Y-10079452D01*
X13780571Y-10060405D01*
X13780571Y-9888976D01*
X13913905Y-10088976D02*
X13894857Y-10079452D01*
X13885333Y-10069929D01*
X13875809Y-10050881D01*
X13875809Y-9993738D01*
X13885333Y-9974690D01*
X13894857Y-9965167D01*
X13913905Y-9955643D01*
X13942476Y-9955643D01*
X13961524Y-9965167D01*
X13971048Y-9974690D01*
X13980571Y-9993738D01*
X13980571Y-10050881D01*
X13971048Y-10069929D01*
X13961524Y-10079452D01*
X13942476Y-10088976D01*
X13913905Y-10088976D01*
X14037714Y-9955643D02*
X14113905Y-9955643D01*
X14066286Y-9888976D02*
X14066286Y-10060405D01*
X14075809Y-10079452D01*
X14094857Y-10088976D01*
X14113905Y-10088976D01*
X14171048Y-10079452D02*
X14190095Y-10088976D01*
X14228190Y-10088976D01*
X14247238Y-10079452D01*
X14256762Y-10060405D01*
X14256762Y-10050881D01*
X14247238Y-10031833D01*
X14228190Y-10022310D01*
X14199619Y-10022310D01*
X14180571Y-10012786D01*
X14171048Y-9993738D01*
X14171048Y-9984214D01*
X14180571Y-9965167D01*
X14199619Y-9955643D01*
X14228190Y-9955643D01*
X14247238Y-9965167D01*
X14323428Y-10165167D02*
X14332952Y-10155643D01*
X14352000Y-10127071D01*
X14361524Y-10108024D01*
X14371048Y-10079452D01*
X14380571Y-10031833D01*
X14380571Y-9993738D01*
X14371048Y-9946119D01*
X14361524Y-9917548D01*
X14352000Y-9898500D01*
X14332952Y-9869929D01*
X14323428Y-9860405D01*
D15*
X7724427Y-10304927D02*
X7724427Y-10220073D01*
X7639573Y-10220073D01*
X7639573Y-10304927D01*
X7724427Y-10304927D01*
D11*
X8104381Y-10352976D02*
X7990095Y-10352976D01*
X8047238Y-10352976D02*
X8047238Y-10152976D01*
X8028190Y-10181548D01*
X8009143Y-10200595D01*
X7990095Y-10210119D01*
X8190095Y-10333929D02*
X8199619Y-10343452D01*
X8190095Y-10352976D01*
X8180571Y-10343452D01*
X8190095Y-10333929D01*
X8190095Y-10352976D01*
X8275809Y-10172024D02*
X8285333Y-10162500D01*
X8304381Y-10152976D01*
X8352000Y-10152976D01*
X8371048Y-10162500D01*
X8380571Y-10172024D01*
X8390095Y-10191071D01*
X8390095Y-10210119D01*
X8380571Y-10238690D01*
X8266286Y-10352976D01*
X8390095Y-10352976D01*
X8513905Y-10152976D02*
X8532952Y-10152976D01*
X8552000Y-10162500D01*
X8561524Y-10172024D01*
X8571048Y-10191071D01*
X8580571Y-10229167D01*
X8580571Y-10276786D01*
X8571048Y-10314881D01*
X8561524Y-10333929D01*
X8552000Y-10343452D01*
X8532952Y-10352976D01*
X8513905Y-10352976D01*
X8494857Y-10343452D01*
X8485333Y-10333929D01*
X8475810Y-10314881D01*
X8466286Y-10276786D01*
X8466286Y-10229167D01*
X8475810Y-10191071D01*
X8485333Y-10172024D01*
X8494857Y-10162500D01*
X8513905Y-10152976D01*
X8704381Y-10152976D02*
X8723429Y-10152976D01*
X8742476Y-10162500D01*
X8752000Y-10172024D01*
X8761524Y-10191071D01*
X8771048Y-10229167D01*
X8771048Y-10276786D01*
X8761524Y-10314881D01*
X8752000Y-10333929D01*
X8742476Y-10343452D01*
X8723429Y-10352976D01*
X8704381Y-10352976D01*
X8685333Y-10343452D01*
X8675810Y-10333929D01*
X8666286Y-10314881D01*
X8656762Y-10276786D01*
X8656762Y-10229167D01*
X8666286Y-10191071D01*
X8675810Y-10172024D01*
X8685333Y-10162500D01*
X8704381Y-10152976D01*
X8856762Y-10352976D02*
X8856762Y-10219643D01*
X8856762Y-10238690D02*
X8866286Y-10229167D01*
X8885333Y-10219643D01*
X8913905Y-10219643D01*
X8932952Y-10229167D01*
X8942476Y-10248214D01*
X8942476Y-10352976D01*
X8942476Y-10248214D02*
X8952000Y-10229167D01*
X8971048Y-10219643D01*
X8999619Y-10219643D01*
X9018667Y-10229167D01*
X9028190Y-10248214D01*
X9028190Y-10352976D01*
X9123429Y-10352976D02*
X9123429Y-10219643D01*
X9123429Y-10238690D02*
X9132952Y-10229167D01*
X9152000Y-10219643D01*
X9180571Y-10219643D01*
X9199619Y-10229167D01*
X9209143Y-10248214D01*
X9209143Y-10352976D01*
X9209143Y-10248214D02*
X9218667Y-10229167D01*
X9237714Y-10219643D01*
X9266286Y-10219643D01*
X9285333Y-10229167D01*
X9294857Y-10248214D01*
X9294857Y-10352976D01*
X9685333Y-10143452D02*
X9513905Y-10400595D01*
X9942476Y-10152976D02*
X9961524Y-10152976D01*
X9980571Y-10162500D01*
X9990095Y-10172024D01*
X9999619Y-10191071D01*
X10009143Y-10229167D01*
X10009143Y-10276786D01*
X9999619Y-10314881D01*
X9990095Y-10333929D01*
X9980571Y-10343452D01*
X9961524Y-10352976D01*
X9942476Y-10352976D01*
X9923429Y-10343452D01*
X9913905Y-10333929D01*
X9904381Y-10314881D01*
X9894857Y-10276786D01*
X9894857Y-10229167D01*
X9904381Y-10191071D01*
X9913905Y-10172024D01*
X9923429Y-10162500D01*
X9942476Y-10152976D01*
X10094857Y-10333929D02*
X10104381Y-10343452D01*
X10094857Y-10352976D01*
X10085333Y-10343452D01*
X10094857Y-10333929D01*
X10094857Y-10352976D01*
X10228190Y-10152976D02*
X10247238Y-10152976D01*
X10266286Y-10162500D01*
X10275810Y-10172024D01*
X10285333Y-10191071D01*
X10294857Y-10229167D01*
X10294857Y-10276786D01*
X10285333Y-10314881D01*
X10275810Y-10333929D01*
X10266286Y-10343452D01*
X10247238Y-10352976D01*
X10228190Y-10352976D01*
X10209143Y-10343452D01*
X10199619Y-10333929D01*
X10190095Y-10314881D01*
X10180571Y-10276786D01*
X10180571Y-10229167D01*
X10190095Y-10191071D01*
X10199619Y-10172024D01*
X10209143Y-10162500D01*
X10228190Y-10152976D01*
X10466286Y-10219643D02*
X10466286Y-10352976D01*
X10418667Y-10143452D02*
X10371048Y-10286310D01*
X10494857Y-10286310D01*
X10552000Y-10152976D02*
X10685333Y-10152976D01*
X10599619Y-10352976D01*
X10752000Y-10172024D02*
X10761524Y-10162500D01*
X10780571Y-10152976D01*
X10828190Y-10152976D01*
X10847238Y-10162500D01*
X10856762Y-10172024D01*
X10866286Y-10191071D01*
X10866286Y-10210119D01*
X10856762Y-10238690D01*
X10742476Y-10352976D01*
X10866286Y-10352976D01*
X10942476Y-10152976D02*
X10942476Y-10191071D01*
X11018667Y-10152976D02*
X11018667Y-10191071D01*
X11313905Y-10429167D02*
X11304381Y-10419643D01*
X11285333Y-10391071D01*
X11275809Y-10372024D01*
X11266286Y-10343452D01*
X11256762Y-10295833D01*
X11256762Y-10257738D01*
X11266286Y-10210119D01*
X11275809Y-10181548D01*
X11285333Y-10162500D01*
X11304381Y-10133929D01*
X11313905Y-10124405D01*
X11475809Y-10219643D02*
X11475809Y-10352976D01*
X11428190Y-10143452D02*
X11380571Y-10286310D01*
X11504381Y-10286310D01*
X11732952Y-10352976D02*
X11732952Y-10152976D01*
X11818667Y-10352976D02*
X11818667Y-10248214D01*
X11809143Y-10229167D01*
X11790095Y-10219643D01*
X11761524Y-10219643D01*
X11742476Y-10229167D01*
X11732952Y-10238690D01*
X11942476Y-10352976D02*
X11923428Y-10343452D01*
X11913905Y-10333929D01*
X11904381Y-10314881D01*
X11904381Y-10257738D01*
X11913905Y-10238690D01*
X11923428Y-10229167D01*
X11942476Y-10219643D01*
X11971048Y-10219643D01*
X11990095Y-10229167D01*
X11999619Y-10238690D01*
X12009143Y-10257738D01*
X12009143Y-10314881D01*
X11999619Y-10333929D01*
X11990095Y-10343452D01*
X11971048Y-10352976D01*
X11942476Y-10352976D01*
X12123428Y-10352976D02*
X12104381Y-10343452D01*
X12094857Y-10324405D01*
X12094857Y-10152976D01*
X12275809Y-10343452D02*
X12256762Y-10352976D01*
X12218667Y-10352976D01*
X12199619Y-10343452D01*
X12190095Y-10324405D01*
X12190095Y-10248214D01*
X12199619Y-10229167D01*
X12218667Y-10219643D01*
X12256762Y-10219643D01*
X12275809Y-10229167D01*
X12285333Y-10248214D01*
X12285333Y-10267262D01*
X12190095Y-10286310D01*
X12361524Y-10343452D02*
X12380571Y-10352976D01*
X12418667Y-10352976D01*
X12437714Y-10343452D01*
X12447238Y-10324405D01*
X12447238Y-10314881D01*
X12437714Y-10295833D01*
X12418667Y-10286310D01*
X12390095Y-10286310D01*
X12371048Y-10276786D01*
X12361524Y-10257738D01*
X12361524Y-10248214D01*
X12371048Y-10229167D01*
X12390095Y-10219643D01*
X12418667Y-10219643D01*
X12437714Y-10229167D01*
X12513905Y-10429167D02*
X12523428Y-10419643D01*
X12542476Y-10391071D01*
X12552000Y-10372024D01*
X12561524Y-10343452D01*
X12571048Y-10295833D01*
X12571048Y-10257738D01*
X12561524Y-10210119D01*
X12552000Y-10181548D01*
X12542476Y-10162500D01*
X12523428Y-10133929D01*
X12513905Y-10124405D01*
X7642000Y-10626500D02*
X7742000Y-10526500D01*
X7642000Y-10426500D01*
X7542000Y-10526500D01*
X7642000Y-10626500D01*
X7980571Y-10416976D02*
X8104381Y-10416976D01*
X8037714Y-10493167D01*
X8066286Y-10493167D01*
X8085333Y-10502690D01*
X8094857Y-10512214D01*
X8104381Y-10531262D01*
X8104381Y-10578881D01*
X8094857Y-10597929D01*
X8085333Y-10607452D01*
X8066286Y-10616976D01*
X8009143Y-10616976D01*
X7990095Y-10607452D01*
X7980571Y-10597929D01*
X8190095Y-10597929D02*
X8199619Y-10607452D01*
X8190095Y-10616976D01*
X8180571Y-10607452D01*
X8190095Y-10597929D01*
X8190095Y-10616976D01*
X8275809Y-10436024D02*
X8285333Y-10426500D01*
X8304381Y-10416976D01*
X8352000Y-10416976D01*
X8371048Y-10426500D01*
X8380571Y-10436024D01*
X8390095Y-10455071D01*
X8390095Y-10474119D01*
X8380571Y-10502690D01*
X8266286Y-10616976D01*
X8390095Y-10616976D01*
X8513905Y-10416976D02*
X8532952Y-10416976D01*
X8552000Y-10426500D01*
X8561524Y-10436024D01*
X8571048Y-10455071D01*
X8580571Y-10493167D01*
X8580571Y-10540786D01*
X8571048Y-10578881D01*
X8561524Y-10597929D01*
X8552000Y-10607452D01*
X8532952Y-10616976D01*
X8513905Y-10616976D01*
X8494857Y-10607452D01*
X8485333Y-10597929D01*
X8475810Y-10578881D01*
X8466286Y-10540786D01*
X8466286Y-10493167D01*
X8475810Y-10455071D01*
X8485333Y-10436024D01*
X8494857Y-10426500D01*
X8513905Y-10416976D01*
X8704381Y-10416976D02*
X8723429Y-10416976D01*
X8742476Y-10426500D01*
X8752000Y-10436024D01*
X8761524Y-10455071D01*
X8771048Y-10493167D01*
X8771048Y-10540786D01*
X8761524Y-10578881D01*
X8752000Y-10597929D01*
X8742476Y-10607452D01*
X8723429Y-10616976D01*
X8704381Y-10616976D01*
X8685333Y-10607452D01*
X8675810Y-10597929D01*
X8666286Y-10578881D01*
X8656762Y-10540786D01*
X8656762Y-10493167D01*
X8666286Y-10455071D01*
X8675810Y-10436024D01*
X8685333Y-10426500D01*
X8704381Y-10416976D01*
X8856762Y-10616976D02*
X8856762Y-10483643D01*
X8856762Y-10502690D02*
X8866286Y-10493167D01*
X8885333Y-10483643D01*
X8913905Y-10483643D01*
X8932952Y-10493167D01*
X8942476Y-10512214D01*
X8942476Y-10616976D01*
X8942476Y-10512214D02*
X8952000Y-10493167D01*
X8971048Y-10483643D01*
X8999619Y-10483643D01*
X9018667Y-10493167D01*
X9028190Y-10512214D01*
X9028190Y-10616976D01*
X9123429Y-10616976D02*
X9123429Y-10483643D01*
X9123429Y-10502690D02*
X9132952Y-10493167D01*
X9152000Y-10483643D01*
X9180571Y-10483643D01*
X9199619Y-10493167D01*
X9209143Y-10512214D01*
X9209143Y-10616976D01*
X9209143Y-10512214D02*
X9218667Y-10493167D01*
X9237714Y-10483643D01*
X9266286Y-10483643D01*
X9285333Y-10493167D01*
X9294857Y-10512214D01*
X9294857Y-10616976D01*
X9685333Y-10407452D02*
X9513905Y-10664595D01*
X9942476Y-10416976D02*
X9961524Y-10416976D01*
X9980571Y-10426500D01*
X9990095Y-10436024D01*
X9999619Y-10455071D01*
X10009143Y-10493167D01*
X10009143Y-10540786D01*
X9999619Y-10578881D01*
X9990095Y-10597929D01*
X9980571Y-10607452D01*
X9961524Y-10616976D01*
X9942476Y-10616976D01*
X9923429Y-10607452D01*
X9913905Y-10597929D01*
X9904381Y-10578881D01*
X9894857Y-10540786D01*
X9894857Y-10493167D01*
X9904381Y-10455071D01*
X9913905Y-10436024D01*
X9923429Y-10426500D01*
X9942476Y-10416976D01*
X10094857Y-10597929D02*
X10104381Y-10607452D01*
X10094857Y-10616976D01*
X10085333Y-10607452D01*
X10094857Y-10597929D01*
X10094857Y-10616976D01*
X10294857Y-10616976D02*
X10180571Y-10616976D01*
X10237714Y-10616976D02*
X10237714Y-10416976D01*
X10218667Y-10445548D01*
X10199619Y-10464595D01*
X10180571Y-10474119D01*
X10371048Y-10436024D02*
X10380571Y-10426500D01*
X10399619Y-10416976D01*
X10447238Y-10416976D01*
X10466286Y-10426500D01*
X10475810Y-10436024D01*
X10485333Y-10455071D01*
X10485333Y-10474119D01*
X10475810Y-10502690D01*
X10361524Y-10616976D01*
X10485333Y-10616976D01*
X10656762Y-10416976D02*
X10618667Y-10416976D01*
X10599619Y-10426500D01*
X10590095Y-10436024D01*
X10571048Y-10464595D01*
X10561524Y-10502690D01*
X10561524Y-10578881D01*
X10571048Y-10597929D01*
X10580571Y-10607452D01*
X10599619Y-10616976D01*
X10637714Y-10616976D01*
X10656762Y-10607452D01*
X10666286Y-10597929D01*
X10675810Y-10578881D01*
X10675810Y-10531262D01*
X10666286Y-10512214D01*
X10656762Y-10502690D01*
X10637714Y-10493167D01*
X10599619Y-10493167D01*
X10580571Y-10502690D01*
X10571048Y-10512214D01*
X10561524Y-10531262D01*
X10799619Y-10416976D02*
X10818667Y-10416976D01*
X10837714Y-10426500D01*
X10847238Y-10436024D01*
X10856762Y-10455071D01*
X10866286Y-10493167D01*
X10866286Y-10540786D01*
X10856762Y-10578881D01*
X10847238Y-10597929D01*
X10837714Y-10607452D01*
X10818667Y-10616976D01*
X10799619Y-10616976D01*
X10780571Y-10607452D01*
X10771048Y-10597929D01*
X10761524Y-10578881D01*
X10752000Y-10540786D01*
X10752000Y-10493167D01*
X10761524Y-10455071D01*
X10771048Y-10436024D01*
X10780571Y-10426500D01*
X10799619Y-10416976D01*
X10942476Y-10416976D02*
X10942476Y-10455071D01*
X11018667Y-10416976D02*
X11018667Y-10455071D01*
X11313905Y-10693167D02*
X11304381Y-10683643D01*
X11285333Y-10655071D01*
X11275809Y-10636024D01*
X11266286Y-10607452D01*
X11256762Y-10559833D01*
X11256762Y-10521738D01*
X11266286Y-10474119D01*
X11275809Y-10445548D01*
X11285333Y-10426500D01*
X11304381Y-10397929D01*
X11313905Y-10388405D01*
X11380571Y-10436024D02*
X11390095Y-10426500D01*
X11409143Y-10416976D01*
X11456762Y-10416976D01*
X11475809Y-10426500D01*
X11485333Y-10436024D01*
X11494857Y-10455071D01*
X11494857Y-10474119D01*
X11485333Y-10502690D01*
X11371048Y-10616976D01*
X11494857Y-10616976D01*
X11732952Y-10616976D02*
X11732952Y-10416976D01*
X11818667Y-10616976D02*
X11818667Y-10512214D01*
X11809143Y-10493167D01*
X11790095Y-10483643D01*
X11761524Y-10483643D01*
X11742476Y-10493167D01*
X11732952Y-10502690D01*
X11942476Y-10616976D02*
X11923428Y-10607452D01*
X11913905Y-10597929D01*
X11904381Y-10578881D01*
X11904381Y-10521738D01*
X11913905Y-10502690D01*
X11923428Y-10493167D01*
X11942476Y-10483643D01*
X11971048Y-10483643D01*
X11990095Y-10493167D01*
X11999619Y-10502690D01*
X12009143Y-10521738D01*
X12009143Y-10578881D01*
X11999619Y-10597929D01*
X11990095Y-10607452D01*
X11971048Y-10616976D01*
X11942476Y-10616976D01*
X12123428Y-10616976D02*
X12104381Y-10607452D01*
X12094857Y-10588405D01*
X12094857Y-10416976D01*
X12275809Y-10607452D02*
X12256762Y-10616976D01*
X12218667Y-10616976D01*
X12199619Y-10607452D01*
X12190095Y-10588405D01*
X12190095Y-10512214D01*
X12199619Y-10493167D01*
X12218667Y-10483643D01*
X12256762Y-10483643D01*
X12275809Y-10493167D01*
X12285333Y-10512214D01*
X12285333Y-10531262D01*
X12190095Y-10550310D01*
X12361524Y-10607452D02*
X12380571Y-10616976D01*
X12418667Y-10616976D01*
X12437714Y-10607452D01*
X12447238Y-10588405D01*
X12447238Y-10578881D01*
X12437714Y-10559833D01*
X12418667Y-10550310D01*
X12390095Y-10550310D01*
X12371048Y-10540786D01*
X12361524Y-10521738D01*
X12361524Y-10512214D01*
X12371048Y-10493167D01*
X12390095Y-10483643D01*
X12418667Y-10483643D01*
X12437714Y-10493167D01*
X12513905Y-10693167D02*
X12523428Y-10683643D01*
X12542476Y-10655071D01*
X12552000Y-10636024D01*
X12561524Y-10607452D01*
X12571048Y-10559833D01*
X12571048Y-10521738D01*
X12561524Y-10474119D01*
X12552000Y-10445548D01*
X12542476Y-10426500D01*
X12523428Y-10397929D01*
X12513905Y-10388405D01*
M02*
