%TF.GenerationSoftware,KiCad,Pcbnew,(6.0.1)*%
%TF.CreationDate,2022-02-11T20:29:22+00:00*%
%TF.ProjectId,pcb,7063622e-6b69-4636-9164-5f7063625858,rev?*%
%TF.SameCoordinates,Original*%
%TF.FileFunction,Legend,Top*%
%TF.FilePolarity,Positive*%
%FSLAX46Y46*%
G04 Gerber Fmt 4.6, Leading zero omitted, Abs format (unit mm)*
G04 Created by KiCad (PCBNEW (6.0.1)) date 2022-02-11 20:29:22*
%MOMM*%
%LPD*%
G01*
G04 APERTURE LIST*
G04 Aperture macros list*
%AMRoundRect*
0 Rectangle with rounded corners*
0 $1 Rounding radius*
0 $2 $3 $4 $5 $6 $7 $8 $9 X,Y pos of 4 corners*
0 Add a 4 corners polygon primitive as box body*
4,1,4,$2,$3,$4,$5,$6,$7,$8,$9,$2,$3,0*
0 Add four circle primitives for the rounded corners*
1,1,$1+$1,$2,$3*
1,1,$1+$1,$4,$5*
1,1,$1+$1,$6,$7*
1,1,$1+$1,$8,$9*
0 Add four rect primitives between the rounded corners*
20,1,$1+$1,$2,$3,$4,$5,0*
20,1,$1+$1,$4,$5,$6,$7,0*
20,1,$1+$1,$6,$7,$8,$9,0*
20,1,$1+$1,$8,$9,$2,$3,0*%
G04 Aperture macros list end*
%ADD10C,0.150000*%
%ADD11C,0.254000*%
%ADD12C,0.120000*%
%ADD13C,0.010000*%
%ADD14C,0.100000*%
%ADD15C,0.500000*%
%ADD16R,1.600000X1.600000*%
%ADD17O,1.600000X1.600000*%
%ADD18C,3.200000*%
%ADD19C,1.800000*%
%ADD20RoundRect,0.250000X-0.412500X-0.650000X0.412500X-0.650000X0.412500X0.650000X-0.412500X0.650000X0*%
%ADD21R,1.900000X1.500000*%
%ADD22RoundRect,0.250000X-0.400000X-0.625000X0.400000X-0.625000X0.400000X0.625000X-0.400000X0.625000X0*%
%ADD23RoundRect,0.250000X0.412500X0.650000X-0.412500X0.650000X-0.412500X-0.650000X0.412500X-0.650000X0*%
%ADD24O,2.000000X3.500000*%
%ADD25O,3.300000X2.000000*%
%ADD26R,4.000000X2.000000*%
%ADD27C,1.600000*%
%ADD28R,0.900000X2.000000*%
%ADD29R,2.000000X0.900000*%
%ADD30R,5.000000X5.000000*%
%ADD31RoundRect,0.250001X-0.624999X0.462499X-0.624999X-0.462499X0.624999X-0.462499X0.624999X0.462499X0*%
%ADD32R,1.700000X1.700000*%
%ADD33O,1.700000X1.700000*%
%ADD34C,6.400000*%
%ADD35RoundRect,0.250000X0.400000X0.625000X-0.400000X0.625000X-0.400000X-0.625000X0.400000X-0.625000X0*%
%ADD36R,2.500000X1.500000*%
%ADD37O,2.500000X1.500000*%
G04 APERTURE END LIST*
D10*
X126492000Y-60960000D02*
X126492000Y-61976000D01*
X125984000Y-61468000D02*
X127000000Y-61468000D01*
X127627923Y-61468000D02*
G75*
G03*
X127627923Y-61468000I-1135923J0D01*
G01*
X97790095Y-50808000D02*
X97694857Y-50760380D01*
X97552000Y-50760380D01*
X97409142Y-50808000D01*
X97313904Y-50903238D01*
X97266285Y-50998476D01*
X97218666Y-51188952D01*
X97218666Y-51331809D01*
X97266285Y-51522285D01*
X97313904Y-51617523D01*
X97409142Y-51712761D01*
X97552000Y-51760380D01*
X97647238Y-51760380D01*
X97790095Y-51712761D01*
X97837714Y-51665142D01*
X97837714Y-51331809D01*
X97647238Y-51331809D01*
X98266285Y-51760380D02*
X98266285Y-50760380D01*
X98837714Y-51760380D01*
X98837714Y-50760380D01*
X99313904Y-51760380D02*
X99313904Y-50760380D01*
X99552000Y-50760380D01*
X99694857Y-50808000D01*
X99790095Y-50903238D01*
X99837714Y-50998476D01*
X99885333Y-51188952D01*
X99885333Y-51331809D01*
X99837714Y-51522285D01*
X99790095Y-51617523D01*
X99694857Y-51712761D01*
X99552000Y-51760380D01*
X99313904Y-51760380D01*
X113330219Y-55646580D02*
X112996885Y-55170390D01*
X112758790Y-55646580D02*
X112758790Y-54646580D01*
X113139742Y-54646580D01*
X113234980Y-54694200D01*
X113282600Y-54741819D01*
X113330219Y-54837057D01*
X113330219Y-54979914D01*
X113282600Y-55075152D01*
X113234980Y-55122771D01*
X113139742Y-55170390D01*
X112758790Y-55170390D01*
X113758790Y-55122771D02*
X114092123Y-55122771D01*
X114234980Y-55646580D02*
X113758790Y-55646580D01*
X113758790Y-54646580D01*
X114234980Y-54646580D01*
X114615933Y-55598961D02*
X114758790Y-55646580D01*
X114996885Y-55646580D01*
X115092123Y-55598961D01*
X115139742Y-55551342D01*
X115187361Y-55456104D01*
X115187361Y-55360866D01*
X115139742Y-55265628D01*
X115092123Y-55218009D01*
X114996885Y-55170390D01*
X114806409Y-55122771D01*
X114711171Y-55075152D01*
X114663552Y-55027533D01*
X114615933Y-54932295D01*
X114615933Y-54837057D01*
X114663552Y-54741819D01*
X114711171Y-54694200D01*
X114806409Y-54646580D01*
X115044504Y-54646580D01*
X115187361Y-54694200D01*
X115615933Y-55122771D02*
X115949266Y-55122771D01*
X116092123Y-55646580D02*
X115615933Y-55646580D01*
X115615933Y-54646580D01*
X116092123Y-54646580D01*
X116377838Y-54646580D02*
X116949266Y-54646580D01*
X116663552Y-55646580D02*
X116663552Y-54646580D01*
X129333714Y-63666666D02*
X129809904Y-63666666D01*
X129238476Y-63952380D02*
X129571809Y-62952380D01*
X129905142Y-63952380D01*
X130762285Y-63952380D02*
X130190857Y-63952380D01*
X130476571Y-63952380D02*
X130476571Y-62952380D01*
X130381333Y-63095238D01*
X130286095Y-63190476D01*
X130190857Y-63238095D01*
X88344952Y-59396380D02*
X88344952Y-60110666D01*
X88297333Y-60253523D01*
X88202095Y-60348761D01*
X88059238Y-60396380D01*
X87964000Y-60396380D01*
X89297333Y-60396380D02*
X88821142Y-60396380D01*
X88821142Y-59396380D01*
X90202095Y-60301142D02*
X90154476Y-60348761D01*
X90011619Y-60396380D01*
X89916380Y-60396380D01*
X89773523Y-60348761D01*
X89678285Y-60253523D01*
X89630666Y-60158285D01*
X89583047Y-59967809D01*
X89583047Y-59824952D01*
X89630666Y-59634476D01*
X89678285Y-59539238D01*
X89773523Y-59444000D01*
X89916380Y-59396380D01*
X90011619Y-59396380D01*
X90154476Y-59444000D01*
X90202095Y-59491619D01*
X90916380Y-59396380D02*
X90916380Y-60110666D01*
X90868761Y-60253523D01*
X90773523Y-60348761D01*
X90630666Y-60396380D01*
X90535428Y-60396380D01*
X91868761Y-60396380D02*
X91392571Y-60396380D01*
X91392571Y-59396380D01*
X92773523Y-60301142D02*
X92725904Y-60348761D01*
X92583047Y-60396380D01*
X92487809Y-60396380D01*
X92344952Y-60348761D01*
X92249714Y-60253523D01*
X92202095Y-60158285D01*
X92154476Y-59967809D01*
X92154476Y-59824952D01*
X92202095Y-59634476D01*
X92249714Y-59539238D01*
X92344952Y-59444000D01*
X92487809Y-59396380D01*
X92583047Y-59396380D01*
X92725904Y-59444000D01*
X92773523Y-59491619D01*
X93487809Y-59396380D02*
X93487809Y-60110666D01*
X93440190Y-60253523D01*
X93344952Y-60348761D01*
X93202095Y-60396380D01*
X93106857Y-60396380D01*
X94440190Y-60396380D02*
X93964000Y-60396380D01*
X93964000Y-59396380D01*
X95344952Y-60301142D02*
X95297333Y-60348761D01*
X95154476Y-60396380D01*
X95059238Y-60396380D01*
X94916380Y-60348761D01*
X94821142Y-60253523D01*
X94773523Y-60158285D01*
X94725904Y-59967809D01*
X94725904Y-59824952D01*
X94773523Y-59634476D01*
X94821142Y-59539238D01*
X94916380Y-59444000D01*
X95059238Y-59396380D01*
X95154476Y-59396380D01*
X95297333Y-59444000D01*
X95344952Y-59491619D01*
X96059238Y-59396380D02*
X96059238Y-60110666D01*
X96011619Y-60253523D01*
X95916380Y-60348761D01*
X95773523Y-60396380D01*
X95678285Y-60396380D01*
X97011619Y-60396380D02*
X96535428Y-60396380D01*
X96535428Y-59396380D01*
X97916380Y-60301142D02*
X97868761Y-60348761D01*
X97725904Y-60396380D01*
X97630666Y-60396380D01*
X97487809Y-60348761D01*
X97392571Y-60253523D01*
X97344952Y-60158285D01*
X97297333Y-59967809D01*
X97297333Y-59824952D01*
X97344952Y-59634476D01*
X97392571Y-59539238D01*
X97487809Y-59444000D01*
X97630666Y-59396380D01*
X97725904Y-59396380D01*
X97868761Y-59444000D01*
X97916380Y-59491619D01*
X91186095Y-50760380D02*
X91757523Y-50760380D01*
X91471809Y-51760380D02*
X91471809Y-50760380D01*
X91995619Y-50760380D02*
X92662285Y-51760380D01*
X92662285Y-50760380D02*
X91995619Y-51760380D01*
X123340761Y-51244190D02*
X123388380Y-51101333D01*
X123388380Y-50863238D01*
X123340761Y-50768000D01*
X123293142Y-50720380D01*
X123197904Y-50672761D01*
X123102666Y-50672761D01*
X123007428Y-50720380D01*
X122959809Y-50768000D01*
X122912190Y-50863238D01*
X122864571Y-51053714D01*
X122816952Y-51148952D01*
X122769333Y-51196571D01*
X122674095Y-51244190D01*
X122578857Y-51244190D01*
X122483619Y-51196571D01*
X122436000Y-51148952D01*
X122388380Y-51053714D01*
X122388380Y-50815619D01*
X122436000Y-50672761D01*
X122388380Y-50387047D02*
X122388380Y-49815619D01*
X123388380Y-50101333D02*
X122388380Y-50101333D01*
X123102666Y-49529904D02*
X123102666Y-49053714D01*
X123388380Y-49625142D02*
X122388380Y-49291809D01*
X123388380Y-48958476D01*
X122388380Y-48768000D02*
X122388380Y-48196571D01*
X123388380Y-48482285D02*
X122388380Y-48482285D01*
X122388380Y-47863238D02*
X123197904Y-47863238D01*
X123293142Y-47815619D01*
X123340761Y-47768000D01*
X123388380Y-47672761D01*
X123388380Y-47482285D01*
X123340761Y-47387047D01*
X123293142Y-47339428D01*
X123197904Y-47291809D01*
X122388380Y-47291809D01*
X123340761Y-46863238D02*
X123388380Y-46720380D01*
X123388380Y-46482285D01*
X123340761Y-46387047D01*
X123293142Y-46339428D01*
X123197904Y-46291809D01*
X123102666Y-46291809D01*
X123007428Y-46339428D01*
X122959809Y-46387047D01*
X122912190Y-46482285D01*
X122864571Y-46672761D01*
X122816952Y-46768000D01*
X122769333Y-46815619D01*
X122674095Y-46863238D01*
X122578857Y-46863238D01*
X122483619Y-46815619D01*
X122436000Y-46768000D01*
X122388380Y-46672761D01*
X122388380Y-46434666D01*
X122436000Y-46291809D01*
X129643238Y-65968571D02*
X129786095Y-66016190D01*
X129833714Y-66063809D01*
X129881333Y-66159047D01*
X129881333Y-66301904D01*
X129833714Y-66397142D01*
X129786095Y-66444761D01*
X129690857Y-66492380D01*
X129309904Y-66492380D01*
X129309904Y-65492380D01*
X129643238Y-65492380D01*
X129738476Y-65540000D01*
X129786095Y-65587619D01*
X129833714Y-65682857D01*
X129833714Y-65778095D01*
X129786095Y-65873333D01*
X129738476Y-65920952D01*
X129643238Y-65968571D01*
X129309904Y-65968571D01*
X130833714Y-66492380D02*
X130262285Y-66492380D01*
X130548000Y-66492380D02*
X130548000Y-65492380D01*
X130452761Y-65635238D01*
X130357523Y-65730476D01*
X130262285Y-65778095D01*
X94829333Y-51760380D02*
X94496000Y-51284190D01*
X94257904Y-51760380D02*
X94257904Y-50760380D01*
X94638857Y-50760380D01*
X94734095Y-50808000D01*
X94781714Y-50855619D01*
X94829333Y-50950857D01*
X94829333Y-51093714D01*
X94781714Y-51188952D01*
X94734095Y-51236571D01*
X94638857Y-51284190D01*
X94257904Y-51284190D01*
X95162666Y-50760380D02*
X95829333Y-51760380D01*
X95829333Y-50760380D02*
X95162666Y-51760380D01*
X93527761Y-45553380D02*
X93527761Y-46362904D01*
X93575380Y-46458142D01*
X93623000Y-46505761D01*
X93718238Y-46553380D01*
X93908714Y-46553380D01*
X94003952Y-46505761D01*
X94051571Y-46458142D01*
X94099190Y-46362904D01*
X94099190Y-45553380D01*
X94527761Y-46267666D02*
X95003952Y-46267666D01*
X94432523Y-46553380D02*
X94765857Y-45553380D01*
X95099190Y-46553380D01*
X96003952Y-46553380D02*
X95670619Y-46077190D01*
X95432523Y-46553380D02*
X95432523Y-45553380D01*
X95813476Y-45553380D01*
X95908714Y-45601000D01*
X95956333Y-45648619D01*
X96003952Y-45743857D01*
X96003952Y-45886714D01*
X95956333Y-45981952D01*
X95908714Y-46029571D01*
X95813476Y-46077190D01*
X95432523Y-46077190D01*
X96289666Y-45553380D02*
X96861095Y-45553380D01*
X96575380Y-46553380D02*
X96575380Y-45553380D01*
X129333714Y-61126666D02*
X129809904Y-61126666D01*
X129238476Y-61412380D02*
X129571809Y-60412380D01*
X129905142Y-61412380D01*
X130190857Y-60507619D02*
X130238476Y-60460000D01*
X130333714Y-60412380D01*
X130571809Y-60412380D01*
X130667047Y-60460000D01*
X130714666Y-60507619D01*
X130762285Y-60602857D01*
X130762285Y-60698095D01*
X130714666Y-60840952D01*
X130143238Y-61412380D01*
X130762285Y-61412380D01*
X106640523Y-54919571D02*
X106307190Y-54919571D01*
X106307190Y-55443380D02*
X106307190Y-54443380D01*
X106783380Y-54443380D01*
X107640523Y-55443380D02*
X107164333Y-55443380D01*
X107164333Y-54443380D01*
X107926238Y-55157666D02*
X108402428Y-55157666D01*
X107831000Y-55443380D02*
X108164333Y-54443380D01*
X108497666Y-55443380D01*
X108783380Y-55395761D02*
X108926238Y-55443380D01*
X109164333Y-55443380D01*
X109259571Y-55395761D01*
X109307190Y-55348142D01*
X109354809Y-55252904D01*
X109354809Y-55157666D01*
X109307190Y-55062428D01*
X109259571Y-55014809D01*
X109164333Y-54967190D01*
X108973857Y-54919571D01*
X108878619Y-54871952D01*
X108831000Y-54824333D01*
X108783380Y-54729095D01*
X108783380Y-54633857D01*
X108831000Y-54538619D01*
X108878619Y-54491000D01*
X108973857Y-54443380D01*
X109211952Y-54443380D01*
X109354809Y-54491000D01*
X109783380Y-55443380D02*
X109783380Y-54443380D01*
X109783380Y-54919571D02*
X110354809Y-54919571D01*
X110354809Y-55443380D02*
X110354809Y-54443380D01*
X129643238Y-68508571D02*
X129786095Y-68556190D01*
X129833714Y-68603809D01*
X129881333Y-68699047D01*
X129881333Y-68841904D01*
X129833714Y-68937142D01*
X129786095Y-68984761D01*
X129690857Y-69032380D01*
X129309904Y-69032380D01*
X129309904Y-68032380D01*
X129643238Y-68032380D01*
X129738476Y-68080000D01*
X129786095Y-68127619D01*
X129833714Y-68222857D01*
X129833714Y-68318095D01*
X129786095Y-68413333D01*
X129738476Y-68460952D01*
X129643238Y-68508571D01*
X129309904Y-68508571D01*
X130262285Y-68127619D02*
X130309904Y-68080000D01*
X130405142Y-68032380D01*
X130643238Y-68032380D01*
X130738476Y-68080000D01*
X130786095Y-68127619D01*
X130833714Y-68222857D01*
X130833714Y-68318095D01*
X130786095Y-68460952D01*
X130214666Y-69032380D01*
X130833714Y-69032380D01*
X79883666Y-86780714D02*
X80264619Y-86780714D01*
X80026523Y-86447380D02*
X80026523Y-87304523D01*
X80074142Y-87399761D01*
X80169380Y-87447380D01*
X80264619Y-87447380D01*
X80502714Y-86780714D02*
X80693190Y-87447380D01*
X80883666Y-86971190D01*
X81074142Y-87447380D01*
X81264619Y-86780714D01*
X81645571Y-87447380D02*
X81645571Y-86780714D01*
X81645571Y-86447380D02*
X81597952Y-86495000D01*
X81645571Y-86542619D01*
X81693190Y-86495000D01*
X81645571Y-86447380D01*
X81645571Y-86542619D01*
X82264619Y-87447380D02*
X82169380Y-87399761D01*
X82121761Y-87304523D01*
X82121761Y-86447380D01*
X82645571Y-87447380D02*
X82645571Y-86780714D01*
X82645571Y-86447380D02*
X82597952Y-86495000D01*
X82645571Y-86542619D01*
X82693190Y-86495000D01*
X82645571Y-86447380D01*
X82645571Y-86542619D01*
X83550333Y-86780714D02*
X83550333Y-87590238D01*
X83502714Y-87685476D01*
X83455095Y-87733095D01*
X83359857Y-87780714D01*
X83217000Y-87780714D01*
X83121761Y-87733095D01*
X83550333Y-87399761D02*
X83455095Y-87447380D01*
X83264619Y-87447380D01*
X83169380Y-87399761D01*
X83121761Y-87352142D01*
X83074142Y-87256904D01*
X83074142Y-86971190D01*
X83121761Y-86875952D01*
X83169380Y-86828333D01*
X83264619Y-86780714D01*
X83455095Y-86780714D01*
X83550333Y-86828333D01*
X84026523Y-87447380D02*
X84026523Y-86447380D01*
X84455095Y-87447380D02*
X84455095Y-86923571D01*
X84407476Y-86828333D01*
X84312238Y-86780714D01*
X84169380Y-86780714D01*
X84074142Y-86828333D01*
X84026523Y-86875952D01*
X84788428Y-86780714D02*
X85169380Y-86780714D01*
X84931285Y-86447380D02*
X84931285Y-87304523D01*
X84978904Y-87399761D01*
X85074142Y-87447380D01*
X85169380Y-87447380D01*
X86264619Y-87447380D02*
X86264619Y-86780714D01*
X86264619Y-86971190D02*
X86312238Y-86875952D01*
X86359857Y-86828333D01*
X86455095Y-86780714D01*
X86550333Y-86780714D01*
X87264619Y-87399761D02*
X87169380Y-87447380D01*
X86978904Y-87447380D01*
X86883666Y-87399761D01*
X86836047Y-87304523D01*
X86836047Y-86923571D01*
X86883666Y-86828333D01*
X86978904Y-86780714D01*
X87169380Y-86780714D01*
X87264619Y-86828333D01*
X87312238Y-86923571D01*
X87312238Y-87018809D01*
X86836047Y-87114047D01*
X87645571Y-86780714D02*
X87883666Y-87447380D01*
X88121761Y-86780714D01*
X89026523Y-87447380D02*
X88455095Y-87447380D01*
X88740809Y-87447380D02*
X88740809Y-86447380D01*
X88645571Y-86590238D01*
X88550333Y-86685476D01*
X88455095Y-86733095D01*
X89455095Y-87352142D02*
X89502714Y-87399761D01*
X89455095Y-87447380D01*
X89407476Y-87399761D01*
X89455095Y-87352142D01*
X89455095Y-87447380D01*
X90121761Y-86447380D02*
X90217000Y-86447380D01*
X90312238Y-86495000D01*
X90359857Y-86542619D01*
X90407476Y-86637857D01*
X90455095Y-86828333D01*
X90455095Y-87066428D01*
X90407476Y-87256904D01*
X90359857Y-87352142D01*
X90312238Y-87399761D01*
X90217000Y-87447380D01*
X90121761Y-87447380D01*
X90026523Y-87399761D01*
X89978904Y-87352142D01*
X89931285Y-87256904D01*
X89883666Y-87066428D01*
X89883666Y-86828333D01*
X89931285Y-86637857D01*
X89978904Y-86542619D01*
X90026523Y-86495000D01*
X90121761Y-86447380D01*
X126960380Y-50244190D02*
X126960380Y-49625142D01*
X127341333Y-49958476D01*
X127341333Y-49815619D01*
X127388952Y-49720380D01*
X127436571Y-49672761D01*
X127531809Y-49625142D01*
X127769904Y-49625142D01*
X127865142Y-49672761D01*
X127912761Y-49720380D01*
X127960380Y-49815619D01*
X127960380Y-50101333D01*
X127912761Y-50196571D01*
X127865142Y-50244190D01*
X127865142Y-49196571D02*
X127912761Y-49148952D01*
X127960380Y-49196571D01*
X127912761Y-49244190D01*
X127865142Y-49196571D01*
X127960380Y-49196571D01*
X126960380Y-48815619D02*
X126960380Y-48196571D01*
X127341333Y-48529904D01*
X127341333Y-48387047D01*
X127388952Y-48291809D01*
X127436571Y-48244190D01*
X127531809Y-48196571D01*
X127769904Y-48196571D01*
X127865142Y-48244190D01*
X127912761Y-48291809D01*
X127960380Y-48387047D01*
X127960380Y-48672761D01*
X127912761Y-48768000D01*
X127865142Y-48815619D01*
X126960380Y-47910857D02*
X127960380Y-47577523D01*
X126960380Y-47244190D01*
%TO.C,A1*%
X105965714Y-71286666D02*
X106441904Y-71286666D01*
X105870476Y-71572380D02*
X106203809Y-70572380D01*
X106537142Y-71572380D01*
X107394285Y-71572380D02*
X106822857Y-71572380D01*
X107108571Y-71572380D02*
X107108571Y-70572380D01*
X107013333Y-70715238D01*
X106918095Y-70810476D01*
X106822857Y-70858095D01*
D11*
%TO.C,SW1*%
X115195047Y-51477333D02*
X115255523Y-51295904D01*
X115255523Y-50993523D01*
X115195047Y-50872571D01*
X115134571Y-50812095D01*
X115013619Y-50751619D01*
X114892666Y-50751619D01*
X114771714Y-50812095D01*
X114711238Y-50872571D01*
X114650761Y-50993523D01*
X114590285Y-51235428D01*
X114529809Y-51356380D01*
X114469333Y-51416857D01*
X114348380Y-51477333D01*
X114227428Y-51477333D01*
X114106476Y-51416857D01*
X114046000Y-51356380D01*
X113985523Y-51235428D01*
X113985523Y-50933047D01*
X114046000Y-50751619D01*
X113985523Y-50328285D02*
X115255523Y-50025904D01*
X114348380Y-49784000D01*
X115255523Y-49542095D01*
X113985523Y-49239714D01*
X115255523Y-48090666D02*
X115255523Y-48816380D01*
X115255523Y-48453523D02*
X113985523Y-48453523D01*
X114166952Y-48574476D01*
X114287904Y-48695428D01*
X114348380Y-48816380D01*
D10*
%TO.C,C6*%
X110539633Y-87037342D02*
X110492014Y-87084961D01*
X110349157Y-87132580D01*
X110253919Y-87132580D01*
X110111061Y-87084961D01*
X110015823Y-86989723D01*
X109968204Y-86894485D01*
X109920585Y-86704009D01*
X109920585Y-86561152D01*
X109968204Y-86370676D01*
X110015823Y-86275438D01*
X110111061Y-86180200D01*
X110253919Y-86132580D01*
X110349157Y-86132580D01*
X110492014Y-86180200D01*
X110539633Y-86227819D01*
X111396776Y-86132580D02*
X111206300Y-86132580D01*
X111111061Y-86180200D01*
X111063442Y-86227819D01*
X110968204Y-86370676D01*
X110920585Y-86561152D01*
X110920585Y-86942104D01*
X110968204Y-87037342D01*
X111015823Y-87084961D01*
X111111061Y-87132580D01*
X111301538Y-87132580D01*
X111396776Y-87084961D01*
X111444395Y-87037342D01*
X111492014Y-86942104D01*
X111492014Y-86704009D01*
X111444395Y-86608771D01*
X111396776Y-86561152D01*
X111301538Y-86513533D01*
X111111061Y-86513533D01*
X111015823Y-86561152D01*
X110968204Y-86608771D01*
X110920585Y-86704009D01*
%TO.C,L1*%
X113892433Y-79192380D02*
X113416242Y-79192380D01*
X113416242Y-78192380D01*
X114749576Y-79192380D02*
X114178147Y-79192380D01*
X114463861Y-79192380D02*
X114463861Y-78192380D01*
X114368623Y-78335238D01*
X114273385Y-78430476D01*
X114178147Y-78478095D01*
%TO.C,R2*%
X126833333Y-55621180D02*
X126500000Y-55144990D01*
X126261904Y-55621180D02*
X126261904Y-54621180D01*
X126642857Y-54621180D01*
X126738095Y-54668800D01*
X126785714Y-54716419D01*
X126833333Y-54811657D01*
X126833333Y-54954514D01*
X126785714Y-55049752D01*
X126738095Y-55097371D01*
X126642857Y-55144990D01*
X126261904Y-55144990D01*
X127214285Y-54716419D02*
X127261904Y-54668800D01*
X127357142Y-54621180D01*
X127595238Y-54621180D01*
X127690476Y-54668800D01*
X127738095Y-54716419D01*
X127785714Y-54811657D01*
X127785714Y-54906895D01*
X127738095Y-55049752D01*
X127166666Y-55621180D01*
X127785714Y-55621180D01*
%TO.C,C5*%
X110615833Y-74829942D02*
X110568214Y-74877561D01*
X110425357Y-74925180D01*
X110330119Y-74925180D01*
X110187261Y-74877561D01*
X110092023Y-74782323D01*
X110044404Y-74687085D01*
X109996785Y-74496609D01*
X109996785Y-74353752D01*
X110044404Y-74163276D01*
X110092023Y-74068038D01*
X110187261Y-73972800D01*
X110330119Y-73925180D01*
X110425357Y-73925180D01*
X110568214Y-73972800D01*
X110615833Y-74020419D01*
X111520595Y-73925180D02*
X111044404Y-73925180D01*
X110996785Y-74401371D01*
X111044404Y-74353752D01*
X111139642Y-74306133D01*
X111377738Y-74306133D01*
X111472976Y-74353752D01*
X111520595Y-74401371D01*
X111568214Y-74496609D01*
X111568214Y-74734704D01*
X111520595Y-74829942D01*
X111472976Y-74877561D01*
X111377738Y-74925180D01*
X111139642Y-74925180D01*
X111044404Y-74877561D01*
X110996785Y-74829942D01*
%TO.C,J2*%
X127174666Y-86433780D02*
X127174666Y-87148066D01*
X127127047Y-87290923D01*
X127031809Y-87386161D01*
X126888952Y-87433780D01*
X126793714Y-87433780D01*
X127603238Y-86529019D02*
X127650857Y-86481400D01*
X127746095Y-86433780D01*
X127984190Y-86433780D01*
X128079428Y-86481400D01*
X128127047Y-86529019D01*
X128174666Y-86624257D01*
X128174666Y-86719495D01*
X128127047Y-86862352D01*
X127555619Y-87433780D01*
X128174666Y-87433780D01*
%TO.C,U1*%
X85598095Y-52284380D02*
X85598095Y-53093904D01*
X85645714Y-53189142D01*
X85693333Y-53236761D01*
X85788571Y-53284380D01*
X85979047Y-53284380D01*
X86074285Y-53236761D01*
X86121904Y-53189142D01*
X86169523Y-53093904D01*
X86169523Y-52284380D01*
X87169523Y-53284380D02*
X86598095Y-53284380D01*
X86883809Y-53284380D02*
X86883809Y-52284380D01*
X86788571Y-52427238D01*
X86693333Y-52522476D01*
X86598095Y-52570095D01*
%TO.C,C3*%
X83627933Y-75464942D02*
X83580314Y-75512561D01*
X83437457Y-75560180D01*
X83342219Y-75560180D01*
X83199361Y-75512561D01*
X83104123Y-75417323D01*
X83056504Y-75322085D01*
X83008885Y-75131609D01*
X83008885Y-74988752D01*
X83056504Y-74798276D01*
X83104123Y-74703038D01*
X83199361Y-74607800D01*
X83342219Y-74560180D01*
X83437457Y-74560180D01*
X83580314Y-74607800D01*
X83627933Y-74655419D01*
X83961266Y-74560180D02*
X84580314Y-74560180D01*
X84246980Y-74941133D01*
X84389838Y-74941133D01*
X84485076Y-74988752D01*
X84532695Y-75036371D01*
X84580314Y-75131609D01*
X84580314Y-75369704D01*
X84532695Y-75464942D01*
X84485076Y-75512561D01*
X84389838Y-75560180D01*
X84104123Y-75560180D01*
X84008885Y-75512561D01*
X83961266Y-75464942D01*
%TO.C,D1*%
X124737904Y-45664380D02*
X124737904Y-44664380D01*
X124976000Y-44664380D01*
X125118857Y-44712000D01*
X125214095Y-44807238D01*
X125261714Y-44902476D01*
X125309333Y-45092952D01*
X125309333Y-45235809D01*
X125261714Y-45426285D01*
X125214095Y-45521523D01*
X125118857Y-45616761D01*
X124976000Y-45664380D01*
X124737904Y-45664380D01*
X126261714Y-45664380D02*
X125690285Y-45664380D01*
X125976000Y-45664380D02*
X125976000Y-44664380D01*
X125880761Y-44807238D01*
X125785523Y-44902476D01*
X125690285Y-44950095D01*
%TO.C,C4*%
X131913333Y-73001142D02*
X131865714Y-73048761D01*
X131722857Y-73096380D01*
X131627619Y-73096380D01*
X131484761Y-73048761D01*
X131389523Y-72953523D01*
X131341904Y-72858285D01*
X131294285Y-72667809D01*
X131294285Y-72524952D01*
X131341904Y-72334476D01*
X131389523Y-72239238D01*
X131484761Y-72144000D01*
X131627619Y-72096380D01*
X131722857Y-72096380D01*
X131865714Y-72144000D01*
X131913333Y-72191619D01*
X132770476Y-72429714D02*
X132770476Y-73096380D01*
X132532380Y-72048761D02*
X132294285Y-72763047D01*
X132913333Y-72763047D01*
%TO.C,D2*%
X120165904Y-45664380D02*
X120165904Y-44664380D01*
X120404000Y-44664380D01*
X120546857Y-44712000D01*
X120642095Y-44807238D01*
X120689714Y-44902476D01*
X120737333Y-45092952D01*
X120737333Y-45235809D01*
X120689714Y-45426285D01*
X120642095Y-45521523D01*
X120546857Y-45616761D01*
X120404000Y-45664380D01*
X120165904Y-45664380D01*
X121118285Y-44759619D02*
X121165904Y-44712000D01*
X121261142Y-44664380D01*
X121499238Y-44664380D01*
X121594476Y-44712000D01*
X121642095Y-44759619D01*
X121689714Y-44854857D01*
X121689714Y-44950095D01*
X121642095Y-45092952D01*
X121070666Y-45664380D01*
X121689714Y-45664380D01*
%TO.C,J1*%
X89919666Y-48093380D02*
X89919666Y-48807666D01*
X89872047Y-48950523D01*
X89776809Y-49045761D01*
X89633952Y-49093380D01*
X89538714Y-49093380D01*
X90919666Y-49093380D02*
X90348238Y-49093380D01*
X90633952Y-49093380D02*
X90633952Y-48093380D01*
X90538714Y-48236238D01*
X90443476Y-48331476D01*
X90348238Y-48379095D01*
%TO.C,C2*%
X83627933Y-78004942D02*
X83580314Y-78052561D01*
X83437457Y-78100180D01*
X83342219Y-78100180D01*
X83199361Y-78052561D01*
X83104123Y-77957323D01*
X83056504Y-77862085D01*
X83008885Y-77671609D01*
X83008885Y-77528752D01*
X83056504Y-77338276D01*
X83104123Y-77243038D01*
X83199361Y-77147800D01*
X83342219Y-77100180D01*
X83437457Y-77100180D01*
X83580314Y-77147800D01*
X83627933Y-77195419D01*
X84008885Y-77195419D02*
X84056504Y-77147800D01*
X84151742Y-77100180D01*
X84389838Y-77100180D01*
X84485076Y-77147800D01*
X84532695Y-77195419D01*
X84580314Y-77290657D01*
X84580314Y-77385895D01*
X84532695Y-77528752D01*
X83961266Y-78100180D01*
X84580314Y-78100180D01*
%TO.C,R3*%
X120686533Y-55621180D02*
X120353200Y-55144990D01*
X120115104Y-55621180D02*
X120115104Y-54621180D01*
X120496057Y-54621180D01*
X120591295Y-54668800D01*
X120638914Y-54716419D01*
X120686533Y-54811657D01*
X120686533Y-54954514D01*
X120638914Y-55049752D01*
X120591295Y-55097371D01*
X120496057Y-55144990D01*
X120115104Y-55144990D01*
X121019866Y-54621180D02*
X121638914Y-54621180D01*
X121305580Y-55002133D01*
X121448438Y-55002133D01*
X121543676Y-55049752D01*
X121591295Y-55097371D01*
X121638914Y-55192609D01*
X121638914Y-55430704D01*
X121591295Y-55525942D01*
X121543676Y-55573561D01*
X121448438Y-55621180D01*
X121162723Y-55621180D01*
X121067485Y-55573561D01*
X121019866Y-55525942D01*
%TO.C,REF\u002A\u002A*%
X132984952Y-77668380D02*
X132413523Y-77668380D01*
X132699238Y-77668380D02*
X132699238Y-76668380D01*
X132604000Y-76811238D01*
X132508761Y-76906476D01*
X132413523Y-76954095D01*
X133365904Y-76763619D02*
X133413523Y-76716000D01*
X133508761Y-76668380D01*
X133746857Y-76668380D01*
X133842095Y-76716000D01*
X133889714Y-76763619D01*
X133937333Y-76858857D01*
X133937333Y-76954095D01*
X133889714Y-77096952D01*
X133318285Y-77668380D01*
X133937333Y-77668380D01*
X134223047Y-76668380D02*
X134556380Y-77668380D01*
X134889714Y-76668380D01*
X127683047Y-79319428D02*
X128444952Y-79319428D01*
X133683047Y-79319428D02*
X134444952Y-79319428D01*
X134064000Y-79700380D02*
X134064000Y-78938476D01*
%TO.C,R1*%
X91654333Y-78049380D02*
X91321000Y-77573190D01*
X91082904Y-78049380D02*
X91082904Y-77049380D01*
X91463857Y-77049380D01*
X91559095Y-77097000D01*
X91606714Y-77144619D01*
X91654333Y-77239857D01*
X91654333Y-77382714D01*
X91606714Y-77477952D01*
X91559095Y-77525571D01*
X91463857Y-77573190D01*
X91082904Y-77573190D01*
X92606714Y-78049380D02*
X92035285Y-78049380D01*
X92321000Y-78049380D02*
X92321000Y-77049380D01*
X92225761Y-77192238D01*
X92130523Y-77287476D01*
X92035285Y-77335095D01*
%TO.C,J3*%
X134115680Y-64745233D02*
X134829966Y-64745233D01*
X134972823Y-64792852D01*
X135068061Y-64888090D01*
X135115680Y-65030947D01*
X135115680Y-65126185D01*
X134115680Y-64364280D02*
X134115680Y-63745233D01*
X134496633Y-64078566D01*
X134496633Y-63935709D01*
X134544252Y-63840471D01*
X134591871Y-63792852D01*
X134687109Y-63745233D01*
X134925204Y-63745233D01*
X135020442Y-63792852D01*
X135068061Y-63840471D01*
X135115680Y-63935709D01*
X135115680Y-64221423D01*
X135068061Y-64316661D01*
X135020442Y-64364280D01*
%TO.C,U2*%
X97282095Y-83780380D02*
X97282095Y-84589904D01*
X97329714Y-84685142D01*
X97377333Y-84732761D01*
X97472571Y-84780380D01*
X97663047Y-84780380D01*
X97758285Y-84732761D01*
X97805904Y-84685142D01*
X97853523Y-84589904D01*
X97853523Y-83780380D01*
X98282095Y-83875619D02*
X98329714Y-83828000D01*
X98424952Y-83780380D01*
X98663047Y-83780380D01*
X98758285Y-83828000D01*
X98805904Y-83875619D01*
X98853523Y-83970857D01*
X98853523Y-84066095D01*
X98805904Y-84208952D01*
X98234476Y-84780380D01*
X98853523Y-84780380D01*
%TO.C,C1*%
X91654333Y-75414142D02*
X91606714Y-75461761D01*
X91463857Y-75509380D01*
X91368619Y-75509380D01*
X91225761Y-75461761D01*
X91130523Y-75366523D01*
X91082904Y-75271285D01*
X91035285Y-75080809D01*
X91035285Y-74937952D01*
X91082904Y-74747476D01*
X91130523Y-74652238D01*
X91225761Y-74557000D01*
X91368619Y-74509380D01*
X91463857Y-74509380D01*
X91606714Y-74557000D01*
X91654333Y-74604619D01*
X92606714Y-75509380D02*
X92035285Y-75509380D01*
X92321000Y-75509380D02*
X92321000Y-74509380D01*
X92225761Y-74652238D01*
X92130523Y-74747476D01*
X92035285Y-74795095D01*
D11*
%TO.C,SW2*%
X108845047Y-51477333D02*
X108905523Y-51295904D01*
X108905523Y-50993523D01*
X108845047Y-50872571D01*
X108784571Y-50812095D01*
X108663619Y-50751619D01*
X108542666Y-50751619D01*
X108421714Y-50812095D01*
X108361238Y-50872571D01*
X108300761Y-50993523D01*
X108240285Y-51235428D01*
X108179809Y-51356380D01*
X108119333Y-51416857D01*
X107998380Y-51477333D01*
X107877428Y-51477333D01*
X107756476Y-51416857D01*
X107696000Y-51356380D01*
X107635523Y-51235428D01*
X107635523Y-50933047D01*
X107696000Y-50751619D01*
X107635523Y-50328285D02*
X108905523Y-50025904D01*
X107998380Y-49784000D01*
X108905523Y-49542095D01*
X107635523Y-49239714D01*
X107756476Y-48816380D02*
X107696000Y-48755904D01*
X107635523Y-48634952D01*
X107635523Y-48332571D01*
X107696000Y-48211619D01*
X107756476Y-48151142D01*
X107877428Y-48090666D01*
X107998380Y-48090666D01*
X108179809Y-48151142D01*
X108905523Y-48876857D01*
X108905523Y-48090666D01*
%TO.C,G\u002A\u002A\u002A*%
G36*
X94065956Y-80194856D02*
G01*
X94076074Y-80158182D01*
X94131978Y-80052625D01*
X94218747Y-79960154D01*
X94329106Y-79885366D01*
X94455776Y-79832859D01*
X94591480Y-79807227D01*
X94634538Y-79805455D01*
X94763805Y-79817445D01*
X94877833Y-79857308D01*
X94985627Y-79929017D01*
X95051305Y-79989227D01*
X95155425Y-80114932D01*
X95226665Y-80248204D01*
X95263823Y-80384600D01*
X95265696Y-80519679D01*
X95231078Y-80648997D01*
X95230454Y-80650456D01*
X95160913Y-80765112D01*
X95063952Y-80858461D01*
X94946463Y-80927894D01*
X94815338Y-80970802D01*
X94677468Y-80984578D01*
X94539747Y-80966612D01*
X94463190Y-80940847D01*
X94317248Y-80862658D01*
X94202249Y-80762851D01*
X94114353Y-80637617D01*
X94076399Y-80557077D01*
X94058242Y-80483623D01*
X94050441Y-80388255D01*
X94050529Y-80384783D01*
X94245506Y-80384783D01*
X94270786Y-80490829D01*
X94326557Y-80590699D01*
X94408909Y-80677437D01*
X94513936Y-80744088D01*
X94516221Y-80745160D01*
X94637646Y-80783993D01*
X94753651Y-80784424D01*
X94849461Y-80754496D01*
X94914300Y-80716297D01*
X94973846Y-80668567D01*
X94982678Y-80659657D01*
X95037742Y-80601002D01*
X94972909Y-80588810D01*
X94887550Y-80563519D01*
X94792880Y-80521240D01*
X94702933Y-80469473D01*
X94631743Y-80415716D01*
X94612394Y-80396174D01*
X94564017Y-80321120D01*
X94528880Y-80228414D01*
X94511789Y-80134297D01*
X94514815Y-80066423D01*
X94526528Y-80007860D01*
X94429440Y-80060701D01*
X94351241Y-80110735D01*
X94300529Y-80165793D01*
X94266616Y-80239254D01*
X94254622Y-80279514D01*
X94245506Y-80384783D01*
X94050529Y-80384783D01*
X94053008Y-80286743D01*
X94065956Y-80194856D01*
G37*
G36*
X92464274Y-80014437D02*
G01*
X92538368Y-79912555D01*
X92619044Y-79845143D01*
X92763629Y-79765262D01*
X92907905Y-79723884D01*
X93049729Y-79720822D01*
X93186957Y-79755893D01*
X93317446Y-79828912D01*
X93414790Y-79913751D01*
X93515920Y-80035074D01*
X93582136Y-80158194D01*
X93617140Y-80290888D01*
X93623461Y-80351923D01*
X93626291Y-80430376D01*
X93620585Y-80487410D01*
X93602938Y-80540344D01*
X93575469Y-80596075D01*
X93494019Y-80710651D01*
X93386659Y-80801664D01*
X93260696Y-80866130D01*
X93123438Y-80901067D01*
X92982193Y-80903491D01*
X92876077Y-80881565D01*
X92724950Y-80816147D01*
X92600882Y-80722907D01*
X92502084Y-80600383D01*
X92475019Y-80553830D01*
X92438907Y-80481158D01*
X92418694Y-80421045D01*
X92409857Y-80355277D01*
X92407924Y-80283538D01*
X92408803Y-80273929D01*
X92598945Y-80273929D01*
X92603224Y-80329166D01*
X92642642Y-80440495D01*
X92713310Y-80542728D01*
X92807398Y-80627012D01*
X92917079Y-80684497D01*
X92917645Y-80684698D01*
X93005993Y-80708297D01*
X93086056Y-80708303D01*
X93162150Y-80690709D01*
X93222639Y-80663884D01*
X93289413Y-80621827D01*
X93317720Y-80599654D01*
X93397606Y-80531275D01*
X93293149Y-80498613D01*
X93150528Y-80444420D01*
X93041997Y-80380917D01*
X92967132Y-80310468D01*
X92919155Y-80232274D01*
X92884551Y-80137503D01*
X92868515Y-80043223D01*
X92870237Y-79992080D01*
X92873230Y-79954202D01*
X92859331Y-79945201D01*
X92822499Y-79955961D01*
X92735481Y-80005320D01*
X92665254Y-80081511D01*
X92617760Y-80174420D01*
X92598945Y-80273929D01*
X92408803Y-80273929D01*
X92421325Y-80136991D01*
X92464274Y-80014437D01*
G37*
G36*
X94207122Y-81944590D02*
G01*
X94253231Y-81972311D01*
X94282318Y-81989736D01*
X94286865Y-81992425D01*
X94283514Y-82010345D01*
X94270447Y-82053275D01*
X94261234Y-82080741D01*
X94244093Y-82139149D01*
X94242911Y-82183513D01*
X94257932Y-82235565D01*
X94263126Y-82249398D01*
X94315800Y-82342100D01*
X94394966Y-82425206D01*
X94492492Y-82494630D01*
X94600243Y-82546287D01*
X94710085Y-82576090D01*
X94813882Y-82579954D01*
X94885796Y-82562174D01*
X94952219Y-82514522D01*
X94997479Y-82441022D01*
X95015459Y-82351891D01*
X95015538Y-82345473D01*
X95018507Y-82316420D01*
X95033999Y-82301740D01*
X95071891Y-82296568D01*
X95115964Y-82296000D01*
X95216390Y-82296000D01*
X95205204Y-82404383D01*
X95175401Y-82531746D01*
X95116725Y-82634815D01*
X95032266Y-82711774D01*
X94925117Y-82760808D01*
X94798366Y-82780102D01*
X94655105Y-82767840D01*
X94605290Y-82756703D01*
X94434635Y-82694291D01*
X94282478Y-82598276D01*
X94232445Y-82556040D01*
X94157606Y-82488427D01*
X94129750Y-82553406D01*
X94072142Y-82657112D01*
X93996192Y-82750576D01*
X93912837Y-82820758D01*
X93897785Y-82829972D01*
X93824777Y-82868292D01*
X93765809Y-82886852D01*
X93703331Y-82888890D01*
X93630170Y-82879372D01*
X93506640Y-82844231D01*
X93404596Y-82780119D01*
X93336933Y-82710443D01*
X93295108Y-82659871D01*
X93259697Y-82617524D01*
X93249905Y-82605992D01*
X93218776Y-82551076D01*
X93191598Y-82468045D01*
X93172168Y-82369269D01*
X93161841Y-82296000D01*
X93374307Y-82296000D01*
X93374736Y-82359500D01*
X93390992Y-82449695D01*
X93433533Y-82539585D01*
X93494778Y-82618687D01*
X93567147Y-82676523D01*
X93620044Y-82698662D01*
X93699904Y-82699610D01*
X93779813Y-82665980D01*
X93854973Y-82601971D01*
X93920582Y-82511779D01*
X93971843Y-82399603D01*
X93975989Y-82387355D01*
X93997696Y-82316063D01*
X94013176Y-82255357D01*
X94019077Y-82218397D01*
X94026176Y-82149393D01*
X94044391Y-82070003D01*
X94069094Y-81996701D01*
X94095565Y-81946082D01*
X94131399Y-81899010D01*
X94207122Y-81944590D01*
G37*
G36*
X90013119Y-84823076D02*
G01*
X90088055Y-84716067D01*
X90186626Y-84639561D01*
X90307470Y-84594542D01*
X90449228Y-84581992D01*
X90610540Y-84602897D01*
X90648045Y-84611960D01*
X90742402Y-84641129D01*
X90841334Y-84681712D01*
X90951155Y-84736907D01*
X91078179Y-84809910D01*
X91228718Y-84903921D01*
X91244615Y-84914154D01*
X91400147Y-85012035D01*
X91531362Y-85088221D01*
X91644655Y-85145171D01*
X91746425Y-85185348D01*
X91843068Y-85211213D01*
X91940982Y-85225227D01*
X92046564Y-85229852D01*
X92065230Y-85229883D01*
X92240581Y-85213193D01*
X92403152Y-85166281D01*
X92548379Y-85092160D01*
X92671694Y-84993842D01*
X92768530Y-84874341D01*
X92834320Y-84736667D01*
X92840002Y-84718769D01*
X92863300Y-84598399D01*
X92870315Y-84455754D01*
X92861291Y-84303970D01*
X92836472Y-84156182D01*
X92828965Y-84125695D01*
X92794277Y-84012786D01*
X92746350Y-83890715D01*
X92682954Y-83754956D01*
X92601861Y-83600988D01*
X92500841Y-83424286D01*
X92403958Y-83263154D01*
X92291026Y-83076876D01*
X92198062Y-82920015D01*
X92125390Y-82793154D01*
X92073332Y-82696875D01*
X92042211Y-82631762D01*
X92032352Y-82598399D01*
X92033615Y-82594641D01*
X92029324Y-82574374D01*
X92009752Y-82527018D01*
X91978343Y-82459252D01*
X91938538Y-82377756D01*
X91893780Y-82289209D01*
X91847512Y-82200290D01*
X91803176Y-82117678D01*
X91764214Y-82048052D01*
X91734070Y-81998092D01*
X91716184Y-81974476D01*
X91713537Y-81973616D01*
X91698714Y-81961688D01*
X91673101Y-81920111D01*
X91639790Y-81855763D01*
X91601872Y-81775522D01*
X91562438Y-81686269D01*
X91524582Y-81594880D01*
X91491395Y-81508235D01*
X91465967Y-81433212D01*
X91457713Y-81404444D01*
X91436695Y-81306054D01*
X91421340Y-81188985D01*
X91410767Y-81045370D01*
X91406514Y-80947846D01*
X91402733Y-80831280D01*
X91401634Y-80742434D01*
X91404354Y-80669982D01*
X91412030Y-80602598D01*
X91425799Y-80528955D01*
X91446796Y-80437728D01*
X91465337Y-80361692D01*
X91492519Y-80252372D01*
X91516282Y-80163534D01*
X91539788Y-80087794D01*
X91566200Y-80017767D01*
X91598681Y-79946067D01*
X91640392Y-79865312D01*
X91694497Y-79768115D01*
X91764158Y-79647094D01*
X91791692Y-79599647D01*
X91896528Y-79426318D01*
X91992205Y-79284629D01*
X92082954Y-79169508D01*
X92173006Y-79075883D01*
X92266594Y-78998684D01*
X92327858Y-78957093D01*
X92545691Y-78841093D01*
X92787732Y-78751005D01*
X93048434Y-78687414D01*
X93322247Y-78650905D01*
X93603622Y-78642062D01*
X93887010Y-78661471D01*
X94166863Y-78709715D01*
X94313902Y-78747772D01*
X94607665Y-78851999D01*
X94891864Y-78989377D01*
X95162213Y-79156427D01*
X95414423Y-79349669D01*
X95644206Y-79565623D01*
X95847274Y-79800809D01*
X96019338Y-80051747D01*
X96100386Y-80197528D01*
X96193707Y-80403499D01*
X96264360Y-80614336D01*
X96314292Y-80838301D01*
X96345449Y-81083655D01*
X96357780Y-81289769D01*
X96360786Y-81401161D01*
X96361135Y-81506923D01*
X96358255Y-81611056D01*
X96351577Y-81717561D01*
X96340529Y-81830438D01*
X96324541Y-81953690D01*
X96303043Y-82091315D01*
X96275463Y-82247315D01*
X96241232Y-82425691D01*
X96199779Y-82630444D01*
X96150533Y-82865574D01*
X96097947Y-83111730D01*
X96070249Y-83244768D01*
X96050683Y-83351994D01*
X96037808Y-83445484D01*
X96030189Y-83537312D01*
X96026386Y-83639554D01*
X96025237Y-83722307D01*
X96028708Y-83904914D01*
X96044440Y-84060001D01*
X96075441Y-84198012D01*
X96124718Y-84329392D01*
X96195278Y-84464587D01*
X96275864Y-84592755D01*
X96436825Y-84806888D01*
X96616942Y-84996436D01*
X96812557Y-85159162D01*
X97020011Y-85292832D01*
X97235645Y-85395210D01*
X97455800Y-85464061D01*
X97676818Y-85497150D01*
X97760692Y-85499882D01*
X97969740Y-85482927D01*
X98174475Y-85431201D01*
X98298723Y-85382759D01*
X98422979Y-85339036D01*
X98526538Y-85327152D01*
X98612071Y-85347630D01*
X98682250Y-85400990D01*
X98728515Y-85466597D01*
X98758517Y-85541712D01*
X98766379Y-85625386D01*
X98751281Y-85722897D01*
X98712405Y-85839524D01*
X98648934Y-85980544D01*
X98648787Y-85980844D01*
X98542982Y-86165184D01*
X98421667Y-86315950D01*
X98281944Y-86434989D01*
X98120915Y-86524144D01*
X97935682Y-86585260D01*
X97723347Y-86620183D01*
X97633692Y-86627039D01*
X97414814Y-86626786D01*
X97219302Y-86598961D01*
X97040971Y-86541558D01*
X96873635Y-86452574D01*
X96711107Y-86330001D01*
X96707377Y-86326772D01*
X96612164Y-86245035D01*
X96540048Y-86186107D01*
X96485343Y-86146369D01*
X96442361Y-86122201D01*
X96405415Y-86109983D01*
X96368817Y-86106096D01*
X96360467Y-86106000D01*
X96291766Y-86118452D01*
X96251355Y-86152537D01*
X96242931Y-86203343D01*
X96256761Y-86243796D01*
X96283627Y-86282764D01*
X96325217Y-86319343D01*
X96387004Y-86356769D01*
X96474459Y-86398279D01*
X96593053Y-86447109D01*
X96615017Y-86455713D01*
X96746701Y-86509337D01*
X96848776Y-86557163D01*
X96929238Y-86604004D01*
X96996086Y-86654675D01*
X97057318Y-86713989D01*
X97073534Y-86731674D01*
X97166011Y-86861853D01*
X97224341Y-87006448D01*
X97246183Y-87159483D01*
X97246281Y-87172819D01*
X97234646Y-87295926D01*
X97197564Y-87399173D01*
X97134346Y-87491126D01*
X97048154Y-87564459D01*
X96940064Y-87611633D01*
X96818325Y-87631349D01*
X96691190Y-87622309D01*
X96566909Y-87583212D01*
X96562473Y-87581172D01*
X96476905Y-87528549D01*
X96377923Y-87445875D01*
X96269958Y-87337861D01*
X96157441Y-87209222D01*
X96044800Y-87064671D01*
X95950340Y-86929919D01*
X95855492Y-86797110D01*
X95768411Y-86694581D01*
X95691379Y-86624874D01*
X95656393Y-86602620D01*
X95568843Y-86575678D01*
X95484870Y-86583774D01*
X95412465Y-86623787D01*
X95359616Y-86692595D01*
X95347014Y-86723516D01*
X95334625Y-86775276D01*
X95334316Y-86827979D01*
X95347920Y-86889740D01*
X95377267Y-86968672D01*
X95424189Y-87072888D01*
X95427413Y-87079719D01*
X95488258Y-87230278D01*
X95517499Y-87360691D01*
X95514650Y-87474441D01*
X95479226Y-87575017D01*
X95410741Y-87665904D01*
X95336913Y-87730169D01*
X95211599Y-87811059D01*
X95087622Y-87859895D01*
X94952083Y-87881012D01*
X94883444Y-87882623D01*
X94797957Y-87878167D01*
X94716752Y-87867765D01*
X94656837Y-87853625D01*
X94654944Y-87852947D01*
X94550852Y-87797845D01*
X94478853Y-87720452D01*
X94438857Y-87620640D01*
X94429813Y-87528393D01*
X94437490Y-87444545D01*
X94462122Y-87360205D01*
X94507182Y-87266792D01*
X94576145Y-87155725D01*
X94587634Y-87138679D01*
X94673571Y-86994204D01*
X94723972Y-86865296D01*
X94738647Y-86750865D01*
X94717409Y-86649821D01*
X94660069Y-86561074D01*
X94566440Y-86483533D01*
X94465105Y-86428757D01*
X94316546Y-86373255D01*
X94164644Y-86338994D01*
X94017481Y-86326496D01*
X93883141Y-86336283D01*
X93769705Y-86368877D01*
X93742912Y-86382094D01*
X93656047Y-86445800D01*
X93600733Y-86524881D01*
X93576733Y-86621270D01*
X93583809Y-86736899D01*
X93621725Y-86873703D01*
X93668648Y-86987848D01*
X93730486Y-87145734D01*
X93761156Y-87281518D01*
X93760505Y-87396872D01*
X93728380Y-87493465D01*
X93664628Y-87572969D01*
X93611236Y-87613096D01*
X93503285Y-87659479D01*
X93384433Y-87672709D01*
X93262825Y-87653753D01*
X93146604Y-87603581D01*
X93071037Y-87548853D01*
X92991866Y-87463695D01*
X92942621Y-87369463D01*
X92919229Y-87256490D01*
X92915904Y-87180615D01*
X92918103Y-87100610D01*
X92927405Y-87035925D01*
X92947567Y-86970639D01*
X92982348Y-86888830D01*
X92987397Y-86877769D01*
X93055846Y-86706493D01*
X93093372Y-86557761D01*
X93099926Y-86430157D01*
X93075457Y-86322269D01*
X93019913Y-86232682D01*
X92962334Y-86179966D01*
X92873551Y-86135974D01*
X92776350Y-86128906D01*
X92672384Y-86157931D01*
X92563308Y-86222218D01*
X92450775Y-86320935D01*
X92336440Y-86453249D01*
X92287947Y-86519111D01*
X92178853Y-86690205D01*
X92099970Y-86853324D01*
X92046765Y-87018376D01*
X92034436Y-87073154D01*
X91999698Y-87205813D01*
X91953984Y-87305359D01*
X91892789Y-87377215D01*
X91811608Y-87426805D01*
X91715199Y-87457470D01*
X91597399Y-87465626D01*
X91482333Y-87438449D01*
X91376436Y-87379507D01*
X91286141Y-87292369D01*
X91218501Y-87181980D01*
X91188123Y-87078262D01*
X91177614Y-86955174D01*
X91186885Y-86826940D01*
X91215842Y-86707784D01*
X91221650Y-86692154D01*
X91290436Y-86560389D01*
X91392488Y-86427271D01*
X91522740Y-86299024D01*
X91580670Y-86251215D01*
X91695577Y-86158511D01*
X91782254Y-86082433D01*
X91845314Y-86018435D01*
X91889373Y-85961969D01*
X91910578Y-85926047D01*
X91942531Y-85841847D01*
X91941889Y-85771515D01*
X91916138Y-85717514D01*
X91892434Y-85688262D01*
X91863897Y-85665284D01*
X91825814Y-85647843D01*
X91773477Y-85635200D01*
X91702173Y-85626619D01*
X91607192Y-85621362D01*
X91483823Y-85618692D01*
X91327356Y-85617873D01*
X91279435Y-85617873D01*
X91123654Y-85618372D01*
X91000704Y-85619882D01*
X90904341Y-85622792D01*
X90828325Y-85627493D01*
X90766413Y-85634373D01*
X90712364Y-85643822D01*
X90659935Y-85656230D01*
X90658461Y-85656615D01*
X90497630Y-85688463D01*
X90360780Y-85692229D01*
X90243971Y-85667169D01*
X90143259Y-85612537D01*
X90070185Y-85545439D01*
X90000412Y-85452360D01*
X89957788Y-85353560D01*
X89939144Y-85238827D01*
X89939584Y-85124662D01*
X89941736Y-85109608D01*
X90134694Y-85109608D01*
X90136435Y-85225823D01*
X90164565Y-85330027D01*
X90217314Y-85414767D01*
X90273365Y-85461924D01*
X90327020Y-85487043D01*
X90387426Y-85497648D01*
X90462961Y-85493686D01*
X90561999Y-85475107D01*
X90625130Y-85459763D01*
X90678864Y-85447069D01*
X90732416Y-85437244D01*
X90791830Y-85429904D01*
X90863152Y-85424665D01*
X90952429Y-85421143D01*
X91065705Y-85418954D01*
X91209027Y-85417712D01*
X91292693Y-85417331D01*
X91447805Y-85416907D01*
X91569163Y-85417167D01*
X91662090Y-85418473D01*
X91731907Y-85421188D01*
X91783937Y-85425675D01*
X91823502Y-85432297D01*
X91855923Y-85441416D01*
X91886524Y-85453396D01*
X91898440Y-85458621D01*
X91983543Y-85501575D01*
X92041591Y-85545994D01*
X92083659Y-85601893D01*
X92106638Y-85646846D01*
X92139051Y-85762153D01*
X92134727Y-85882414D01*
X92095013Y-86003844D01*
X92021259Y-86122655D01*
X91914813Y-86235062D01*
X91889384Y-86256718D01*
X91741259Y-86381427D01*
X91622843Y-86488515D01*
X91531222Y-86581867D01*
X91463480Y-86665369D01*
X91416702Y-86742908D01*
X91387972Y-86818370D01*
X91374375Y-86895641D01*
X91372266Y-86946059D01*
X91387028Y-87056105D01*
X91428314Y-87148585D01*
X91491626Y-87218019D01*
X91572465Y-87258924D01*
X91636222Y-87267650D01*
X91700717Y-87259329D01*
X91750672Y-87231083D01*
X91789872Y-87177992D01*
X91822101Y-87095135D01*
X91848032Y-86992157D01*
X91895687Y-86829216D01*
X91966603Y-86662988D01*
X92056156Y-86500077D01*
X92159721Y-86347084D01*
X92272672Y-86210614D01*
X92390384Y-86097270D01*
X92508232Y-86013655D01*
X92547918Y-85992980D01*
X92653426Y-85957189D01*
X92770161Y-85939663D01*
X92885125Y-85940840D01*
X92985321Y-85961161D01*
X93022615Y-85976923D01*
X93129624Y-86046809D01*
X93206840Y-86131294D01*
X93257459Y-86235991D01*
X93284675Y-86366515D01*
X93290698Y-86447923D01*
X93292344Y-86515735D01*
X93290318Y-86575006D01*
X93282875Y-86632686D01*
X93268266Y-86695727D01*
X93244745Y-86771079D01*
X93210563Y-86865692D01*
X93163974Y-86986518D01*
X93139922Y-87047675D01*
X93109998Y-87153289D01*
X93112257Y-87242864D01*
X93147452Y-87323577D01*
X93172258Y-87356588D01*
X93246802Y-87424251D01*
X93328802Y-87464010D01*
X93410555Y-87474340D01*
X93484357Y-87453716D01*
X93521734Y-87425734D01*
X93553704Y-87382959D01*
X93566695Y-87332798D01*
X93560154Y-87268674D01*
X93533528Y-87184011D01*
X93493283Y-87087834D01*
X93434416Y-86946935D01*
X93395985Y-86829848D01*
X93376566Y-86728000D01*
X93374730Y-86632813D01*
X93389054Y-86535714D01*
X93396329Y-86504773D01*
X93436102Y-86413001D01*
X93504382Y-86322226D01*
X93591718Y-86242736D01*
X93688662Y-86184820D01*
X93691232Y-86183692D01*
X93821942Y-86144827D01*
X93974597Y-86129322D01*
X94140338Y-86136492D01*
X94310304Y-86165657D01*
X94475636Y-86216132D01*
X94556384Y-86250362D01*
X94675049Y-86312979D01*
X94764176Y-86377423D01*
X94832883Y-86451244D01*
X94874267Y-86513482D01*
X94901353Y-86564463D01*
X94917433Y-86612239D01*
X94925256Y-86670043D01*
X94927571Y-86751104D01*
X94927615Y-86770307D01*
X94920567Y-86889399D01*
X94896690Y-86995349D01*
X94851887Y-87099683D01*
X94782058Y-87213931D01*
X94757218Y-87249612D01*
X94687422Y-87355174D01*
X94644169Y-87440278D01*
X94625368Y-87511058D01*
X94628932Y-87573650D01*
X94637462Y-87601267D01*
X94672571Y-87642068D01*
X94736039Y-87670372D01*
X94818970Y-87685479D01*
X94912467Y-87686684D01*
X95007636Y-87673287D01*
X95095578Y-87644584D01*
X95108524Y-87638455D01*
X95193857Y-87585973D01*
X95263589Y-87524061D01*
X95310696Y-87460287D01*
X95328152Y-87402221D01*
X95328154Y-87401805D01*
X95320075Y-87363687D01*
X95298212Y-87300150D01*
X95266127Y-87220789D01*
X95235965Y-87153369D01*
X95194523Y-87062223D01*
X95167664Y-86994259D01*
X95152248Y-86937835D01*
X95145132Y-86881306D01*
X95143175Y-86813030D01*
X95143157Y-86809384D01*
X95145047Y-86725969D01*
X95153877Y-86666023D01*
X95173117Y-86614090D01*
X95196788Y-86570557D01*
X95272977Y-86475067D01*
X95367398Y-86410854D01*
X95474771Y-86377984D01*
X95589814Y-86376523D01*
X95707248Y-86406537D01*
X95821792Y-86468092D01*
X95928165Y-86561254D01*
X95928321Y-86561423D01*
X95975557Y-86617626D01*
X96033840Y-86694125D01*
X96093535Y-86778061D01*
X96119027Y-86815949D01*
X96197852Y-86928496D01*
X96286035Y-87042506D01*
X96377555Y-87151148D01*
X96466395Y-87247589D01*
X96546535Y-87325000D01*
X96611959Y-87376548D01*
X96614197Y-87377983D01*
X96691956Y-87417962D01*
X96768542Y-87433616D01*
X96799662Y-87434615D01*
X96860354Y-87431245D01*
X96904155Y-87416093D01*
X96948211Y-87381600D01*
X96971683Y-87358760D01*
X97016402Y-87310231D01*
X97038887Y-87269423D01*
X97046543Y-87218591D01*
X97047109Y-87178029D01*
X97032434Y-87058816D01*
X96988111Y-86952789D01*
X96912141Y-86857828D01*
X96802524Y-86771812D01*
X96657260Y-86692619D01*
X96543886Y-86644234D01*
X96381764Y-86575219D01*
X96255307Y-86508240D01*
X96161408Y-86440433D01*
X96096964Y-86368938D01*
X96058869Y-86290892D01*
X96044018Y-86203434D01*
X96043562Y-86183101D01*
X96060578Y-86082167D01*
X96109200Y-86001300D01*
X96185783Y-85943697D01*
X96286684Y-85912554D01*
X96357205Y-85907896D01*
X96450353Y-85917218D01*
X96537650Y-85945486D01*
X96626985Y-85996689D01*
X96726246Y-86074819D01*
X96776345Y-86119909D01*
X96883727Y-86214506D01*
X96977882Y-86284403D01*
X97069521Y-86335789D01*
X97169357Y-86374851D01*
X97264597Y-86401962D01*
X97361305Y-86423533D01*
X97446096Y-86434213D01*
X97537760Y-86435621D01*
X97614154Y-86432074D01*
X97819386Y-86406786D01*
X97996156Y-86356551D01*
X98147663Y-86279324D01*
X98277108Y-86173061D01*
X98387692Y-86035715D01*
X98474506Y-85882248D01*
X98524662Y-85772345D01*
X98554843Y-85689213D01*
X98566497Y-85626942D01*
X98561076Y-85579625D01*
X98553277Y-85561310D01*
X98519547Y-85525907D01*
X98473173Y-85525758D01*
X98429197Y-85547950D01*
X98337602Y-85593630D01*
X98216855Y-85633261D01*
X98076708Y-85664456D01*
X97926914Y-85684827D01*
X97847473Y-85690394D01*
X97589930Y-85683067D01*
X97338527Y-85637891D01*
X97094952Y-85555839D01*
X96860895Y-85437883D01*
X96638045Y-85284998D01*
X96428091Y-85098156D01*
X96232722Y-84878331D01*
X96085127Y-84674960D01*
X95979508Y-84491496D01*
X95901117Y-84298711D01*
X95849557Y-84093126D01*
X95824430Y-83871257D01*
X95825339Y-83629624D01*
X95851886Y-83364746D01*
X95902754Y-83077538D01*
X95932198Y-82936799D01*
X95965992Y-82775403D01*
X96000450Y-82610937D01*
X96031889Y-82460986D01*
X96039406Y-82425156D01*
X96101649Y-82094562D01*
X96143006Y-81792788D01*
X96163475Y-81515629D01*
X96163058Y-81258881D01*
X96141754Y-81018336D01*
X96099563Y-80789789D01*
X96039386Y-80577699D01*
X95930661Y-80312682D01*
X95785176Y-80059776D01*
X95603666Y-79820089D01*
X95386867Y-79594726D01*
X95385604Y-79593552D01*
X95143019Y-79391211D01*
X94885408Y-79219376D01*
X94615943Y-79078623D01*
X94337798Y-78969525D01*
X94054147Y-78892657D01*
X93768162Y-78848594D01*
X93483017Y-78837909D01*
X93201886Y-78861178D01*
X92927941Y-78918973D01*
X92664356Y-79011870D01*
X92528262Y-79076407D01*
X92430315Y-79132574D01*
X92343893Y-79195077D01*
X92264135Y-79269312D01*
X92186183Y-79360675D01*
X92105177Y-79474562D01*
X92016257Y-79616369D01*
X91967538Y-79699036D01*
X91891743Y-79830556D01*
X91832748Y-79936300D01*
X91787232Y-80023989D01*
X91751873Y-80101347D01*
X91723349Y-80176096D01*
X91698339Y-80255956D01*
X91673522Y-80348652D01*
X91653623Y-80428842D01*
X91606303Y-80688901D01*
X91594642Y-80939819D01*
X91619165Y-81185941D01*
X91680397Y-81431611D01*
X91778863Y-81681172D01*
X91813914Y-81753807D01*
X91846573Y-81821423D01*
X91869359Y-81873469D01*
X91878937Y-81902086D01*
X91878149Y-81905230D01*
X91882750Y-81921474D01*
X91902936Y-81966396D01*
X91935744Y-82034281D01*
X91978208Y-82119415D01*
X92027362Y-82216084D01*
X92080241Y-82318572D01*
X92133880Y-82421165D01*
X92185313Y-82518149D01*
X92231576Y-82603809D01*
X92269703Y-82672430D01*
X92296728Y-82718298D01*
X92308799Y-82735163D01*
X92326549Y-82758245D01*
X92360602Y-82809679D01*
X92407674Y-82884003D01*
X92464479Y-82975758D01*
X92527731Y-83079483D01*
X92594146Y-83189716D01*
X92660439Y-83300996D01*
X92723323Y-83407863D01*
X92779515Y-83504857D01*
X92825728Y-83586515D01*
X92858679Y-83647378D01*
X92864779Y-83659344D01*
X92947259Y-83848624D01*
X93010532Y-84044400D01*
X93052858Y-84238293D01*
X93072497Y-84421920D01*
X93067707Y-84586903D01*
X93063664Y-84616924D01*
X93033605Y-84765139D01*
X92991265Y-84886463D01*
X92931356Y-84992450D01*
X92848590Y-85094656D01*
X92841622Y-85102161D01*
X92736228Y-85204356D01*
X92632642Y-85279968D01*
X92517026Y-85338224D01*
X92448323Y-85364453D01*
X92243524Y-85416027D01*
X92032142Y-85430188D01*
X91818503Y-85407047D01*
X91606934Y-85346714D01*
X91596469Y-85342716D01*
X91528010Y-85311761D01*
X91437013Y-85264236D01*
X91333245Y-85205565D01*
X91226467Y-85141169D01*
X91176230Y-85109313D01*
X91005636Y-85002136D01*
X90860763Y-84918219D01*
X90737335Y-84855778D01*
X90631077Y-84813032D01*
X90537712Y-84788194D01*
X90452966Y-84779484D01*
X90392599Y-84782448D01*
X90298011Y-84811219D01*
X90223018Y-84873440D01*
X90168694Y-84968155D01*
X90161108Y-84988833D01*
X90134694Y-85109608D01*
X89941736Y-85109608D01*
X89963175Y-84959602D01*
X90013119Y-84823076D01*
G37*
D12*
%TO.C,A1*%
X108074000Y-59426000D02*
X128654000Y-59426000D01*
X108074000Y-56756000D02*
X108074000Y-69586000D01*
X108074000Y-69586000D02*
X110744000Y-69586000D01*
X128654000Y-72256000D02*
X128654000Y-56756000D01*
X108074000Y-70856000D02*
X108074000Y-72256000D01*
X110744000Y-69586000D02*
X128654000Y-69586000D01*
X108074000Y-72256000D02*
X109474000Y-72256000D01*
X110744000Y-72256000D02*
X128654000Y-72256000D01*
X128654000Y-56756000D02*
X108074000Y-56756000D01*
X110744000Y-69586000D02*
X110744000Y-72256000D01*
D13*
%TO.C,REF\u002A\u002A*%
X87804814Y-79256931D02*
X87888635Y-79701555D01*
X87888635Y-79701555D02*
X88197920Y-79829053D01*
X88197920Y-79829053D02*
X88507206Y-79956551D01*
X88507206Y-79956551D02*
X88878246Y-79704246D01*
X88878246Y-79704246D02*
X88982157Y-79633996D01*
X88982157Y-79633996D02*
X89076087Y-79571272D01*
X89076087Y-79571272D02*
X89155652Y-79518938D01*
X89155652Y-79518938D02*
X89216470Y-79479857D01*
X89216470Y-79479857D02*
X89254157Y-79456893D01*
X89254157Y-79456893D02*
X89264421Y-79451942D01*
X89264421Y-79451942D02*
X89282910Y-79464676D01*
X89282910Y-79464676D02*
X89322420Y-79499882D01*
X89322420Y-79499882D02*
X89378522Y-79553062D01*
X89378522Y-79553062D02*
X89446787Y-79619718D01*
X89446787Y-79619718D02*
X89522786Y-79695354D01*
X89522786Y-79695354D02*
X89602092Y-79775472D01*
X89602092Y-79775472D02*
X89680275Y-79855574D01*
X89680275Y-79855574D02*
X89752907Y-79931164D01*
X89752907Y-79931164D02*
X89815559Y-79997745D01*
X89815559Y-79997745D02*
X89863803Y-80050818D01*
X89863803Y-80050818D02*
X89893210Y-80085887D01*
X89893210Y-80085887D02*
X89900241Y-80097623D01*
X89900241Y-80097623D02*
X89890123Y-80119260D01*
X89890123Y-80119260D02*
X89861759Y-80166662D01*
X89861759Y-80166662D02*
X89818129Y-80235193D01*
X89818129Y-80235193D02*
X89762218Y-80320215D01*
X89762218Y-80320215D02*
X89697006Y-80417093D01*
X89697006Y-80417093D02*
X89659219Y-80472350D01*
X89659219Y-80472350D02*
X89590343Y-80573248D01*
X89590343Y-80573248D02*
X89529140Y-80664299D01*
X89529140Y-80664299D02*
X89478578Y-80740970D01*
X89478578Y-80740970D02*
X89441628Y-80798728D01*
X89441628Y-80798728D02*
X89421258Y-80833043D01*
X89421258Y-80833043D02*
X89418197Y-80840254D01*
X89418197Y-80840254D02*
X89425136Y-80860748D01*
X89425136Y-80860748D02*
X89444051Y-80908513D01*
X89444051Y-80908513D02*
X89472087Y-80976832D01*
X89472087Y-80976832D02*
X89506391Y-81058989D01*
X89506391Y-81058989D02*
X89544109Y-81148270D01*
X89544109Y-81148270D02*
X89582387Y-81237958D01*
X89582387Y-81237958D02*
X89618370Y-81321338D01*
X89618370Y-81321338D02*
X89649206Y-81391694D01*
X89649206Y-81391694D02*
X89672039Y-81442310D01*
X89672039Y-81442310D02*
X89684017Y-81466471D01*
X89684017Y-81466471D02*
X89684724Y-81467422D01*
X89684724Y-81467422D02*
X89703531Y-81472036D01*
X89703531Y-81472036D02*
X89753618Y-81482328D01*
X89753618Y-81482328D02*
X89829793Y-81497287D01*
X89829793Y-81497287D02*
X89926865Y-81515901D01*
X89926865Y-81515901D02*
X90039643Y-81537159D01*
X90039643Y-81537159D02*
X90105442Y-81549418D01*
X90105442Y-81549418D02*
X90225950Y-81572362D01*
X90225950Y-81572362D02*
X90334797Y-81594195D01*
X90334797Y-81594195D02*
X90426476Y-81613722D01*
X90426476Y-81613722D02*
X90495481Y-81629748D01*
X90495481Y-81629748D02*
X90536304Y-81641079D01*
X90536304Y-81641079D02*
X90544511Y-81644674D01*
X90544511Y-81644674D02*
X90552548Y-81669006D01*
X90552548Y-81669006D02*
X90559033Y-81723959D01*
X90559033Y-81723959D02*
X90563970Y-81803108D01*
X90563970Y-81803108D02*
X90567364Y-81900026D01*
X90567364Y-81900026D02*
X90569218Y-82008287D01*
X90569218Y-82008287D02*
X90569538Y-82121465D01*
X90569538Y-82121465D02*
X90568327Y-82233135D01*
X90568327Y-82233135D02*
X90565590Y-82336868D01*
X90565590Y-82336868D02*
X90561331Y-82426241D01*
X90561331Y-82426241D02*
X90555555Y-82494826D01*
X90555555Y-82494826D02*
X90548267Y-82536197D01*
X90548267Y-82536197D02*
X90543895Y-82544810D01*
X90543895Y-82544810D02*
X90517764Y-82555133D01*
X90517764Y-82555133D02*
X90462393Y-82569892D01*
X90462393Y-82569892D02*
X90385107Y-82587352D01*
X90385107Y-82587352D02*
X90293230Y-82605780D01*
X90293230Y-82605780D02*
X90261158Y-82611741D01*
X90261158Y-82611741D02*
X90106524Y-82640066D01*
X90106524Y-82640066D02*
X89984375Y-82662876D01*
X89984375Y-82662876D02*
X89890673Y-82681080D01*
X89890673Y-82681080D02*
X89821384Y-82695583D01*
X89821384Y-82695583D02*
X89772471Y-82707292D01*
X89772471Y-82707292D02*
X89739897Y-82717115D01*
X89739897Y-82717115D02*
X89719628Y-82725956D01*
X89719628Y-82725956D02*
X89707626Y-82734724D01*
X89707626Y-82734724D02*
X89705947Y-82736457D01*
X89705947Y-82736457D02*
X89689184Y-82764371D01*
X89689184Y-82764371D02*
X89663614Y-82818695D01*
X89663614Y-82818695D02*
X89631788Y-82892777D01*
X89631788Y-82892777D02*
X89596260Y-82979965D01*
X89596260Y-82979965D02*
X89559583Y-83073608D01*
X89559583Y-83073608D02*
X89524311Y-83167052D01*
X89524311Y-83167052D02*
X89492996Y-83253647D01*
X89492996Y-83253647D02*
X89468193Y-83326740D01*
X89468193Y-83326740D02*
X89452454Y-83379678D01*
X89452454Y-83379678D02*
X89448332Y-83405811D01*
X89448332Y-83405811D02*
X89448676Y-83406726D01*
X89448676Y-83406726D02*
X89462641Y-83428086D01*
X89462641Y-83428086D02*
X89494322Y-83475084D01*
X89494322Y-83475084D02*
X89540391Y-83542827D01*
X89540391Y-83542827D02*
X89597518Y-83626423D01*
X89597518Y-83626423D02*
X89662373Y-83720982D01*
X89662373Y-83720982D02*
X89680843Y-83747854D01*
X89680843Y-83747854D02*
X89746699Y-83845275D01*
X89746699Y-83845275D02*
X89804650Y-83934163D01*
X89804650Y-83934163D02*
X89851538Y-84009412D01*
X89851538Y-84009412D02*
X89884207Y-84065920D01*
X89884207Y-84065920D02*
X89899500Y-84098581D01*
X89899500Y-84098581D02*
X89900241Y-84102593D01*
X89900241Y-84102593D02*
X89887392Y-84123684D01*
X89887392Y-84123684D02*
X89851888Y-84165464D01*
X89851888Y-84165464D02*
X89798293Y-84223445D01*
X89798293Y-84223445D02*
X89731171Y-84293135D01*
X89731171Y-84293135D02*
X89655087Y-84370045D01*
X89655087Y-84370045D02*
X89574604Y-84449683D01*
X89574604Y-84449683D02*
X89494287Y-84527561D01*
X89494287Y-84527561D02*
X89418699Y-84599186D01*
X89418699Y-84599186D02*
X89352405Y-84660070D01*
X89352405Y-84660070D02*
X89299969Y-84705721D01*
X89299969Y-84705721D02*
X89265955Y-84731650D01*
X89265955Y-84731650D02*
X89256545Y-84735883D01*
X89256545Y-84735883D02*
X89234643Y-84725912D01*
X89234643Y-84725912D02*
X89189800Y-84699020D01*
X89189800Y-84699020D02*
X89129321Y-84659736D01*
X89129321Y-84659736D02*
X89082789Y-84628117D01*
X89082789Y-84628117D02*
X88998475Y-84570098D01*
X88998475Y-84570098D02*
X88898626Y-84501784D01*
X88898626Y-84501784D02*
X88798473Y-84433579D01*
X88798473Y-84433579D02*
X88744627Y-84397075D01*
X88744627Y-84397075D02*
X88562371Y-84273800D01*
X88562371Y-84273800D02*
X88409381Y-84356520D01*
X88409381Y-84356520D02*
X88339682Y-84392759D01*
X88339682Y-84392759D02*
X88280414Y-84420926D01*
X88280414Y-84420926D02*
X88240311Y-84436991D01*
X88240311Y-84436991D02*
X88230103Y-84439226D01*
X88230103Y-84439226D02*
X88217829Y-84422722D01*
X88217829Y-84422722D02*
X88193613Y-84376082D01*
X88193613Y-84376082D02*
X88159263Y-84303609D01*
X88159263Y-84303609D02*
X88116588Y-84209606D01*
X88116588Y-84209606D02*
X88067394Y-84098374D01*
X88067394Y-84098374D02*
X88013490Y-83974215D01*
X88013490Y-83974215D02*
X87956684Y-83841432D01*
X87956684Y-83841432D02*
X87898782Y-83704327D01*
X87898782Y-83704327D02*
X87841593Y-83567202D01*
X87841593Y-83567202D02*
X87786924Y-83434358D01*
X87786924Y-83434358D02*
X87736584Y-83310098D01*
X87736584Y-83310098D02*
X87692380Y-83198725D01*
X87692380Y-83198725D02*
X87656119Y-83104539D01*
X87656119Y-83104539D02*
X87629609Y-83031844D01*
X87629609Y-83031844D02*
X87614658Y-82984941D01*
X87614658Y-82984941D02*
X87612254Y-82968833D01*
X87612254Y-82968833D02*
X87631311Y-82948286D01*
X87631311Y-82948286D02*
X87673036Y-82914933D01*
X87673036Y-82914933D02*
X87728706Y-82875702D01*
X87728706Y-82875702D02*
X87733378Y-82872599D01*
X87733378Y-82872599D02*
X87877264Y-82757423D01*
X87877264Y-82757423D02*
X87993283Y-82623053D01*
X87993283Y-82623053D02*
X88080430Y-82473784D01*
X88080430Y-82473784D02*
X88137699Y-82313913D01*
X88137699Y-82313913D02*
X88164086Y-82147737D01*
X88164086Y-82147737D02*
X88158585Y-81979552D01*
X88158585Y-81979552D02*
X88120190Y-81813655D01*
X88120190Y-81813655D02*
X88047895Y-81654342D01*
X88047895Y-81654342D02*
X88026626Y-81619487D01*
X88026626Y-81619487D02*
X87915996Y-81478737D01*
X87915996Y-81478737D02*
X87785302Y-81365714D01*
X87785302Y-81365714D02*
X87639064Y-81281003D01*
X87639064Y-81281003D02*
X87481808Y-81225194D01*
X87481808Y-81225194D02*
X87318057Y-81198874D01*
X87318057Y-81198874D02*
X87152333Y-81202630D01*
X87152333Y-81202630D02*
X86989162Y-81237050D01*
X86989162Y-81237050D02*
X86833065Y-81302723D01*
X86833065Y-81302723D02*
X86688567Y-81400235D01*
X86688567Y-81400235D02*
X86643869Y-81439813D01*
X86643869Y-81439813D02*
X86530112Y-81563703D01*
X86530112Y-81563703D02*
X86447218Y-81694124D01*
X86447218Y-81694124D02*
X86390356Y-81840315D01*
X86390356Y-81840315D02*
X86358687Y-81985088D01*
X86358687Y-81985088D02*
X86350869Y-82147860D01*
X86350869Y-82147860D02*
X86376938Y-82311440D01*
X86376938Y-82311440D02*
X86434245Y-82470298D01*
X86434245Y-82470298D02*
X86520144Y-82618906D01*
X86520144Y-82618906D02*
X86631986Y-82751735D01*
X86631986Y-82751735D02*
X86767123Y-82863256D01*
X86767123Y-82863256D02*
X86784883Y-82875011D01*
X86784883Y-82875011D02*
X86841150Y-82913508D01*
X86841150Y-82913508D02*
X86883923Y-82946863D01*
X86883923Y-82946863D02*
X86904372Y-82968160D01*
X86904372Y-82968160D02*
X86904669Y-82968833D01*
X86904669Y-82968833D02*
X86900279Y-82991871D01*
X86900279Y-82991871D02*
X86882876Y-83044157D01*
X86882876Y-83044157D02*
X86854268Y-83121390D01*
X86854268Y-83121390D02*
X86816265Y-83219268D01*
X86816265Y-83219268D02*
X86770674Y-83333491D01*
X86770674Y-83333491D02*
X86719303Y-83459758D01*
X86719303Y-83459758D02*
X86663962Y-83593767D01*
X86663962Y-83593767D02*
X86606458Y-83731218D01*
X86606458Y-83731218D02*
X86548601Y-83867808D01*
X86548601Y-83867808D02*
X86492198Y-83999237D01*
X86492198Y-83999237D02*
X86439058Y-84121205D01*
X86439058Y-84121205D02*
X86390990Y-84229409D01*
X86390990Y-84229409D02*
X86349801Y-84319549D01*
X86349801Y-84319549D02*
X86317301Y-84387323D01*
X86317301Y-84387323D02*
X86295297Y-84428430D01*
X86295297Y-84428430D02*
X86286436Y-84439226D01*
X86286436Y-84439226D02*
X86259360Y-84430819D01*
X86259360Y-84430819D02*
X86208697Y-84408272D01*
X86208697Y-84408272D02*
X86143183Y-84375613D01*
X86143183Y-84375613D02*
X86107159Y-84356520D01*
X86107159Y-84356520D02*
X85954168Y-84273800D01*
X85954168Y-84273800D02*
X85771912Y-84397075D01*
X85771912Y-84397075D02*
X85678875Y-84460228D01*
X85678875Y-84460228D02*
X85577015Y-84529727D01*
X85577015Y-84529727D02*
X85481562Y-84595165D01*
X85481562Y-84595165D02*
X85433750Y-84628117D01*
X85433750Y-84628117D02*
X85366505Y-84673273D01*
X85366505Y-84673273D02*
X85309564Y-84709057D01*
X85309564Y-84709057D02*
X85270354Y-84730938D01*
X85270354Y-84730938D02*
X85257619Y-84735563D01*
X85257619Y-84735563D02*
X85239083Y-84723085D01*
X85239083Y-84723085D02*
X85198059Y-84688252D01*
X85198059Y-84688252D02*
X85138525Y-84634678D01*
X85138525Y-84634678D02*
X85064458Y-84565983D01*
X85064458Y-84565983D02*
X84979835Y-84485781D01*
X84979835Y-84485781D02*
X84926315Y-84434286D01*
X84926315Y-84434286D02*
X84832681Y-84342286D01*
X84832681Y-84342286D02*
X84751759Y-84259999D01*
X84751759Y-84259999D02*
X84686823Y-84190945D01*
X84686823Y-84190945D02*
X84641142Y-84138644D01*
X84641142Y-84138644D02*
X84617989Y-84106616D01*
X84617989Y-84106616D02*
X84615768Y-84100116D01*
X84615768Y-84100116D02*
X84626076Y-84075394D01*
X84626076Y-84075394D02*
X84654561Y-84025405D01*
X84654561Y-84025405D02*
X84698063Y-83955212D01*
X84698063Y-83955212D02*
X84753423Y-83869875D01*
X84753423Y-83869875D02*
X84817480Y-83774456D01*
X84817480Y-83774456D02*
X84835697Y-83747854D01*
X84835697Y-83747854D02*
X84902073Y-83651167D01*
X84902073Y-83651167D02*
X84961622Y-83564117D01*
X84961622Y-83564117D02*
X85011016Y-83491595D01*
X85011016Y-83491595D02*
X85046925Y-83438493D01*
X85046925Y-83438493D02*
X85066019Y-83409703D01*
X85066019Y-83409703D02*
X85067864Y-83406726D01*
X85067864Y-83406726D02*
X85065105Y-83383782D01*
X85065105Y-83383782D02*
X85050462Y-83333336D01*
X85050462Y-83333336D02*
X85026487Y-83262041D01*
X85026487Y-83262041D02*
X84995734Y-83176547D01*
X84995734Y-83176547D02*
X84960756Y-83083507D01*
X84960756Y-83083507D02*
X84924107Y-82989574D01*
X84924107Y-82989574D02*
X84888339Y-82901399D01*
X84888339Y-82901399D02*
X84856006Y-82825634D01*
X84856006Y-82825634D02*
X84829662Y-82768931D01*
X84829662Y-82768931D02*
X84811858Y-82737943D01*
X84811858Y-82737943D02*
X84810593Y-82736457D01*
X84810593Y-82736457D02*
X84799706Y-82727601D01*
X84799706Y-82727601D02*
X84781318Y-82718843D01*
X84781318Y-82718843D02*
X84751394Y-82709277D01*
X84751394Y-82709277D02*
X84705897Y-82697996D01*
X84705897Y-82697996D02*
X84640791Y-82684093D01*
X84640791Y-82684093D02*
X84552039Y-82666663D01*
X84552039Y-82666663D02*
X84435607Y-82644798D01*
X84435607Y-82644798D02*
X84287458Y-82617591D01*
X84287458Y-82617591D02*
X84255382Y-82611741D01*
X84255382Y-82611741D02*
X84160314Y-82593374D01*
X84160314Y-82593374D02*
X84077435Y-82575405D01*
X84077435Y-82575405D02*
X84014070Y-82559569D01*
X84014070Y-82559569D02*
X83977542Y-82547600D01*
X83977542Y-82547600D02*
X83972644Y-82544810D01*
X83972644Y-82544810D02*
X83964573Y-82520072D01*
X83964573Y-82520072D02*
X83958013Y-82464790D01*
X83958013Y-82464790D02*
X83952967Y-82385389D01*
X83952967Y-82385389D02*
X83949441Y-82288296D01*
X83949441Y-82288296D02*
X83947439Y-82179938D01*
X83947439Y-82179938D02*
X83946964Y-82066740D01*
X83946964Y-82066740D02*
X83948023Y-81955128D01*
X83948023Y-81955128D02*
X83950618Y-81851529D01*
X83950618Y-81851529D02*
X83954754Y-81762368D01*
X83954754Y-81762368D02*
X83960437Y-81694072D01*
X83960437Y-81694072D02*
X83967669Y-81653066D01*
X83967669Y-81653066D02*
X83972029Y-81644674D01*
X83972029Y-81644674D02*
X83996302Y-81636208D01*
X83996302Y-81636208D02*
X84051574Y-81622435D01*
X84051574Y-81622435D02*
X84132338Y-81604550D01*
X84132338Y-81604550D02*
X84233088Y-81583748D01*
X84233088Y-81583748D02*
X84348317Y-81561223D01*
X84348317Y-81561223D02*
X84411098Y-81549418D01*
X84411098Y-81549418D02*
X84530213Y-81527151D01*
X84530213Y-81527151D02*
X84636435Y-81506979D01*
X84636435Y-81506979D02*
X84724573Y-81489915D01*
X84724573Y-81489915D02*
X84789434Y-81476969D01*
X84789434Y-81476969D02*
X84825826Y-81469155D01*
X84825826Y-81469155D02*
X84831816Y-81467422D01*
X84831816Y-81467422D02*
X84841939Y-81447890D01*
X84841939Y-81447890D02*
X84863338Y-81400843D01*
X84863338Y-81400843D02*
X84893161Y-81333003D01*
X84893161Y-81333003D02*
X84928555Y-81251091D01*
X84928555Y-81251091D02*
X84966668Y-81161828D01*
X84966668Y-81161828D02*
X85004647Y-81071935D01*
X85004647Y-81071935D02*
X85039640Y-80988135D01*
X85039640Y-80988135D02*
X85068794Y-80917147D01*
X85068794Y-80917147D02*
X85089257Y-80865694D01*
X85089257Y-80865694D02*
X85098177Y-80840497D01*
X85098177Y-80840497D02*
X85098343Y-80839396D01*
X85098343Y-80839396D02*
X85088231Y-80819519D01*
X85088231Y-80819519D02*
X85059883Y-80773777D01*
X85059883Y-80773777D02*
X85016277Y-80706717D01*
X85016277Y-80706717D02*
X84960394Y-80622884D01*
X84960394Y-80622884D02*
X84895213Y-80526826D01*
X84895213Y-80526826D02*
X84857321Y-80471650D01*
X84857321Y-80471650D02*
X84788275Y-80370481D01*
X84788275Y-80370481D02*
X84726950Y-80278630D01*
X84726950Y-80278630D02*
X84676337Y-80200744D01*
X84676337Y-80200744D02*
X84639429Y-80141469D01*
X84639429Y-80141469D02*
X84619218Y-80105451D01*
X84619218Y-80105451D02*
X84616299Y-80097377D01*
X84616299Y-80097377D02*
X84628847Y-80078584D01*
X84628847Y-80078584D02*
X84663537Y-80038457D01*
X84663537Y-80038457D02*
X84715937Y-79981493D01*
X84715937Y-79981493D02*
X84781616Y-79912185D01*
X84781616Y-79912185D02*
X84856144Y-79835031D01*
X84856144Y-79835031D02*
X84935087Y-79754525D01*
X84935087Y-79754525D02*
X85014017Y-79675163D01*
X85014017Y-79675163D02*
X85088500Y-79601440D01*
X85088500Y-79601440D02*
X85154106Y-79537852D01*
X85154106Y-79537852D02*
X85206404Y-79488894D01*
X85206404Y-79488894D02*
X85240961Y-79459061D01*
X85240961Y-79459061D02*
X85252522Y-79451942D01*
X85252522Y-79451942D02*
X85271346Y-79461953D01*
X85271346Y-79461953D02*
X85316369Y-79490078D01*
X85316369Y-79490078D02*
X85383213Y-79533454D01*
X85383213Y-79533454D02*
X85467501Y-79589218D01*
X85467501Y-79589218D02*
X85564856Y-79654506D01*
X85564856Y-79654506D02*
X85638293Y-79704246D01*
X85638293Y-79704246D02*
X86009333Y-79956551D01*
X86009333Y-79956551D02*
X86627905Y-79701555D01*
X86627905Y-79701555D02*
X86711725Y-79256931D01*
X86711725Y-79256931D02*
X86795546Y-78812307D01*
X86795546Y-78812307D02*
X87720994Y-78812307D01*
X87720994Y-78812307D02*
X87804814Y-79256931D01*
X87804814Y-79256931D02*
X87804814Y-79256931D01*
G36*
X87804814Y-79256931D02*
G01*
X87888635Y-79701555D01*
X88197920Y-79829053D01*
X88507206Y-79956551D01*
X88878246Y-79704246D01*
X88982157Y-79633996D01*
X89076087Y-79571272D01*
X89155652Y-79518938D01*
X89216470Y-79479857D01*
X89254157Y-79456893D01*
X89264421Y-79451942D01*
X89282910Y-79464676D01*
X89322420Y-79499882D01*
X89378522Y-79553062D01*
X89446787Y-79619718D01*
X89522786Y-79695354D01*
X89602092Y-79775472D01*
X89680275Y-79855574D01*
X89752907Y-79931164D01*
X89815559Y-79997745D01*
X89863803Y-80050818D01*
X89893210Y-80085887D01*
X89900241Y-80097623D01*
X89890123Y-80119260D01*
X89861759Y-80166662D01*
X89818129Y-80235193D01*
X89762218Y-80320215D01*
X89697006Y-80417093D01*
X89659219Y-80472350D01*
X89590343Y-80573248D01*
X89529140Y-80664299D01*
X89478578Y-80740970D01*
X89441628Y-80798728D01*
X89421258Y-80833043D01*
X89418197Y-80840254D01*
X89425136Y-80860748D01*
X89444051Y-80908513D01*
X89472087Y-80976832D01*
X89506391Y-81058989D01*
X89544109Y-81148270D01*
X89582387Y-81237958D01*
X89618370Y-81321338D01*
X89649206Y-81391694D01*
X89672039Y-81442310D01*
X89684017Y-81466471D01*
X89684724Y-81467422D01*
X89703531Y-81472036D01*
X89753618Y-81482328D01*
X89829793Y-81497287D01*
X89926865Y-81515901D01*
X90039643Y-81537159D01*
X90105442Y-81549418D01*
X90225950Y-81572362D01*
X90334797Y-81594195D01*
X90426476Y-81613722D01*
X90495481Y-81629748D01*
X90536304Y-81641079D01*
X90544511Y-81644674D01*
X90552548Y-81669006D01*
X90559033Y-81723959D01*
X90563970Y-81803108D01*
X90567364Y-81900026D01*
X90569218Y-82008287D01*
X90569538Y-82121465D01*
X90568327Y-82233135D01*
X90565590Y-82336868D01*
X90561331Y-82426241D01*
X90555555Y-82494826D01*
X90548267Y-82536197D01*
X90543895Y-82544810D01*
X90517764Y-82555133D01*
X90462393Y-82569892D01*
X90385107Y-82587352D01*
X90293230Y-82605780D01*
X90261158Y-82611741D01*
X90106524Y-82640066D01*
X89984375Y-82662876D01*
X89890673Y-82681080D01*
X89821384Y-82695583D01*
X89772471Y-82707292D01*
X89739897Y-82717115D01*
X89719628Y-82725956D01*
X89707626Y-82734724D01*
X89705947Y-82736457D01*
X89689184Y-82764371D01*
X89663614Y-82818695D01*
X89631788Y-82892777D01*
X89596260Y-82979965D01*
X89559583Y-83073608D01*
X89524311Y-83167052D01*
X89492996Y-83253647D01*
X89468193Y-83326740D01*
X89452454Y-83379678D01*
X89448332Y-83405811D01*
X89448676Y-83406726D01*
X89462641Y-83428086D01*
X89494322Y-83475084D01*
X89540391Y-83542827D01*
X89597518Y-83626423D01*
X89662373Y-83720982D01*
X89680843Y-83747854D01*
X89746699Y-83845275D01*
X89804650Y-83934163D01*
X89851538Y-84009412D01*
X89884207Y-84065920D01*
X89899500Y-84098581D01*
X89900241Y-84102593D01*
X89887392Y-84123684D01*
X89851888Y-84165464D01*
X89798293Y-84223445D01*
X89731171Y-84293135D01*
X89655087Y-84370045D01*
X89574604Y-84449683D01*
X89494287Y-84527561D01*
X89418699Y-84599186D01*
X89352405Y-84660070D01*
X89299969Y-84705721D01*
X89265955Y-84731650D01*
X89256545Y-84735883D01*
X89234643Y-84725912D01*
X89189800Y-84699020D01*
X89129321Y-84659736D01*
X89082789Y-84628117D01*
X88998475Y-84570098D01*
X88898626Y-84501784D01*
X88798473Y-84433579D01*
X88744627Y-84397075D01*
X88562371Y-84273800D01*
X88409381Y-84356520D01*
X88339682Y-84392759D01*
X88280414Y-84420926D01*
X88240311Y-84436991D01*
X88230103Y-84439226D01*
X88217829Y-84422722D01*
X88193613Y-84376082D01*
X88159263Y-84303609D01*
X88116588Y-84209606D01*
X88067394Y-84098374D01*
X88013490Y-83974215D01*
X87956684Y-83841432D01*
X87898782Y-83704327D01*
X87841593Y-83567202D01*
X87786924Y-83434358D01*
X87736584Y-83310098D01*
X87692380Y-83198725D01*
X87656119Y-83104539D01*
X87629609Y-83031844D01*
X87614658Y-82984941D01*
X87612254Y-82968833D01*
X87631311Y-82948286D01*
X87673036Y-82914933D01*
X87728706Y-82875702D01*
X87733378Y-82872599D01*
X87877264Y-82757423D01*
X87993283Y-82623053D01*
X88080430Y-82473784D01*
X88137699Y-82313913D01*
X88164086Y-82147737D01*
X88158585Y-81979552D01*
X88120190Y-81813655D01*
X88047895Y-81654342D01*
X88026626Y-81619487D01*
X87915996Y-81478737D01*
X87785302Y-81365714D01*
X87639064Y-81281003D01*
X87481808Y-81225194D01*
X87318057Y-81198874D01*
X87152333Y-81202630D01*
X86989162Y-81237050D01*
X86833065Y-81302723D01*
X86688567Y-81400235D01*
X86643869Y-81439813D01*
X86530112Y-81563703D01*
X86447218Y-81694124D01*
X86390356Y-81840315D01*
X86358687Y-81985088D01*
X86350869Y-82147860D01*
X86376938Y-82311440D01*
X86434245Y-82470298D01*
X86520144Y-82618906D01*
X86631986Y-82751735D01*
X86767123Y-82863256D01*
X86784883Y-82875011D01*
X86841150Y-82913508D01*
X86883923Y-82946863D01*
X86904372Y-82968160D01*
X86904669Y-82968833D01*
X86900279Y-82991871D01*
X86882876Y-83044157D01*
X86854268Y-83121390D01*
X86816265Y-83219268D01*
X86770674Y-83333491D01*
X86719303Y-83459758D01*
X86663962Y-83593767D01*
X86606458Y-83731218D01*
X86548601Y-83867808D01*
X86492198Y-83999237D01*
X86439058Y-84121205D01*
X86390990Y-84229409D01*
X86349801Y-84319549D01*
X86317301Y-84387323D01*
X86295297Y-84428430D01*
X86286436Y-84439226D01*
X86259360Y-84430819D01*
X86208697Y-84408272D01*
X86143183Y-84375613D01*
X86107159Y-84356520D01*
X85954168Y-84273800D01*
X85771912Y-84397075D01*
X85678875Y-84460228D01*
X85577015Y-84529727D01*
X85481562Y-84595165D01*
X85433750Y-84628117D01*
X85366505Y-84673273D01*
X85309564Y-84709057D01*
X85270354Y-84730938D01*
X85257619Y-84735563D01*
X85239083Y-84723085D01*
X85198059Y-84688252D01*
X85138525Y-84634678D01*
X85064458Y-84565983D01*
X84979835Y-84485781D01*
X84926315Y-84434286D01*
X84832681Y-84342286D01*
X84751759Y-84259999D01*
X84686823Y-84190945D01*
X84641142Y-84138644D01*
X84617989Y-84106616D01*
X84615768Y-84100116D01*
X84626076Y-84075394D01*
X84654561Y-84025405D01*
X84698063Y-83955212D01*
X84753423Y-83869875D01*
X84817480Y-83774456D01*
X84835697Y-83747854D01*
X84902073Y-83651167D01*
X84961622Y-83564117D01*
X85011016Y-83491595D01*
X85046925Y-83438493D01*
X85066019Y-83409703D01*
X85067864Y-83406726D01*
X85065105Y-83383782D01*
X85050462Y-83333336D01*
X85026487Y-83262041D01*
X84995734Y-83176547D01*
X84960756Y-83083507D01*
X84924107Y-82989574D01*
X84888339Y-82901399D01*
X84856006Y-82825634D01*
X84829662Y-82768931D01*
X84811858Y-82737943D01*
X84810593Y-82736457D01*
X84799706Y-82727601D01*
X84781318Y-82718843D01*
X84751394Y-82709277D01*
X84705897Y-82697996D01*
X84640791Y-82684093D01*
X84552039Y-82666663D01*
X84435607Y-82644798D01*
X84287458Y-82617591D01*
X84255382Y-82611741D01*
X84160314Y-82593374D01*
X84077435Y-82575405D01*
X84014070Y-82559569D01*
X83977542Y-82547600D01*
X83972644Y-82544810D01*
X83964573Y-82520072D01*
X83958013Y-82464790D01*
X83952967Y-82385389D01*
X83949441Y-82288296D01*
X83947439Y-82179938D01*
X83946964Y-82066740D01*
X83948023Y-81955128D01*
X83950618Y-81851529D01*
X83954754Y-81762368D01*
X83960437Y-81694072D01*
X83967669Y-81653066D01*
X83972029Y-81644674D01*
X83996302Y-81636208D01*
X84051574Y-81622435D01*
X84132338Y-81604550D01*
X84233088Y-81583748D01*
X84348317Y-81561223D01*
X84411098Y-81549418D01*
X84530213Y-81527151D01*
X84636435Y-81506979D01*
X84724573Y-81489915D01*
X84789434Y-81476969D01*
X84825826Y-81469155D01*
X84831816Y-81467422D01*
X84841939Y-81447890D01*
X84863338Y-81400843D01*
X84893161Y-81333003D01*
X84928555Y-81251091D01*
X84966668Y-81161828D01*
X85004647Y-81071935D01*
X85039640Y-80988135D01*
X85068794Y-80917147D01*
X85089257Y-80865694D01*
X85098177Y-80840497D01*
X85098343Y-80839396D01*
X85088231Y-80819519D01*
X85059883Y-80773777D01*
X85016277Y-80706717D01*
X84960394Y-80622884D01*
X84895213Y-80526826D01*
X84857321Y-80471650D01*
X84788275Y-80370481D01*
X84726950Y-80278630D01*
X84676337Y-80200744D01*
X84639429Y-80141469D01*
X84619218Y-80105451D01*
X84616299Y-80097377D01*
X84628847Y-80078584D01*
X84663537Y-80038457D01*
X84715937Y-79981493D01*
X84781616Y-79912185D01*
X84856144Y-79835031D01*
X84935087Y-79754525D01*
X85014017Y-79675163D01*
X85088500Y-79601440D01*
X85154106Y-79537852D01*
X85206404Y-79488894D01*
X85240961Y-79459061D01*
X85252522Y-79451942D01*
X85271346Y-79461953D01*
X85316369Y-79490078D01*
X85383213Y-79533454D01*
X85467501Y-79589218D01*
X85564856Y-79654506D01*
X85638293Y-79704246D01*
X86009333Y-79956551D01*
X86627905Y-79701555D01*
X86711725Y-79256931D01*
X86795546Y-78812307D01*
X87720994Y-78812307D01*
X87804814Y-79256931D01*
G37*
X87804814Y-79256931D02*
X87888635Y-79701555D01*
X88197920Y-79829053D01*
X88507206Y-79956551D01*
X88878246Y-79704246D01*
X88982157Y-79633996D01*
X89076087Y-79571272D01*
X89155652Y-79518938D01*
X89216470Y-79479857D01*
X89254157Y-79456893D01*
X89264421Y-79451942D01*
X89282910Y-79464676D01*
X89322420Y-79499882D01*
X89378522Y-79553062D01*
X89446787Y-79619718D01*
X89522786Y-79695354D01*
X89602092Y-79775472D01*
X89680275Y-79855574D01*
X89752907Y-79931164D01*
X89815559Y-79997745D01*
X89863803Y-80050818D01*
X89893210Y-80085887D01*
X89900241Y-80097623D01*
X89890123Y-80119260D01*
X89861759Y-80166662D01*
X89818129Y-80235193D01*
X89762218Y-80320215D01*
X89697006Y-80417093D01*
X89659219Y-80472350D01*
X89590343Y-80573248D01*
X89529140Y-80664299D01*
X89478578Y-80740970D01*
X89441628Y-80798728D01*
X89421258Y-80833043D01*
X89418197Y-80840254D01*
X89425136Y-80860748D01*
X89444051Y-80908513D01*
X89472087Y-80976832D01*
X89506391Y-81058989D01*
X89544109Y-81148270D01*
X89582387Y-81237958D01*
X89618370Y-81321338D01*
X89649206Y-81391694D01*
X89672039Y-81442310D01*
X89684017Y-81466471D01*
X89684724Y-81467422D01*
X89703531Y-81472036D01*
X89753618Y-81482328D01*
X89829793Y-81497287D01*
X89926865Y-81515901D01*
X90039643Y-81537159D01*
X90105442Y-81549418D01*
X90225950Y-81572362D01*
X90334797Y-81594195D01*
X90426476Y-81613722D01*
X90495481Y-81629748D01*
X90536304Y-81641079D01*
X90544511Y-81644674D01*
X90552548Y-81669006D01*
X90559033Y-81723959D01*
X90563970Y-81803108D01*
X90567364Y-81900026D01*
X90569218Y-82008287D01*
X90569538Y-82121465D01*
X90568327Y-82233135D01*
X90565590Y-82336868D01*
X90561331Y-82426241D01*
X90555555Y-82494826D01*
X90548267Y-82536197D01*
X90543895Y-82544810D01*
X90517764Y-82555133D01*
X90462393Y-82569892D01*
X90385107Y-82587352D01*
X90293230Y-82605780D01*
X90261158Y-82611741D01*
X90106524Y-82640066D01*
X89984375Y-82662876D01*
X89890673Y-82681080D01*
X89821384Y-82695583D01*
X89772471Y-82707292D01*
X89739897Y-82717115D01*
X89719628Y-82725956D01*
X89707626Y-82734724D01*
X89705947Y-82736457D01*
X89689184Y-82764371D01*
X89663614Y-82818695D01*
X89631788Y-82892777D01*
X89596260Y-82979965D01*
X89559583Y-83073608D01*
X89524311Y-83167052D01*
X89492996Y-83253647D01*
X89468193Y-83326740D01*
X89452454Y-83379678D01*
X89448332Y-83405811D01*
X89448676Y-83406726D01*
X89462641Y-83428086D01*
X89494322Y-83475084D01*
X89540391Y-83542827D01*
X89597518Y-83626423D01*
X89662373Y-83720982D01*
X89680843Y-83747854D01*
X89746699Y-83845275D01*
X89804650Y-83934163D01*
X89851538Y-84009412D01*
X89884207Y-84065920D01*
X89899500Y-84098581D01*
X89900241Y-84102593D01*
X89887392Y-84123684D01*
X89851888Y-84165464D01*
X89798293Y-84223445D01*
X89731171Y-84293135D01*
X89655087Y-84370045D01*
X89574604Y-84449683D01*
X89494287Y-84527561D01*
X89418699Y-84599186D01*
X89352405Y-84660070D01*
X89299969Y-84705721D01*
X89265955Y-84731650D01*
X89256545Y-84735883D01*
X89234643Y-84725912D01*
X89189800Y-84699020D01*
X89129321Y-84659736D01*
X89082789Y-84628117D01*
X88998475Y-84570098D01*
X88898626Y-84501784D01*
X88798473Y-84433579D01*
X88744627Y-84397075D01*
X88562371Y-84273800D01*
X88409381Y-84356520D01*
X88339682Y-84392759D01*
X88280414Y-84420926D01*
X88240311Y-84436991D01*
X88230103Y-84439226D01*
X88217829Y-84422722D01*
X88193613Y-84376082D01*
X88159263Y-84303609D01*
X88116588Y-84209606D01*
X88067394Y-84098374D01*
X88013490Y-83974215D01*
X87956684Y-83841432D01*
X87898782Y-83704327D01*
X87841593Y-83567202D01*
X87786924Y-83434358D01*
X87736584Y-83310098D01*
X87692380Y-83198725D01*
X87656119Y-83104539D01*
X87629609Y-83031844D01*
X87614658Y-82984941D01*
X87612254Y-82968833D01*
X87631311Y-82948286D01*
X87673036Y-82914933D01*
X87728706Y-82875702D01*
X87733378Y-82872599D01*
X87877264Y-82757423D01*
X87993283Y-82623053D01*
X88080430Y-82473784D01*
X88137699Y-82313913D01*
X88164086Y-82147737D01*
X88158585Y-81979552D01*
X88120190Y-81813655D01*
X88047895Y-81654342D01*
X88026626Y-81619487D01*
X87915996Y-81478737D01*
X87785302Y-81365714D01*
X87639064Y-81281003D01*
X87481808Y-81225194D01*
X87318057Y-81198874D01*
X87152333Y-81202630D01*
X86989162Y-81237050D01*
X86833065Y-81302723D01*
X86688567Y-81400235D01*
X86643869Y-81439813D01*
X86530112Y-81563703D01*
X86447218Y-81694124D01*
X86390356Y-81840315D01*
X86358687Y-81985088D01*
X86350869Y-82147860D01*
X86376938Y-82311440D01*
X86434245Y-82470298D01*
X86520144Y-82618906D01*
X86631986Y-82751735D01*
X86767123Y-82863256D01*
X86784883Y-82875011D01*
X86841150Y-82913508D01*
X86883923Y-82946863D01*
X86904372Y-82968160D01*
X86904669Y-82968833D01*
X86900279Y-82991871D01*
X86882876Y-83044157D01*
X86854268Y-83121390D01*
X86816265Y-83219268D01*
X86770674Y-83333491D01*
X86719303Y-83459758D01*
X86663962Y-83593767D01*
X86606458Y-83731218D01*
X86548601Y-83867808D01*
X86492198Y-83999237D01*
X86439058Y-84121205D01*
X86390990Y-84229409D01*
X86349801Y-84319549D01*
X86317301Y-84387323D01*
X86295297Y-84428430D01*
X86286436Y-84439226D01*
X86259360Y-84430819D01*
X86208697Y-84408272D01*
X86143183Y-84375613D01*
X86107159Y-84356520D01*
X85954168Y-84273800D01*
X85771912Y-84397075D01*
X85678875Y-84460228D01*
X85577015Y-84529727D01*
X85481562Y-84595165D01*
X85433750Y-84628117D01*
X85366505Y-84673273D01*
X85309564Y-84709057D01*
X85270354Y-84730938D01*
X85257619Y-84735563D01*
X85239083Y-84723085D01*
X85198059Y-84688252D01*
X85138525Y-84634678D01*
X85064458Y-84565983D01*
X84979835Y-84485781D01*
X84926315Y-84434286D01*
X84832681Y-84342286D01*
X84751759Y-84259999D01*
X84686823Y-84190945D01*
X84641142Y-84138644D01*
X84617989Y-84106616D01*
X84615768Y-84100116D01*
X84626076Y-84075394D01*
X84654561Y-84025405D01*
X84698063Y-83955212D01*
X84753423Y-83869875D01*
X84817480Y-83774456D01*
X84835697Y-83747854D01*
X84902073Y-83651167D01*
X84961622Y-83564117D01*
X85011016Y-83491595D01*
X85046925Y-83438493D01*
X85066019Y-83409703D01*
X85067864Y-83406726D01*
X85065105Y-83383782D01*
X85050462Y-83333336D01*
X85026487Y-83262041D01*
X84995734Y-83176547D01*
X84960756Y-83083507D01*
X84924107Y-82989574D01*
X84888339Y-82901399D01*
X84856006Y-82825634D01*
X84829662Y-82768931D01*
X84811858Y-82737943D01*
X84810593Y-82736457D01*
X84799706Y-82727601D01*
X84781318Y-82718843D01*
X84751394Y-82709277D01*
X84705897Y-82697996D01*
X84640791Y-82684093D01*
X84552039Y-82666663D01*
X84435607Y-82644798D01*
X84287458Y-82617591D01*
X84255382Y-82611741D01*
X84160314Y-82593374D01*
X84077435Y-82575405D01*
X84014070Y-82559569D01*
X83977542Y-82547600D01*
X83972644Y-82544810D01*
X83964573Y-82520072D01*
X83958013Y-82464790D01*
X83952967Y-82385389D01*
X83949441Y-82288296D01*
X83947439Y-82179938D01*
X83946964Y-82066740D01*
X83948023Y-81955128D01*
X83950618Y-81851529D01*
X83954754Y-81762368D01*
X83960437Y-81694072D01*
X83967669Y-81653066D01*
X83972029Y-81644674D01*
X83996302Y-81636208D01*
X84051574Y-81622435D01*
X84132338Y-81604550D01*
X84233088Y-81583748D01*
X84348317Y-81561223D01*
X84411098Y-81549418D01*
X84530213Y-81527151D01*
X84636435Y-81506979D01*
X84724573Y-81489915D01*
X84789434Y-81476969D01*
X84825826Y-81469155D01*
X84831816Y-81467422D01*
X84841939Y-81447890D01*
X84863338Y-81400843D01*
X84893161Y-81333003D01*
X84928555Y-81251091D01*
X84966668Y-81161828D01*
X85004647Y-81071935D01*
X85039640Y-80988135D01*
X85068794Y-80917147D01*
X85089257Y-80865694D01*
X85098177Y-80840497D01*
X85098343Y-80839396D01*
X85088231Y-80819519D01*
X85059883Y-80773777D01*
X85016277Y-80706717D01*
X84960394Y-80622884D01*
X84895213Y-80526826D01*
X84857321Y-80471650D01*
X84788275Y-80370481D01*
X84726950Y-80278630D01*
X84676337Y-80200744D01*
X84639429Y-80141469D01*
X84619218Y-80105451D01*
X84616299Y-80097377D01*
X84628847Y-80078584D01*
X84663537Y-80038457D01*
X84715937Y-79981493D01*
X84781616Y-79912185D01*
X84856144Y-79835031D01*
X84935087Y-79754525D01*
X85014017Y-79675163D01*
X85088500Y-79601440D01*
X85154106Y-79537852D01*
X85206404Y-79488894D01*
X85240961Y-79459061D01*
X85252522Y-79451942D01*
X85271346Y-79461953D01*
X85316369Y-79490078D01*
X85383213Y-79533454D01*
X85467501Y-79589218D01*
X85564856Y-79654506D01*
X85638293Y-79704246D01*
X86009333Y-79956551D01*
X86627905Y-79701555D01*
X86711725Y-79256931D01*
X86795546Y-78812307D01*
X87720994Y-78812307D01*
X87804814Y-79256931D01*
D14*
%TO.C,SW1*%
X112931000Y-52619000D02*
X112931000Y-46619000D01*
X116431000Y-52619000D02*
X116431000Y-46619000D01*
D12*
%TO.C,C6*%
X109969648Y-83926000D02*
X111392152Y-83926000D01*
X109969648Y-85746000D02*
X111392152Y-85746000D01*
%TO.C,L1*%
X108582500Y-79553400D02*
X108582500Y-78353400D01*
X108582500Y-78353400D02*
X112982500Y-78353400D01*
X108582500Y-82753400D02*
X108582500Y-81553400D01*
X112982500Y-78353400D02*
X112982500Y-79553400D01*
X112982500Y-82753400D02*
X108582500Y-82753400D01*
X112982500Y-81653400D02*
X112982500Y-82753400D01*
%TO.C,R2*%
X126272936Y-52430000D02*
X127727064Y-52430000D01*
X126272936Y-54250000D02*
X127727064Y-54250000D01*
%TO.C,C5*%
X111493752Y-75290000D02*
X110071248Y-75290000D01*
X111493752Y-77110000D02*
X110071248Y-77110000D01*
%TO.C,J2*%
X122696000Y-74670000D02*
X125506000Y-74670000D01*
X125506000Y-87890000D02*
X115286000Y-87890000D01*
X115286000Y-87890000D02*
X115286000Y-84830000D01*
X115286000Y-74670000D02*
X118096000Y-74670000D01*
X119396000Y-74480000D02*
X121396000Y-74480000D01*
X115286000Y-80730000D02*
X115286000Y-74670000D01*
X125506000Y-84830000D02*
X125506000Y-87890000D01*
X125506000Y-74670000D02*
X125506000Y-80730000D01*
%TO.C,U1*%
X104640400Y-54472200D02*
X104640400Y-55472200D01*
X78895400Y-72712200D02*
X78895400Y-54472200D01*
X85315400Y-72712200D02*
X85315400Y-73092200D01*
X103860400Y-54472200D02*
X104640400Y-54472200D01*
X78895400Y-72712200D02*
X85315400Y-72712200D01*
X103860400Y-72712200D02*
X104640400Y-72712200D01*
X78895400Y-54472200D02*
X85315400Y-54472200D01*
X104640400Y-72712200D02*
X104640400Y-71712200D01*
%TO.C,C3*%
X88315852Y-74197800D02*
X86893348Y-74197800D01*
X88315852Y-76017800D02*
X86893348Y-76017800D01*
%TO.C,D1*%
X124341000Y-46308000D02*
X124341000Y-50368000D01*
X126611000Y-50368000D02*
X126611000Y-46308000D01*
X126611000Y-46308000D02*
X124341000Y-46308000D01*
%TO.C,C4*%
X131067000Y-76224000D02*
X131067000Y-77085000D01*
X130947000Y-76224000D02*
X130947000Y-77188000D01*
X131347000Y-73579000D02*
X131347000Y-74144000D01*
X130867000Y-73119000D02*
X130867000Y-74144000D01*
X129866000Y-72664000D02*
X129866000Y-74144000D01*
X130347000Y-76224000D02*
X130347000Y-77549000D01*
X130787000Y-73062000D02*
X130787000Y-74144000D01*
X130187000Y-72756000D02*
X130187000Y-74144000D01*
X129906000Y-76224000D02*
X129906000Y-77695000D01*
X130467000Y-76224000D02*
X130467000Y-77494000D01*
X130227000Y-76224000D02*
X130227000Y-77598000D01*
X130947000Y-73180000D02*
X130947000Y-74144000D01*
X129586000Y-76224000D02*
X129586000Y-77749000D01*
X131467000Y-76224000D02*
X131467000Y-76627000D01*
X129506000Y-72611000D02*
X129506000Y-77757000D01*
X130707000Y-76224000D02*
X130707000Y-77359000D01*
X129666000Y-76224000D02*
X129666000Y-77740000D01*
X130227000Y-72770000D02*
X130227000Y-74144000D01*
X131227000Y-73441000D02*
X131227000Y-74144000D01*
X131587000Y-73933000D02*
X131587000Y-74144000D01*
X130507000Y-72894000D02*
X130507000Y-74144000D01*
X131507000Y-76224000D02*
X131507000Y-76567000D01*
X131747000Y-74269000D02*
X131747000Y-76099000D01*
X130587000Y-76224000D02*
X130587000Y-77431000D01*
X129386000Y-72605000D02*
X129386000Y-77763000D01*
X131627000Y-74006000D02*
X131627000Y-76362000D01*
X131787000Y-74379000D02*
X131787000Y-75989000D01*
X130787000Y-76224000D02*
X130787000Y-77306000D01*
X130987000Y-76224000D02*
X130987000Y-77155000D01*
X130667000Y-72984000D02*
X130667000Y-74144000D01*
X131307000Y-73531000D02*
X131307000Y-74144000D01*
X130107000Y-76224000D02*
X130107000Y-77639000D01*
X131187000Y-73399000D02*
X131187000Y-74144000D01*
X131707000Y-74173000D02*
X131707000Y-76195000D01*
X131827000Y-74507000D02*
X131827000Y-75861000D01*
X129986000Y-72693000D02*
X129986000Y-74144000D01*
X130267000Y-72786000D02*
X130267000Y-74144000D01*
X129866000Y-76224000D02*
X129866000Y-77704000D01*
X130827000Y-76224000D02*
X130827000Y-77279000D01*
X131587000Y-76224000D02*
X131587000Y-76435000D01*
X131547000Y-73865000D02*
X131547000Y-74144000D01*
X131027000Y-76224000D02*
X131027000Y-77121000D01*
X131667000Y-74086000D02*
X131667000Y-76282000D01*
X130547000Y-72916000D02*
X130547000Y-74144000D01*
X129546000Y-76224000D02*
X129546000Y-77753000D01*
X131467000Y-73741000D02*
X131467000Y-74144000D01*
X129306000Y-72604000D02*
X129306000Y-77764000D01*
X131267000Y-76224000D02*
X131267000Y-76883000D01*
X131227000Y-76224000D02*
X131227000Y-76927000D01*
X129666000Y-72628000D02*
X129666000Y-74144000D01*
X131427000Y-76224000D02*
X131427000Y-76684000D01*
X130387000Y-72836000D02*
X130387000Y-74144000D01*
X131507000Y-73801000D02*
X131507000Y-74144000D01*
X129466000Y-72608000D02*
X129466000Y-77760000D01*
X131427000Y-73684000D02*
X131427000Y-74144000D01*
X129586000Y-72619000D02*
X129586000Y-74144000D01*
X129786000Y-72648000D02*
X129786000Y-74144000D01*
X130547000Y-76224000D02*
X130547000Y-77452000D01*
X130987000Y-73213000D02*
X130987000Y-74144000D01*
X129626000Y-76224000D02*
X129626000Y-77745000D01*
X130907000Y-76224000D02*
X130907000Y-77219000D01*
X131027000Y-73247000D02*
X131027000Y-74144000D01*
X129546000Y-72615000D02*
X129546000Y-74144000D01*
X131107000Y-76224000D02*
X131107000Y-77048000D01*
X129786000Y-76224000D02*
X129786000Y-77720000D01*
X131547000Y-76224000D02*
X131547000Y-76503000D01*
X130067000Y-72716000D02*
X130067000Y-74144000D01*
X126501225Y-73709000D02*
X127001225Y-73709000D01*
X131107000Y-73320000D02*
X131107000Y-74144000D01*
X129946000Y-72683000D02*
X129946000Y-74144000D01*
X130627000Y-76224000D02*
X130627000Y-77408000D01*
X130427000Y-76224000D02*
X130427000Y-77513000D01*
X129746000Y-72641000D02*
X129746000Y-74144000D01*
X131307000Y-76224000D02*
X131307000Y-76837000D01*
X130467000Y-72874000D02*
X130467000Y-74144000D01*
X131387000Y-76224000D02*
X131387000Y-76738000D01*
X131067000Y-73283000D02*
X131067000Y-74144000D01*
X130347000Y-72819000D02*
X130347000Y-74144000D01*
X130707000Y-73009000D02*
X130707000Y-74144000D01*
X130747000Y-76224000D02*
X130747000Y-77333000D01*
X131907000Y-74900000D02*
X131907000Y-75468000D01*
X131147000Y-76224000D02*
X131147000Y-77010000D01*
X131147000Y-73358000D02*
X131147000Y-74144000D01*
X131387000Y-73630000D02*
X131387000Y-74144000D01*
X130667000Y-76224000D02*
X130667000Y-77384000D01*
X130067000Y-76224000D02*
X130067000Y-77652000D01*
X129626000Y-72623000D02*
X129626000Y-74144000D01*
X130307000Y-76224000D02*
X130307000Y-77566000D01*
X130427000Y-72855000D02*
X130427000Y-74144000D01*
X129906000Y-72673000D02*
X129906000Y-74144000D01*
X131187000Y-76224000D02*
X131187000Y-76969000D01*
X131867000Y-74666000D02*
X131867000Y-75702000D01*
X130747000Y-73035000D02*
X130747000Y-74144000D01*
X130147000Y-76224000D02*
X130147000Y-77626000D01*
X129706000Y-76224000D02*
X129706000Y-77734000D01*
X130907000Y-73149000D02*
X130907000Y-74144000D01*
X130867000Y-76224000D02*
X130867000Y-77249000D01*
X130627000Y-72960000D02*
X130627000Y-74144000D01*
X129706000Y-72634000D02*
X129706000Y-74144000D01*
X130387000Y-76224000D02*
X130387000Y-77532000D01*
X131267000Y-73485000D02*
X131267000Y-74144000D01*
X129426000Y-72606000D02*
X129426000Y-77762000D01*
X130587000Y-72937000D02*
X130587000Y-74144000D01*
X126751225Y-73459000D02*
X126751225Y-73959000D01*
X130107000Y-72729000D02*
X130107000Y-74144000D01*
X129986000Y-76224000D02*
X129986000Y-77675000D01*
X130147000Y-72742000D02*
X130147000Y-74144000D01*
X130027000Y-76224000D02*
X130027000Y-77664000D01*
X129826000Y-76224000D02*
X129826000Y-77712000D01*
X130307000Y-72802000D02*
X130307000Y-74144000D01*
X129946000Y-76224000D02*
X129946000Y-77685000D01*
X129346000Y-72604000D02*
X129346000Y-77764000D01*
X130187000Y-76224000D02*
X130187000Y-77612000D01*
X130827000Y-73089000D02*
X130827000Y-74144000D01*
X130507000Y-76224000D02*
X130507000Y-77474000D01*
X131347000Y-76224000D02*
X131347000Y-76789000D01*
X129746000Y-76224000D02*
X129746000Y-77727000D01*
X130267000Y-76224000D02*
X130267000Y-77582000D01*
X130027000Y-72704000D02*
X130027000Y-74144000D01*
X129826000Y-72656000D02*
X129826000Y-74144000D01*
X131926000Y-75184000D02*
G75*
G03*
X131926000Y-75184000I-2620000J0D01*
G01*
%TO.C,D2*%
X122039000Y-46308000D02*
X119769000Y-46308000D01*
X119769000Y-46308000D02*
X119769000Y-50368000D01*
X122039000Y-50368000D02*
X122039000Y-46308000D01*
%TO.C,J1*%
X91253000Y-49971000D02*
X91253000Y-48641000D01*
X98993000Y-49971000D02*
X98993000Y-47311000D01*
X93853000Y-49971000D02*
X93853000Y-47311000D01*
X93853000Y-49971000D02*
X98993000Y-49971000D01*
X92583000Y-49971000D02*
X91253000Y-49971000D01*
X93853000Y-47311000D02*
X98993000Y-47311000D01*
%TO.C,C2*%
X88315852Y-78557800D02*
X86893348Y-78557800D01*
X88315852Y-76737800D02*
X86893348Y-76737800D01*
%TO.C,R3*%
X120176936Y-52430000D02*
X121631064Y-52430000D01*
X120176936Y-54250000D02*
X121631064Y-54250000D01*
D10*
%TO.C,REF\u002A\u002A*%
X129064000Y-79323000D02*
X129964000Y-79323000D01*
X131064000Y-79323000D02*
X133064000Y-79323000D01*
X131739000Y-78573000D02*
G75*
G03*
X131814000Y-79998000I-675000J-750000D01*
G01*
X134989000Y-79323000D02*
G75*
G03*
X134989000Y-79323000I-925000J0D01*
G01*
D15*
X131239000Y-79323000D02*
G75*
G03*
X131239000Y-79323000I-175000J0D01*
G01*
D10*
X128989000Y-79323000D02*
G75*
G03*
X128989000Y-79323000I-925000J0D01*
G01*
D12*
%TO.C,R1*%
X96104064Y-78507000D02*
X94649936Y-78507000D01*
X96104064Y-76687000D02*
X94649936Y-76687000D01*
%TO.C,U2*%
X104806500Y-86979900D02*
X107256500Y-86979900D01*
X99076500Y-86649900D02*
X99076500Y-74709900D01*
X106926500Y-86649900D02*
X99076500Y-86649900D01*
X107256500Y-86979900D02*
X107256500Y-84649900D01*
X99076500Y-74709900D02*
X106926500Y-74709900D01*
X106926500Y-74709900D02*
X106926500Y-86649900D01*
%TO.C,C1*%
X94665748Y-75967000D02*
X96088252Y-75967000D01*
X94665748Y-74147000D02*
X96088252Y-74147000D01*
D14*
%TO.C,SW2*%
X110081000Y-52619000D02*
X110081000Y-46619000D01*
X106581000Y-52619000D02*
X106581000Y-46619000D01*
%TD*%
%LPC*%
D16*
%TO.C,A1*%
X109474000Y-70856000D03*
D17*
X112014000Y-70856000D03*
X114554000Y-70856000D03*
X117094000Y-70856000D03*
X119634000Y-70856000D03*
X122174000Y-70856000D03*
X124714000Y-70856000D03*
X127254000Y-70856000D03*
X127254000Y-58156000D03*
X124714000Y-58156000D03*
X122174000Y-58156000D03*
X119634000Y-58156000D03*
X117094000Y-58156000D03*
X114554000Y-58156000D03*
X112014000Y-58156000D03*
X109474000Y-58156000D03*
%TD*%
D18*
%TO.C,H3*%
X81280000Y-84445000D03*
%TD*%
D19*
%TO.C,SW1*%
X114681000Y-52819000D03*
X114681000Y-46419000D03*
%TD*%
D20*
%TO.C,C6*%
X112243400Y-84836000D03*
X109118400Y-84836000D03*
%TD*%
D21*
%TO.C,L1*%
X112832500Y-80553400D03*
X108732500Y-80553400D03*
%TD*%
D22*
%TO.C,R2*%
X125450000Y-53340000D03*
X128550000Y-53340000D03*
%TD*%
D23*
%TO.C,C5*%
X112345000Y-76200000D03*
X109220000Y-76200000D03*
%TD*%
D24*
%TO.C,J2*%
X115896000Y-82780000D03*
X124896000Y-82780000D03*
D25*
X120396000Y-81780000D03*
D26*
X120396000Y-75780000D03*
D27*
X120396000Y-84780000D03*
%TD*%
D28*
%TO.C,U1*%
X86505400Y-72092200D03*
X87775400Y-72092200D03*
X89045400Y-72092200D03*
X90315400Y-72092200D03*
X91585400Y-72092200D03*
X92855400Y-72092200D03*
X94125400Y-72092200D03*
X95395400Y-72092200D03*
X96665400Y-72092200D03*
X97935400Y-72092200D03*
X99205400Y-72092200D03*
X100475400Y-72092200D03*
X101745400Y-72092200D03*
X103015400Y-72092200D03*
D29*
X104015400Y-69307200D03*
X104015400Y-68037200D03*
X104015400Y-66767200D03*
X104015400Y-65497200D03*
X104015400Y-64227200D03*
X104015400Y-62957200D03*
X104015400Y-61687200D03*
X104015400Y-60417200D03*
X104015400Y-59147200D03*
X104015400Y-57877200D03*
D28*
X103015400Y-55092200D03*
X101745400Y-55092200D03*
X100475400Y-55092200D03*
X99205400Y-55092200D03*
X97935400Y-55092200D03*
X96665400Y-55092200D03*
X95395400Y-55092200D03*
X94125400Y-55092200D03*
X92855400Y-55092200D03*
X91585400Y-55092200D03*
X90315400Y-55092200D03*
X89045400Y-55092200D03*
X87775400Y-55092200D03*
X86505400Y-55092200D03*
D30*
X94005400Y-64592200D03*
%TD*%
D23*
%TO.C,C3*%
X89167100Y-75107800D03*
X86042100Y-75107800D03*
%TD*%
D31*
%TO.C,D1*%
X125476000Y-47280500D03*
X125476000Y-50255500D03*
%TD*%
D16*
%TO.C,C4*%
X128056000Y-75184000D03*
D27*
X130556000Y-75184000D03*
%TD*%
D31*
%TO.C,D2*%
X120904000Y-47280500D03*
X120904000Y-50255500D03*
%TD*%
D18*
%TO.C,H1*%
X81280000Y-47615000D03*
%TD*%
D32*
%TO.C,J1*%
X92583000Y-48641000D03*
D33*
X95123000Y-48641000D03*
X97663000Y-48641000D03*
%TD*%
D23*
%TO.C,C2*%
X89167100Y-77647800D03*
X86042100Y-77647800D03*
%TD*%
D22*
%TO.C,R3*%
X119354000Y-53340000D03*
X122454000Y-53340000D03*
%TD*%
D34*
%TO.C,H2*%
X132080000Y-47615000D03*
%TD*%
%TO.C,H4*%
X132080000Y-84445000D03*
%TD*%
D35*
%TO.C,R1*%
X96927000Y-77597000D03*
X93827000Y-77597000D03*
%TD*%
D32*
%TO.C,J3*%
X132330300Y-60865900D03*
D33*
X132330300Y-63405900D03*
X132330300Y-65945900D03*
X132330300Y-68485900D03*
%TD*%
D36*
%TO.C,U2*%
X104806500Y-83229900D03*
D37*
X104806500Y-80689900D03*
X104806500Y-78149900D03*
%TD*%
D20*
%TO.C,C1*%
X93814500Y-75057000D03*
X96939500Y-75057000D03*
%TD*%
D19*
%TO.C,SW2*%
X108331000Y-52819000D03*
X108331000Y-46419000D03*
%TD*%
M02*
