M48
; DRILL file {KiCad (6.0.1)} date Fri 11 Feb 2022 20:30:24 GMT
; FORMAT={-:-/ absolute / metric / decimal}
; #@! TF.CreationDate,2022-02-11T20:30:24+00:00
; #@! TF.GenerationSoftware,Kicad,Pcbnew,(6.0.1)
; #@! TF.FileFunction,Plated,1,2,PTH
FMAT,2
METRIC
; #@! TA.AperFunction,Plated,PTH,ViaDrill
T1C0.400
; #@! TA.AperFunction,Plated,PTH,ComponentDrill
T2C0.800
; #@! TA.AperFunction,Plated,PTH,ComponentDrill
T3C1.000
; #@! TA.AperFunction,Plated,PTH,ComponentDrill
T4C1.200
; #@! TA.AperFunction,Plated,PTH,ComponentDrill
T5C3.200
%
G90
G05
T1
X85.852Y-79.248
X87.884Y-52.832
X87.884Y-57.404
X87.884Y-69.088
X93.472Y-52.832
X93.472Y-57.404
X97.028Y-69.088
X98.044Y-80.264
X98.044Y-82.296
X98.552Y-75.184
X99.568Y-52.832
X99.568Y-57.404
X100.584Y-69.088
X107.696Y-76.2
X113.792Y-84.836
X118.364Y-55.88
X122.428Y-45.72
X125.12Y-55.88
X127.0Y-45.72
T2
X109.474Y-58.156
X109.474Y-70.856
X112.014Y-58.156
X112.014Y-70.856
X114.554Y-58.156
X114.554Y-70.856
X117.094Y-58.156
X117.094Y-70.856
X119.634Y-58.156
X119.634Y-70.856
X122.174Y-58.156
X122.174Y-70.856
X124.714Y-58.156
X124.714Y-70.856
X127.254Y-58.156
X127.254Y-70.856
X128.056Y-75.184
X130.556Y-75.184
T3
X92.583Y-48.641
X95.123Y-48.641
X97.663Y-48.641
X104.806Y-78.15
X104.806Y-80.69
X104.806Y-83.23
X132.33Y-60.866
X132.33Y-63.406
X132.33Y-65.946
X132.33Y-68.486
T4
X108.331Y-46.419
X108.331Y-52.819
X114.681Y-46.419
X114.681Y-52.819
T5
X132.08Y-47.615
X132.08Y-84.445
T3
X115.896Y-82.03G85X115.896Y-83.53
G05
X119.396Y-75.78G85X121.396Y-75.78
G05
X119.746Y-81.78G85X121.046Y-81.78
G05
X124.896Y-82.03G85X124.896Y-83.53
G05
T0
M30
